<?xml version="1.0" standalone="no"?><!DOCTYPE svg PUBLIC "-//W3C//DTD SVG 1.1//EN" "http://www.w3.org/Graphics/SVG/1.1/DTD/svg11.dtd"><svg id="9c265909-6960-5090-ba60-3ccdb4f5bf9b" xmlns="http://www.w3.org/2000/svg" version="1.1" viewBox="0 0 500 80"><style type="text/css">path{stroke:#ffffff;stroke-width:3.5}</style><path d="M1.75 20.937831301945604 L1.75 20.937831301945604 L1.75 59.06216869805439 L1.75 59.06216869805439 L1.75 20.937831301945604 Z"></path><path d="M6.75 38.595231707359275 L6.75 38.595231707359275 L6.75 41.40476829264073 L6.75 41.40476829264073 L6.75 38.595231707359275 Z"></path><path d="M11.75 39.57659973285143 L11.75 39.57659973285143 L11.75 40.42340026714857 L11.75 40.42340026714857 L11.75 39.57659973285143 Z"></path><path d="M16.75 39.74938106172833 L16.75 39.74938106172833 L16.75 40.25061893827168 L16.75 40.25061893827168 L16.75 39.74938106172833 Z"></path><path d="M21.75 39.84790003519463 L21.75 39.84790003519463 L21.75 40.15209996480537 L21.75 40.15209996480537 L21.75 39.84790003519463 Z"></path><path d="M26.75 39.83867143945945 L26.75 39.83867143945945 L26.75 40.16132856054055 L26.75 40.16132856054055 L26.75 39.83867143945945 Z"></path><path d="M31.75 39.776695971601285 L31.75 39.776695971601285 L31.75 40.223304028398715 L31.75 40.223304028398715 L31.75 39.776695971601285 Z"></path><path d="M36.75 34.39142163524041 L36.75 34.39142163524041 L36.75 45.608578364759595 L36.75 45.608578364759595 L36.75 34.39142163524041 Z"></path><path d="M41.75 38.37842944558693 L41.75 38.37842944558693 L41.75 41.62157055441307 L41.75 41.62157055441307 L41.75 38.37842944558693 Z"></path><path d="M46.75 39.55666884696965 L46.75 39.55666884696965 L46.75 40.44333115303035 L46.75 40.44333115303035 L46.75 39.55666884696965 Z"></path><path d="M51.75 11.627498593429742 L51.75 11.627498593429742 L51.75 68.37250140657025 L51.75 68.37250140657025 L51.75 11.627498593429742 Z"></path><path d="M56.75 13.266061393769125 L56.75 13.266061393769125 L56.75 66.73393860623088 L56.75 66.73393860623088 L56.75 13.266061393769125 Z"></path><path d="M61.75 22.593615769787828 L61.75 22.593615769787828 L61.75 57.40638423021217 L61.75 57.40638423021217 L61.75 22.593615769787828 Z"></path><path d="M66.75 37.058077994747364 L66.75 37.058077994747364 L66.75 42.941922005252636 L66.75 42.941922005252636 L66.75 37.058077994747364 Z"></path><path d="M71.75 39.82479407831107 L71.75 39.82479407831107 L71.75 40.17520592168893 L71.75 40.17520592168893 L71.75 39.82479407831107 Z"></path><path d="M76.75 39.848295015581996 L76.75 39.848295015581996 L76.75 40.15170498441801 L76.75 40.15170498441801 L76.75 39.848295015581996 Z"></path><path d="M81.75 37.96378437985363 L81.75 37.96378437985363 L81.75 42.03621562014637 L81.75 42.03621562014637 L81.75 37.96378437985363 Z"></path><path d="M86.75 39.73931189807404 L86.75 39.73931189807404 L86.75 40.26068810192595 L86.75 40.26068810192595 L86.75 39.73931189807404 Z"></path><path d="M91.75 39.7405629401077 L91.75 39.7405629401077 L91.75 40.2594370598923 L91.75 40.2594370598923 L91.75 39.7405629401077 Z"></path><path d="M96.75 31.863496431657918 L96.75 31.863496431657918 L96.75 48.13650356834208 L96.75 48.13650356834208 L96.75 31.863496431657918 Z"></path><path d="M101.75 38.70744592952445 L101.75 38.70744592952445 L101.75 41.292554070475546 L101.75 41.292554070475546 L101.75 38.70744592952445 Z"></path><path d="M106.75 39.3331577626778 L106.75 39.3331577626778 L106.75 40.6668422373222 L106.75 40.6668422373222 L106.75 39.3331577626778 Z"></path><path d="M111.75 38.94675224034531 L111.75 38.94675224034531 L111.75 41.05324775965469 L111.75 41.05324775965469 L111.75 38.94675224034531 Z"></path><path d="M116.75 39.72650666599375 L116.75 39.72650666599375 L116.75 40.27349333400625 L116.75 40.27349333400625 L116.75 39.72650666599375 Z"></path><path d="M121.75 39.819160621326375 L121.75 39.819160621326375 L121.75 40.180839378673625 L121.75 40.180839378673625 L121.75 39.819160621326375 Z"></path><path d="M126.75 22.472191302974213 L126.75 22.472191302974213 L126.75 57.52780869702579 L126.75 57.52780869702579 L126.75 22.472191302974213 Z"></path><path d="M131.75 37.59289967634354 L131.75 37.59289967634354 L131.75 42.40710032365645 L131.75 42.40710032365645 L131.75 37.59289967634354 Z"></path><path d="M136.75 39.528119396264444 L136.75 39.528119396264444 L136.75 40.47188060373556 L136.75 40.47188060373556 L136.75 39.528119396264444 Z"></path><path d="M141.75 39.47834486688237 L141.75 39.47834486688237 L141.75 40.52165513311763 L141.75 40.52165513311763 L141.75 39.47834486688237 Z"></path><path d="M146.75 39.6380667756674 L146.75 39.6380667756674 L146.75 40.3619332243326 L146.75 40.3619332243326 L146.75 39.6380667756674 Z"></path><path d="M151.75 39.8523001877677 L151.75 39.8523001877677 L151.75 40.1476998122323 L151.75 40.1476998122323 L151.75 39.8523001877677 Z"></path><path d="M156.75 39.81111618520134 L156.75 39.81111618520134 L156.75 40.18888381479866 L156.75 40.18888381479866 L156.75 39.81111618520134 Z"></path><path d="M161.75 32.94525497625143 L161.75 32.94525497625143 L161.75 47.05474502374857 L161.75 47.05474502374857 L161.75 32.94525497625143 Z"></path><path d="M166.75 38.91917942895301 L166.75 38.91917942895301 L166.75 41.08082057104699 L166.75 41.08082057104699 L166.75 38.91917942895301 Z"></path><path d="M171.75 39.69664518259076 L171.75 39.69664518259076 L171.75 40.303354817409236 L171.75 40.303354817409236 L171.75 39.69664518259076 Z"></path><path d="M176.75 13.115073220248966 L176.75 13.115073220248966 L176.75 66.88492677975103 L176.75 66.88492677975103 L176.75 13.115073220248966 Z"></path><path d="M181.75 15.843473416087619 L181.75 15.843473416087619 L181.75 64.15652658391238 L181.75 64.15652658391238 L181.75 15.843473416087619 Z"></path><path d="M186.75 11.739107240516589 L186.75 11.739107240516589 L186.75 68.26089275948341 L186.75 68.26089275948341 L186.75 11.739107240516589 Z"></path><path d="M191.75 36.263037601846364 L191.75 36.263037601846364 L191.75 43.73696239815364 L191.75 43.73696239815364 L191.75 36.263037601846364 Z"></path><path d="M196.75 39.830443402074444 L196.75 39.830443402074444 L196.75 40.16955659792556 L196.75 40.16955659792556 L196.75 39.830443402074444 Z"></path><path d="M201.75 39.82746147877677 L201.75 39.82746147877677 L201.75 40.172538521223224 L201.75 40.172538521223224 L201.75 39.82746147877677 Z"></path><path d="M206.75 36.02784577026275 L206.75 36.02784577026275 L206.75 43.97215422973725 L206.75 43.97215422973725 L206.75 36.02784577026275 Z"></path><path d="M211.75 39.41055218428589 L211.75 39.41055218428589 L211.75 40.58944781571412 L211.75 40.58944781571412 L211.75 39.41055218428589 Z"></path><path d="M216.75 39.59207882848242 L216.75 39.59207882848242 L216.75 40.40792117151757 L216.75 40.40792117151757 L216.75 39.59207882848242 Z"></path><path d="M221.75 16.682005756743596 L221.75 16.682005756743596 L221.75 63.31799424325641 L221.75 63.31799424325641 L221.75 16.682005756743596 Z"></path><path d="M226.75 34.53061949752444 L226.75 34.53061949752444 L226.75 45.46938050247556 L226.75 45.46938050247556 L226.75 34.53061949752444 Z"></path><path d="M231.75 37.57173767816865 L231.75 37.57173767816865 L231.75 42.42826232183135 L231.75 42.42826232183135 L231.75 37.57173767816865 Z"></path><path d="M236.75 38.98389291886075 L236.75 38.98389291886075 L236.75 41.016107081139246 L236.75 41.016107081139246 L236.75 38.98389291886075 Z"></path><path d="M241.75 39.78451025130672 L241.75 39.78451025130672 L241.75 40.21548974869327 L241.75 40.21548974869327 L241.75 39.78451025130672 Z"></path><path d="M246.75 39.827550292776515 L246.75 39.827550292776515 L246.75 40.17244970722348 L246.75 40.17244970722348 L246.75 39.827550292776515 Z"></path><path d="M251.75 39.837606950636584 L251.75 39.837606950636584 L251.75 40.16239304936341 L251.75 40.16239304936341 L251.75 39.837606950636584 Z"></path><path d="M256.75 36.15224891231943 L256.75 36.15224891231943 L256.75 43.847751087680564 L256.75 43.847751087680564 L256.75 36.15224891231943 Z"></path><path d="M261.75 39.17669611795933 L261.75 39.17669611795933 L261.75 40.82330388204066 L261.75 40.82330388204066 L261.75 39.17669611795933 Z"></path><path d="M266.75 39.222223780974915 L266.75 39.222223780974915 L266.75 40.77777621902508 L266.75 40.77777621902508 L266.75 39.222223780974915 Z"></path><path d="M271.75 39.55291215319823 L271.75 39.55291215319823 L271.75 40.44708784680178 L271.75 40.44708784680178 L271.75 39.55291215319823 Z"></path><path d="M276.75 39.78270754662235 L276.75 39.78270754662235 L276.75 40.217292453377645 L276.75 40.217292453377645 L276.75 39.78270754662235 Z"></path><path d="M281.75 39.79346593738501 L281.75 39.79346593738501 L281.75 40.20653406261499 L281.75 40.20653406261499 L281.75 39.79346593738501 Z"></path><path d="M286.75 27.977521322020195 L286.75 27.977521322020195 L286.75 52.022478677979805 L286.75 52.022478677979805 L286.75 27.977521322020195 Z"></path><path d="M291.75 36.69559036400929 L291.75 36.69559036400929 L291.75 43.3044096359907 L291.75 43.3044096359907 L291.75 36.69559036400929 Z"></path><path d="M296.75 39.523619350669655 L296.75 39.523619350669655 L296.75 40.476380649330345 L296.75 40.476380649330345 L296.75 39.523619350669655 Z"></path><path d="M301.75 15.39380481864163 L301.75 15.39380481864163 L301.75 64.60619518135837 L301.75 64.60619518135837 L301.75 15.39380481864163 Z"></path><path d="M306.75 16.126782857701187 L306.75 16.126782857701187 L306.75 63.87321714229881 L306.75 63.87321714229881 L306.75 16.126782857701187 Z"></path><path d="M311.75 20.870736315469188 L311.75 20.870736315469188 L311.75 59.12926368453081 L311.75 59.12926368453081 L311.75 20.870736315469188 Z"></path><path d="M316.75 35.9250909732461 L316.75 35.9250909732461 L316.75 44.0749090267539 L316.75 44.0749090267539 L316.75 35.9250909732461 Z"></path><path d="M321.75 39.76454492831754 L321.75 39.76454492831754 L321.75 40.23545507168246 L321.75 40.23545507168246 L321.75 39.76454492831754 Z"></path><path d="M326.75 39.74242960047966 L326.75 39.74242960047966 L326.75 40.25757039952034 L326.75 40.25757039952034 L326.75 39.74242960047966 Z"></path><path d="M331.75 38.70964591551678 L331.75 38.70964591551678 L331.75 41.29035408448322 L331.75 41.29035408448322 L331.75 38.70964591551678 Z"></path><path d="M336.75 39.57747343836109 L336.75 39.57747343836109 L336.75 40.42252656163892 L336.75 40.42252656163892 L336.75 39.57747343836109 Z"></path><path d="M341.75 39.678252613181904 L341.75 39.678252613181904 L341.75 40.321747386818096 L341.75 40.321747386818096 L341.75 39.678252613181904 Z"></path><path d="M346.75 0 L346.75 0 L346.75 80 L346.75 80 L346.75 0 Z"></path><path d="M351.75 36.27540477050766 L351.75 36.27540477050766 L351.75 43.72459522949234 L351.75 43.72459522949234 L351.75 36.27540477050766 Z"></path><path d="M356.75 38.59755595299033 L356.75 38.59755595299033 L356.75 41.40244404700967 L356.75 41.40244404700967 L356.75 38.59755595299033 Z"></path><path d="M361.75 38.686222563323675 L361.75 38.686222563323675 L361.75 41.313777436676325 L361.75 41.313777436676325 L361.75 38.686222563323675 Z"></path><path d="M366.75 39.76811710786689 L366.75 39.76811710786689 L366.75 40.2318828921331 L366.75 40.2318828921331 L366.75 39.76811710786689 Z"></path><path d="M371.75 39.82893187725231 L371.75 39.82893187725231 L371.75 40.171068122747684 L371.75 40.171068122747684 L371.75 39.82893187725231 Z"></path><path d="M376.75 14.64296605971104 L376.75 14.64296605971104 L376.75 65.35703394028896 L376.75 65.35703394028896 L376.75 14.64296605971104 Z"></path><path d="M381.75 38.316374982443435 L381.75 38.316374982443435 L381.75 41.683625017556565 L381.75 41.683625017556565 L381.75 38.316374982443435 Z"></path><path d="M386.75 39.34023084045406 L386.75 39.34023084045406 L386.75 40.65976915954594 L386.75 40.65976915954594 L386.75 39.34023084045406 Z"></path><path d="M391.75 39.553034449730376 L391.75 39.553034449730376 L391.75 40.446965550269624 L391.75 40.446965550269624 L391.75 39.553034449730376 Z"></path><path d="M396.75 39.71679660767842 L396.75 39.71679660767842 L396.75 40.28320339232159 L396.75 40.28320339232159 L396.75 39.71679660767842 Z"></path><path d="M401.75 39.826298488808874 L401.75 39.826298488808874 L401.75 40.17370151119112 L401.75 40.17370151119112 L401.75 39.826298488808874 Z"></path><path d="M406.75 39.75573727665361 L406.75 39.75573727665361 L406.75 40.244262723346395 L406.75 40.244262723346395 L406.75 39.75573727665361 Z"></path><path d="M411.75 30.869250201103334 L411.75 30.869250201103334 L411.75 49.130749798896666 L411.75 49.130749798896666 L411.75 30.869250201103334 Z"></path><path d="M416.75 37.28886215258198 L416.75 37.28886215258198 L416.75 42.71113784741802 L416.75 42.71113784741802 L416.75 37.28886215258198 Z"></path><path d="M421.75 39.51869591293241 L421.75 39.51869591293241 L421.75 40.481304087067585 L421.75 40.481304087067585 L421.75 39.51869591293241 Z"></path><path d="M426.75 18.652683086823682 L426.75 18.652683086823682 L426.75 61.347316913176314 L426.75 61.347316913176314 L426.75 18.652683086823682 Z"></path><path d="M431.75 15.03367263317148 L431.75 15.03367263317148 L431.75 64.96632736682852 L431.75 64.96632736682852 L431.75 15.03367263317148 Z"></path><path d="M436.75 24.1669482293649 L436.75 24.1669482293649 L436.75 55.8330517706351 L436.75 55.8330517706351 L436.75 24.1669482293649 Z"></path><path d="M441.75 26.417593128088626 L441.75 26.417593128088626 L441.75 53.582406871911374 L441.75 53.582406871911374 L441.75 26.417593128088626 Z"></path><path d="M446.75 39.758316333946425 L446.75 39.758316333946425 L446.75 40.241683666053575 L446.75 40.241683666053575 L446.75 39.758316333946425 Z"></path><path d="M451.75 39.837142748279 L451.75 39.837142748279 L451.75 40.16285725172101 L451.75 40.16285725172101 L451.75 39.837142748279 Z"></path><path d="M456.75 32.29668001935699 L456.75 32.29668001935699 L456.75 47.703319980643016 L456.75 47.703319980643016 L456.75 32.29668001935699 Z"></path><path d="M461.75 39.22208351118286 L461.75 39.22208351118286 L461.75 40.777916488817134 L461.75 40.777916488817134 L461.75 39.22208351118286 Z"></path><path d="M466.75 39.7530495923031 L466.75 39.7530495923031 L466.75 40.24695040769691 L466.75 40.24695040769691 L466.75 39.7530495923031 Z"></path><path d="M471.75 0.6530352187814259 L471.75 0.6530352187814259 L471.75 79.34696478121857 L471.75 79.34696478121857 L471.75 0.6530352187814259 Z"></path><path d="M476.75 36.169332083689945 L476.75 36.169332083689945 L476.75 43.83066791631006 L476.75 43.83066791631006 L476.75 36.169332083689945 Z"></path><path d="M481.75 38.707230025005195 L481.75 38.707230025005195 L481.75 41.292769974994805 L481.75 41.292769974994805 L481.75 38.707230025005195 Z"></path><path d="M486.75 39.731695003715025 L486.75 39.731695003715025 L486.75 40.26830499628498 L486.75 40.26830499628498 L486.75 39.731695003715025 Z"></path><path d="M491.75 39.66375995308652 L491.75 39.66375995308652 L491.75 40.33624004691348 L491.75 40.33624004691348 L491.75 39.66375995308652 Z"></path><path d="M496.75 39.85561105893322 L496.75 39.85561105893322 L496.75 40.14438894106679 L496.75 40.14438894106679 L496.75 39.85561105893322 Z"></path></svg>