<?xml version="1.0" standalone="no"?><!DOCTYPE svg PUBLIC "-//W3C//DTD SVG 1.1//EN" "http://www.w3.org/Graphics/SVG/1.1/DTD/svg11.dtd"><svg id="dd5de6fd-c063-9790-da2f-25214c471f30" xmlns="http://www.w3.org/2000/svg" version="1.1" viewBox="0 0 500 80"><style type="text/css">path{stroke:#ffffff;stroke-width:3.5}</style><path d="M1.75 20.598960064987374 L1.75 20.598960064987374 L1.75 59.401039935012626 L1.75 59.401039935012626 L1.75 20.598960064987374 Z"></path><path d="M6.75 3.665840107946252 L6.75 3.665840107946252 L6.75 76.33415989205375 L6.75 76.33415989205375 L6.75 3.665840107946252 Z"></path><path d="M11.75 24.291994544651192 L11.75 24.291994544651192 L11.75 55.70800545534881 L11.75 55.70800545534881 L11.75 24.291994544651192 Z"></path><path d="M16.75 16.85773307775577 L16.75 16.85773307775577 L16.75 63.14226692224423 L16.75 63.14226692224423 L16.75 16.85773307775577 Z"></path><path d="M21.75 14.670072736444908 L21.75 14.670072736444908 L21.75 65.32992726355509 L21.75 65.32992726355509 L21.75 14.670072736444908 Z"></path><path d="M26.75 8.057740628434583 L26.75 8.057740628434583 L26.75 71.94225937156541 L26.75 71.94225937156541 L26.75 8.057740628434583 Z"></path><path d="M31.75 16.89272103745785 L31.75 16.89272103745785 L31.75 63.10727896254215 L31.75 63.10727896254215 L31.75 16.89272103745785 Z"></path><path d="M36.75 15.53293008544171 L36.75 15.53293008544171 L36.75 64.4670699145583 L36.75 64.4670699145583 L36.75 15.53293008544171 Z"></path><path d="M41.75 24.34721870467829 L41.75 24.34721870467829 L41.75 55.65278129532171 L41.75 55.65278129532171 L41.75 24.34721870467829 Z"></path><path d="M46.75 11.745663635684416 L46.75 11.745663635684416 L46.75 68.25433636431558 L46.75 68.25433636431558 L46.75 11.745663635684416 Z"></path><path d="M51.75 1.3167240767995665 L51.75 1.3167240767995665 L51.75 78.68327592320043 L51.75 78.68327592320043 L51.75 1.3167240767995665 Z"></path><path d="M56.75 15.294804160393507 L56.75 15.294804160393507 L56.75 64.70519583960649 L56.75 64.70519583960649 L56.75 15.294804160393507 Z"></path><path d="M61.75 15.732035108999753 L61.75 15.732035108999753 L61.75 64.26796489100025 L61.75 64.26796489100025 L61.75 15.732035108999753 Z"></path><path d="M66.75 9.138843731465279 L66.75 9.138843731465279 L66.75 70.86115626853473 L66.75 70.86115626853473 L66.75 9.138843731465279 Z"></path><path d="M71.75 1.4299741299164026 L71.75 1.4299741299164026 L71.75 78.5700258700836 L71.75 78.5700258700836 L71.75 1.4299741299164026 Z"></path><path d="M76.75 16.171098997126506 L76.75 16.171098997126506 L76.75 63.828901002873494 L76.75 63.828901002873494 L76.75 16.171098997126506 Z"></path><path d="M81.75 20.9204357991865 L81.75 20.9204357991865 L81.75 59.0795642008135 L81.75 59.0795642008135 L81.75 20.9204357991865 Z"></path><path d="M86.75 8.599934176814653 L86.75 8.599934176814653 L86.75 71.40006582318534 L86.75 71.40006582318534 L86.75 8.599934176814653 Z"></path><path d="M91.75 7.170398261669256 L91.75 7.170398261669256 L91.75 72.82960173833075 L91.75 72.82960173833075 L91.75 7.170398261669256 Z"></path><path d="M96.75 14.442397674484145 L96.75 14.442397674484145 L96.75 65.55760232551586 L96.75 65.55760232551586 L96.75 14.442397674484145 Z"></path><path d="M101.75 19.80897790353821 L101.75 19.80897790353821 L101.75 60.19102209646179 L101.75 60.19102209646179 L101.75 19.80897790353821 Z"></path><path d="M106.75 17.172490894570817 L106.75 17.172490894570817 L106.75 62.827509105429186 L106.75 62.827509105429186 L106.75 17.172490894570817 Z"></path><path d="M111.75 8.995541143589147 L111.75 8.995541143589147 L111.75 71.00445885641085 L111.75 71.00445885641085 L111.75 8.995541143589147 Z"></path><path d="M116.75 0 L116.75 0 L116.75 80 L116.75 80 L116.75 0 Z"></path><path d="M121.75 15.09851699763723 L121.75 15.09851699763723 L121.75 64.90148300236277 L121.75 64.90148300236277 L121.75 15.09851699763723 Z"></path><path d="M126.75 17.42073831718545 L126.75 17.42073831718545 L126.75 62.57926168281455 L126.75 62.57926168281455 L126.75 17.42073831718545 Z"></path><path d="M131.75 12.28357785054554 L131.75 12.28357785054554 L131.75 67.71642214945446 L131.75 67.71642214945446 L131.75 12.28357785054554 Z"></path><path d="M136.75 14.498198490100048 L136.75 14.498198490100048 L136.75 65.50180150989995 L136.75 65.50180150989995 L136.75 14.498198490100048 Z"></path><path d="M141.75 12.212739828705175 L141.75 12.212739828705175 L141.75 67.78726017129483 L141.75 67.78726017129483 L141.75 12.212739828705175 Z"></path><path d="M146.75 20.895878501034456 L146.75 20.895878501034456 L146.75 59.10412149896554 L146.75 59.10412149896554 L146.75 20.895878501034456 Z"></path><path d="M151.75 10.885323121743706 L151.75 10.885323121743706 L151.75 69.11467687825629 L151.75 69.11467687825629 L151.75 10.885323121743706 Z"></path><path d="M156.75 18.945141074335655 L156.75 18.945141074335655 L156.75 61.05485892566435 L156.75 61.05485892566435 L156.75 18.945141074335655 Z"></path><path d="M161.75 17.055520908614564 L161.75 17.055520908614564 L161.75 62.94447909138543 L161.75 62.94447909138543 L161.75 17.055520908614564 Z"></path><path d="M166.75 21.31641999450084 L166.75 21.31641999450084 L166.75 58.68358000549916 L166.75 58.68358000549916 L166.75 21.31641999450084 Z"></path><path d="M171.75 14.172947974490633 L171.75 14.172947974490633 L171.75 65.82705202550937 L171.75 65.82705202550937 L171.75 14.172947974490633 Z"></path><path d="M176.75 11.528574466449165 L176.75 11.528574466449165 L176.75 68.47142553355084 L176.75 68.47142553355084 L176.75 11.528574466449165 Z"></path><path d="M181.75 14.734905152392969 L181.75 14.734905152392969 L181.75 65.26509484760703 L181.75 65.26509484760703 L181.75 14.734905152392969 Z"></path><path d="M186.75 18.679389139967597 L186.75 18.679389139967597 L186.75 61.3206108600324 L186.75 61.3206108600324 L186.75 18.679389139967597 Z"></path><path d="M191.75 1.3925401886617195 L191.75 1.3925401886617195 L191.75 78.60745981133829 L191.75 78.60745981133829 L191.75 1.3925401886617195 Z"></path><path d="M196.75 14.676899282208044 L196.75 14.676899282208044 L196.75 65.32310071779196 L196.75 65.32310071779196 L196.75 14.676899282208044 Z"></path><path d="M201.75 15.688632802684637 L201.75 15.688632802684637 L201.75 64.31136719731536 L201.75 64.31136719731536 L201.75 15.688632802684637 Z"></path><path d="M206.75 18.69746596325334 L206.75 18.69746596325334 L206.75 61.302534036746664 L206.75 61.302534036746664 L206.75 18.69746596325334 Z"></path><path d="M211.75 17.19264297139441 L211.75 17.19264297139441 L211.75 62.807357028605594 L211.75 62.807357028605594 L211.75 17.19264297139441 Z"></path><path d="M216.75 7.823610972549922 L216.75 7.823610972549922 L216.75 72.17638902745009 L216.75 72.17638902745009 L216.75 7.823610972549922 Z"></path><path d="M221.75 15.735552901426228 L221.75 15.735552901426228 L221.75 64.26444709857377 L221.75 64.26444709857377 L221.75 15.735552901426228 Z"></path><path d="M226.75 17.603351870726712 L226.75 17.603351870726712 L226.75 62.39664812927329 L226.75 62.39664812927329 L226.75 17.603351870726712 Z"></path><path d="M231.75 16.727717472366418 L231.75 16.727717472366418 L231.75 63.27228252763358 L231.75 63.27228252763358 L231.75 16.727717472366418 Z"></path><path d="M236.75 11.955284472534426 L236.75 11.955284472534426 L236.75 68.04471552746557 L236.75 68.04471552746557 L236.75 11.955284472534426 Z"></path><path d="M241.75 19.901641676336546 L241.75 19.901641676336546 L241.75 60.098358323663454 L241.75 60.098358323663454 L241.75 19.901641676336546 Z"></path><path d="M246.75 19.75236397098884 L246.75 19.75236397098884 L246.75 60.24763602901116 L246.75 60.24763602901116 L246.75 19.75236397098884 Z"></path><path d="M251.75 16.828462288797827 L251.75 16.828462288797827 L251.75 63.17153771120218 L251.75 63.17153771120218 L251.75 16.828462288797827 Z"></path><path d="M256.75 14.87249454478457 L256.75 14.87249454478457 L256.75 65.12750545521543 L256.75 65.12750545521543 L256.75 14.87249454478457 Z"></path><path d="M261.75 20.428031830670825 L261.75 20.428031830670825 L261.75 59.571968169329175 L261.75 59.571968169329175 L261.75 20.428031830670825 Z"></path><path d="M266.75 23.584789011286368 L266.75 23.584789011286368 L266.75 56.41521098871363 L266.75 56.41521098871363 L266.75 23.584789011286368 Z"></path><path d="M271.75 21.638946322510023 L271.75 21.638946322510023 L271.75 58.36105367748998 L271.75 58.36105367748998 L271.75 21.638946322510023 Z"></path><path d="M276.75 14.75160747776096 L276.75 14.75160747776096 L276.75 65.24839252223904 L276.75 65.24839252223904 L276.75 14.75160747776096 Z"></path><path d="M281.75 17.45255204432494 L281.75 17.45255204432494 L281.75 62.54744795567506 L281.75 62.54744795567506 L281.75 17.45255204432494 Z"></path><path d="M286.75 13.813798028650467 L286.75 13.813798028650467 L286.75 66.18620197134953 L286.75 66.18620197134953 L286.75 13.813798028650467 Z"></path><path d="M291.75 10.144169537487997 L291.75 10.144169537487997 L291.75 69.855830462512 L291.75 69.855830462512 L291.75 10.144169537487997 Z"></path><path d="M296.75 5.1851898769225855 L296.75 5.1851898769225855 L296.75 74.81481012307742 L296.75 74.81481012307742 L296.75 5.1851898769225855 Z"></path><path d="M301.75 10.301244666623436 L301.75 10.301244666623436 L301.75 69.69875533337657 L301.75 69.69875533337657 L301.75 10.301244666623436 Z"></path><path d="M306.75 9.977505059484798 L306.75 9.977505059484798 L306.75 70.0224949405152 L306.75 70.0224949405152 L306.75 9.977505059484798 Z"></path><path d="M311.75 15.12358620088867 L311.75 15.12358620088867 L311.75 64.87641379911133 L311.75 64.87641379911133 L311.75 15.12358620088867 Z"></path><path d="M316.75 21.1341948227178 L316.75 21.1341948227178 L316.75 58.8658051772822 L316.75 58.8658051772822 L316.75 21.1341948227178 Z"></path><path d="M321.75 20.510419658633193 L321.75 20.510419658633193 L321.75 59.4895803413668 L321.75 59.4895803413668 L321.75 20.510419658633193 Z"></path><path d="M326.75 25.35891682742799 L326.75 25.35891682742799 L326.75 54.64108317257201 L326.75 54.64108317257201 L326.75 25.35891682742799 Z"></path><path d="M331.75 23.705458720917946 L331.75 23.705458720917946 L331.75 56.294541279082054 L331.75 56.294541279082054 L331.75 23.705458720917946 Z"></path><path d="M336.75 19.48850185670729 L336.75 19.48850185670729 L336.75 60.51149814329271 L336.75 60.51149814329271 L336.75 19.48850185670729 Z"></path><path d="M341.75 23.170438316638794 L341.75 23.170438316638794 L341.75 56.829561683361206 L341.75 56.829561683361206 L341.75 23.170438316638794 Z"></path><path d="M346.75 25.219698720629076 L346.75 25.219698720629076 L346.75 54.78030127937093 L346.75 54.78030127937093 L346.75 25.219698720629076 Z"></path><path d="M351.75 25.288172735378517 L351.75 25.288172735378517 L351.75 54.71182726462148 L351.75 54.71182726462148 L351.75 25.288172735378517 Z"></path><path d="M356.75 24.337942974522754 L356.75 24.337942974522754 L356.75 55.662057025477246 L356.75 55.662057025477246 L356.75 24.337942974522754 Z"></path><path d="M361.75 15.515516589536485 L361.75 15.515516589536485 L361.75 64.48448341046351 L361.75 64.48448341046351 L361.75 15.515516589536485 Z"></path><path d="M366.75 18.374944799779154 L366.75 18.374944799779154 L366.75 61.62505520022084 L366.75 61.62505520022084 L366.75 18.374944799779154 Z"></path><path d="M371.75 17.292497881725474 L371.75 17.292497881725474 L371.75 62.707502118274526 L371.75 62.707502118274526 L371.75 17.292497881725474 Z"></path><path d="M376.75 17.059264918556913 L376.75 17.059264918556913 L376.75 62.94073508144309 L376.75 62.94073508144309 L376.75 17.059264918556913 Z"></path><path d="M381.75 24.627713249872283 L381.75 24.627713249872283 L381.75 55.372286750127714 L381.75 55.372286750127714 L381.75 24.627713249872283 Z"></path><path d="M386.75 25.686639697211955 L386.75 25.686639697211955 L386.75 54.31336030278804 L386.75 54.31336030278804 L386.75 25.686639697211955 Z"></path><path d="M391.75 29.28247259063914 L391.75 29.28247259063914 L391.75 50.717527409360855 L391.75 50.717527409360855 L391.75 29.28247259063914 Z"></path><path d="M396.75 17.39194919980638 L396.75 17.39194919980638 L396.75 62.608050800193624 L396.75 62.608050800193624 L396.75 17.39194919980638 Z"></path><path d="M401.75 15.144552055216131 L401.75 15.144552055216131 L401.75 64.85544794478386 L401.75 64.85544794478386 L401.75 15.144552055216131 Z"></path><path d="M406.75 26.36954094386165 L406.75 26.36954094386165 L406.75 53.63045905613835 L406.75 53.63045905613835 L406.75 26.36954094386165 Z"></path><path d="M411.75 24.027496711621144 L411.75 24.027496711621144 L411.75 55.97250328837886 L411.75 55.97250328837886 L411.75 24.027496711621144 Z"></path><path d="M416.75 17.28854320779536 L416.75 17.28854320779536 L416.75 62.71145679220464 L416.75 62.71145679220464 L416.75 17.28854320779536 Z"></path><path d="M421.75 14.336827411897453 L421.75 14.336827411897453 L421.75 65.66317258810255 L421.75 65.66317258810255 L421.75 14.336827411897453 Z"></path><path d="M426.75 22.56630244187127 L426.75 22.56630244187127 L426.75 57.43369755812873 L426.75 57.43369755812873 L426.75 22.56630244187127 Z"></path><path d="M431.75 27.831586043017367 L431.75 27.831586043017367 L431.75 52.16841395698263 L431.75 52.16841395698263 L431.75 27.831586043017367 Z"></path><path d="M436.75 23.260588499188593 L436.75 23.260588499188593 L436.75 56.73941150081141 L436.75 56.73941150081141 L436.75 23.260588499188593 Z"></path><path d="M441.75 15.038762925632614 L441.75 15.038762925632614 L441.75 64.96123707436739 L441.75 64.96123707436739 L441.75 15.038762925632614 Z"></path><path d="M446.75 16.722795796460513 L446.75 16.722795796460513 L446.75 63.27720420353948 L446.75 63.27720420353948 L446.75 16.722795796460513 Z"></path><path d="M451.75 23.221736692095714 L451.75 23.221736692095714 L451.75 56.77826330790428 L451.75 56.77826330790428 L451.75 23.221736692095714 Z"></path><path d="M456.75 27.847542828817026 L456.75 27.847542828817026 L456.75 52.152457171182974 L456.75 52.152457171182974 L456.75 27.847542828817026 Z"></path><path d="M461.75 25.080959249558777 L461.75 25.080959249558777 L461.75 54.919040750441226 L461.75 54.919040750441226 L461.75 25.080959249558777 Z"></path><path d="M466.75 13.441022764883005 L466.75 13.441022764883005 L466.75 66.558977235117 L466.75 66.558977235117 L466.75 13.441022764883005 Z"></path><path d="M471.75 20.944441596215814 L471.75 20.944441596215814 L471.75 59.05555840378419 L471.75 59.05555840378419 L471.75 20.944441596215814 Z"></path><path d="M476.75 22.008437054211736 L476.75 22.008437054211736 L476.75 57.99156294578826 L476.75 57.99156294578826 L476.75 22.008437054211736 Z"></path><path d="M481.75 21.49784030869438 L481.75 21.49784030869438 L481.75 58.50215969130562 L481.75 58.50215969130562 L481.75 21.49784030869438 Z"></path><path d="M486.75 21.47187117671444 L486.75 21.47187117671444 L486.75 58.528128823285556 L486.75 58.528128823285556 L486.75 21.47187117671444 Z"></path><path d="M491.75 25.10526275320619 L491.75 25.10526275320619 L491.75 54.89473724679381 L491.75 54.89473724679381 L491.75 25.10526275320619 Z"></path><path d="M496.75 24.4787907186925 L496.75 24.4787907186925 L496.75 55.5212092813075 L496.75 55.5212092813075 L496.75 24.4787907186925 Z"></path></svg>