<?xml version="1.0" standalone="no"?><!DOCTYPE svg PUBLIC "-//W3C//DTD SVG 1.1//EN" "http://www.w3.org/Graphics/SVG/1.1/DTD/svg11.dtd"><svg id="61d9c0dc-c602-8d25-d9b2-86d5e667eff7" xmlns="http://www.w3.org/2000/svg" version="1.1" viewBox="0 0 500 80"><style type="text/css">path{stroke:#ffffff;stroke-width:3.5}</style><path d="M1.75 22.822792461176277 L1.75 22.822792461176277 L1.75 57.17720753882372 L1.75 57.17720753882372 L1.75 22.822792461176277 Z"></path><path d="M6.75 18.795062790267334 L6.75 18.795062790267334 L6.75 61.20493720973266 L6.75 61.20493720973266 L6.75 18.795062790267334 Z"></path><path d="M11.75 17.50413219238777 L11.75 17.50413219238777 L11.75 62.49586780761223 L11.75 62.49586780761223 L11.75 17.50413219238777 Z"></path><path d="M16.75 29.78636975488411 L16.75 29.78636975488411 L16.75 50.213630245115894 L16.75 50.213630245115894 L16.75 29.78636975488411 Z"></path><path d="M21.75 24.4938640218164 L21.75 24.4938640218164 L21.75 55.50613597818359 L21.75 55.50613597818359 L21.75 24.4938640218164 Z"></path><path d="M26.75 26.67806450225151 L26.75 26.67806450225151 L26.75 53.32193549774849 L26.75 53.32193549774849 L26.75 26.67806450225151 Z"></path><path d="M31.75 39.02199215988073 L31.75 39.02199215988073 L31.75 40.97800784011927 L31.75 40.97800784011927 L31.75 39.02199215988073 Z"></path><path d="M36.75 16.151422044340713 L36.75 16.151422044340713 L36.75 63.84857795565929 L36.75 63.84857795565929 L36.75 16.151422044340713 Z"></path><path d="M41.75 18.857052433478795 L41.75 18.857052433478795 L41.75 61.1429475665212 L41.75 61.1429475665212 L41.75 18.857052433478795 Z"></path><path d="M46.75 20.694801007775265 L46.75 20.694801007775265 L46.75 59.30519899222473 L46.75 59.30519899222473 L46.75 20.694801007775265 Z"></path><path d="M51.75 16.41911175108378 L51.75 16.41911175108378 L51.75 63.580888248916224 L51.75 63.580888248916224 L51.75 16.41911175108378 Z"></path><path d="M56.75 18.737629913803097 L56.75 18.737629913803097 L56.75 61.2623700861969 L56.75 61.2623700861969 L56.75 18.737629913803097 Z"></path><path d="M61.75 19.87619396009843 L61.75 19.87619396009843 L61.75 60.12380603990157 L61.75 60.12380603990157 L61.75 19.87619396009843 Z"></path><path d="M66.75 10.130748264067979 L66.75 10.130748264067979 L66.75 69.86925173593202 L66.75 69.86925173593202 L66.75 10.130748264067979 Z"></path><path d="M71.75 15.387873404774773 L71.75 15.387873404774773 L71.75 64.61212659522522 L71.75 64.61212659522522 L71.75 15.387873404774773 Z"></path><path d="M76.75 16.933770338723235 L76.75 16.933770338723235 L76.75 63.066229661276765 L76.75 63.066229661276765 L76.75 16.933770338723235 Z"></path><path d="M81.75 23.460338409637107 L81.75 23.460338409637107 L81.75 56.5396615903629 L81.75 56.5396615903629 L81.75 23.460338409637107 Z"></path><path d="M86.75 16.76941729353784 L86.75 16.76941729353784 L86.75 63.23058270646216 L86.75 63.23058270646216 L86.75 16.76941729353784 Z"></path><path d="M91.75 27.237306184203952 L91.75 27.237306184203952 L91.75 52.762693815796055 L91.75 52.762693815796055 L91.75 27.237306184203952 Z"></path><path d="M96.75 24.94214417629821 L96.75 24.94214417629821 L96.75 55.057855823701786 L96.75 55.057855823701786 L96.75 24.94214417629821 Z"></path><path d="M101.75 21.273785777965795 L101.75 21.273785777965795 L101.75 58.7262142220342 L101.75 58.7262142220342 L101.75 21.273785777965795 Z"></path><path d="M106.75 22.75589310985704 L106.75 22.75589310985704 L106.75 57.24410689014296 L106.75 57.24410689014296 L106.75 22.75589310985704 Z"></path><path d="M111.75 21.111928507879245 L111.75 21.111928507879245 L111.75 58.88807149212076 L111.75 58.88807149212076 L111.75 21.111928507879245 Z"></path><path d="M116.75 27.250711600185916 L116.75 27.250711600185916 L116.75 52.749288399814084 L116.75 52.749288399814084 L116.75 27.250711600185916 Z"></path><path d="M121.75 29.699405600069753 L121.75 29.699405600069753 L121.75 50.30059439993025 L121.75 50.30059439993025 L121.75 29.699405600069753 Z"></path><path d="M126.75 24.55566478134568 L126.75 24.55566478134568 L126.75 55.44433521865432 L126.75 55.44433521865432 L126.75 24.55566478134568 Z"></path><path d="M131.75 15.292862752318918 L131.75 15.292862752318918 L131.75 64.70713724768109 L131.75 64.70713724768109 L131.75 15.292862752318918 Z"></path><path d="M136.75 9.90627263629294 L136.75 9.90627263629294 L136.75 70.09372736370706 L136.75 70.09372736370706 L136.75 9.90627263629294 Z"></path><path d="M141.75 18.869060940282818 L141.75 18.869060940282818 L141.75 61.13093905971718 L141.75 61.13093905971718 L141.75 18.869060940282818 Z"></path><path d="M146.75 19.82698553657726 L146.75 19.82698553657726 L146.75 60.17301446342274 L146.75 60.17301446342274 L146.75 19.82698553657726 Z"></path><path d="M151.75 17.856112881194445 L151.75 17.856112881194445 L151.75 62.14388711880555 L151.75 62.14388711880555 L151.75 17.856112881194445 Z"></path><path d="M156.75 27.159335962479098 L156.75 27.159335962479098 L156.75 52.8406640375209 L156.75 52.8406640375209 L156.75 27.159335962479098 Z"></path><path d="M161.75 15.563003171189852 L161.75 15.563003171189852 L161.75 64.43699682881015 L161.75 64.43699682881015 L161.75 15.563003171189852 Z"></path><path d="M166.75 20.471147643225347 L166.75 20.471147643225347 L166.75 59.52885235677465 L166.75 59.52885235677465 L166.75 20.471147643225347 Z"></path><path d="M171.75 22.272699600916983 L171.75 22.272699600916983 L171.75 57.72730039908302 L171.75 57.72730039908302 L171.75 22.272699600916983 Z"></path><path d="M176.75 12.258025419534842 L176.75 12.258025419534842 L176.75 67.74197458046515 L176.75 67.74197458046515 L176.75 12.258025419534842 Z"></path><path d="M181.75 16.44045102948306 L181.75 16.44045102948306 L181.75 63.55954897051694 L181.75 63.55954897051694 L181.75 16.44045102948306 Z"></path><path d="M186.75 20.398456153139566 L186.75 20.398456153139566 L186.75 59.60154384686044 L186.75 59.60154384686044 L186.75 20.398456153139566 Z"></path><path d="M191.75 18.996215617557844 L191.75 18.996215617557844 L191.75 61.003784382442156 L191.75 61.003784382442156 L191.75 18.996215617557844 Z"></path><path d="M196.75 22.45479012092755 L196.75 22.45479012092755 L196.75 57.545209879072445 L196.75 57.545209879072445 L196.75 22.45479012092755 Z"></path><path d="M201.75 17.804404750585697 L201.75 17.804404750585697 L201.75 62.1955952494143 L201.75 62.1955952494143 L201.75 17.804404750585697 Z"></path><path d="M206.75 17.09528504424267 L206.75 17.09528504424267 L206.75 62.90471495575733 L206.75 62.90471495575733 L206.75 17.09528504424267 Z"></path><path d="M211.75 17.16015483329447 L211.75 17.16015483329447 L211.75 62.83984516670553 L211.75 62.83984516670553 L211.75 17.16015483329447 Z"></path><path d="M216.75 22.624684677532223 L216.75 22.624684677532223 L216.75 57.37531532246778 L216.75 57.37531532246778 L216.75 22.624684677532223 Z"></path><path d="M221.75 30.177615581237166 L221.75 30.177615581237166 L221.75 49.82238441876284 L221.75 49.82238441876284 L221.75 30.177615581237166 Z"></path><path d="M226.75 25.81269772488577 L226.75 25.81269772488577 L226.75 54.187302275114234 L226.75 54.187302275114234 L226.75 25.81269772488577 Z"></path><path d="M231.75 30.388053821886153 L231.75 30.388053821886153 L231.75 49.61194617811384 L231.75 49.61194617811384 L231.75 30.388053821886153 Z"></path><path d="M236.75 37.66871529336781 L236.75 37.66871529336781 L236.75 42.33128470663219 L236.75 42.33128470663219 L236.75 37.66871529336781 Z"></path><path d="M241.75 34.30305638006203 L241.75 34.30305638006203 L241.75 45.69694361993797 L241.75 45.69694361993797 L241.75 34.30305638006203 Z"></path><path d="M246.75 33.58767589663011 L246.75 33.58767589663011 L246.75 46.4123241033699 L246.75 46.4123241033699 L246.75 33.58767589663011 Z"></path><path d="M251.75 25.855395832513555 L251.75 25.855395832513555 L251.75 54.14460416748645 L251.75 54.14460416748645 L251.75 25.855395832513555 Z"></path><path d="M256.75 19.0720945701884 L256.75 19.0720945701884 L256.75 60.9279054298116 L256.75 60.9279054298116 L256.75 19.0720945701884 Z"></path><path d="M261.75 15.444343221803589 L261.75 15.444343221803589 L261.75 64.55565677819641 L261.75 64.55565677819641 L261.75 15.444343221803589 Z"></path><path d="M266.75 28.37105924668476 L266.75 28.37105924668476 L266.75 51.62894075331524 L266.75 51.62894075331524 L266.75 28.37105924668476 Z"></path><path d="M271.75 21.555582548084356 L271.75 21.555582548084356 L271.75 58.44441745191564 L271.75 58.44441745191564 L271.75 21.555582548084356 Z"></path><path d="M276.75 21.808095047027244 L276.75 21.808095047027244 L276.75 58.191904952972756 L276.75 58.191904952972756 L276.75 21.808095047027244 Z"></path><path d="M281.75 39.00798316185916 L281.75 39.00798316185916 L281.75 40.992016838140835 L281.75 40.992016838140835 L281.75 39.00798316185916 Z"></path><path d="M286.75 9.200633825731696 L286.75 9.200633825731696 L286.75 70.7993661742683 L286.75 70.7993661742683 L286.75 9.200633825731696 Z"></path><path d="M291.75 17.810253340164113 L291.75 17.810253340164113 L291.75 62.18974665983589 L291.75 62.18974665983589 L291.75 17.810253340164113 Z"></path><path d="M296.75 24.293518928873524 L296.75 24.293518928873524 L296.75 55.706481071126476 L296.75 55.706481071126476 L296.75 24.293518928873524 Z"></path><path d="M301.75 14.605363938200064 L301.75 14.605363938200064 L301.75 65.39463606179993 L301.75 65.39463606179993 L301.75 14.605363938200064 Z"></path><path d="M306.75 22.20176739629438 L306.75 22.20176739629438 L306.75 57.79823260370562 L306.75 57.79823260370562 L306.75 22.20176739629438 Z"></path><path d="M311.75 19.448933067771016 L311.75 19.448933067771016 L311.75 60.551066932228984 L311.75 60.551066932228984 L311.75 19.448933067771016 Z"></path><path d="M316.75 12.977049327307668 L316.75 12.977049327307668 L316.75 67.02295067269233 L316.75 67.02295067269233 L316.75 12.977049327307668 Z"></path><path d="M321.75 12.11752577179817 L321.75 12.11752577179817 L321.75 67.88247422820183 L321.75 67.88247422820183 L321.75 12.11752577179817 Z"></path><path d="M326.75 15.843375743856676 L326.75 15.843375743856676 L326.75 64.15662425614332 L326.75 64.15662425614332 L326.75 15.843375743856676 Z"></path><path d="M331.75 22.76282217858114 L331.75 22.76282217858114 L331.75 57.23717782141886 L331.75 57.23717782141886 L331.75 22.76282217858114 Z"></path><path d="M336.75 14.46431483037038 L336.75 14.46431483037038 L336.75 65.53568516962962 L336.75 65.53568516962962 L336.75 14.46431483037038 Z"></path><path d="M341.75 16.583885292444304 L341.75 16.583885292444304 L341.75 63.41611470755569 L341.75 63.41611470755569 L341.75 16.583885292444304 Z"></path><path d="M346.75 24.894120702778082 L346.75 24.894120702778082 L346.75 55.10587929722192 L346.75 55.10587929722192 L346.75 24.894120702778082 Z"></path><path d="M351.75 26.590039520887473 L351.75 26.590039520887473 L351.75 53.40996047911253 L351.75 53.40996047911253 L351.75 26.590039520887473 Z"></path><path d="M356.75 22.568340664290616 L356.75 22.568340664290616 L356.75 57.431659335709384 L356.75 57.431659335709384 L356.75 22.568340664290616 Z"></path><path d="M361.75 26.011029630291276 L361.75 26.011029630291276 L361.75 53.988970369708724 L361.75 53.988970369708724 L361.75 26.011029630291276 Z"></path><path d="M366.75 25.393462405101868 L366.75 25.393462405101868 L366.75 54.60653759489813 L366.75 54.60653759489813 L366.75 25.393462405101868 Z"></path><path d="M371.75 29.37561436026641 L371.75 29.37561436026641 L371.75 50.62438563973359 L371.75 50.62438563973359 L371.75 29.37561436026641 Z"></path><path d="M376.75 30.939622149241515 L376.75 30.939622149241515 L376.75 49.060377850758485 L376.75 49.060377850758485 L376.75 30.939622149241515 Z"></path><path d="M381.75 0 L381.75 0 L381.75 80 L381.75 80 L381.75 0 Z"></path><path d="M386.75 13.381808335982505 L386.75 13.381808335982505 L386.75 66.6181916640175 L386.75 66.6181916640175 L386.75 13.381808335982505 Z"></path><path d="M391.75 20.403157678571787 L391.75 20.403157678571787 L391.75 59.59684232142821 L391.75 59.59684232142821 L391.75 20.403157678571787 Z"></path><path d="M396.75 14.986805280862193 L396.75 14.986805280862193 L396.75 65.0131947191378 L396.75 65.0131947191378 L396.75 14.986805280862193 Z"></path><path d="M401.75 20.239337084707664 L401.75 20.239337084707664 L401.75 59.760662915292336 L401.75 59.760662915292336 L401.75 20.239337084707664 Z"></path><path d="M406.75 28.756596825380154 L406.75 28.756596825380154 L406.75 51.24340317461984 L406.75 51.24340317461984 L406.75 28.756596825380154 Z"></path><path d="M411.75 22.207031829542323 L411.75 22.207031829542323 L411.75 57.79296817045768 L411.75 57.79296817045768 L411.75 22.207031829542323 Z"></path><path d="M416.75 17.26536465684148 L416.75 17.26536465684148 L416.75 62.734635343158516 L416.75 62.734635343158516 L416.75 17.26536465684148 Z"></path><path d="M421.75 24.50018700039753 L421.75 24.50018700039753 L421.75 55.49981299960247 L421.75 55.49981299960247 L421.75 24.50018700039753 Z"></path><path d="M426.75 20.682042167665703 L426.75 20.682042167665703 L426.75 59.3179578323343 L426.75 59.3179578323343 L426.75 20.682042167665703 Z"></path><path d="M431.75 20.591601509471996 L431.75 20.591601509471996 L431.75 59.408398490528 L431.75 59.408398490528 L431.75 20.591601509471996 Z"></path><path d="M436.75 21.49875534401853 L436.75 21.49875534401853 L436.75 58.501244655981466 L436.75 58.501244655981466 L436.75 21.49875534401853 Z"></path><path d="M441.75 26.356121924762085 L441.75 26.356121924762085 L441.75 53.64387807523792 L441.75 53.64387807523792 L441.75 26.356121924762085 Z"></path><path d="M446.75 26.885915627667906 L446.75 26.885915627667906 L446.75 53.1140843723321 L446.75 53.1140843723321 L446.75 26.885915627667906 Z"></path><path d="M451.75 25.295195680126653 L451.75 25.295195680126653 L451.75 54.70480431987335 L451.75 54.70480431987335 L451.75 25.295195680126653 Z"></path><path d="M456.75 25.153980657298312 L456.75 25.153980657298312 L456.75 54.84601934270168 L456.75 54.84601934270168 L456.75 25.153980657298312 Z"></path><path d="M461.75 28.676904171536677 L461.75 28.676904171536677 L461.75 51.32309582846332 L461.75 51.32309582846332 L461.75 28.676904171536677 Z"></path><path d="M466.75 27.097559576370628 L466.75 27.097559576370628 L466.75 52.90244042362937 L466.75 52.90244042362937 L466.75 27.097559576370628 Z"></path><path d="M471.75 27.280974702024835 L471.75 27.280974702024835 L471.75 52.719025297975165 L471.75 52.719025297975165 L471.75 27.280974702024835 Z"></path><path d="M476.75 28.14522247360727 L476.75 28.14522247360727 L476.75 51.85477752639272 L476.75 51.85477752639272 L476.75 28.14522247360727 Z"></path><path d="M481.75 29.060969704923657 L481.75 29.060969704923657 L481.75 50.939030295076336 L481.75 50.939030295076336 L481.75 29.060969704923657 Z"></path><path d="M486.75 29.34853015004 L486.75 29.34853015004 L486.75 50.65146984996 L486.75 50.65146984996 L486.75 29.34853015004 Z"></path><path d="M491.75 30.300561447494452 L491.75 30.300561447494452 L491.75 49.69943855250554 L491.75 49.69943855250554 L491.75 30.300561447494452 Z"></path><path d="M496.75 32.22401597902101 L496.75 32.22401597902101 L496.75 47.77598402097898 L496.75 47.77598402097898 L496.75 32.22401597902101 Z"></path></svg>