<?xml version="1.0" standalone="no"?><!DOCTYPE svg PUBLIC "-//W3C//DTD SVG 1.1//EN" "http://www.w3.org/Graphics/SVG/1.1/DTD/svg11.dtd"><svg id="a987bd44-6cc8-9c68-9053-9b363f69373d" xmlns="http://www.w3.org/2000/svg" version="1.1" viewBox="0 0 500 80"><style type="text/css">path{stroke:#ffffff;stroke-width:3.5}</style><path d="M1.75 17.62368050650764 L1.75 17.62368050650764 L1.75 62.37631949349236 L1.75 62.37631949349236 L1.75 17.62368050650764 Z"></path><path d="M6.75 8.491647494362503 L6.75 8.491647494362503 L6.75 71.5083525056375 L6.75 71.5083525056375 L6.75 8.491647494362503 Z"></path><path d="M11.75 0 L11.75 0 L11.75 80 L11.75 80 L11.75 0 Z"></path><path d="M16.75 10.14952609472332 L16.75 10.14952609472332 L16.75 69.85047390527669 L16.75 69.85047390527669 L16.75 10.14952609472332 Z"></path><path d="M21.75 7.571232936097118 L21.75 7.571232936097118 L21.75 72.42876706390288 L21.75 72.42876706390288 L21.75 7.571232936097118 Z"></path><path d="M26.75 8.110873422797084 L26.75 8.110873422797084 L26.75 71.88912657720292 L26.75 71.88912657720292 L26.75 8.110873422797084 Z"></path><path d="M31.75 6.085892173504121 L31.75 6.085892173504121 L31.75 73.91410782649588 L31.75 73.91410782649588 L31.75 6.085892173504121 Z"></path><path d="M36.75 6.626167120808368 L36.75 6.626167120808368 L36.75 73.37383287919164 L36.75 73.37383287919164 L36.75 6.626167120808368 Z"></path><path d="M41.75 11.16357030791075 L41.75 11.16357030791075 L41.75 68.83642969208925 L41.75 68.83642969208925 L41.75 11.16357030791075 Z"></path><path d="M46.75 9.324802421911802 L46.75 9.324802421911802 L46.75 70.6751975780882 L46.75 70.6751975780882 L46.75 9.324802421911802 Z"></path><path d="M51.75 10.326139338409742 L51.75 10.326139338409742 L51.75 69.67386066159025 L51.75 69.67386066159025 L51.75 10.326139338409742 Z"></path><path d="M56.75 10.784442960144062 L56.75 10.784442960144062 L56.75 69.21555703985594 L56.75 69.21555703985594 L56.75 10.784442960144062 Z"></path><path d="M61.75 12.71756475369192 L61.75 12.71756475369192 L61.75 67.28243524630808 L61.75 67.28243524630808 L61.75 12.71756475369192 Z"></path><path d="M66.75 13.243771362818737 L66.75 13.243771362818737 L66.75 66.75622863718127 L66.75 66.75622863718127 L66.75 13.243771362818737 Z"></path><path d="M71.75 14.880112168906827 L71.75 14.880112168906827 L71.75 65.11988783109317 L71.75 65.11988783109317 L71.75 14.880112168906827 Z"></path><path d="M76.75 13.699483111380825 L76.75 13.699483111380825 L76.75 66.30051688861917 L76.75 66.30051688861917 L76.75 13.699483111380825 Z"></path><path d="M81.75 11.954776168759516 L81.75 11.954776168759516 L81.75 68.04522383124049 L81.75 68.04522383124049 L81.75 11.954776168759516 Z"></path><path d="M86.75 15.093828562912801 L86.75 15.093828562912801 L86.75 64.9061714370872 L86.75 64.9061714370872 L86.75 15.093828562912801 Z"></path><path d="M91.75 12.980465202008691 L91.75 12.980465202008691 L91.75 67.01953479799131 L91.75 67.01953479799131 L91.75 12.980465202008691 Z"></path><path d="M96.75 14.838214228292685 L96.75 14.838214228292685 L96.75 65.16178577170732 L96.75 65.16178577170732 L96.75 14.838214228292685 Z"></path><path d="M101.75 12.901358176948413 L101.75 12.901358176948413 L101.75 67.0986418230516 L101.75 67.0986418230516 L101.75 12.901358176948413 Z"></path><path d="M106.75 14.402954629959101 L106.75 14.402954629959101 L106.75 65.5970453700409 L106.75 65.5970453700409 L106.75 14.402954629959101 Z"></path><path d="M111.75 15.038535953656908 L111.75 15.038535953656908 L111.75 64.9614640463431 L111.75 64.9614640463431 L111.75 15.038535953656908 Z"></path><path d="M116.75 14.44633471256018 L116.75 14.44633471256018 L116.75 65.55366528743983 L116.75 65.55366528743983 L116.75 14.44633471256018 Z"></path><path d="M121.75 13.762140268673818 L121.75 13.762140268673818 L121.75 66.23785973132618 L121.75 66.23785973132618 L121.75 13.762140268673818 Z"></path><path d="M126.75 15.518259850935948 L126.75 15.518259850935948 L126.75 64.48174014906405 L126.75 64.48174014906405 L126.75 15.518259850935948 Z"></path><path d="M131.75 17.90291432165724 L131.75 17.90291432165724 L131.75 62.097085678342765 L131.75 62.097085678342765 L131.75 17.90291432165724 Z"></path><path d="M136.75 19.79481245992614 L136.75 19.79481245992614 L136.75 60.205187540073865 L136.75 60.205187540073865 L136.75 19.79481245992614 Z"></path><path d="M141.75 19.54962643837707 L141.75 19.54962643837707 L141.75 60.450373561622925 L141.75 60.450373561622925 L141.75 19.54962643837707 Z"></path><path d="M146.75 19.75405838459875 L146.75 19.75405838459875 L146.75 60.24594161540125 L146.75 60.24594161540125 L146.75 19.75405838459875 Z"></path><path d="M151.75 20.40957203266282 L151.75 20.40957203266282 L151.75 59.59042796733718 L151.75 59.59042796733718 L151.75 20.40957203266282 Z"></path><path d="M156.75 21.32684238746791 L156.75 21.32684238746791 L156.75 58.673157612532094 L156.75 58.673157612532094 L156.75 21.32684238746791 Z"></path><path d="M161.75 21.871848187104675 L161.75 21.871848187104675 L161.75 58.128151812895325 L161.75 58.128151812895325 L161.75 21.871848187104675 Z"></path><path d="M166.75 21.00157543397375 L166.75 21.00157543397375 L166.75 58.99842456602625 L166.75 58.99842456602625 L166.75 21.00157543397375 Z"></path><path d="M171.75 19.652884282260977 L171.75 19.652884282260977 L171.75 60.34711571773902 L171.75 60.34711571773902 L171.75 19.652884282260977 Z"></path><path d="M176.75 22.649655769817162 L176.75 22.649655769817162 L176.75 57.35034423018284 L176.75 57.35034423018284 L176.75 22.649655769817162 Z"></path><path d="M181.75 23.478795594102674 L181.75 23.478795594102674 L181.75 56.52120440589732 L181.75 56.52120440589732 L181.75 23.478795594102674 Z"></path><path d="M186.75 23.270648665196614 L186.75 23.270648665196614 L186.75 56.72935133480338 L186.75 56.72935133480338 L186.75 23.270648665196614 Z"></path><path d="M191.75 23.93428735990146 L191.75 23.93428735990146 L191.75 56.06571264009854 L191.75 56.06571264009854 L191.75 23.93428735990146 Z"></path><path d="M196.75 23.25988162989194 L196.75 23.25988162989194 L196.75 56.740118370108064 L196.75 56.740118370108064 L196.75 23.25988162989194 Z"></path><path d="M201.75 23.113706899600178 L201.75 23.113706899600178 L201.75 56.886293100399826 L201.75 56.886293100399826 L201.75 23.113706899600178 Z"></path><path d="M206.75 22.39917997341527 L206.75 22.39917997341527 L206.75 57.60082002658473 L206.75 57.60082002658473 L206.75 22.39917997341527 Z"></path><path d="M211.75 21.616790789833892 L211.75 21.616790789833892 L211.75 58.38320921016611 L211.75 58.38320921016611 L211.75 21.616790789833892 Z"></path><path d="M216.75 21.59591272538781 L216.75 21.59591272538781 L216.75 58.404087274612195 L216.75 58.404087274612195 L216.75 21.59591272538781 Z"></path><path d="M221.75 23.711340382778193 L221.75 23.711340382778193 L221.75 56.28865961722181 L221.75 56.28865961722181 L221.75 23.711340382778193 Z"></path><path d="M226.75 23.32318507385461 L226.75 23.32318507385461 L226.75 56.67681492614539 L226.75 56.67681492614539 L226.75 23.32318507385461 Z"></path><path d="M231.75 23.277944846476185 L231.75 23.277944846476185 L231.75 56.72205515352381 L231.75 56.72205515352381 L231.75 23.277944846476185 Z"></path><path d="M236.75 23.682473372245912 L236.75 23.682473372245912 L236.75 56.31752662775409 L236.75 56.31752662775409 L236.75 23.682473372245912 Z"></path><path d="M241.75 22.61959717231643 L241.75 22.61959717231643 L241.75 57.38040282768357 L241.75 57.38040282768357 L241.75 22.61959717231643 Z"></path><path d="M246.75 22.852543163187555 L246.75 22.852543163187555 L246.75 57.147456836812445 L246.75 57.147456836812445 L246.75 22.852543163187555 Z"></path><path d="M251.75 22.929800424675513 L251.75 22.929800424675513 L251.75 57.07019957532449 L251.75 57.07019957532449 L251.75 22.929800424675513 Z"></path><path d="M256.75 21.500055613079134 L256.75 21.500055613079134 L256.75 58.499944386920866 L256.75 58.499944386920866 L256.75 21.500055613079134 Z"></path><path d="M261.75 23.527667249567124 L261.75 23.527667249567124 L261.75 56.47233275043288 L261.75 56.47233275043288 L261.75 23.527667249567124 Z"></path><path d="M266.75 23.67257992843617 L266.75 23.67257992843617 L266.75 56.32742007156383 L266.75 56.32742007156383 L266.75 23.67257992843617 Z"></path><path d="M271.75 24.560136792559412 L271.75 24.560136792559412 L271.75 55.43986320744058 L271.75 55.43986320744058 L271.75 24.560136792559412 Z"></path><path d="M276.75 24.060239651138467 L276.75 24.060239651138467 L276.75 55.93976034886153 L276.75 55.93976034886153 L276.75 24.060239651138467 Z"></path><path d="M281.75 25.051303462513335 L281.75 25.051303462513335 L281.75 54.94869653748667 L281.75 54.94869653748667 L281.75 25.051303462513335 Z"></path><path d="M286.75 24.775565488982124 L286.75 24.775565488982124 L286.75 55.224434511017876 L286.75 55.224434511017876 L286.75 24.775565488982124 Z"></path><path d="M291.75 23.395984652323456 L291.75 23.395984652323456 L291.75 56.604015347676544 L291.75 56.604015347676544 L291.75 23.395984652323456 Z"></path><path d="M296.75 24.526691333676975 L296.75 24.526691333676975 L296.75 55.47330866632302 L296.75 55.47330866632302 L296.75 24.526691333676975 Z"></path><path d="M301.75 24.98382098885881 L301.75 24.98382098885881 L301.75 55.01617901114119 L301.75 55.01617901114119 L301.75 24.98382098885881 Z"></path><path d="M306.75 25.15513799929186 L306.75 25.15513799929186 L306.75 54.84486200070813 L306.75 54.84486200070813 L306.75 25.15513799929186 Z"></path><path d="M311.75 25.00343706739196 L311.75 25.00343706739196 L311.75 54.99656293260804 L311.75 54.99656293260804 L311.75 25.00343706739196 Z"></path><path d="M316.75 26.59793190467129 L316.75 26.59793190467129 L316.75 53.402068095328715 L316.75 53.402068095328715 L316.75 26.59793190467129 Z"></path><path d="M321.75 25.570423515301997 L321.75 25.570423515301997 L321.75 54.429576484698 L321.75 54.429576484698 L321.75 25.570423515301997 Z"></path><path d="M326.75 24.973338179528184 L326.75 24.973338179528184 L326.75 55.026661820471816 L326.75 55.026661820471816 L326.75 24.973338179528184 Z"></path><path d="M331.75 24.844737179673757 L331.75 24.844737179673757 L331.75 55.15526282032624 L331.75 55.15526282032624 L331.75 24.844737179673757 Z"></path><path d="M336.75 25.421969321768835 L336.75 25.421969321768835 L336.75 54.578030678231165 L336.75 54.578030678231165 L336.75 25.421969321768835 Z"></path><path d="M341.75 25.64020189158952 L341.75 25.64020189158952 L341.75 54.35979810841049 L341.75 54.35979810841049 L341.75 25.64020189158952 Z"></path><path d="M346.75 25.102816358446624 L346.75 25.102816358446624 L346.75 54.897183641553376 L346.75 54.897183641553376 L346.75 25.102816358446624 Z"></path><path d="M351.75 24.506457287971756 L351.75 24.506457287971756 L351.75 55.493542712028244 L351.75 55.493542712028244 L351.75 24.506457287971756 Z"></path><path d="M356.75 23.17849465304766 L356.75 23.17849465304766 L356.75 56.821505346952335 L356.75 56.821505346952335 L356.75 23.17849465304766 Z"></path><path d="M361.75 25.652568382669774 L361.75 25.652568382669774 L361.75 54.34743161733023 L361.75 54.34743161733023 L361.75 25.652568382669774 Z"></path><path d="M366.75 24.36383079479718 L366.75 24.36383079479718 L366.75 55.63616920520282 L366.75 55.63616920520282 L366.75 24.36383079479718 Z"></path><path d="M371.75 23.315259041066735 L371.75 23.315259041066735 L371.75 56.68474095893326 L371.75 56.68474095893326 L371.75 23.315259041066735 Z"></path><path d="M376.75 18.576563270102522 L376.75 18.576563270102522 L376.75 61.423436729897475 L376.75 61.423436729897475 L376.75 18.576563270102522 Z"></path><path d="M381.75 18.383605415769686 L381.75 18.383605415769686 L381.75 61.616394584230314 L381.75 61.616394584230314 L381.75 18.383605415769686 Z"></path><path d="M386.75 19.062436060778687 L386.75 19.062436060778687 L386.75 60.93756393922131 L386.75 60.93756393922131 L386.75 19.062436060778687 Z"></path><path d="M391.75 14.70041010160039 L391.75 14.70041010160039 L391.75 65.2995898983996 L391.75 65.2995898983996 L391.75 14.70041010160039 Z"></path><path d="M396.75 16.616295343105627 L396.75 16.616295343105627 L396.75 63.38370465689437 L396.75 63.38370465689437 L396.75 16.616295343105627 Z"></path><path d="M401.75 18.379175681590798 L401.75 18.379175681590798 L401.75 61.620824318409205 L401.75 61.620824318409205 L401.75 18.379175681590798 Z"></path><path d="M406.75 21.334897404741007 L406.75 21.334897404741007 L406.75 58.66510259525899 L406.75 58.66510259525899 L406.75 21.334897404741007 Z"></path><path d="M411.75 16.788185193838014 L411.75 16.788185193838014 L411.75 63.21181480616198 L411.75 63.21181480616198 L411.75 16.788185193838014 Z"></path><path d="M416.75 17.671808039681974 L416.75 17.671808039681974 L416.75 62.32819196031802 L416.75 62.32819196031802 L416.75 17.671808039681974 Z"></path><path d="M421.75 18.504192203434886 L421.75 18.504192203434886 L421.75 61.49580779656512 L421.75 61.49580779656512 L421.75 18.504192203434886 Z"></path><path d="M426.75 18.93819416170832 L426.75 18.93819416170832 L426.75 61.061805838291676 L426.75 61.061805838291676 L426.75 18.93819416170832 Z"></path><path d="M431.75 14.95142477750991 L431.75 14.95142477750991 L431.75 65.04857522249009 L431.75 65.04857522249009 L431.75 14.95142477750991 Z"></path><path d="M436.75 14.779568879049211 L436.75 14.779568879049211 L436.75 65.22043112095079 L436.75 65.22043112095079 L436.75 14.779568879049211 Z"></path><path d="M441.75 15.900746344395067 L441.75 15.900746344395067 L441.75 64.09925365560494 L441.75 64.09925365560494 L441.75 15.900746344395067 Z"></path><path d="M446.75 18.143573702734543 L446.75 18.143573702734543 L446.75 61.85642629726546 L446.75 61.85642629726546 L446.75 18.143573702734543 Z"></path><path d="M451.75 19.209122169868063 L451.75 19.209122169868063 L451.75 60.79087783013193 L451.75 60.79087783013193 L451.75 19.209122169868063 Z"></path><path d="M456.75 17.373409400902702 L456.75 17.373409400902702 L456.75 62.6265905990973 L456.75 62.6265905990973 L456.75 17.373409400902702 Z"></path><path d="M461.75 17.9031818998234 L461.75 17.9031818998234 L461.75 62.0968181001766 L461.75 62.0968181001766 L461.75 17.9031818998234 Z"></path><path d="M466.75 17.7341422445185 L466.75 17.7341422445185 L466.75 62.2658577554815 L466.75 62.2658577554815 L466.75 17.7341422445185 Z"></path><path d="M471.75 14.568253107211564 L471.75 14.568253107211564 L471.75 65.43174689278844 L471.75 65.43174689278844 L471.75 14.568253107211564 Z"></path><path d="M476.75 15.417143999763422 L476.75 15.417143999763422 L476.75 64.58285600023657 L476.75 64.58285600023657 L476.75 15.417143999763422 Z"></path><path d="M481.75 14.946414884968021 L481.75 14.946414884968021 L481.75 65.05358511503198 L481.75 65.05358511503198 L481.75 14.946414884968021 Z"></path><path d="M486.75 12.390556504267934 L486.75 12.390556504267934 L486.75 67.60944349573207 L486.75 67.60944349573207 L486.75 12.390556504267934 Z"></path><path d="M491.75 13.462188304974767 L491.75 13.462188304974767 L491.75 66.53781169502523 L491.75 66.53781169502523 L491.75 13.462188304974767 Z"></path><path d="M496.75 11.739775308002628 L496.75 11.739775308002628 L496.75 68.26022469199737 L496.75 68.26022469199737 L496.75 11.739775308002628 Z"></path></svg>