<?xml version="1.0" standalone="no"?><!DOCTYPE svg PUBLIC "-//W3C//DTD SVG 1.1//EN" "http://www.w3.org/Graphics/SVG/1.1/DTD/svg11.dtd"><svg id="90a98009-03c3-7dcc-9a38-f87898122300" xmlns="http://www.w3.org/2000/svg" version="1.1" viewBox="0 0 500 80"><style type="text/css">path{stroke:white;stroke-width:3.5}</style><path d="M1.75 21.193577668487485 L1.75 21.193577668487485 L1.75 58.806422331512515 L1.75 58.806422331512515 L1.75 21.193577668487485 Z"></path><path d="M6.75 38.59184677326864 L6.75 38.59184677326864 L6.75 41.40815322673135 L6.75 41.40815322673135 L6.75 38.59184677326864 Z"></path><path d="M11.75 39.57875960364865 L11.75 39.57875960364865 L11.75 40.42124039635135 L11.75 40.42124039635135 L11.75 39.57875960364865 Z"></path><path d="M16.75 39.749826626817196 L16.75 39.749826626817196 L16.75 40.2501733731828 L16.75 40.2501733731828 L16.75 39.749826626817196 Z"></path><path d="M21.75 39.84903667670095 L21.75 39.84903667670095 L21.75 40.15096332329905 L21.75 40.15096332329905 L21.75 39.84903667670095 Z"></path><path d="M26.75 39.84410934442205 L26.75 39.84410934442205 L26.75 40.15589065557794 L26.75 40.15589065557794 L26.75 39.84410934442205 Z"></path><path d="M31.75 39.78355836457282 L31.75 39.78355836457282 L31.75 40.21644163542719 L31.75 40.21644163542719 L31.75 39.78355836457282 Z"></path><path d="M36.75 34.66306227850615 L36.75 34.66306227850615 L36.75 45.336937721493854 L36.75 45.336937721493854 L36.75 34.66306227850615 Z"></path><path d="M41.75 38.33684841553121 L41.75 38.33684841553121 L41.75 41.66315158446879 L41.75 41.66315158446879 L41.75 38.33684841553121 Z"></path><path d="M46.75 39.56614709660076 L46.75 39.56614709660076 L46.75 40.43385290339925 L46.75 40.43385290339925 L46.75 39.56614709660076 Z"></path><path d="M51.75 12.08907050270794 L51.75 12.08907050270794 L51.75 67.91092949729206 L51.75 67.91092949729206 L51.75 12.08907050270794 Z"></path><path d="M56.75 13.975997248472225 L56.75 13.975997248472225 L56.75 66.02400275152777 L56.75 66.02400275152777 L56.75 13.975997248472225 Z"></path><path d="M61.75 22.75028861456814 L61.75 22.75028861456814 L61.75 57.24971138543186 L61.75 57.24971138543186 L61.75 22.75028861456814 Z"></path><path d="M66.75 36.97289428658927 L66.75 36.97289428658927 L66.75 43.027105713410734 L66.75 43.027105713410734 L66.75 36.97289428658927 Z"></path><path d="M71.75 39.82761505358369 L71.75 39.82761505358369 L71.75 40.172384946416315 L71.75 40.172384946416315 L71.75 39.82761505358369 Z"></path><path d="M76.75 39.85100380972193 L76.75 39.85100380972193 L76.75 40.14899619027806 L76.75 40.14899619027806 L76.75 39.85100380972193 Z"></path><path d="M81.75 38.012487455813215 L81.75 38.012487455813215 L81.75 41.987512544186785 L81.75 41.987512544186785 L81.75 38.012487455813215 Z"></path><path d="M86.75 39.745491689900625 L86.75 39.745491689900625 L86.75 40.25450831009937 L86.75 40.25450831009937 L86.75 39.745491689900625 Z"></path><path d="M91.75 39.744852336608766 L91.75 39.744852336608766 L91.75 40.25514766339124 L91.75 40.25514766339124 L91.75 39.744852336608766 Z"></path><path d="M96.75 31.909739707219014 L96.75 31.909739707219014 L96.75 48.09026029278098 L96.75 48.09026029278098 L96.75 31.909739707219014 Z"></path><path d="M101.75 38.71358456543339 L101.75 38.71358456543339 L101.75 41.28641543456661 L101.75 41.28641543456661 L101.75 38.71358456543339 Z"></path><path d="M106.75 39.338149934854755 L106.75 39.338149934854755 L106.75 40.661850065145245 L106.75 40.661850065145245 L106.75 39.338149934854755 Z"></path><path d="M111.75 38.948324231299935 L111.75 38.948324231299935 L111.75 41.051675768700065 L111.75 41.051675768700065 L111.75 38.948324231299935 Z"></path><path d="M116.75 39.72526863111072 L116.75 39.72526863111072 L116.75 40.274731368889285 L116.75 40.274731368889285 L116.75 39.72526863111072 Z"></path><path d="M121.75 39.82431283343679 L121.75 39.82431283343679 L121.75 40.1756871665632 L121.75 40.1756871665632 L121.75 39.82431283343679 Z"></path><path d="M126.75 22.662111934663056 L126.75 22.662111934663056 L126.75 57.33788806533694 L126.75 57.33788806533694 L126.75 22.662111934663056 Z"></path><path d="M131.75 37.54885912135293 L131.75 37.54885912135293 L131.75 42.45114087864706 L131.75 42.45114087864706 L131.75 37.54885912135293 Z"></path><path d="M136.75 39.5362122316385 L136.75 39.5362122316385 L136.75 40.4637877683615 L136.75 40.4637877683615 L136.75 39.5362122316385 Z"></path><path d="M141.75 39.48135137339802 L141.75 39.48135137339802 L141.75 40.51864862660198 L141.75 40.51864862660198 L141.75 39.48135137339802 Z"></path><path d="M146.75 39.645428796810634 L146.75 39.645428796810634 L146.75 40.354571203189366 L146.75 40.354571203189366 L146.75 39.645428796810634 Z"></path><path d="M151.75 39.85603589785287 L151.75 39.85603589785287 L151.75 40.14396410214714 L151.75 40.14396410214714 L151.75 39.85603589785287 Z"></path><path d="M156.75 39.8119816802557 L156.75 39.8119816802557 L156.75 40.1880183197443 L156.75 40.1880183197443 L156.75 39.8119816802557 Z"></path><path d="M161.75 33.14172990525498 L161.75 33.14172990525498 L161.75 46.85827009474503 L161.75 46.85827009474503 L161.75 33.14172990525498 Z"></path><path d="M166.75 38.93129333437709 L166.75 38.93129333437709 L166.75 41.06870666562291 L166.75 41.06870666562291 L166.75 38.93129333437709 Z"></path><path d="M171.75 39.70036900969777 L171.75 39.70036900969777 L171.75 40.29963099030223 L171.75 40.29963099030223 L171.75 39.70036900969777 Z"></path><path d="M176.75 13.328698905806505 L176.75 13.328698905806505 L176.75 66.6713010941935 L176.75 66.6713010941935 L176.75 13.328698905806505 Z"></path><path d="M181.75 15.978182365363867 L181.75 15.978182365363867 L181.75 64.02181763463614 L181.75 64.02181763463614 L181.75 15.978182365363867 Z"></path><path d="M186.75 11.463493099259694 L186.75 11.463493099259694 L186.75 68.5365069007403 L186.75 68.5365069007403 L186.75 11.463493099259694 Z"></path><path d="M191.75 36.20233240783066 L191.75 36.20233240783066 L191.75 43.79766759216935 L191.75 43.79766759216935 L191.75 36.20233240783066 Z"></path><path d="M196.75 39.83345709631835 L196.75 39.83345709631835 L196.75 40.16654290368166 L196.75 40.16654290368166 L196.75 39.83345709631835 Z"></path><path d="M201.75 39.82978269395413 L201.75 39.82978269395413 L201.75 40.17021730604586 L201.75 40.17021730604586 L201.75 39.82978269395413 Z"></path><path d="M206.75 36.11814396011183 L206.75 36.11814396011183 L206.75 43.88185603988818 L206.75 43.88185603988818 L206.75 36.11814396011183 Z"></path><path d="M211.75 39.434550017660456 L211.75 39.434550017660456 L211.75 40.56544998233954 L211.75 40.56544998233954 L211.75 39.434550017660456 Z"></path><path d="M216.75 39.606004345217386 L216.75 39.606004345217386 L216.75 40.39399565478262 L216.75 40.39399565478262 L216.75 39.606004345217386 Z"></path><path d="M221.75 16.380703140910246 L221.75 16.380703140910246 L221.75 63.61929685908976 L221.75 63.61929685908976 L221.75 16.380703140910246 Z"></path><path d="M226.75 34.616878420353075 L226.75 34.616878420353075 L226.75 45.383121579646925 L226.75 45.383121579646925 L226.75 34.616878420353075 Z"></path><path d="M231.75 37.63478954878495 L231.75 37.63478954878495 L231.75 42.36521045121505 L231.75 42.36521045121505 L231.75 37.63478954878495 Z"></path><path d="M236.75 38.997921346555735 L236.75 38.997921346555735 L236.75 41.00207865344426 L236.75 41.00207865344426 L236.75 38.997921346555735 Z"></path><path d="M241.75 39.79033118513027 L241.75 39.79033118513027 L241.75 40.20966881486974 L241.75 40.20966881486974 L241.75 39.79033118513027 Z"></path><path d="M246.75 39.831119803622975 L246.75 39.831119803622975 L246.75 40.168880196377025 L246.75 40.168880196377025 L246.75 39.831119803622975 Z"></path><path d="M251.75 39.84124733712575 L251.75 39.84124733712575 L251.75 40.15875266287425 L251.75 40.15875266287425 L251.75 39.84124733712575 Z"></path><path d="M256.75 36.28504441089742 L256.75 36.28504441089742 L256.75 43.71495558910259 L256.75 43.71495558910259 L256.75 36.28504441089742 Z"></path><path d="M261.75 39.20342444148377 L261.75 39.20342444148377 L261.75 40.79657555851623 L261.75 40.79657555851623 L261.75 39.20342444148377 Z"></path><path d="M266.75 39.23000381548243 L266.75 39.23000381548243 L266.75 40.76999618451756 L266.75 40.76999618451756 L266.75 39.23000381548243 Z"></path><path d="M271.75 39.55748564625481 L271.75 39.55748564625481 L271.75 40.44251435374519 L271.75 40.44251435374519 L271.75 39.55748564625481 Z"></path><path d="M276.75 39.78675097776705 L276.75 39.78675097776705 L276.75 40.21324902223295 L276.75 40.21324902223295 L276.75 39.78675097776705 Z"></path><path d="M281.75 39.7965975285125 L281.75 39.7965975285125 L281.75 40.20340247148749 L281.75 40.20340247148749 L281.75 39.7965975285125 Z"></path><path d="M286.75 28.413752601002972 L286.75 28.413752601002972 L286.75 51.58624739899703 L286.75 51.58624739899703 L286.75 28.413752601002972 Z"></path><path d="M291.75 36.692715947995914 L291.75 36.692715947995914 L291.75 43.307284052004086 L291.75 43.307284052004086 L291.75 36.692715947995914 Z"></path><path d="M296.75 39.51937553218866 L296.75 39.51937553218866 L296.75 40.480624467811346 L296.75 40.480624467811346 L296.75 39.51937553218866 Z"></path><path d="M301.75 15.351923436339394 L301.75 15.351923436339394 L301.75 64.64807656366061 L301.75 64.64807656366061 L301.75 15.351923436339394 Z"></path><path d="M306.75 16.49161988216019 L306.75 16.49161988216019 L306.75 63.508380117839806 L306.75 63.508380117839806 L306.75 16.49161988216019 Z"></path><path d="M311.75 20.855635258174786 L311.75 20.855635258174786 L311.75 59.144364741825214 L311.75 59.144364741825214 L311.75 20.855635258174786 Z"></path><path d="M316.75 35.922855459429414 L316.75 35.922855459429414 L316.75 44.077144540570586 L316.75 44.077144540570586 L316.75 35.922855459429414 Z"></path><path d="M321.75 39.76941929598436 L321.75 39.76941929598436 L321.75 40.23058070401563 L321.75 40.23058070401563 L321.75 39.76941929598436 Z"></path><path d="M326.75 39.74443340635279 L326.75 39.74443340635279 L326.75 40.25556659364721 L326.75 40.25556659364721 L326.75 39.74443340635279 Z"></path><path d="M331.75 38.72179297393457 L331.75 38.72179297393457 L331.75 41.27820702606544 L331.75 41.27820702606544 L331.75 38.72179297393457 Z"></path><path d="M336.75 39.58105703065508 L336.75 39.58105703065508 L336.75 40.41894296934492 L336.75 40.41894296934492 L336.75 39.58105703065508 Z"></path><path d="M341.75 39.68708780242381 L341.75 39.68708780242381 L341.75 40.31291219757619 L341.75 40.31291219757619 L341.75 39.68708780242381 Z"></path><path d="M346.75 0 L346.75 0 L346.75 80 L346.75 80 L346.75 0 Z"></path><path d="M351.75 36.37170863280558 L351.75 36.37170863280558 L351.75 43.62829136719442 L351.75 43.62829136719442 L351.75 36.37170863280558 Z"></path><path d="M356.75 38.60208301752521 L356.75 38.60208301752521 L356.75 41.39791698247479 L356.75 41.39791698247479 L356.75 38.60208301752521 Z"></path><path d="M361.75 38.695091824272964 L361.75 38.695091824272964 L361.75 41.304908175727036 L361.75 41.304908175727036 L361.75 38.695091824272964 Z"></path><path d="M366.75 39.773164235606345 L366.75 39.773164235606345 L366.75 40.226835764393655 L366.75 40.226835764393655 L366.75 39.773164235606345 Z"></path><path d="M371.75 39.83130998430542 L371.75 39.83130998430542 L371.75 40.16869001569457 L371.75 40.16869001569457 L371.75 39.83130998430542 Z"></path><path d="M376.75 14.368418894026846 L376.75 14.368418894026846 L376.75 65.63158110597315 L376.75 65.63158110597315 L376.75 14.368418894026846 Z"></path><path d="M381.75 38.37031593194159 L381.75 38.37031593194159 L381.75 41.62968406805842 L381.75 41.62968406805842 L381.75 38.37031593194159 Z"></path><path d="M386.75 39.33318509947002 L386.75 39.33318509947002 L386.75 40.666814900529985 L386.75 40.666814900529985 L386.75 39.33318509947002 Z"></path><path d="M391.75 39.5487550352448 L391.75 39.5487550352448 L391.75 40.45124496475519 L391.75 40.45124496475519 L391.75 39.5487550352448 Z"></path><path d="M396.75 39.72343310440496 L396.75 39.72343310440496 L396.75 40.27656689559503 L396.75 40.27656689559503 L396.75 39.72343310440496 Z"></path><path d="M401.75 39.82859135329748 L401.75 39.82859135329748 L401.75 40.171408646702524 L401.75 40.171408646702524 L401.75 39.82859135329748 Z"></path><path d="M406.75 39.76955050860481 L406.75 39.76955050860481 L406.75 40.23044949139519 L406.75 40.23044949139519 L406.75 39.76955050860481 Z"></path><path d="M411.75 31.0782019673741 L411.75 31.0782019673741 L411.75 48.9217980326259 L411.75 48.9217980326259 L411.75 31.0782019673741 Z"></path><path d="M416.75 37.22747964932333 L416.75 37.22747964932333 L416.75 42.77252035067667 L416.75 42.77252035067667 L416.75 37.22747964932333 Z"></path><path d="M421.75 39.52838680106855 L421.75 39.52838680106855 L421.75 40.47161319893145 L421.75 40.47161319893145 L421.75 39.52838680106855 Z"></path><path d="M426.75 18.945628691267387 L426.75 18.945628691267387 L426.75 61.05437130873261 L426.75 61.05437130873261 L426.75 18.945628691267387 Z"></path><path d="M431.75 15.103286036076778 L431.75 15.103286036076778 L431.75 64.89671396392322 L431.75 64.89671396392322 L431.75 15.103286036076778 Z"></path><path d="M436.75 24.25215719844995 L436.75 24.25215719844995 L436.75 55.74784280155005 L436.75 55.74784280155005 L436.75 24.25215719844995 Z"></path><path d="M441.75 26.53996147730011 L441.75 26.53996147730011 L441.75 53.46003852269989 L441.75 53.46003852269989 L441.75 26.53996147730011 Z"></path><path d="M446.75 39.74970152308523 L446.75 39.74970152308523 L446.75 40.25029847691477 L446.75 40.25029847691477 L446.75 39.74970152308523 Z"></path><path d="M451.75 39.839010690863006 L451.75 39.839010690863006 L451.75 40.160989309136994 L451.75 40.160989309136994 L451.75 39.839010690863006 Z"></path><path d="M456.75 32.24009407648729 L456.75 32.24009407648729 L456.75 47.759905923512704 L456.75 47.759905923512704 L456.75 32.24009407648729 Z"></path><path d="M461.75 39.2265457107173 L461.75 39.2265457107173 L461.75 40.773454289282704 L461.75 40.773454289282704 L461.75 39.2265457107173 Z"></path><path d="M466.75 39.75626770813258 L466.75 39.75626770813258 L466.75 40.24373229186741 L466.75 40.24373229186741 L466.75 39.75626770813258 Z"></path><path d="M471.75 1.0509592180692309 L471.75 1.0509592180692309 L471.75 78.94904078193076 L471.75 78.94904078193076 L471.75 1.0509592180692309 Z"></path><path d="M476.75 36.16459938635707 L476.75 36.16459938635707 L476.75 43.83540061364293 L476.75 43.83540061364293 L476.75 36.16459938635707 Z"></path><path d="M481.75 38.72640921633949 L481.75 38.72640921633949 L481.75 41.27359078366051 L481.75 41.27359078366051 L481.75 38.72640921633949 Z"></path><path d="M486.75 39.73890685212308 L486.75 39.73890685212308 L486.75 40.26109314787693 L486.75 40.26109314787693 L486.75 39.73890685212308 Z"></path><path d="M491.75 39.66744806964002 L491.75 39.66744806964002 L491.75 40.33255193035999 L491.75 40.33255193035999 L491.75 39.66744806964002 Z"></path><path d="M496.75 39.85803956048116 L496.75 39.85803956048116 L496.75 40.14196043951884 L496.75 40.14196043951884 L496.75 39.85803956048116 Z"></path></svg>