<?xml version="1.0" standalone="no"?><!DOCTYPE svg PUBLIC "-//W3C//DTD SVG 1.1//EN" "http://www.w3.org/Graphics/SVG/1.1/DTD/svg11.dtd"><svg id="db3b5893-22da-17af-ba5e-aeb056a8670c" xmlns="http://www.w3.org/2000/svg" version="1.1" viewBox="0 0 500 80"><style type="text/css">path{stroke:white;stroke-width:3.5}</style><path d="M1.75 20.741187916408677 L1.75 20.741187916408677 L1.75 59.25881208359132 L1.75 59.25881208359132 L1.75 20.741187916408677 Z"></path><path d="M6.75 3.236633894972414 L6.75 3.236633894972414 L6.75 76.76336610502759 L6.75 76.76336610502759 L6.75 3.236633894972414 Z"></path><path d="M11.75 24.258426713514133 L11.75 24.258426713514133 L11.75 55.74157328648586 L11.75 55.74157328648586 L11.75 24.258426713514133 Z"></path><path d="M16.75 17.12194917444723 L16.75 17.12194917444723 L16.75 62.87805082555277 L16.75 62.87805082555277 L16.75 17.12194917444723 Z"></path><path d="M21.75 14.442994578740475 L21.75 14.442994578740475 L21.75 65.55700542125953 L21.75 65.55700542125953 L21.75 14.442994578740475 Z"></path><path d="M26.75 8.385767403099845 L26.75 8.385767403099845 L26.75 71.61423259690015 L26.75 71.61423259690015 L26.75 8.385767403099845 Z"></path><path d="M31.75 17.070529393989936 L31.75 17.070529393989936 L31.75 62.929470606010064 L31.75 62.929470606010064 L31.75 17.070529393989936 Z"></path><path d="M36.75 15.705673002046186 L36.75 15.705673002046186 L36.75 64.29432699795382 L36.75 64.29432699795382 L36.75 15.705673002046186 Z"></path><path d="M41.75 24.319920804448486 L41.75 24.319920804448486 L41.75 55.680079195551514 L41.75 55.680079195551514 L41.75 24.319920804448486 Z"></path><path d="M46.75 11.824529243386042 L46.75 11.824529243386042 L46.75 68.17547075661396 L46.75 68.17547075661396 L46.75 11.824529243386042 Z"></path><path d="M51.75 0.9292249949735378 L51.75 0.9292249949735378 L51.75 79.07077500502646 L51.75 79.07077500502646 L51.75 0.9292249949735378 Z"></path><path d="M56.75 15.575288077003488 L56.75 15.575288077003488 L56.75 64.42471192299651 L56.75 64.42471192299651 L56.75 15.575288077003488 Z"></path><path d="M61.75 15.253289216596862 L61.75 15.253289216596862 L61.75 64.74671078340313 L61.75 64.74671078340313 L61.75 15.253289216596862 Z"></path><path d="M66.75 9.426790829716499 L66.75 9.426790829716499 L66.75 70.5732091702835 L66.75 70.5732091702835 L66.75 9.426790829716499 Z"></path><path d="M71.75 1.4337434465357362 L71.75 1.4337434465357362 L71.75 78.56625655346426 L71.75 78.56625655346426 L71.75 1.4337434465357362 Z"></path><path d="M76.75 16.321467850043316 L76.75 16.321467850043316 L76.75 63.67853214995668 L76.75 63.67853214995668 L76.75 16.321467850043316 Z"></path><path d="M81.75 21.049485007622938 L81.75 21.049485007622938 L81.75 58.950514992377066 L81.75 58.950514992377066 L81.75 21.049485007622938 Z"></path><path d="M86.75 8.784748866629105 L86.75 8.784748866629105 L86.75 71.2152511333709 L86.75 71.2152511333709 L86.75 8.784748866629105 Z"></path><path d="M91.75 7.333759884415429 L91.75 7.333759884415429 L91.75 72.66624011558457 L91.75 72.66624011558457 L91.75 7.333759884415429 Z"></path><path d="M96.75 15.339859875834886 L96.75 15.339859875834886 L96.75 64.66014012416511 L96.75 64.66014012416511 L96.75 15.339859875834886 Z"></path><path d="M101.75 19.89730518291515 L101.75 19.89730518291515 L101.75 60.10269481708485 L101.75 60.10269481708485 L101.75 19.89730518291515 Z"></path><path d="M106.75 17.384081139448337 L106.75 17.384081139448337 L106.75 62.61591886055166 L106.75 62.61591886055166 L106.75 17.384081139448337 Z"></path><path d="M111.75 8.700891956523282 L111.75 8.700891956523282 L111.75 71.29910804347672 L111.75 71.29910804347672 L111.75 8.700891956523282 Z"></path><path d="M116.75 0 L116.75 0 L116.75 80 L116.75 80 L116.75 0 Z"></path><path d="M121.75 14.909991136223251 L121.75 14.909991136223251 L121.75 65.09000886377675 L121.75 65.09000886377675 L121.75 14.909991136223251 Z"></path><path d="M126.75 17.34591755586355 L126.75 17.34591755586355 L126.75 62.65408244413645 L126.75 62.65408244413645 L126.75 17.34591755586355 Z"></path><path d="M131.75 12.736746871818731 L131.75 12.736746871818731 L131.75 67.26325312818128 L131.75 67.26325312818128 L131.75 12.736746871818731 Z"></path><path d="M136.75 14.751141670380452 L136.75 14.751141670380452 L136.75 65.24885832961955 L136.75 65.24885832961955 L136.75 14.751141670380452 Z"></path><path d="M141.75 12.23764730029448 L141.75 12.23764730029448 L141.75 67.76235269970552 L141.75 67.76235269970552 L141.75 12.23764730029448 Z"></path><path d="M146.75 21.282230985692873 L146.75 21.282230985692873 L146.75 58.71776901430712 L146.75 58.71776901430712 L146.75 21.282230985692873 Z"></path><path d="M151.75 10.869507610586613 L151.75 10.869507610586613 L151.75 69.13049238941339 L151.75 69.13049238941339 L151.75 10.869507610586613 Z"></path><path d="M156.75 18.930656408515866 L156.75 18.930656408515866 L156.75 61.069343591484134 L156.75 61.069343591484134 L156.75 18.930656408515866 Z"></path><path d="M161.75 17.145081868577837 L161.75 17.145081868577837 L161.75 62.85491813142217 L161.75 62.85491813142217 L161.75 17.145081868577837 Z"></path><path d="M166.75 21.424162294012394 L166.75 21.424162294012394 L166.75 58.57583770598761 L166.75 58.57583770598761 L166.75 21.424162294012394 Z"></path><path d="M171.75 14.221726442881284 L171.75 14.221726442881284 L171.75 65.77827355711872 L171.75 65.77827355711872 L171.75 14.221726442881284 Z"></path><path d="M176.75 11.64157079786101 L176.75 11.64157079786101 L176.75 68.35842920213899 L176.75 68.35842920213899 L176.75 11.64157079786101 Z"></path><path d="M181.75 14.974126126848006 L181.75 14.974126126848006 L181.75 65.025873873152 L181.75 65.025873873152 L181.75 14.974126126848006 Z"></path><path d="M186.75 18.542995297098976 L186.75 18.542995297098976 L186.75 61.457004702901024 L186.75 61.457004702901024 L186.75 18.542995297098976 Z"></path><path d="M191.75 1.392676955823461 L191.75 1.392676955823461 L191.75 78.60732304417654 L191.75 78.60732304417654 L191.75 1.392676955823461 Z"></path><path d="M196.75 14.835057526573149 L196.75 14.835057526573149 L196.75 65.16494247342685 L196.75 65.16494247342685 L196.75 14.835057526573149 Z"></path><path d="M201.75 15.827184004941458 L201.75 15.827184004941458 L201.75 64.17281599505854 L201.75 64.17281599505854 L201.75 15.827184004941458 Z"></path><path d="M206.75 18.74609505417958 L206.75 18.74609505417958 L206.75 61.25390494582042 L206.75 61.25390494582042 L206.75 18.74609505417958 Z"></path><path d="M211.75 17.41961146277684 L211.75 17.41961146277684 L211.75 62.58038853722316 L211.75 62.58038853722316 L211.75 17.41961146277684 Z"></path><path d="M216.75 8.094966550519185 L216.75 8.094966550519185 L216.75 71.90503344948081 L216.75 71.90503344948081 L216.75 8.094966550519185 Z"></path><path d="M221.75 15.770184311104046 L221.75 15.770184311104046 L221.75 64.22981568889595 L221.75 64.22981568889595 L221.75 15.770184311104046 Z"></path><path d="M226.75 17.40080272190117 L226.75 17.40080272190117 L226.75 62.59919727809883 L226.75 62.59919727809883 L226.75 17.40080272190117 Z"></path><path d="M231.75 16.298480544124672 L231.75 16.298480544124672 L231.75 63.70151945587533 L231.75 63.70151945587533 L231.75 16.298480544124672 Z"></path><path d="M236.75 12.55425942669584 L236.75 12.55425942669584 L236.75 67.44574057330416 L236.75 67.44574057330416 L236.75 12.55425942669584 Z"></path><path d="M241.75 20.066757623525277 L241.75 20.066757623525277 L241.75 59.93324237647472 L241.75 59.93324237647472 L241.75 20.066757623525277 Z"></path><path d="M246.75 19.82705734314107 L246.75 19.82705734314107 L246.75 60.17294265685893 L246.75 60.17294265685893 L246.75 19.82705734314107 Z"></path><path d="M251.75 17.11085579286487 L251.75 17.11085579286487 L251.75 62.88914420713513 L251.75 62.88914420713513 L251.75 17.11085579286487 Z"></path><path d="M256.75 14.465937554376001 L256.75 14.465937554376001 L256.75 65.534062445624 L256.75 65.534062445624 L256.75 14.465937554376001 Z"></path><path d="M261.75 20.449276074299462 L261.75 20.449276074299462 L261.75 59.55072392570054 L261.75 59.55072392570054 L261.75 20.449276074299462 Z"></path><path d="M266.75 23.623496705111837 L266.75 23.623496705111837 L266.75 56.37650329488817 L266.75 56.37650329488817 L266.75 23.623496705111837 Z"></path><path d="M271.75 21.7999885169045 L271.75 21.7999885169045 L271.75 58.2000114830955 L271.75 58.2000114830955 L271.75 21.7999885169045 Z"></path><path d="M276.75 15.11009100509862 L276.75 15.11009100509862 L276.75 64.88990899490138 L276.75 64.88990899490138 L276.75 15.11009100509862 Z"></path><path d="M281.75 18.153624803337973 L281.75 18.153624803337973 L281.75 61.846375196662024 L281.75 61.846375196662024 L281.75 18.153624803337973 Z"></path><path d="M286.75 14.278982574140596 L286.75 14.278982574140596 L286.75 65.7210174258594 L286.75 65.7210174258594 L286.75 14.278982574140596 Z"></path><path d="M291.75 10.186844115244202 L291.75 10.186844115244202 L291.75 69.8131558847558 L291.75 69.8131558847558 L291.75 10.186844115244202 Z"></path><path d="M296.75 5.247931052659283 L296.75 5.247931052659283 L296.75 74.75206894734072 L296.75 74.75206894734072 L296.75 5.247931052659283 Z"></path><path d="M301.75 10.127494686613122 L301.75 10.127494686613122 L301.75 69.87250531338688 L301.75 69.87250531338688 L301.75 10.127494686613122 Z"></path><path d="M306.75 10.256186013180258 L306.75 10.256186013180258 L306.75 69.74381398681975 L306.75 69.74381398681975 L306.75 10.256186013180258 Z"></path><path d="M311.75 14.783158757421134 L311.75 14.783158757421134 L311.75 65.21684124257887 L311.75 65.21684124257887 L311.75 14.783158757421134 Z"></path><path d="M316.75 21.055131708149247 L316.75 21.055131708149247 L316.75 58.94486829185075 L316.75 58.94486829185075 L316.75 21.055131708149247 Z"></path><path d="M321.75 20.54496976383497 L321.75 20.54496976383497 L321.75 59.45503023616503 L321.75 59.45503023616503 L321.75 20.54496976383497 Z"></path><path d="M326.75 25.409365115590525 L326.75 25.409365115590525 L326.75 54.59063488440948 L326.75 54.59063488440948 L326.75 25.409365115590525 Z"></path><path d="M331.75 24.47296133866189 L331.75 24.47296133866189 L331.75 55.52703866133811 L331.75 55.52703866133811 L331.75 24.47296133866189 Z"></path><path d="M336.75 19.601452788095152 L336.75 19.601452788095152 L336.75 60.39854721190485 L336.75 60.39854721190485 L336.75 19.601452788095152 Z"></path><path d="M341.75 23.197086600034233 L341.75 23.197086600034233 L341.75 56.80291339996577 L341.75 56.80291339996577 L341.75 23.197086600034233 Z"></path><path d="M346.75 25.30499634962476 L346.75 25.30499634962476 L346.75 54.69500365037524 L346.75 54.69500365037524 L346.75 25.30499634962476 Z"></path><path d="M351.75 25.361327001347632 L351.75 25.361327001347632 L351.75 54.63867299865237 L351.75 54.63867299865237 L351.75 25.361327001347632 Z"></path><path d="M356.75 24.0303595978559 L356.75 24.0303595978559 L356.75 55.969640402144094 L356.75 55.969640402144094 L356.75 24.0303595978559 Z"></path><path d="M361.75 15.470271691864745 L361.75 15.470271691864745 L361.75 64.52972830813525 L361.75 64.52972830813525 L361.75 15.470271691864745 Z"></path><path d="M366.75 18.353473961704516 L366.75 18.353473961704516 L366.75 61.646526038295484 L366.75 61.646526038295484 L366.75 18.353473961704516 Z"></path><path d="M371.75 17.399766058267726 L371.75 17.399766058267726 L371.75 62.60023394173227 L371.75 62.60023394173227 L371.75 17.399766058267726 Z"></path><path d="M376.75 17.154849577531355 L376.75 17.154849577531355 L376.75 62.84515042246865 L376.75 62.84515042246865 L376.75 17.154849577531355 Z"></path><path d="M381.75 24.522060456734657 L381.75 24.522060456734657 L381.75 55.47793954326534 L381.75 55.47793954326534 L381.75 24.522060456734657 Z"></path><path d="M386.75 25.54899716335465 L386.75 25.54899716335465 L386.75 54.451002836645344 L386.75 54.451002836645344 L386.75 25.54899716335465 Z"></path><path d="M391.75 29.198882956152048 L391.75 29.198882956152048 L391.75 50.80111704384795 L391.75 50.80111704384795 L391.75 29.198882956152048 Z"></path><path d="M396.75 17.49946882385205 L396.75 17.49946882385205 L396.75 62.500531176147945 L396.75 62.500531176147945 L396.75 17.49946882385205 Z"></path><path d="M401.75 15.138822884683375 L401.75 15.138822884683375 L401.75 64.86117711531662 L401.75 64.86117711531662 L401.75 15.138822884683375 Z"></path><path d="M406.75 26.374952801642117 L406.75 26.374952801642117 L406.75 53.625047198357876 L406.75 53.625047198357876 L406.75 26.374952801642117 Z"></path><path d="M411.75 23.984538639430568 L411.75 23.984538639430568 L411.75 56.01546136056943 L411.75 56.01546136056943 L411.75 23.984538639430568 Z"></path><path d="M416.75 17.243099169697818 L416.75 17.243099169697818 L416.75 62.756900830302186 L416.75 62.756900830302186 L416.75 17.243099169697818 Z"></path><path d="M421.75 14.468062674387582 L421.75 14.468062674387582 L421.75 65.53193732561242 L421.75 65.53193732561242 L421.75 14.468062674387582 Z"></path><path d="M426.75 22.78519487359452 L426.75 22.78519487359452 L426.75 57.21480512640548 L426.75 57.21480512640548 L426.75 22.78519487359452 Z"></path><path d="M431.75 27.796485596257053 L431.75 27.796485596257053 L431.75 52.20351440374294 L431.75 52.20351440374294 L431.75 27.796485596257053 Z"></path><path d="M436.75 23.414033941298666 L436.75 23.414033941298666 L436.75 56.58596605870133 L436.75 56.58596605870133 L436.75 23.414033941298666 Z"></path><path d="M441.75 15.380612159363352 L441.75 15.380612159363352 L441.75 64.61938784063665 L441.75 64.61938784063665 L441.75 15.380612159363352 Z"></path><path d="M446.75 16.84657122642757 L446.75 16.84657122642757 L446.75 63.15342877357243 L446.75 63.15342877357243 L446.75 16.84657122642757 Z"></path><path d="M451.75 23.51713300312463 L451.75 23.51713300312463 L451.75 56.48286699687537 L451.75 56.48286699687537 L451.75 23.51713300312463 Z"></path><path d="M456.75 28.15216044413974 L456.75 28.15216044413974 L456.75 51.84783955586026 L456.75 51.84783955586026 L456.75 28.15216044413974 Z"></path><path d="M461.75 25.314564387461083 L461.75 25.314564387461083 L461.75 54.685435612538924 L461.75 54.685435612538924 L461.75 25.314564387461083 Z"></path><path d="M466.75 13.548879155545944 L466.75 13.548879155545944 L466.75 66.45112084445405 L466.75 66.45112084445405 L466.75 13.548879155545944 Z"></path><path d="M471.75 20.992927315792198 L471.75 20.992927315792198 L471.75 59.0070726842078 L471.75 59.0070726842078 L471.75 20.992927315792198 Z"></path><path d="M476.75 22.32863701282311 L476.75 22.32863701282311 L476.75 57.67136298717689 L476.75 57.67136298717689 L476.75 22.32863701282311 Z"></path><path d="M481.75 21.57204681960442 L481.75 21.57204681960442 L481.75 58.427953180395576 L481.75 58.427953180395576 L481.75 21.57204681960442 Z"></path><path d="M486.75 22.10853699258185 L486.75 22.10853699258185 L486.75 57.89146300741815 L486.75 57.89146300741815 L486.75 22.10853699258185 Z"></path><path d="M491.75 25.421474541029145 L491.75 25.421474541029145 L491.75 54.57852545897086 L491.75 54.57852545897086 L491.75 25.421474541029145 Z"></path><path d="M496.75 24.60766013691847 L496.75 24.60766013691847 L496.75 55.39233986308153 L496.75 55.39233986308153 L496.75 24.60766013691847 Z"></path></svg>