<?xml version="1.0" standalone="no"?><!DOCTYPE svg PUBLIC "-//W3C//DTD SVG 1.1//EN" "http://www.w3.org/Graphics/SVG/1.1/DTD/svg11.dtd"><svg id="077b9076-ea86-a41b-c226-04cff76b144e" xmlns="http://www.w3.org/2000/svg" version="1.1" viewBox="0 0 500 80"><style type="text/css">path{stroke:white;stroke-width:3.5}</style><path d="M1.75 39.844142589647014 L1.75 39.844142589647014 L1.75 40.155857410352986 L1.75 40.155857410352986 L1.75 39.844142589647014 Z"></path><path d="M6.75 38.64322081253394 L6.75 38.64322081253394 L6.75 41.35677918746605 L6.75 41.35677918746605 L6.75 38.64322081253394 Z"></path><path d="M11.75 38.70789130306184 L11.75 38.70789130306184 L11.75 41.29210869693816 L11.75 41.29210869693816 L11.75 38.70789130306184 Z"></path><path d="M16.75 39.6031872906018 L16.75 39.6031872906018 L16.75 40.3968127093982 L16.75 40.3968127093982 L16.75 39.6031872906018 Z"></path><path d="M21.75 34.41339425635051 L21.75 34.41339425635051 L21.75 45.58660574364949 L21.75 45.58660574364949 L21.75 34.41339425635051 Z"></path><path d="M26.75 38.7521403929412 L26.75 38.7521403929412 L26.75 41.24785960705879 L26.75 41.24785960705879 L26.75 38.7521403929412 Z"></path><path d="M31.75 39.86424772209347 L31.75 39.86424772209347 L31.75 40.135752277906526 L31.75 40.135752277906526 L31.75 39.86424772209347 Z"></path><path d="M36.75 39.845920140705076 L36.75 39.845920140705076 L36.75 40.15407985929492 L36.75 40.15407985929492 L36.75 39.845920140705076 Z"></path><path d="M41.75 36.95850571754413 L41.75 36.95850571754413 L41.75 43.04149428245588 L41.75 43.04149428245588 L41.75 36.95850571754413 Z"></path><path d="M46.75 38.68080358248696 L46.75 38.68080358248696 L46.75 41.319196417513034 L46.75 41.319196417513034 L46.75 38.68080358248696 Z"></path><path d="M51.75 38.23278619263511 L51.75 38.23278619263511 L51.75 41.76721380736488 L51.75 41.76721380736488 L51.75 38.23278619263511 Z"></path><path d="M56.75 38.189192629058994 L56.75 38.189192629058994 L56.75 41.81080737094101 L56.75 41.81080737094101 L56.75 38.189192629058994 Z"></path><path d="M61.75 39.79134500307625 L61.75 39.79134500307625 L61.75 40.20865499692374 L61.75 40.20865499692374 L61.75 39.79134500307625 Z"></path><path d="M66.75 39.76421183331091 L66.75 39.76421183331091 L66.75 40.2357881666891 L66.75 40.2357881666891 L66.75 39.76421183331091 Z"></path><path d="M71.75 36.95527435888018 L71.75 36.95527435888018 L71.75 43.044725641119825 L71.75 43.044725641119825 L71.75 36.95527435888018 Z"></path><path d="M76.75 39.318354978787944 L76.75 39.318354978787944 L76.75 40.68164502121205 L76.75 40.68164502121205 L76.75 39.318354978787944 Z"></path><path d="M81.75 38.72480515189395 L81.75 38.72480515189395 L81.75 41.27519484810605 L81.75 41.27519484810605 L81.75 38.72480515189395 Z"></path><path d="M86.75 38.84837661630147 L86.75 38.84837661630147 L86.75 41.15162338369852 L86.75 41.15162338369852 L86.75 38.84837661630147 Z"></path><path d="M91.75 39.30256361858871 L91.75 39.30256361858871 L91.75 40.69743638141129 L91.75 40.69743638141129 L91.75 39.30256361858871 Z"></path><path d="M96.75 39.854050307157 L96.75 39.854050307157 L96.75 40.145949692843 L96.75 40.145949692843 L96.75 39.854050307157 Z"></path><path d="M101.75 28.64178188771584 L101.75 28.64178188771584 L101.75 51.35821811228416 L101.75 51.35821811228416 L101.75 28.64178188771584 Z"></path><path d="M106.75 37.97588374566606 L106.75 37.97588374566606 L106.75 42.02411625433394 L106.75 42.02411625433394 L106.75 37.97588374566606 Z"></path><path d="M111.75 39.517602288326195 L111.75 39.517602288326195 L111.75 40.482397711673805 L111.75 40.482397711673805 L111.75 39.517602288326195 Z"></path><path d="M116.75 36.57629333663248 L116.75 36.57629333663248 L116.75 43.423706663367525 L116.75 43.423706663367525 L116.75 36.57629333663248 Z"></path><path d="M121.75 39.57606214895358 L121.75 39.57606214895358 L121.75 40.423937851046425 L121.75 40.423937851046425 L121.75 39.57606214895358 Z"></path><path d="M126.75 39.861481697837505 L126.75 39.861481697837505 L126.75 40.138518302162495 L126.75 40.138518302162495 L126.75 39.861481697837505 Z"></path><path d="M131.75 36.96983014045294 L131.75 36.96983014045294 L131.75 43.03016985954706 L131.75 43.03016985954706 L131.75 36.96983014045294 Z"></path><path d="M136.75 35.696820300485975 L136.75 35.696820300485975 L136.75 44.303179699514025 L136.75 44.303179699514025 L136.75 35.696820300485975 Z"></path><path d="M141.75 39.63744542111889 L141.75 39.63744542111889 L141.75 40.36255457888111 L141.75 40.36255457888111 L141.75 39.63744542111889 Z"></path><path d="M146.75 36.80110211616743 L146.75 36.80110211616743 L146.75 43.19889788383257 L146.75 43.19889788383257 L146.75 36.80110211616743 Z"></path><path d="M151.75 39.39703755992581 L151.75 39.39703755992581 L151.75 40.602962440074194 L151.75 40.602962440074194 L151.75 39.39703755992581 Z"></path><path d="M156.75 39.83488555845935 L156.75 39.83488555845935 L156.75 40.16511444154065 L156.75 40.16511444154065 L156.75 39.83488555845935 Z"></path><path d="M161.75 39.81890298400577 L161.75 39.81890298400577 L161.75 40.181097015994226 L161.75 40.181097015994226 L161.75 39.81890298400577 Z"></path><path d="M166.75 36.695182340943866 L166.75 36.695182340943866 L166.75 43.304817659056134 L166.75 43.304817659056134 L166.75 36.695182340943866 Z"></path><path d="M171.75 38.71426414107666 L171.75 38.71426414107666 L171.75 41.28573585892334 L171.75 41.28573585892334 L171.75 38.71426414107666 Z"></path><path d="M176.75 38.31825070351473 L176.75 38.31825070351473 L176.75 41.68174929648527 L176.75 41.68174929648527 L176.75 38.31825070351473 Z"></path><path d="M181.75 38.535664437719056 L181.75 38.535664437719056 L181.75 41.46433556228094 L181.75 41.46433556228094 L181.75 38.535664437719056 Z"></path><path d="M186.75 39.63078199932578 L186.75 39.63078199932578 L186.75 40.36921800067422 L186.75 40.36921800067422 L186.75 39.63078199932578 Z"></path><path d="M191.75 39.75200289099271 L191.75 39.75200289099271 L191.75 40.24799710900729 L191.75 40.24799710900729 L191.75 39.75200289099271 Z"></path><path d="M196.75 37.79863349195592 L196.75 37.79863349195592 L196.75 42.201366508044075 L196.75 42.201366508044075 L196.75 37.79863349195592 Z"></path><path d="M201.75 39.535416237935046 L201.75 39.535416237935046 L201.75 40.46458376206496 L201.75 40.46458376206496 L201.75 39.535416237935046 Z"></path><path d="M206.75 39.475338432215345 L206.75 39.475338432215345 L206.75 40.52466156778465 L206.75 40.52466156778465 L206.75 39.475338432215345 Z"></path><path d="M211.75 39.513746004752726 L211.75 39.513746004752726 L211.75 40.486253995247274 L211.75 40.486253995247274 L211.75 39.513746004752726 Z"></path><path d="M216.75 39.821634839667304 L216.75 39.821634839667304 L216.75 40.178365160332696 L216.75 40.178365160332696 L216.75 39.821634839667304 Z"></path><path d="M221.75 39.836964333663865 L221.75 39.836964333663865 L221.75 40.163035666336135 L221.75 40.163035666336135 L221.75 39.836964333663865 Z"></path><path d="M226.75 26.67084200129533 L226.75 26.67084200129533 L226.75 53.32915799870467 L226.75 53.32915799870467 L226.75 26.67084200129533 Z"></path><path d="M231.75 37.23007878630104 L231.75 37.23007878630104 L231.75 42.76992121369896 L231.75 42.76992121369896 L231.75 37.23007878630104 Z"></path><path d="M236.75 39.13773835010428 L236.75 39.13773835010428 L236.75 40.862261649895714 L236.75 40.862261649895714 L236.75 39.13773835010428 Z"></path><path d="M241.75 39.18665234284266 L241.75 39.18665234284266 L241.75 40.81334765715734 L241.75 40.81334765715734 L241.75 39.18665234284266 Z"></path><path d="M246.75 39.45207806312735 L246.75 39.45207806312735 L246.75 40.54792193687265 L246.75 40.54792193687265 L246.75 39.45207806312735 Z"></path><path d="M251.75 39.697777497987936 L251.75 39.697777497987936 L251.75 40.302222502012064 L251.75 40.302222502012064 L251.75 39.697777497987936 Z"></path><path d="M256.75 33.96842941530072 L256.75 33.96842941530072 L256.75 46.031570584699274 L256.75 46.031570584699274 L256.75 33.96842941530072 Z"></path><path d="M261.75 34.423632388561614 L261.75 34.423632388561614 L261.75 45.576367611438386 L261.75 45.576367611438386 L261.75 34.423632388561614 Z"></path><path d="M266.75 39.60625435216967 L266.75 39.60625435216967 L266.75 40.39374564783033 L266.75 40.39374564783033 L266.75 39.60625435216967 Z"></path><path d="M271.75 33.960656472334065 L271.75 33.960656472334065 L271.75 46.039343527665935 L271.75 46.039343527665935 L271.75 33.960656472334065 Z"></path><path d="M276.75 36.69691528186544 L276.75 36.69691528186544 L276.75 43.30308471813456 L276.75 43.30308471813456 L276.75 36.69691528186544 Z"></path><path d="M281.75 39.66546755024544 L281.75 39.66546755024544 L281.75 40.334532449754555 L281.75 40.334532449754555 L281.75 39.66546755024544 Z"></path><path d="M286.75 39.83889753048069 L286.75 39.83889753048069 L286.75 40.161102469519314 L286.75 40.161102469519314 L286.75 39.83889753048069 Z"></path><path d="M291.75 32.42697324951267 L291.75 32.42697324951267 L291.75 47.57302675048733 L291.75 47.57302675048733 L291.75 32.42697324951267 Z"></path><path d="M296.75 39.03724989911412 L296.75 39.03724989911412 L296.75 40.96275010088588 L296.75 40.96275010088588 L296.75 39.03724989911412 Z"></path><path d="M301.75 38.46897554182515 L301.75 38.46897554182515 L301.75 41.53102445817485 L301.75 41.53102445817485 L301.75 38.46897554182515 Z"></path><path d="M306.75 35.20490961179783 L306.75 35.20490961179783 L306.75 44.79509038820216 L306.75 44.79509038820216 L306.75 35.20490961179783 Z"></path><path d="M311.75 39.282937729477844 L311.75 39.282937729477844 L311.75 40.717062270522156 L311.75 40.717062270522156 L311.75 39.282937729477844 Z"></path><path d="M316.75 39.86358973396745 L316.75 39.86358973396745 L316.75 40.13641026603255 L316.75 40.13641026603255 L316.75 39.86358973396745 Z"></path><path d="M321.75 38.74497921758323 L321.75 38.74497921758323 L321.75 41.25502078241678 L321.75 41.25502078241678 L321.75 38.74497921758323 Z"></path><path d="M326.75 39.59877049564685 L326.75 39.59877049564685 L326.75 40.40122950435315 L326.75 40.40122950435315 L326.75 39.59877049564685 Z"></path><path d="M331.75 39.40278567882322 L331.75 39.40278567882322 L331.75 40.59721432117677 L331.75 40.59721432117677 L331.75 39.40278567882322 Z"></path><path d="M336.75 33.39224182035396 L336.75 33.39224182035396 L336.75 46.60775817964604 L336.75 46.60775817964604 L336.75 33.39224182035396 Z"></path><path d="M341.75 39.11398743071458 L341.75 39.11398743071458 L341.75 40.88601256928541 L341.75 40.88601256928541 L341.75 39.11398743071458 Z"></path><path d="M346.75 39.734093868287985 L346.75 39.734093868287985 L346.75 40.265906131712015 L346.75 40.265906131712015 L346.75 39.734093868287985 Z"></path><path d="M351.75 0 L351.75 0 L351.75 80 L351.75 80 L351.75 0 Z"></path><path d="M356.75 36.31287375172227 L356.75 36.31287375172227 L356.75 43.687126248277735 L356.75 43.687126248277735 L356.75 36.31287375172227 Z"></path><path d="M361.75 39.58503940396794 L361.75 39.58503940396794 L361.75 40.41496059603207 L361.75 40.41496059603207 L361.75 39.58503940396794 Z"></path><path d="M366.75 33.46217799427626 L366.75 33.46217799427626 L366.75 46.53782200572373 L366.75 46.53782200572373 L366.75 33.46217799427626 Z"></path><path d="M371.75 39.4249907198273 L371.75 39.4249907198273 L371.75 40.5750092801727 L371.75 40.5750092801727 L371.75 39.4249907198273 Z"></path><path d="M376.75 39.865559943955425 L376.75 39.865559943955425 L376.75 40.134440056044575 L376.75 40.134440056044575 L376.75 39.865559943955425 Z"></path><path d="M381.75 29.5382727722641 L381.75 29.5382727722641 L381.75 50.46172722773589 L381.75 50.46172722773589 L381.75 29.5382727722641 Z"></path><path d="M386.75 38.36578690114442 L386.75 38.36578690114442 L386.75 41.63421309885558 L386.75 41.63421309885558 L386.75 38.36578690114442 Z"></path><path d="M391.75 39.203987379934844 L391.75 39.203987379934844 L391.75 40.79601262006516 L391.75 40.79601262006516 L391.75 39.203987379934844 Z"></path><path d="M396.75 36.59408996055073 L396.75 36.59408996055073 L396.75 43.40591003944927 L396.75 43.40591003944927 L396.75 36.59408996055073 Z"></path><path d="M401.75 38.99729360800395 L401.75 38.99729360800395 L401.75 41.00270639199605 L401.75 41.00270639199605 L401.75 38.99729360800395 Z"></path><path d="M406.75 39.53744402163606 L406.75 39.53744402163606 L406.75 40.46255597836394 L406.75 40.46255597836394 L406.75 39.53744402163606 Z"></path><path d="M411.75 39.781553743015735 L411.75 39.781553743015735 L411.75 40.21844625698427 L411.75 40.21844625698427 L411.75 39.781553743015735 Z"></path><path d="M416.75 32.35799399190456 L416.75 32.35799399190456 L416.75 47.64200600809544 L416.75 47.64200600809544 L416.75 32.35799399190456 Z"></path><path d="M421.75 38.680869262570845 L421.75 38.680869262570845 L421.75 41.31913073742915 L421.75 41.31913073742915 L421.75 38.680869262570845 Z"></path><path d="M426.75 39.447566340808436 L426.75 39.447566340808436 L426.75 40.552433659191564 L426.75 40.552433659191564 L426.75 39.447566340808436 Z"></path><path d="M431.75 38.591651456190924 L431.75 38.591651456190924 L431.75 41.408348543809076 L431.75 41.408348543809076 L431.75 38.591651456190924 Z"></path><path d="M436.75 39.452566977696684 L436.75 39.452566977696684 L436.75 40.54743302230332 L436.75 40.54743302230332 L436.75 39.452566977696684 Z"></path><path d="M441.75 39.79707105649974 L441.75 39.79707105649974 L441.75 40.20292894350026 L441.75 40.20292894350026 L441.75 39.79707105649974 Z"></path><path d="M446.75 35.57018791931053 L446.75 35.57018791931053 L446.75 44.42981208068948 L446.75 44.42981208068948 L446.75 35.57018791931053 Z"></path><path d="M451.75 39.68531760740724 L451.75 39.68531760740724 L451.75 40.31468239259276 L451.75 40.31468239259276 L451.75 39.68531760740724 Z"></path><path d="M456.75 39.590555107667406 L456.75 39.590555107667406 L456.75 40.409444892332594 L456.75 40.409444892332594 L456.75 39.590555107667406 Z"></path><path d="M461.75 38.80502890597982 L461.75 38.80502890597982 L461.75 41.19497109402018 L461.75 41.19497109402018 L461.75 38.80502890597982 Z"></path><path d="M466.75 39.67263765354729 L466.75 39.67263765354729 L466.75 40.3273623464527 L466.75 40.3273623464527 L466.75 39.67263765354729 Z"></path><path d="M471.75 39.724392725850656 L471.75 39.724392725850656 L471.75 40.27560727414935 L471.75 40.27560727414935 L471.75 39.724392725850656 Z"></path><path d="M476.75 21.837617512730404 L476.75 21.837617512730404 L476.75 58.162382487269596 L476.75 58.162382487269596 L476.75 21.837617512730404 Z"></path><path d="M481.75 37.622917366357214 L481.75 37.622917366357214 L481.75 42.377082633642786 L481.75 42.377082633642786 L481.75 37.622917366357214 Z"></path><path d="M486.75 39.57383077108536 L486.75 39.57383077108536 L486.75 40.42616922891464 L486.75 40.42616922891464 L486.75 39.57383077108536 Z"></path><path d="M491.75 35.419764539319004 L491.75 35.419764539319004 L491.75 44.580235460680996 L491.75 44.580235460680996 L491.75 35.419764539319004 Z"></path><path d="M496.75 39.73277694717173 L496.75 39.73277694717173 L496.75 40.26722305282827 L496.75 40.26722305282827 L496.75 39.73277694717173 Z"></path></svg>