<?xml version="1.0" standalone="no"?><!DOCTYPE svg PUBLIC "-//W3C//DTD SVG 1.1//EN" "http://www.w3.org/Graphics/SVG/1.1/DTD/svg11.dtd"><svg id="017e1240-58cd-f40c-41e0-7c8d322a225b" xmlns="http://www.w3.org/2000/svg" version="1.1" viewBox="0 0 500 80"><style type="text/css">path{stroke:white;stroke-width:3.5}</style><path d="M1.75 39.723433311724484 L1.75 39.723433311724484 L1.75 40.27656668827551 L1.75 40.27656668827551 L1.75 39.723433311724484 Z"></path><path d="M6.75 39.74699968229986 L6.75 39.74699968229986 L6.75 40.25300031770014 L6.75 40.25300031770014 L6.75 39.74699968229986 Z"></path><path d="M11.75 39.583054852686075 L11.75 39.583054852686075 L11.75 40.416945147313925 L11.75 40.416945147313925 L11.75 39.583054852686075 Z"></path><path d="M16.75 39.66934905972164 L16.75 39.66934905972164 L16.75 40.33065094027837 L16.75 40.33065094027837 L16.75 39.66934905972164 Z"></path><path d="M21.75 39.81286296588678 L21.75 39.81286296588678 L21.75 40.18713703411321 L21.75 40.18713703411321 L21.75 39.81286296588678 Z"></path><path d="M26.75 13.514331337923863 L26.75 13.514331337923863 L26.75 66.48566866207614 L26.75 66.48566866207614 L26.75 13.514331337923863 Z"></path><path d="M31.75 10.761236981679303 L31.75 10.761236981679303 L31.75 69.2387630183207 L31.75 69.2387630183207 L31.75 10.761236981679303 Z"></path><path d="M36.75 18.940297927125883 L36.75 18.940297927125883 L36.75 61.05970207287412 L36.75 61.05970207287412 L36.75 18.940297927125883 Z"></path><path d="M41.75 20.79425954634338 L41.75 20.79425954634338 L41.75 59.20574045365662 L41.75 59.20574045365662 L41.75 20.79425954634338 Z"></path><path d="M46.75 38.5427662427709 L46.75 38.5427662427709 L46.75 41.457233757229105 L46.75 41.457233757229105 L46.75 38.5427662427709 Z"></path><path d="M51.75 39.8035533240283 L51.75 39.8035533240283 L51.75 40.19644667597169 L51.75 40.19644667597169 L51.75 39.8035533240283 Z"></path><path d="M56.75 39.782513326384226 L56.75 39.782513326384226 L56.75 40.21748667361577 L56.75 40.21748667361577 L56.75 39.782513326384226 Z"></path><path d="M61.75 32.29778313237379 L61.75 32.29778313237379 L61.75 47.70221686762621 L61.75 47.70221686762621 L61.75 32.29778313237379 Z"></path><path d="M66.75 39.707588093943066 L66.75 39.707588093943066 L66.75 40.29241190605694 L66.75 40.29241190605694 L66.75 39.707588093943066 Z"></path><path d="M71.75 38.13553030833524 L71.75 38.13553030833524 L71.75 41.86446969166475 L71.75 41.86446969166475 L71.75 38.13553030833524 Z"></path><path d="M76.75 39.46393520009906 L76.75 39.46393520009906 L76.75 40.53606479990094 L76.75 40.53606479990094 L76.75 39.46393520009906 Z"></path><path d="M81.75 39.66017980028717 L81.75 39.66017980028717 L81.75 40.33982019971283 L81.75 40.33982019971283 L81.75 39.66017980028717 Z"></path><path d="M86.75 36.334081811032604 L86.75 36.334081811032604 L86.75 43.66591818896739 L86.75 43.66591818896739 L86.75 36.334081811032604 Z"></path><path d="M91.75 12.393608021982775 L91.75 12.393608021982775 L91.75 67.60639197801723 L91.75 67.60639197801723 L91.75 12.393608021982775 Z"></path><path d="M96.75 12.933647848812296 L96.75 12.933647848812296 L96.75 67.0663521511877 L96.75 67.0663521511877 L96.75 12.933647848812296 Z"></path><path d="M101.75 17.879335264328937 L101.75 17.879335264328937 L101.75 62.12066473567106 L101.75 62.12066473567106 L101.75 17.879335264328937 Z"></path><path d="M106.75 33.209048268423686 L106.75 33.209048268423686 L106.75 46.79095173157632 L106.75 46.79095173157632 L106.75 33.209048268423686 Z"></path><path d="M111.75 39.76685958978186 L111.75 39.76685958978186 L111.75 40.233140410218134 L111.75 40.233140410218134 L111.75 39.76685958978186 Z"></path><path d="M116.75 39.78609472598768 L116.75 39.78609472598768 L116.75 40.21390527401232 L116.75 40.21390527401232 L116.75 39.78609472598768 Z"></path><path d="M121.75 28.757710409106274 L121.75 28.757710409106274 L121.75 51.242289590893726 L121.75 51.242289590893726 L121.75 28.757710409106274 Z"></path><path d="M126.75 39.78265904506957 L126.75 39.78265904506957 L126.75 40.21734095493043 L126.75 40.21734095493043 L126.75 39.78265904506957 Z"></path><path d="M131.75 39.8186577622043 L131.75 39.8186577622043 L131.75 40.1813422377957 L131.75 40.1813422377957 L131.75 39.8186577622043 Z"></path><path d="M136.75 39.59420598208835 L136.75 39.59420598208835 L136.75 40.405794017911646 L136.75 40.405794017911646 L136.75 39.59420598208835 Z"></path><path d="M141.75 39.73428979200304 L141.75 39.73428979200304 L141.75 40.26571020799695 L141.75 40.26571020799695 L141.75 39.73428979200304 Z"></path><path d="M146.75 39.81523286832645 L146.75 39.81523286832645 L146.75 40.184767131673546 L146.75 40.184767131673546 L146.75 39.81523286832645 Z"></path><path d="M151.75 16.22054758585517 L151.75 16.22054758585517 L151.75 63.77945241414483 L151.75 63.77945241414483 L151.75 16.22054758585517 Z"></path><path d="M156.75 0 L156.75 0 L156.75 80 L156.75 80 L156.75 0 Z"></path><path d="M161.75 23.3770096801897 L161.75 23.3770096801897 L161.75 56.6229903198103 L161.75 56.6229903198103 L161.75 23.3770096801897 Z"></path><path d="M166.75 23.770096544070885 L166.75 23.770096544070885 L166.75 56.22990345592912 L166.75 56.22990345592912 L166.75 23.770096544070885 Z"></path><path d="M171.75 38.30252774421088 L171.75 38.30252774421088 L171.75 41.69747225578912 L171.75 41.69747225578912 L171.75 38.30252774421088 Z"></path><path d="M176.75 39.802767015492016 L176.75 39.802767015492016 L176.75 40.197232984507984 L176.75 40.197232984507984 L176.75 39.802767015492016 Z"></path><path d="M181.75 26.286705117320928 L181.75 26.286705117320928 L181.75 53.71329488267907 L181.75 53.71329488267907 L181.75 26.286705117320928 Z"></path><path d="M186.75 33.91326026113456 L186.75 33.91326026113456 L186.75 46.08673973886544 L186.75 46.08673973886544 L186.75 33.91326026113456 Z"></path><path d="M191.75 39.71241658261152 L191.75 39.71241658261152 L191.75 40.28758341738848 L191.75 40.28758341738848 L191.75 39.71241658261152 Z"></path><path d="M196.75 39.63638213269403 L196.75 39.63638213269403 L196.75 40.36361786730597 L196.75 40.36361786730597 L196.75 39.63638213269403 Z"></path><path d="M201.75 39.462299987727455 L201.75 39.462299987727455 L201.75 40.53770001227255 L201.75 40.53770001227255 L201.75 39.462299987727455 Z"></path><path d="M206.75 39.79313556185225 L206.75 39.79313556185225 L206.75 40.206864438147754 L206.75 40.206864438147754 L206.75 39.79313556185225 Z"></path><path d="M211.75 28.727748038650518 L211.75 28.727748038650518 L211.75 51.27225196134948 L211.75 51.27225196134948 L211.75 28.727748038650518 Z"></path><path d="M216.75 0.6170134148198798 L216.75 0.6170134148198798 L216.75 79.38298658518012 L216.75 79.38298658518012 L216.75 0.6170134148198798 Z"></path><path d="M221.75 10.6151502015041 L221.75 10.6151502015041 L221.75 69.3848497984959 L221.75 69.3848497984959 L221.75 10.6151502015041 Z"></path><path d="M226.75 16.109375230091892 L226.75 16.109375230091892 L226.75 63.89062476990811 L226.75 63.89062476990811 L226.75 16.109375230091892 Z"></path><path d="M231.75 30.34348580184561 L231.75 30.34348580184561 L231.75 49.65651419815438 L231.75 49.65651419815438 L231.75 30.34348580184561 Z"></path><path d="M236.75 39.75851961550255 L236.75 39.75851961550255 L236.75 40.24148038449746 L236.75 40.24148038449746 L236.75 39.75851961550255 Z"></path><path d="M241.75 39.771416843918 L241.75 39.771416843918 L241.75 40.22858315608201 L241.75 40.22858315608201 L241.75 39.771416843918 Z"></path><path d="M246.75 27.880605675176774 L246.75 27.880605675176774 L246.75 52.11939432482322 L246.75 52.11939432482322 L246.75 27.880605675176774 Z"></path><path d="M251.75 39.740125540009025 L251.75 39.740125540009025 L251.75 40.25987445999098 L251.75 40.25987445999098 L251.75 39.740125540009025 Z"></path><path d="M256.75 39.78413012662923 L256.75 39.78413012662923 L256.75 40.215869873370764 L256.75 40.215869873370764 L256.75 39.78413012662923 Z"></path><path d="M261.75 39.603024495923975 L261.75 39.603024495923975 L261.75 40.396975504076025 L261.75 40.396975504076025 L261.75 39.603024495923975 Z"></path><path d="M266.75 39.68056283983309 L266.75 39.68056283983309 L266.75 40.319437160166906 L266.75 40.319437160166906 L266.75 39.68056283983309 Z"></path><path d="M271.75 39.800948975351155 L271.75 39.800948975351155 L271.75 40.19905102464885 L271.75 40.19905102464885 L271.75 39.800948975351155 Z"></path><path d="M276.75 7.879806373395894 L276.75 7.879806373395894 L276.75 72.1201936266041 L276.75 72.1201936266041 L276.75 7.879806373395894 Z"></path><path d="M281.75 5.356089036418787 L281.75 5.356089036418787 L281.75 74.64391096358122 L281.75 74.64391096358122 L281.75 5.356089036418787 Z"></path><path d="M286.75 20.821703765532163 L286.75 20.821703765532163 L286.75 59.17829623446784 L286.75 59.17829623446784 L286.75 20.821703765532163 Z"></path><path d="M291.75 23.51406927136491 L291.75 23.51406927136491 L291.75 56.48593072863509 L291.75 56.48593072863509 L291.75 23.51406927136491 Z"></path><path d="M296.75 39.66543307033258 L296.75 39.66543307033258 L296.75 40.33456692966741 L296.75 40.33456692966741 L296.75 39.66543307033258 Z"></path><path d="M301.75 39.81428562524117 L301.75 39.81428562524117 L301.75 40.18571437475883 L301.75 40.18571437475883 L301.75 39.81428562524117 Z"></path><path d="M306.75 22.883100579512316 L306.75 22.883100579512316 L306.75 57.116899420487684 L306.75 57.116899420487684 L306.75 22.883100579512316 Z"></path><path d="M311.75 39.53917502556002 L311.75 39.53917502556002 L311.75 40.46082497443998 L311.75 40.46082497443998 L311.75 39.53917502556002 Z"></path><path d="M316.75 39.733239838738996 L316.75 39.733239838738996 L316.75 40.266760161261004 L316.75 40.266760161261004 L316.75 39.733239838738996 Z"></path><path d="M321.75 39.640746245371766 L321.75 39.640746245371766 L321.75 40.359253754628234 L321.75 40.359253754628234 L321.75 39.640746245371766 Z"></path><path d="M326.75 39.618689058663115 L326.75 39.618689058663115 L326.75 40.38131094133688 L326.75 40.38131094133688 L326.75 39.618689058663115 Z"></path><path d="M331.75 39.598187810275704 L331.75 39.598187810275704 L331.75 40.4018121897243 L331.75 40.4018121897243 L331.75 39.598187810275704 Z"></path><path d="M336.75 25.103293091090382 L336.75 25.103293091090382 L336.75 54.89670690890962 L336.75 54.89670690890962 L336.75 25.103293091090382 Z"></path><path d="M341.75 15.984989547774685 L341.75 15.984989547774685 L341.75 64.01501045222531 L341.75 64.01501045222531 L341.75 15.984989547774685 Z"></path><path d="M346.75 15.39569093810982 L346.75 15.39569093810982 L346.75 64.60430906189018 L346.75 64.60430906189018 L346.75 15.39569093810982 Z"></path><path d="M351.75 22.983831520454277 L351.75 22.983831520454277 L351.75 57.016168479545726 L351.75 57.016168479545726 L351.75 22.983831520454277 Z"></path><path d="M356.75 37.06672328124651 L356.75 37.06672328124651 L356.75 42.93327671875348 L356.75 42.93327671875348 L356.75 37.06672328124651 Z"></path><path d="M361.75 39.786524737184386 L361.75 39.786524737184386 L361.75 40.21347526281562 L361.75 40.21347526281562 L361.75 39.786524737184386 Z"></path><path d="M366.75 39.82510648071564 L366.75 39.82510648071564 L366.75 40.17489351928435 L366.75 40.17489351928435 L366.75 39.82510648071564 Z"></path><path d="M371.75 30.09637418256522 L371.75 30.09637418256522 L371.75 49.903625817434786 L371.75 49.903625817434786 L371.75 30.09637418256522 Z"></path><path d="M376.75 39.79733989559251 L376.75 39.79733989559251 L376.75 40.20266010440749 L376.75 40.20266010440749 L376.75 39.79733989559251 Z"></path><path d="M381.75 39.82818256408961 L381.75 39.82818256408961 L381.75 40.17181743591039 L381.75 40.17181743591039 L381.75 39.82818256408961 Z"></path><path d="M386.75 39.5527049151522 L386.75 39.5527049151522 L386.75 40.447295084847795 L386.75 40.447295084847795 L386.75 39.5527049151522 Z"></path><path d="M391.75 39.56731457122257 L391.75 39.56731457122257 L391.75 40.43268542877743 L391.75 40.43268542877743 L391.75 39.56731457122257 Z"></path><path d="M396.75 39.770450774216435 L396.75 39.770450774216435 L396.75 40.229549225783565 L396.75 40.229549225783565 L396.75 39.770450774216435 Z"></path><path d="M401.75 17.995451683040052 L401.75 17.995451683040052 L401.75 62.00454831695995 L401.75 62.00454831695995 L401.75 17.995451683040052 Z"></path><path d="M406.75 15.269658407320296 L406.75 15.269658407320296 L406.75 64.73034159267971 L406.75 64.73034159267971 L406.75 15.269658407320296 Z"></path><path d="M411.75 17.507639261078825 L411.75 17.507639261078825 L411.75 62.49236073892118 L411.75 62.49236073892118 L411.75 17.507639261078825 Z"></path><path d="M416.75 19.130425281853658 L416.75 19.130425281853658 L416.75 60.86957471814634 L416.75 60.86957471814634 L416.75 19.130425281853658 Z"></path><path d="M421.75 39.15566697764979 L421.75 39.15566697764979 L421.75 40.84433302235022 L421.75 40.84433302235022 L421.75 39.15566697764979 Z"></path><path d="M426.75 39.79510803840517 L426.75 39.79510803840517 L426.75 40.20489196159483 L426.75 40.20489196159483 L426.75 39.79510803840517 Z"></path><path d="M431.75 31.13512684031908 L431.75 31.13512684031908 L431.75 48.86487315968091 L431.75 48.86487315968091 L431.75 31.13512684031908 Z"></path><path d="M436.75 38.93255228127297 L436.75 38.93255228127297 L436.75 41.06744771872704 L436.75 41.06744771872704 L436.75 38.93255228127297 Z"></path><path d="M441.75 39.79653658750777 L441.75 39.79653658750777 L441.75 40.20346341249224 L441.75 40.20346341249224 L441.75 39.79653658750777 Z"></path><path d="M446.75 39.504008885886805 L446.75 39.504008885886805 L446.75 40.4959911141132 L446.75 40.4959911141132 L446.75 39.504008885886805 Z"></path><path d="M451.75 39.55740106583781 L451.75 39.55740106583781 L451.75 40.44259893416219 L451.75 40.44259893416219 L451.75 39.55740106583781 Z"></path><path d="M456.75 39.71828409556331 L456.75 39.71828409556331 L456.75 40.28171590443669 L456.75 40.28171590443669 L456.75 39.71828409556331 Z"></path><path d="M461.75 26.79713534932038 L461.75 26.79713534932038 L461.75 53.202864650679615 L461.75 53.202864650679615 L461.75 26.79713534932038 Z"></path><path d="M466.75 8.15224033252439 L466.75 8.15224033252439 L466.75 71.84775966747561 L466.75 71.84775966747561 L466.75 8.15224033252439 Z"></path><path d="M471.75 11.939908789702542 L471.75 11.939908789702542 L471.75 68.06009121029746 L471.75 68.06009121029746 L471.75 11.939908789702542 Z"></path><path d="M476.75 19.109732397028086 L476.75 19.109732397028086 L476.75 60.89026760297192 L476.75 60.89026760297192 L476.75 19.109732397028086 Z"></path><path d="M481.75 35.326138963834865 L481.75 35.326138963834865 L481.75 44.673861036165135 L481.75 44.673861036165135 L481.75 35.326138963834865 Z"></path><path d="M486.75 39.76722622593933 L486.75 39.76722622593933 L486.75 40.23277377406067 L486.75 40.23277377406067 L486.75 39.76722622593933 Z"></path><path d="M491.75 39.80762841503726 L491.75 39.80762841503726 L491.75 40.19237158496275 L491.75 40.19237158496275 L491.75 39.80762841503726 Z"></path><path d="M496.75 27.716137454599206 L496.75 27.716137454599206 L496.75 52.283862545400794 L496.75 52.283862545400794 L496.75 27.716137454599206 Z"></path></svg>