<?xml version="1.0" standalone="no"?><!DOCTYPE svg PUBLIC "-//W3C//DTD SVG 1.1//EN" "http://www.w3.org/Graphics/SVG/1.1/DTD/svg11.dtd"><svg id="2d7562b9-795c-5c75-bc2e-d65b9008d23f" xmlns="http://www.w3.org/2000/svg" version="1.1" viewBox="0 0 500 80"><style type="text/css">path{stroke:white;stroke-width:3.5}</style><path d="M1.75 39.81042471751937 L1.75 39.81042471751937 L1.75 40.189575282480625 L1.75 40.189575282480625 L1.75 39.81042471751937 Z"></path><path d="M6.75 23.713820253131665 L6.75 23.713820253131665 L6.75 56.286179746868335 L6.75 56.286179746868335 L6.75 23.713820253131665 Z"></path><path d="M11.75 3.9055858536053876 L11.75 3.9055858536053876 L11.75 76.09441414639461 L11.75 76.09441414639461 L11.75 3.9055858536053876 Z"></path><path d="M16.75 11.182168447491957 L16.75 11.182168447491957 L16.75 68.81783155250804 L16.75 68.81783155250804 L16.75 11.182168447491957 Z"></path><path d="M21.75 6.447635304340757 L21.75 6.447635304340757 L21.75 73.55236469565924 L21.75 73.55236469565924 L21.75 6.447635304340757 Z"></path><path d="M26.75 13.323643427210918 L26.75 13.323643427210918 L26.75 66.67635657278908 L26.75 66.67635657278908 L26.75 13.323643427210918 Z"></path><path d="M31.75 20.43836940125525 L31.75 20.43836940125525 L31.75 59.56163059874475 L31.75 59.56163059874475 L31.75 20.43836940125525 Z"></path><path d="M36.75 18.64283623491274 L36.75 18.64283623491274 L36.75 61.357163765087265 L36.75 61.357163765087265 L36.75 18.64283623491274 Z"></path><path d="M41.75 30.89903006085134 L41.75 30.89903006085134 L41.75 49.100969939148655 L41.75 49.100969939148655 L41.75 30.89903006085134 Z"></path><path d="M46.75 38.84064198975898 L46.75 38.84064198975898 L46.75 41.15935801024102 L46.75 41.15935801024102 L46.75 38.84064198975898 Z"></path><path d="M51.75 22.639761054508284 L51.75 22.639761054508284 L51.75 57.360238945491716 L51.75 57.360238945491716 L51.75 22.639761054508284 Z"></path><path d="M56.75 9.637431339938956 L56.75 9.637431339938956 L56.75 70.36256866006104 L56.75 70.36256866006104 L56.75 9.637431339938956 Z"></path><path d="M61.75 5.601332611298396 L61.75 5.601332611298396 L61.75 74.3986673887016 L61.75 74.3986673887016 L61.75 5.601332611298396 Z"></path><path d="M66.75 11.34066480534431 L66.75 11.34066480534431 L66.75 68.65933519465568 L66.75 68.65933519465568 L66.75 11.34066480534431 Z"></path><path d="M71.75 14.454952134248586 L71.75 14.454952134248586 L71.75 65.54504786575141 L71.75 65.54504786575141 L71.75 14.454952134248586 Z"></path><path d="M76.75 18.68480212554847 L76.75 18.68480212554847 L76.75 61.31519787445153 L76.75 61.31519787445153 L76.75 18.68480212554847 Z"></path><path d="M81.75 33.83261803059202 L81.75 33.83261803059202 L81.75 46.16738196940797 L81.75 46.16738196940797 L81.75 33.83261803059202 Z"></path><path d="M86.75 4.314991890234857 L86.75 4.314991890234857 L86.75 75.68500810976514 L86.75 75.68500810976514 L86.75 4.314991890234857 Z"></path><path d="M91.75 10.860939217075611 L91.75 10.860939217075611 L91.75 69.13906078292439 L91.75 69.13906078292439 L91.75 10.860939217075611 Z"></path><path d="M96.75 13.212529975156052 L96.75 13.212529975156052 L96.75 66.78747002484394 L96.75 66.78747002484394 L96.75 13.212529975156052 Z"></path><path d="M101.75 29.931453686036548 L101.75 29.931453686036548 L101.75 50.06854631396345 L101.75 50.06854631396345 L101.75 29.931453686036548 Z"></path><path d="M106.75 39.347376286685986 L106.75 39.347376286685986 L106.75 40.65262371331401 L106.75 40.65262371331401 L106.75 39.347376286685986 Z"></path><path d="M111.75 39.342807316036456 L111.75 39.342807316036456 L111.75 40.65719268396355 L111.75 40.65719268396355 L111.75 39.342807316036456 Z"></path><path d="M116.75 39.63262042206458 L116.75 39.63262042206458 L116.75 40.36737957793542 L116.75 40.36737957793542 L116.75 39.63262042206458 Z"></path><path d="M121.75 39.80541224114217 L121.75 39.80541224114217 L121.75 40.194587758857836 L121.75 40.194587758857836 L121.75 39.80541224114217 Z"></path><path d="M126.75 39.8307992530723 L126.75 39.8307992530723 L126.75 40.1692007469277 L126.75 40.1692007469277 L126.75 39.8307992530723 Z"></path><path d="M131.75 13.608428143242982 L131.75 13.608428143242982 L131.75 66.39157185675703 L131.75 66.39157185675703 L131.75 13.608428143242982 Z"></path><path d="M136.75 3.2696860895608353 L136.75 3.2696860895608353 L136.75 76.73031391043916 L136.75 76.73031391043916 L136.75 3.2696860895608353 Z"></path><path d="M141.75 17.902572197652855 L141.75 17.902572197652855 L141.75 62.09742780234714 L141.75 62.09742780234714 L141.75 17.902572197652855 Z"></path><path d="M146.75 13.754698600333658 L146.75 13.754698600333658 L146.75 66.24530139966635 L146.75 66.24530139966635 L146.75 13.754698600333658 Z"></path><path d="M151.75 8.894087000896942 L151.75 8.894087000896942 L151.75 71.10591299910305 L151.75 71.10591299910305 L151.75 8.894087000896942 Z"></path><path d="M156.75 17.80333221887008 L156.75 17.80333221887008 L156.75 62.19666778112992 L156.75 62.19666778112992 L156.75 17.80333221887008 Z"></path><path d="M161.75 23.1826571110575 L161.75 23.1826571110575 L161.75 56.8173428889425 L161.75 56.8173428889425 L161.75 23.1826571110575 Z"></path><path d="M166.75 32.696786854547234 L166.75 32.696786854547234 L166.75 47.30321314545277 L166.75 47.30321314545277 L166.75 32.696786854547234 Z"></path><path d="M171.75 39.09749735590427 L171.75 39.09749735590427 L171.75 40.90250264409573 L171.75 40.90250264409573 L171.75 39.09749735590427 Z"></path><path d="M176.75 36.21316339494124 L176.75 36.21316339494124 L176.75 43.78683660505877 L176.75 43.78683660505877 L176.75 36.21316339494124 Z"></path><path d="M181.75 7.950655301526041 L181.75 7.950655301526041 L181.75 72.04934469847396 L181.75 72.04934469847396 L181.75 7.950655301526041 Z"></path><path d="M186.75 5.679754676816216 L186.75 5.679754676816216 L186.75 74.32024532318378 L186.75 74.32024532318378 L186.75 5.679754676816216 Z"></path><path d="M191.75 14.906273181294168 L191.75 14.906273181294168 L191.75 65.09372681870583 L191.75 65.09372681870583 L191.75 14.906273181294168 Z"></path><path d="M196.75 12.028640959998313 L196.75 12.028640959998313 L196.75 67.97135904000169 L196.75 67.97135904000169 L196.75 12.028640959998313 Z"></path><path d="M201.75 15.618722737668865 L201.75 15.618722737668865 L201.75 64.38127726233114 L201.75 64.38127726233114 L201.75 15.618722737668865 Z"></path><path d="M206.75 8.708517019496117 L206.75 8.708517019496117 L206.75 71.29148298050389 L206.75 71.29148298050389 L206.75 8.708517019496117 Z"></path><path d="M211.75 13.26869471328235 L211.75 13.26869471328235 L211.75 66.73130528671766 L211.75 66.73130528671766 L211.75 13.26869471328235 Z"></path><path d="M216.75 19.139297567317925 L216.75 19.139297567317925 L216.75 60.860702432682075 L216.75 60.860702432682075 L216.75 19.139297567317925 Z"></path><path d="M221.75 19.87212945160624 L221.75 19.87212945160624 L221.75 60.12787054839376 L221.75 60.12787054839376 L221.75 19.87212945160624 Z"></path><path d="M226.75 29.577741883087157 L226.75 29.577741883087157 L226.75 50.42225811691284 L226.75 50.42225811691284 L226.75 29.577741883087157 Z"></path><path d="M231.75 39.06657900807491 L231.75 39.06657900807491 L231.75 40.93342099192509 L231.75 40.93342099192509 L231.75 39.06657900807491 Z"></path><path d="M236.75 39.17661691521546 L236.75 39.17661691521546 L236.75 40.82338308478453 L236.75 40.82338308478453 L236.75 39.17661691521546 Z"></path><path d="M241.75 39.57475576571265 L241.75 39.57475576571265 L241.75 40.425244234287355 L241.75 40.425244234287355 L241.75 39.57475576571265 Z"></path><path d="M246.75 39.82005363878934 L246.75 39.82005363878934 L246.75 40.17994636121065 L246.75 40.17994636121065 L246.75 39.82005363878934 Z"></path><path d="M251.75 39.79668194565985 L251.75 39.79668194565985 L251.75 40.20331805434015 L251.75 40.20331805434015 L251.75 39.79668194565985 Z"></path><path d="M256.75 21.49295949077426 L256.75 21.49295949077426 L256.75 58.50704050922574 L256.75 58.50704050922574 L256.75 21.49295949077426 Z"></path><path d="M261.75 6.326128544519591 L261.75 6.326128544519591 L261.75 73.67387145548041 L261.75 73.67387145548041 L261.75 6.326128544519591 Z"></path><path d="M266.75 12.252845330235182 L266.75 12.252845330235182 L266.75 67.74715466976483 L266.75 67.74715466976483 L266.75 12.252845330235182 Z"></path><path d="M271.75 19.107818801529923 L271.75 19.107818801529923 L271.75 60.89218119847008 L271.75 60.89218119847008 L271.75 19.107818801529923 Z"></path><path d="M276.75 16.036858669927472 L276.75 16.036858669927472 L276.75 63.96314133007253 L276.75 63.96314133007253 L276.75 16.036858669927472 Z"></path><path d="M281.75 19.068352121465455 L281.75 19.068352121465455 L281.75 60.93164787853455 L281.75 60.93164787853455 L281.75 19.068352121465455 Z"></path><path d="M286.75 20.653477685801775 L286.75 20.653477685801775 L286.75 59.346522314198225 L286.75 59.346522314198225 L286.75 20.653477685801775 Z"></path><path d="M291.75 33.24725661421709 L291.75 33.24725661421709 L291.75 46.75274338578291 L291.75 46.75274338578291 L291.75 33.24725661421709 Z"></path><path d="M296.75 39.23842651369083 L296.75 39.23842651369083 L296.75 40.76157348630916 L296.75 40.76157348630916 L296.75 39.23842651369083 Z"></path><path d="M301.75 19.684511600033833 L301.75 19.684511600033833 L301.75 60.31548839996617 L301.75 60.31548839996617 L301.75 19.684511600033833 Z"></path><path d="M306.75 6.701860453688944 L306.75 6.701860453688944 L306.75 73.29813954631106 L306.75 73.29813954631106 L306.75 6.701860453688944 Z"></path><path d="M311.75 16.438203064005762 L311.75 16.438203064005762 L311.75 63.56179693599424 L311.75 63.56179693599424 L311.75 16.438203064005762 Z"></path><path d="M316.75 10.003444486390642 L316.75 10.003444486390642 L316.75 69.99655551360937 L316.75 69.99655551360937 L316.75 10.003444486390642 Z"></path><path d="M321.75 6.134881817752621 L321.75 6.134881817752621 L321.75 73.86511818224739 L321.75 73.86511818224739 L321.75 6.134881817752621 Z"></path><path d="M326.75 15.089401633516509 L326.75 15.089401633516509 L326.75 64.9105983664835 L326.75 64.9105983664835 L326.75 15.089401633516509 Z"></path><path d="M331.75 26.076709040381104 L331.75 26.076709040381104 L331.75 53.923290959618896 L331.75 53.923290959618896 L331.75 26.076709040381104 Z"></path><path d="M336.75 18.881549361260678 L336.75 18.881549361260678 L336.75 61.11845063873932 L336.75 61.11845063873932 L336.75 18.881549361260678 Z"></path><path d="M341.75 0 L341.75 0 L341.75 80 L341.75 80 L341.75 0 Z"></path><path d="M346.75 13.263213783483543 L346.75 13.263213783483543 L346.75 66.73678621651646 L346.75 66.73678621651646 L346.75 13.263213783483543 Z"></path><path d="M351.75 37.64270067460713 L351.75 37.64270067460713 L351.75 42.357299325392866 L351.75 42.357299325392866 L351.75 37.64270067460713 Z"></path><path d="M356.75 38.59372622047562 L356.75 38.59372622047562 L356.75 41.40627377952439 L356.75 41.40627377952439 L356.75 38.59372622047562 Z"></path><path d="M361.75 39.51049138801903 L361.75 39.51049138801903 L361.75 40.489508611980966 L361.75 40.489508611980966 L361.75 39.51049138801903 Z"></path><path d="M366.75 39.66053783030499 L366.75 39.66053783030499 L366.75 40.33946216969501 L366.75 40.33946216969501 L366.75 39.66053783030499 Z"></path><path d="M371.75 39.76035039711809 L371.75 39.76035039711809 L371.75 40.23964960288192 L371.75 40.23964960288192 L371.75 39.76035039711809 Z"></path><path d="M376.75 39.833072909693875 L376.75 39.833072909693875 L376.75 40.166927090306125 L376.75 40.166927090306125 L376.75 39.833072909693875 Z"></path><path d="M381.75 11.326778431543755 L381.75 11.326778431543755 L381.75 68.67322156845624 L381.75 68.67322156845624 L381.75 11.326778431543755 Z"></path><path d="M386.75 11.040770965667686 L386.75 11.040770965667686 L386.75 68.95922903433231 L386.75 68.95922903433231 L386.75 11.040770965667686 Z"></path><path d="M391.75 17.2430739340849 L391.75 17.2430739340849 L391.75 62.756926065915096 L391.75 62.756926065915096 L391.75 17.2430739340849 Z"></path><path d="M396.75 14.231446793151502 L396.75 14.231446793151502 L396.75 65.7685532068485 L396.75 65.7685532068485 L396.75 14.231446793151502 Z"></path><path d="M401.75 14.417220917944576 L401.75 14.417220917944576 L401.75 65.58277908205542 L401.75 65.58277908205542 L401.75 14.417220917944576 Z"></path><path d="M406.75 20.715757599903174 L406.75 20.715757599903174 L406.75 59.28424240009683 L406.75 59.28424240009683 L406.75 20.715757599903174 Z"></path><path d="M411.75 25.26987480501046 L411.75 25.26987480501046 L411.75 54.73012519498954 L411.75 54.73012519498954 L411.75 25.26987480501046 Z"></path><path d="M416.75 37.679204834078156 L416.75 37.679204834078156 L416.75 42.32079516592184 L416.75 42.32079516592184 L416.75 37.679204834078156 Z"></path><path d="M421.75 39.565143327343286 L421.75 39.565143327343286 L421.75 40.43485667265672 L421.75 40.43485667265672 L421.75 39.565143327343286 Z"></path><path d="M426.75 23.728005670424167 L426.75 23.728005670424167 L426.75 56.27199432957583 L426.75 56.27199432957583 L426.75 23.728005670424167 Z"></path><path d="M431.75 5.915003422139883 L431.75 5.915003422139883 L431.75 74.08499657786012 L431.75 74.08499657786012 L431.75 5.915003422139883 Z"></path><path d="M436.75 16.935575915440452 L436.75 16.935575915440452 L436.75 63.06442408455955 L436.75 63.06442408455955 L436.75 16.935575915440452 Z"></path><path d="M441.75 8.00626599344541 L441.75 8.00626599344541 L441.75 71.99373400655459 L441.75 71.99373400655459 L441.75 8.00626599344541 Z"></path><path d="M446.75 13.060201265148212 L446.75 13.060201265148212 L446.75 66.93979873485179 L446.75 66.93979873485179 L446.75 13.060201265148212 Z"></path><path d="M451.75 19.84500623080167 L451.75 19.84500623080167 L451.75 60.15499376919833 L451.75 60.15499376919833 L451.75 19.84500623080167 Z"></path><path d="M456.75 37.91729440987045 L456.75 37.91729440987045 L456.75 42.08270559012956 L456.75 42.08270559012956 L456.75 37.91729440987045 Z"></path><path d="M461.75 7.440636599668167 L461.75 7.440636599668167 L461.75 72.55936340033183 L461.75 72.55936340033183 L461.75 7.440636599668167 Z"></path><path d="M466.75 8.476595274013626 L466.75 8.476595274013626 L466.75 71.52340472598638 L466.75 71.52340472598638 L466.75 8.476595274013626 Z"></path><path d="M471.75 21.07729345080093 L471.75 21.07729345080093 L471.75 58.92270654919907 L471.75 58.92270654919907 L471.75 21.07729345080093 Z"></path><path d="M476.75 38.365055470737495 L476.75 38.365055470737495 L476.75 41.63494452926251 L476.75 41.63494452926251 L476.75 38.365055470737495 Z"></path><path d="M481.75 38.879145020131666 L481.75 38.879145020131666 L481.75 41.12085497986833 L481.75 41.12085497986833 L481.75 38.879145020131666 Z"></path><path d="M486.75 39.528107892697975 L486.75 39.528107892697975 L486.75 40.471892107302025 L486.75 40.471892107302025 L486.75 39.528107892697975 Z"></path><path d="M491.75 39.603688071920324 L491.75 39.603688071920324 L491.75 40.396311928079676 L491.75 40.396311928079676 L491.75 39.603688071920324 Z"></path><path d="M496.75 39.81145906857154 L496.75 39.81145906857154 L496.75 40.18854093142846 L496.75 40.18854093142846 L496.75 39.81145906857154 Z"></path></svg>