<?xml version="1.0" standalone="no"?><!DOCTYPE svg PUBLIC "-//W3C//DTD SVG 1.1//EN" "http://www.w3.org/Graphics/SVG/1.1/DTD/svg11.dtd"><svg id="f310145c-5e95-8dff-8401-df9d2e9d3fa2" xmlns="http://www.w3.org/2000/svg" version="1.1" viewBox="0 0 500 80"><style type="text/css">path{stroke:white;stroke-width:3.5}</style><path d="M1.75 38.27738368918545 L1.75 38.27738368918545 L1.75 41.722616310814544 L1.75 41.722616310814544 L1.75 38.27738368918545 Z"></path><path d="M6.75 39.183422488160836 L6.75 39.183422488160836 L6.75 40.81657751183917 L6.75 40.81657751183917 L6.75 39.183422488160836 Z"></path><path d="M11.75 37.853392157835025 L11.75 37.853392157835025 L11.75 42.14660784216497 L11.75 42.14660784216497 L11.75 37.853392157835025 Z"></path><path d="M16.75 34.311745068775565 L16.75 34.311745068775565 L16.75 45.68825493122443 L16.75 45.68825493122443 L16.75 34.311745068775565 Z"></path><path d="M21.75 38.41008428892343 L21.75 38.41008428892343 L21.75 41.58991571107658 L21.75 41.58991571107658 L21.75 38.41008428892343 Z"></path><path d="M26.75 29.146795035477354 L26.75 29.146795035477354 L26.75 50.85320496452265 L26.75 50.85320496452265 L26.75 29.146795035477354 Z"></path><path d="M31.75 31.22081101848127 L31.75 31.22081101848127 L31.75 48.77918898151873 L31.75 48.77918898151873 L31.75 31.22081101848127 Z"></path><path d="M36.75 39.350890019372024 L36.75 39.350890019372024 L36.75 40.649109980627976 L36.75 40.649109980627976 L36.75 39.350890019372024 Z"></path><path d="M41.75 22.883863504783584 L41.75 22.883863504783584 L41.75 57.116136495216416 L41.75 57.116136495216416 L41.75 22.883863504783584 Z"></path><path d="M46.75 14.97276683222217 L46.75 14.97276683222217 L46.75 65.02723316777784 L46.75 65.02723316777784 L46.75 14.97276683222217 Z"></path><path d="M51.75 24.888234058498984 L51.75 24.888234058498984 L51.75 55.11176594150102 L51.75 55.11176594150102 L51.75 24.888234058498984 Z"></path><path d="M56.75 32.2138453068258 L56.75 32.2138453068258 L56.75 47.7861546931742 L56.75 47.7861546931742 L56.75 32.2138453068258 Z"></path><path d="M61.75 37.20174657151922 L61.75 37.20174657151922 L61.75 42.79825342848078 L61.75 42.79825342848078 L61.75 37.20174657151922 Z"></path><path d="M66.75 39.507035653885836 L66.75 39.507035653885836 L66.75 40.492964346114164 L66.75 40.492964346114164 L66.75 39.507035653885836 Z"></path><path d="M71.75 39.50651633036922 L71.75 39.50651633036922 L71.75 40.49348366963078 L71.75 40.49348366963078 L71.75 39.50651633036922 Z"></path><path d="M76.75 30.77687355822114 L76.75 30.77687355822114 L76.75 49.22312644177886 L76.75 49.22312644177886 L76.75 30.77687355822114 Z"></path><path d="M81.75 7.9991819787653995 L81.75 7.9991819787653995 L81.75 72.00081802123461 L81.75 72.00081802123461 L81.75 7.9991819787653995 Z"></path><path d="M86.75 30.70262555143654 L86.75 30.70262555143654 L86.75 49.29737444856346 L86.75 49.29737444856346 L86.75 30.70262555143654 Z"></path><path d="M91.75 24.057632193991548 L91.75 24.057632193991548 L91.75 55.94236780600845 L91.75 55.94236780600845 L91.75 24.057632193991548 Z"></path><path d="M96.75 38.95452580023169 L96.75 38.95452580023169 L96.75 41.04547419976831 L96.75 41.04547419976831 L96.75 38.95452580023169 Z"></path><path d="M101.75 39.54235966612878 L101.75 39.54235966612878 L101.75 40.45764033387122 L101.75 40.45764033387122 L101.75 39.54235966612878 Z"></path><path d="M106.75 34.52287271521301 L106.75 34.52287271521301 L106.75 45.47712728478699 L106.75 45.47712728478699 L106.75 34.52287271521301 Z"></path><path d="M111.75 38.16888524890194 L111.75 38.16888524890194 L111.75 41.83111475109807 L111.75 41.83111475109807 L111.75 38.16888524890194 Z"></path><path d="M116.75 39.10872748475852 L116.75 39.10872748475852 L116.75 40.891272515241475 L116.75 40.891272515241475 L116.75 39.10872748475852 Z"></path><path d="M121.75 10.567121197387973 L121.75 10.567121197387973 L121.75 69.43287880261202 L121.75 69.43287880261202 L121.75 10.567121197387973 Z"></path><path d="M126.75 31.117797157189973 L126.75 31.117797157189973 L126.75 48.88220284281003 L126.75 48.88220284281003 L126.75 31.117797157189973 Z"></path><path d="M131.75 39.53156288472556 L131.75 39.53156288472556 L131.75 40.46843711527444 L131.75 40.46843711527444 L131.75 39.53156288472556 Z"></path><path d="M136.75 26.59517324002306 L136.75 26.59517324002306 L136.75 53.40482675997694 L136.75 53.40482675997694 L136.75 26.59517324002306 Z"></path><path d="M141.75 35.38813232232894 L141.75 35.38813232232894 L141.75 44.61186767767106 L141.75 44.61186767767106 L141.75 35.38813232232894 Z"></path><path d="M146.75 27.564124216387107 L146.75 27.564124216387107 L146.75 52.4358757836129 L146.75 52.4358757836129 L146.75 27.564124216387107 Z"></path><path d="M151.75 27.006802786694884 L151.75 27.006802786694884 L151.75 52.99319721330511 L151.75 52.99319721330511 L151.75 27.006802786694884 Z"></path><path d="M156.75 38.10715932240969 L156.75 38.10715932240969 L156.75 41.89284067759031 L156.75 41.89284067759031 L156.75 38.10715932240969 Z"></path><path d="M161.75 39.435809649232716 L161.75 39.435809649232716 L161.75 40.56419035076728 L161.75 40.56419035076728 L161.75 39.435809649232716 Z"></path><path d="M166.75 36.912664471630514 L166.75 36.912664471630514 L166.75 43.087335528369486 L166.75 43.087335528369486 L166.75 36.912664471630514 Z"></path><path d="M171.75 36.93576862908407 L171.75 36.93576862908407 L171.75 43.06423137091592 L171.75 43.06423137091592 L171.75 36.93576862908407 Z"></path><path d="M176.75 37.42246420922897 L176.75 37.42246420922897 L176.75 42.57753579077102 L176.75 42.57753579077102 L176.75 37.42246420922897 Z"></path><path d="M181.75 33.58946549805536 L181.75 33.58946549805536 L181.75 46.41053450194464 L181.75 46.41053450194464 L181.75 33.58946549805536 Z"></path><path d="M186.75 39.33564415812838 L186.75 39.33564415812838 L186.75 40.66435584187162 L186.75 40.66435584187162 L186.75 39.33564415812838 Z"></path><path d="M191.75 39.55091186605328 L191.75 39.55091186605328 L191.75 40.44908813394672 L191.75 40.44908813394672 L191.75 39.55091186605328 Z"></path><path d="M196.75 39.53243724279741 L196.75 39.53243724279741 L196.75 40.46756275720259 L196.75 40.46756275720259 L196.75 39.53243724279741 Z"></path><path d="M201.75 22.213471234639304 L201.75 22.213471234639304 L201.75 57.7865287653607 L201.75 57.7865287653607 L201.75 22.213471234639304 Z"></path><path d="M206.75 33.64443551824682 L206.75 33.64443551824682 L206.75 46.35556448175318 L206.75 46.35556448175318 L206.75 33.64443551824682 Z"></path><path d="M211.75 18.99468597784839 L211.75 18.99468597784839 L211.75 61.00531402215161 L211.75 61.00531402215161 L211.75 18.99468597784839 Z"></path><path d="M216.75 28.876731748117912 L216.75 28.876731748117912 L216.75 51.12326825188209 L216.75 51.12326825188209 L216.75 28.876731748117912 Z"></path><path d="M221.75 39.57183708419913 L221.75 39.57183708419913 L221.75 40.42816291580087 L221.75 40.42816291580087 L221.75 39.57183708419913 Z"></path><path d="M226.75 39.59228508419951 L226.75 39.59228508419951 L226.75 40.40771491580049 L226.75 40.40771491580049 L226.75 39.59228508419951 Z"></path><path d="M231.75 36.54104870620621 L231.75 36.54104870620621 L231.75 43.458951293793795 L231.75 43.458951293793795 L231.75 36.54104870620621 Z"></path><path d="M236.75 37.87819252661221 L236.75 37.87819252661221 L236.75 42.12180747338779 L236.75 42.12180747338779 L236.75 37.87819252661221 Z"></path><path d="M241.75 34.88957908896164 L241.75 34.88957908896164 L241.75 45.11042091103837 L241.75 45.11042091103837 L241.75 34.88957908896164 Z"></path><path d="M246.75 29.429825740970635 L246.75 29.429825740970635 L246.75 50.57017425902936 L246.75 50.57017425902936 L246.75 29.429825740970635 Z"></path><path d="M251.75 34.06673528262941 L251.75 34.06673528262941 L251.75 45.93326471737059 L251.75 45.93326471737059 L251.75 34.06673528262941 Z"></path><path d="M256.75 39.49282399306836 L256.75 39.49282399306836 L256.75 40.50717600693164 L256.75 40.50717600693164 L256.75 39.49282399306836 Z"></path><path d="M261.75 21.912475778813306 L261.75 21.912475778813306 L261.75 58.0875242211867 L261.75 58.0875242211867 L261.75 21.912475778813306 Z"></path><path d="M266.75 33.918794084873156 L266.75 33.918794084873156 L266.75 46.081205915126844 L266.75 46.081205915126844 L266.75 33.918794084873156 Z"></path><path d="M271.75 39.354730622651665 L271.75 39.354730622651665 L271.75 40.64526937734834 L271.75 40.64526937734834 L271.75 39.354730622651665 Z"></path><path d="M276.75 16.89565044122462 L276.75 16.89565044122462 L276.75 63.10434955877538 L276.75 63.10434955877538 L276.75 16.89565044122462 Z"></path><path d="M281.75 29.94833974019823 L281.75 29.94833974019823 L281.75 50.051660259801764 L281.75 50.051660259801764 L281.75 29.94833974019823 Z"></path><path d="M286.75 39.55374812180401 L286.75 39.55374812180401 L286.75 40.446251878195994 L286.75 40.446251878195994 L286.75 39.55374812180401 Z"></path><path d="M291.75 37.097711324660615 L291.75 37.097711324660615 L291.75 42.90228867533939 L291.75 42.90228867533939 L291.75 37.097711324660615 Z"></path><path d="M296.75 25.003909214601503 L296.75 25.003909214601503 L296.75 54.99609078539849 L296.75 54.99609078539849 L296.75 25.003909214601503 Z"></path><path d="M301.75 31.855236215084332 L301.75 31.855236215084332 L301.75 48.14476378491567 L301.75 48.14476378491567 L301.75 31.855236215084332 Z"></path><path d="M306.75 33.64404911332985 L306.75 33.64404911332985 L306.75 46.35595088667016 L306.75 46.35595088667016 L306.75 33.64404911332985 Z"></path><path d="M311.75 35.90545152195265 L311.75 35.90545152195265 L311.75 44.09454847804736 L311.75 44.09454847804736 L311.75 35.90545152195265 Z"></path><path d="M316.75 39.569109228046166 L316.75 39.569109228046166 L316.75 40.43089077195383 L316.75 40.43089077195383 L316.75 39.569109228046166 Z"></path><path d="M321.75 39.57802122114305 L321.75 39.57802122114305 L321.75 40.42197877885695 L321.75 40.42197877885695 L321.75 39.57802122114305 Z"></path><path d="M326.75 28.698738960863206 L326.75 28.698738960863206 L326.75 51.30126103913679 L326.75 51.30126103913679 L326.75 28.698738960863206 Z"></path><path d="M331.75 11.423059989675167 L331.75 11.423059989675167 L331.75 68.57694001032483 L331.75 68.57694001032483 L331.75 11.423059989675167 Z"></path><path d="M336.75 38.694925633425036 L336.75 38.694925633425036 L336.75 41.305074366574964 L336.75 41.305074366574964 L336.75 38.694925633425036 Z"></path><path d="M341.75 6.416288507315329 L341.75 6.416288507315329 L341.75 73.58371149268467 L341.75 73.58371149268467 L341.75 6.416288507315329 Z"></path><path d="M346.75 31.1830948457006 L346.75 31.1830948457006 L346.75 48.816905154299405 L346.75 48.816905154299405 L346.75 31.1830948457006 Z"></path><path d="M351.75 39.57968153398368 L351.75 39.57968153398368 L351.75 40.42031846601632 L351.75 40.42031846601632 L351.75 39.57968153398368 Z"></path><path d="M356.75 37.54055789374154 L356.75 37.54055789374154 L356.75 42.45944210625845 L356.75 42.45944210625845 L356.75 37.54055789374154 Z"></path><path d="M361.75 31.468089459831674 L361.75 31.468089459831674 L361.75 48.531910540168326 L361.75 48.531910540168326 L361.75 31.468089459831674 Z"></path><path d="M366.75 34.77624337216728 L366.75 34.77624337216728 L366.75 45.22375662783272 L366.75 45.22375662783272 L366.75 34.77624337216728 Z"></path><path d="M371.75 33.14980788663943 L371.75 33.14980788663943 L371.75 46.85019211336057 L371.75 46.85019211336057 L371.75 33.14980788663943 Z"></path><path d="M376.75 37.14134139660314 L376.75 37.14134139660314 L376.75 42.858658603396854 L376.75 42.858658603396854 L376.75 37.14134139660314 Z"></path><path d="M381.75 39.48015711773023 L381.75 39.48015711773023 L381.75 40.51984288226977 L381.75 40.51984288226977 L381.75 39.48015711773023 Z"></path><path d="M386.75 39.48262596424531 L386.75 39.48262596424531 L386.75 40.5173740357547 L386.75 40.5173740357547 L386.75 39.48262596424531 Z"></path><path d="M391.75 16.288031510538968 L391.75 16.288031510538968 L391.75 63.71196848946103 L391.75 63.71196848946103 L391.75 16.288031510538968 Z"></path><path d="M396.75 39.060584121327366 L396.75 39.060584121327366 L396.75 40.93941587867264 L396.75 40.93941587867264 L396.75 39.060584121327366 Z"></path><path d="M401.75 0 L401.75 0 L401.75 80 L401.75 80 L401.75 0 Z"></path><path d="M406.75 32.24281558741629 L406.75 32.24281558741629 L406.75 47.757184412583705 L406.75 47.757184412583705 L406.75 32.24281558741629 Z"></path><path d="M411.75 39.45604031461567 L411.75 39.45604031461567 L411.75 40.54395968538433 L411.75 40.54395968538433 L411.75 39.45604031461567 Z"></path><path d="M416.75 36.255007795219136 L416.75 36.255007795219136 L416.75 43.744992204780864 L416.75 43.744992204780864 L416.75 36.255007795219136 Z"></path><path d="M421.75 29.73649536523535 L421.75 29.73649536523535 L421.75 50.26350463476466 L421.75 50.26350463476466 L421.75 29.73649536523535 Z"></path><path d="M426.75 32.79345805723748 L426.75 32.79345805723748 L426.75 47.20654194276251 L426.75 47.20654194276251 L426.75 32.79345805723748 Z"></path><path d="M431.75 33.08069516011581 L431.75 33.08069516011581 L431.75 46.919304839884184 L431.75 46.919304839884184 L431.75 33.08069516011581 Z"></path><path d="M436.75 36.269256810657694 L436.75 36.269256810657694 L436.75 43.730743189342306 L436.75 43.730743189342306 L436.75 36.269256810657694 Z"></path><path d="M441.75 39.395785498745965 L441.75 39.395785498745965 L441.75 40.60421450125404 L441.75 40.60421450125404 L441.75 39.395785498745965 Z"></path><path d="M446.75 39.39517738569403 L446.75 39.39517738569403 L446.75 40.60482261430596 L446.75 40.60482261430596 L446.75 39.39517738569403 Z"></path><path d="M451.75 24.16942731633833 L451.75 24.16942731633833 L451.75 55.83057268366167 L451.75 55.83057268366167 L451.75 24.16942731633833 Z"></path><path d="M456.75 19.823342437179306 L456.75 19.823342437179306 L456.75 60.176657562820694 L456.75 60.176657562820694 L456.75 19.823342437179306 Z"></path><path d="M461.75 37.69462149477528 L461.75 37.69462149477528 L461.75 42.30537850522472 L461.75 42.30537850522472 L461.75 37.69462149477528 Z"></path><path d="M466.75 9.582433852890407 L466.75 9.582433852890407 L466.75 70.4175661471096 L466.75 70.4175661471096 L466.75 9.582433852890407 Z"></path><path d="M471.75 37.74090074411596 L471.75 37.74090074411596 L471.75 42.25909925588404 L471.75 42.25909925588404 L471.75 37.74090074411596 Z"></path><path d="M476.75 39.397827035964596 L476.75 39.397827035964596 L476.75 40.602172964035404 L476.75 40.602172964035404 L476.75 39.397827035964596 Z"></path><path d="M481.75 36.42172437951233 L481.75 36.42172437951233 L481.75 43.57827562048768 L481.75 43.57827562048768 L481.75 36.42172437951233 Z"></path><path d="M486.75 31.489921861859713 L486.75 31.489921861859713 L486.75 48.51007813814029 L486.75 48.51007813814029 L486.75 31.489921861859713 Z"></path><path d="M491.75 31.54007023514854 L491.75 31.54007023514854 L491.75 48.45992976485145 L491.75 48.45992976485145 L491.75 31.54007023514854 Z"></path><path d="M496.75 28.428982270248742 L496.75 28.428982270248742 L496.75 51.57101772975126 L496.75 51.57101772975126 L496.75 28.428982270248742 Z"></path></svg>