<?xml version="1.0" standalone="no"?><!DOCTYPE svg PUBLIC "-//W3C//DTD SVG 1.1//EN" "http://www.w3.org/Graphics/SVG/1.1/DTD/svg11.dtd"><svg id="27ffe91a-1dd7-d20b-514f-a17b01b7a033" xmlns="http://www.w3.org/2000/svg" version="1.1" viewBox="0 0 500 80"><style type="text/css">path{stroke:white;stroke-width:3.5}</style><path d="M1.75 7.67756751740982 L1.75 7.67756751740982 L1.75 72.32243248259019 L1.75 72.32243248259019 L1.75 7.67756751740982 Z"></path><path d="M6.75 14.447402050369753 L6.75 14.447402050369753 L6.75 65.55259794963024 L6.75 65.55259794963024 L6.75 14.447402050369753 Z"></path><path d="M11.75 13.638927435504282 L11.75 13.638927435504282 L11.75 66.36107256449571 L11.75 66.36107256449571 L11.75 13.638927435504282 Z"></path><path d="M16.75 27.60665652544681 L16.75 27.60665652544681 L16.75 52.39334347455319 L16.75 52.39334347455319 L16.75 27.60665652544681 Z"></path><path d="M21.75 26.51282773748506 L21.75 26.51282773748506 L21.75 53.48717226251493 L21.75 53.48717226251493 L21.75 26.51282773748506 Z"></path><path d="M26.75 25.311221953035332 L26.75 25.311221953035332 L26.75 54.68877804696467 L26.75 54.68877804696467 L26.75 25.311221953035332 Z"></path><path d="M31.75 12.429569163927098 L31.75 12.429569163927098 L31.75 67.5704308360729 L31.75 67.5704308360729 L31.75 12.429569163927098 Z"></path><path d="M36.75 17.966002225095753 L36.75 17.966002225095753 L36.75 62.03399777490425 L36.75 62.03399777490425 L36.75 17.966002225095753 Z"></path><path d="M41.75 15.452257082576715 L41.75 15.452257082576715 L41.75 64.54774291742328 L41.75 64.54774291742328 L41.75 15.452257082576715 Z"></path><path d="M46.75 29.04247518024772 L46.75 29.04247518024772 L46.75 50.95752481975228 L46.75 50.95752481975228 L46.75 29.04247518024772 Z"></path><path d="M51.75 38.542551908082885 L51.75 38.542551908082885 L51.75 41.457448091917115 L51.75 41.457448091917115 L51.75 38.542551908082885 Z"></path><path d="M56.75 39.78922548445919 L56.75 39.78922548445919 L56.75 40.21077451554082 L56.75 40.21077451554082 L56.75 39.78922548445919 Z"></path><path d="M61.75 26.44476772188736 L61.75 26.44476772188736 L61.75 53.55523227811264 L61.75 53.55523227811264 L61.75 26.44476772188736 Z"></path><path d="M66.75 26.032938320603648 L66.75 26.032938320603648 L66.75 53.96706167939635 L66.75 53.96706167939635 L66.75 26.032938320603648 Z"></path><path d="M71.75 29.635249499491877 L71.75 29.635249499491877 L71.75 50.36475050050812 L71.75 50.36475050050812 L71.75 29.635249499491877 Z"></path><path d="M76.75 32.22864384874939 L76.75 32.22864384874939 L76.75 47.771356151250615 L76.75 47.771356151250615 L76.75 32.22864384874939 Z"></path><path d="M81.75 32.34053762187487 L81.75 32.34053762187487 L81.75 47.65946237812513 L81.75 47.65946237812513 L81.75 32.34053762187487 Z"></path><path d="M86.75 39.45171382465133 L86.75 39.45171382465133 L86.75 40.548286175348665 L86.75 40.548286175348665 L86.75 39.45171382465133 Z"></path><path d="M91.75 39.38626098155201 L91.75 39.38626098155201 L91.75 40.613739018447994 L91.75 40.613739018447994 L91.75 39.38626098155201 Z"></path><path d="M96.75 39.25371246203696 L96.75 39.25371246203696 L96.75 40.746287537963035 L96.75 40.746287537963035 L96.75 39.25371246203696 Z"></path><path d="M101.75 39.7807069694665 L101.75 39.7807069694665 L101.75 40.21929303053349 L101.75 40.21929303053349 L101.75 39.7807069694665 Z"></path><path d="M106.75 39.860424112969866 L106.75 39.860424112969866 L106.75 40.139575887030134 L106.75 40.139575887030134 L106.75 39.860424112969866 Z"></path><path d="M111.75 20.094752764580452 L111.75 20.094752764580452 L111.75 59.90524723541955 L111.75 59.90524723541955 L111.75 20.094752764580452 Z"></path><path d="M116.75 21.813670759272863 L116.75 21.813670759272863 L116.75 58.18632924072713 L116.75 58.18632924072713 L116.75 21.813670759272863 Z"></path><path d="M121.75 38.17552929077982 L121.75 38.17552929077982 L121.75 41.82447070922018 L121.75 41.82447070922018 L121.75 38.17552929077982 Z"></path><path d="M126.75 39.76023137619523 L126.75 39.76023137619523 L126.75 40.23976862380477 L126.75 40.23976862380477 L126.75 39.76023137619523 Z"></path><path d="M131.75 39.82000503229804 L131.75 39.82000503229804 L131.75 40.17999496770196 L131.75 40.17999496770196 L131.75 39.82000503229804 Z"></path><path d="M136.75 39.17224131245339 L136.75 39.17224131245339 L136.75 40.82775868754661 L136.75 40.82775868754661 L136.75 39.17224131245339 Z"></path><path d="M141.75 0 L141.75 0 L141.75 80 L141.75 80 L141.75 0 Z"></path><path d="M146.75 20.35701737086418 L146.75 20.35701737086418 L146.75 59.642982629135815 L146.75 59.642982629135815 L146.75 20.35701737086418 Z"></path><path d="M151.75 38.91908774336471 L151.75 38.91908774336471 L151.75 41.08091225663529 L151.75 41.08091225663529 L151.75 38.91908774336471 Z"></path><path d="M156.75 39.71048226701705 L156.75 39.71048226701705 L156.75 40.28951773298296 L156.75 40.28951773298296 L156.75 39.71048226701705 Z"></path><path d="M161.75 39.8139726825079 L161.75 39.8139726825079 L161.75 40.186027317492105 L161.75 40.186027317492105 L161.75 39.8139726825079 Z"></path><path d="M166.75 39.85516368158658 L166.75 39.85516368158658 L166.75 40.14483631841342 L166.75 40.14483631841342 L166.75 39.85516368158658 Z"></path><path d="M171.75 39.84370421835216 L171.75 39.84370421835216 L171.75 40.156295781647835 L171.75 40.156295781647835 L171.75 39.84370421835216 Z"></path><path d="M176.75 30.576556849373368 L176.75 30.576556849373368 L176.75 49.42344315062664 L176.75 49.42344315062664 L176.75 30.576556849373368 Z"></path><path d="M181.75 33.27070329498133 L181.75 33.27070329498133 L181.75 46.72929670501867 L181.75 46.72929670501867 L181.75 33.27070329498133 Z"></path><path d="M186.75 26.716442733036047 L186.75 26.716442733036047 L186.75 53.28355726696395 L186.75 53.28355726696395 L186.75 26.716442733036047 Z"></path><path d="M191.75 24.132410233522158 L191.75 24.132410233522158 L191.75 55.86758976647785 L191.75 55.86758976647785 L191.75 24.132410233522158 Z"></path><path d="M196.75 29.602247825906453 L196.75 29.602247825906453 L196.75 50.39775217409354 L196.75 50.39775217409354 L196.75 29.602247825906453 Z"></path><path d="M201.75 31.958774494623803 L201.75 31.958774494623803 L201.75 48.04122550537619 L201.75 48.04122550537619 L201.75 31.958774494623803 Z"></path><path d="M206.75 35.93289378813037 L206.75 35.93289378813037 L206.75 44.06710621186963 L206.75 44.06710621186963 L206.75 35.93289378813037 Z"></path><path d="M211.75 39.69413203268934 L211.75 39.69413203268934 L211.75 40.30586796731066 L211.75 40.30586796731066 L211.75 39.69413203268934 Z"></path><path d="M216.75 39.538224330896874 L216.75 39.538224330896874 L216.75 40.46177566910313 L216.75 40.46177566910313 L216.75 39.538224330896874 Z"></path><path d="M221.75 39.43498579429004 L221.75 39.43498579429004 L221.75 40.565014205709964 L221.75 40.565014205709964 L221.75 39.43498579429004 Z"></path><path d="M226.75 39.70644064525487 L226.75 39.70644064525487 L226.75 40.29355935474512 L226.75 40.29355935474512 L226.75 39.70644064525487 Z"></path><path d="M231.75 39.84265192178915 L231.75 39.84265192178915 L231.75 40.15734807821085 L231.75 40.15734807821085 L231.75 39.84265192178915 Z"></path><path d="M236.75 26.189501766675622 L236.75 26.189501766675622 L236.75 53.81049823332438 L236.75 53.81049823332438 L236.75 26.189501766675622 Z"></path><path d="M241.75 18.183831987846084 L241.75 18.183831987846084 L241.75 61.816168012153916 L241.75 61.816168012153916 L241.75 18.183831987846084 Z"></path><path d="M246.75 36.72387508229835 L246.75 36.72387508229835 L246.75 43.27612491770166 L246.75 43.27612491770166 L246.75 36.72387508229835 Z"></path><path d="M251.75 39.75579622628986 L251.75 39.75579622628986 L251.75 40.24420377371015 L251.75 40.24420377371015 L251.75 39.75579622628986 Z"></path><path d="M256.75 39.82715326510747 L256.75 39.82715326510747 L256.75 40.17284673489253 L256.75 40.17284673489253 L256.75 39.82715326510747 Z"></path><path d="M261.75 39.85304824891812 L261.75 39.85304824891812 L261.75 40.14695175108188 L261.75 40.14695175108188 L261.75 39.85304824891812 Z"></path><path d="M266.75 0.4481908454920358 L266.75 0.4481908454920358 L266.75 79.55180915450796 L266.75 79.55180915450796 L266.75 0.4481908454920358 Z"></path><path d="M271.75 17.28406624858577 L271.75 17.28406624858577 L271.75 62.71593375141423 L271.75 62.71593375141423 L271.75 17.28406624858577 Z"></path><path d="M276.75 38.649021365745284 L276.75 38.649021365745284 L276.75 41.350978634254716 L276.75 41.350978634254716 L276.75 38.649021365745284 Z"></path><path d="M281.75 39.627156616111535 L281.75 39.627156616111535 L281.75 40.372843383888465 L281.75 40.372843383888465 L281.75 39.627156616111535 Z"></path><path d="M286.75 39.833790290388464 L286.75 39.833790290388464 L286.75 40.166209709611536 L286.75 40.166209709611536 L286.75 39.833790290388464 Z"></path><path d="M291.75 39.834742292264224 L291.75 39.834742292264224 L291.75 40.16525770773578 L291.75 40.16525770773578 L291.75 39.834742292264224 Z"></path><path d="M296.75 28.62184243489216 L296.75 28.62184243489216 L296.75 51.37815756510784 L296.75 51.37815756510784 L296.75 28.62184243489216 Z"></path><path d="M301.75 33.56056680996224 L301.75 33.56056680996224 L301.75 46.43943319003776 L301.75 46.43943319003776 L301.75 33.56056680996224 Z"></path><path d="M306.75 32.544771666227035 L306.75 32.544771666227035 L306.75 47.455228333772965 L306.75 47.455228333772965 L306.75 32.544771666227035 Z"></path><path d="M311.75 27.970176999204888 L311.75 27.970176999204888 L311.75 52.02982300079512 L311.75 52.02982300079512 L311.75 27.970176999204888 Z"></path><path d="M316.75 24.20636225629869 L316.75 24.20636225629869 L316.75 55.79363774370131 L316.75 55.79363774370131 L316.75 24.20636225629869 Z"></path><path d="M321.75 27.996677018487308 L321.75 27.996677018487308 L321.75 52.003322981512696 L321.75 52.003322981512696 L321.75 27.996677018487308 Z"></path><path d="M326.75 29.71825941149064 L326.75 29.71825941149064 L326.75 50.281740588509365 L326.75 50.281740588509365 L326.75 29.71825941149064 Z"></path><path d="M331.75 34.33866860393273 L331.75 34.33866860393273 L331.75 45.66133139606726 L331.75 45.66133139606726 L331.75 34.33866860393273 Z"></path><path d="M336.75 39.38816678385133 L336.75 39.38816678385133 L336.75 40.61183321614867 L336.75 40.61183321614867 L336.75 39.38816678385133 Z"></path><path d="M341.75 39.647438985098944 L341.75 39.647438985098944 L341.75 40.35256101490105 L341.75 40.35256101490105 L341.75 39.647438985098944 Z"></path><path d="M346.75 39.61400430920679 L346.75 39.61400430920679 L346.75 40.3859956907932 L346.75 40.3859956907932 L346.75 39.61400430920679 Z"></path><path d="M351.75 39.715847861291905 L351.75 39.715847861291905 L351.75 40.28415213870809 L351.75 40.28415213870809 L351.75 39.715847861291905 Z"></path><path d="M356.75 39.76937237226505 L356.75 39.76937237226505 L356.75 40.23062762773494 L356.75 40.23062762773494 L356.75 39.76937237226505 Z"></path><path d="M361.75 26.960197958763516 L361.75 26.960197958763516 L361.75 53.039802041236484 L361.75 53.039802041236484 L361.75 26.960197958763516 Z"></path><path d="M366.75 19.187895334899327 L366.75 19.187895334899327 L366.75 60.81210466510068 L366.75 60.81210466510068 L366.75 19.187895334899327 Z"></path><path d="M371.75 35.91589851308588 L371.75 35.91589851308588 L371.75 44.084101486914115 L371.75 44.084101486914115 L371.75 35.91589851308588 Z"></path><path d="M376.75 39.6958879149911 L376.75 39.6958879149911 L376.75 40.304112085008896 L376.75 40.304112085008896 L376.75 39.6958879149911 Z"></path><path d="M381.75 39.824337671012294 L381.75 39.824337671012294 L381.75 40.175662328987706 L381.75 40.175662328987706 L381.75 39.824337671012294 Z"></path><path d="M386.75 39.82474748598821 L386.75 39.82474748598821 L386.75 40.175252514011795 L386.75 40.175252514011795 L386.75 39.82474748598821 Z"></path><path d="M391.75 24.080560367990884 L391.75 24.080560367990884 L391.75 55.919439632009116 L391.75 55.919439632009116 L391.75 24.080560367990884 Z"></path><path d="M396.75 14.693095680233878 L396.75 14.693095680233878 L396.75 65.30690431976612 L396.75 65.30690431976612 L396.75 14.693095680233878 Z"></path><path d="M401.75 22.78335107273173 L401.75 22.78335107273173 L401.75 57.21664892726827 L401.75 57.21664892726827 L401.75 22.78335107273173 Z"></path><path d="M406.75 39.441656661167315 L406.75 39.441656661167315 L406.75 40.558343338832685 L406.75 40.558343338832685 L406.75 39.441656661167315 Z"></path><path d="M411.75 39.82663508359069 L411.75 39.82663508359069 L411.75 40.173364916409305 L411.75 40.173364916409305 L411.75 39.82663508359069 Z"></path><path d="M416.75 39.765495347011516 L416.75 39.765495347011516 L416.75 40.23450465298848 L416.75 40.23450465298848 L416.75 39.765495347011516 Z"></path><path d="M421.75 37.01097585256255 L421.75 37.01097585256255 L421.75 42.98902414743745 L421.75 42.98902414743745 L421.75 37.01097585256255 Z"></path><path d="M426.75 29.426421896747037 L426.75 29.426421896747037 L426.75 50.573578103252956 L426.75 50.573578103252956 L426.75 29.426421896747037 Z"></path><path d="M431.75 38.75786740735765 L431.75 38.75786740735765 L431.75 41.24213259264234 L431.75 41.24213259264234 L431.75 38.75786740735765 Z"></path><path d="M436.75 7.730249821499932 L436.75 7.730249821499932 L436.75 72.26975017850006 L436.75 72.26975017850006 L436.75 7.730249821499932 Z"></path><path d="M441.75 17.269022373102363 L441.75 17.269022373102363 L441.75 62.73097762689764 L441.75 62.73097762689764 L441.75 17.269022373102363 Z"></path><path d="M446.75 20.494139215503377 L446.75 20.494139215503377 L446.75 59.50586078449662 L446.75 59.50586078449662 L446.75 20.494139215503377 Z"></path><path d="M451.75 19.16327286732179 L451.75 19.16327286732179 L451.75 60.836727132678206 L451.75 60.836727132678206 L451.75 19.16327286732179 Z"></path><path d="M456.75 18.605101970621103 L456.75 18.605101970621103 L456.75 61.39489802937889 L456.75 61.39489802937889 L456.75 18.605101970621103 Z"></path><path d="M461.75 38.85424591085884 L461.75 38.85424591085884 L461.75 41.14575408914116 L461.75 41.14575408914116 L461.75 38.85424591085884 Z"></path><path d="M466.75 12.541769288602875 L466.75 12.541769288602875 L466.75 67.45823071139712 L466.75 67.45823071139712 L466.75 12.541769288602875 Z"></path><path d="M471.75 14.702155192353302 L471.75 14.702155192353302 L471.75 65.2978448076467 L471.75 65.2978448076467 L471.75 14.702155192353302 Z"></path><path d="M476.75 18.96355482980557 L476.75 18.96355482980557 L476.75 61.036445170194426 L476.75 61.036445170194426 L476.75 18.96355482980557 Z"></path><path d="M481.75 19.333113728382973 L481.75 19.333113728382973 L481.75 60.66688627161703 L481.75 60.66688627161703 L481.75 19.333113728382973 Z"></path><path d="M486.75 31.49327710014426 L486.75 31.49327710014426 L486.75 48.50672289985573 L486.75 48.50672289985573 L486.75 31.49327710014426 Z"></path><path d="M491.75 34.42073009090929 L491.75 34.42073009090929 L491.75 45.57926990909072 L491.75 45.57926990909072 L491.75 34.42073009090929 Z"></path><path d="M496.75 28.554667743997193 L496.75 28.554667743997193 L496.75 51.4453322560028 L496.75 51.4453322560028 L496.75 28.554667743997193 Z"></path></svg>