<?xml version="1.0" standalone="no"?><!DOCTYPE svg PUBLIC "-//W3C//DTD SVG 1.1//EN" "http://www.w3.org/Graphics/SVG/1.1/DTD/svg11.dtd"><svg id="45743ee3-1fd7-8fba-29b1-4c277c85f04a" xmlns="http://www.w3.org/2000/svg" version="1.1" viewBox="0 0 500 80"><style type="text/css">path{stroke:white;stroke-width:3.5}</style><path d="M1.75 37.767351511140205 L1.75 37.767351511140205 L1.75 42.232648488859795 L1.75 42.232648488859795 L1.75 37.767351511140205 Z"></path><path d="M6.75 39.63433495479651 L6.75 39.63433495479651 L6.75 40.36566504520349 L6.75 40.36566504520349 L6.75 39.63433495479651 Z"></path><path d="M11.75 39.74761762015908 L11.75 39.74761762015908 L11.75 40.25238237984092 L11.75 40.25238237984092 L11.75 39.74761762015908 Z"></path><path d="M16.75 39.83331630279502 L16.75 39.83331630279502 L16.75 40.16668369720499 L16.75 40.16668369720499 L16.75 39.83331630279502 Z"></path><path d="M21.75 39.520335003472226 L21.75 39.520335003472226 L21.75 40.47966499652778 L21.75 40.47966499652778 L21.75 39.520335003472226 Z"></path><path d="M26.75 30.871410908706437 L26.75 30.871410908706437 L26.75 49.12858909129356 L26.75 49.12858909129356 L26.75 30.871410908706437 Z"></path><path d="M31.75 6.020516369613105 L31.75 6.020516369613105 L31.75 73.9794836303869 L31.75 73.9794836303869 L31.75 6.020516369613105 Z"></path><path d="M36.75 38.85204794479042 L36.75 38.85204794479042 L36.75 41.14795205520958 L36.75 41.14795205520958 L36.75 38.85204794479042 Z"></path><path d="M41.75 39.77037763300847 L41.75 39.77037763300847 L41.75 40.22962236699153 L41.75 40.22962236699153 L41.75 39.77037763300847 Z"></path><path d="M46.75 35.3272893646992 L46.75 35.3272893646992 L46.75 44.6727106353008 L46.75 44.6727106353008 L46.75 35.3272893646992 Z"></path><path d="M51.75 39.842399860899846 L51.75 39.842399860899846 L51.75 40.157600139100154 L51.75 40.157600139100154 L51.75 39.842399860899846 Z"></path><path d="M56.75 29.69753630852477 L56.75 29.69753630852477 L56.75 50.302463691475225 L56.75 50.302463691475225 L56.75 29.69753630852477 Z"></path><path d="M61.75 37.83134388878327 L61.75 37.83134388878327 L61.75 42.168656111216734 L61.75 42.168656111216734 L61.75 37.83134388878327 Z"></path><path d="M66.75 36.95669947161231 L66.75 36.95669947161231 L66.75 43.04330052838768 L66.75 43.04330052838768 L66.75 36.95669947161231 Z"></path><path d="M71.75 39.581014401497754 L71.75 39.581014401497754 L71.75 40.418985598502246 L71.75 40.418985598502246 L71.75 39.581014401497754 Z"></path><path d="M76.75 39.61319071809821 L76.75 39.61319071809821 L76.75 40.3868092819018 L76.75 40.3868092819018 L76.75 39.61319071809821 Z"></path><path d="M81.75 39.837304874719095 L81.75 39.837304874719095 L81.75 40.162695125280905 L81.75 40.162695125280905 L81.75 39.837304874719095 Z"></path><path d="M86.75 39.83739997270982 L86.75 39.83739997270982 L86.75 40.16260002729018 L86.75 40.16260002729018 L86.75 39.83739997270982 Z"></path><path d="M91.75 22.8398981113196 L91.75 22.8398981113196 L91.75 57.1601018886804 L91.75 57.1601018886804 L91.75 22.8398981113196 Z"></path><path d="M96.75 22.158431112247953 L96.75 22.158431112247953 L96.75 57.84156888775205 L96.75 57.84156888775205 L96.75 22.158431112247953 Z"></path><path d="M101.75 39.74848075176122 L101.75 39.74848075176122 L101.75 40.25151924823878 L101.75 40.25151924823878 L101.75 39.74848075176122 Z"></path><path d="M106.75 39.84171042969303 L106.75 39.84171042969303 L106.75 40.15828957030696 L106.75 40.15828957030696 L106.75 39.84171042969303 Z"></path><path d="M111.75 39.63735724402165 L111.75 39.63735724402165 L111.75 40.36264275597836 L111.75 40.36264275597836 L111.75 39.63735724402165 Z"></path><path d="M116.75 39.61315909698268 L116.75 39.61315909698268 L116.75 40.38684090301732 L116.75 40.38684090301732 L116.75 39.61315909698268 Z"></path><path d="M121.75 0 L121.75 0 L121.75 80 L121.75 80 L121.75 0 Z"></path><path d="M126.75 35.90071060933458 L126.75 35.90071060933458 L126.75 44.099289390665426 L126.75 44.099289390665426 L126.75 35.90071060933458 Z"></path><path d="M131.75 39.73126407687894 L131.75 39.73126407687894 L131.75 40.268735923121056 L131.75 40.268735923121056 L131.75 39.73126407687894 Z"></path><path d="M136.75 39.80771525545919 L136.75 39.80771525545919 L136.75 40.192284744540814 L136.75 40.192284744540814 L136.75 39.80771525545919 Z"></path><path d="M141.75 39.80642741105434 L141.75 39.80642741105434 L141.75 40.19357258894566 L141.75 40.19357258894566 L141.75 39.80642741105434 Z"></path><path d="M146.75 39.77407736288167 L146.75 39.77407736288167 L146.75 40.22592263711833 L146.75 40.22592263711833 L146.75 39.77407736288167 Z"></path><path d="M151.75 38.25335068831878 L151.75 38.25335068831878 L151.75 41.74664931168121 L151.75 41.74664931168121 L151.75 38.25335068831878 Z"></path><path d="M156.75 6.888647270727965 L156.75 6.888647270727965 L156.75 73.11135272927203 L156.75 73.11135272927203 L156.75 6.888647270727965 Z"></path><path d="M161.75 39.528669449704424 L161.75 39.528669449704424 L161.75 40.471330550295576 L161.75 40.471330550295576 L161.75 39.528669449704424 Z"></path><path d="M166.75 39.82608831137744 L166.75 39.82608831137744 L166.75 40.17391168862256 L166.75 40.17391168862256 L166.75 39.82608831137744 Z"></path><path d="M171.75 34.94109818287413 L171.75 34.94109818287413 L171.75 45.05890181712588 L171.75 45.05890181712588 L171.75 34.94109818287413 Z"></path><path d="M176.75 39.824037686826564 L176.75 39.824037686826564 L176.75 40.175962313173436 L176.75 40.175962313173436 L176.75 39.824037686826564 Z"></path><path d="M181.75 39.80101994324985 L181.75 39.80101994324985 L181.75 40.198980056750145 L181.75 40.198980056750145 L181.75 39.80101994324985 Z"></path><path d="M186.75 38.50080093411066 L186.75 38.50080093411066 L186.75 41.499199065889336 L186.75 41.499199065889336 L186.75 38.50080093411066 Z"></path><path d="M191.75 35.65164499530371 L191.75 35.65164499530371 L191.75 44.348355004696295 L191.75 44.348355004696295 L191.75 35.65164499530371 Z"></path><path d="M196.75 39.579974741540305 L196.75 39.579974741540305 L196.75 40.42002525845969 L196.75 40.42002525845969 L196.75 39.579974741540305 Z"></path><path d="M201.75 38.629550433497656 L201.75 38.629550433497656 L201.75 41.370449566502344 L201.75 41.370449566502344 L201.75 38.629550433497656 Z"></path><path d="M206.75 39.837985917302866 L206.75 39.837985917302866 L206.75 40.16201408269714 L206.75 40.16201408269714 L206.75 39.837985917302866 Z"></path><path d="M211.75 34.055343337960444 L211.75 34.055343337960444 L211.75 45.944656662039556 L211.75 45.944656662039556 L211.75 34.055343337960444 Z"></path><path d="M216.75 24.78211953482853 L216.75 24.78211953482853 L216.75 55.217880465171476 L216.75 55.217880465171476 L216.75 24.78211953482853 Z"></path><path d="M221.75 33.40867932114081 L221.75 33.40867932114081 L221.75 46.59132067885919 L221.75 46.59132067885919 L221.75 33.40867932114081 Z"></path><path d="M226.75 39.81098160818354 L226.75 39.81098160818354 L226.75 40.189018391816454 L226.75 40.189018391816454 L226.75 39.81098160818354 Z"></path><path d="M231.75 39.7677688857307 L231.75 39.7677688857307 L231.75 40.23223111426929 L231.75 40.23223111426929 L231.75 39.7677688857307 Z"></path><path d="M236.75 39.75122256500276 L236.75 39.75122256500276 L236.75 40.24877743499724 L236.75 40.24877743499724 L236.75 39.75122256500276 Z"></path><path d="M241.75 39.83201904242191 L241.75 39.83201904242191 L241.75 40.167980957578095 L241.75 40.167980957578095 L241.75 39.83201904242191 Z"></path><path d="M246.75 19.819443934445264 L246.75 19.819443934445264 L246.75 60.18055606555474 L246.75 60.18055606555474 L246.75 19.819443934445264 Z"></path><path d="M251.75 36.569233995341264 L251.75 36.569233995341264 L251.75 43.430766004658736 L251.75 43.430766004658736 L251.75 36.569233995341264 Z"></path><path d="M256.75 39.82249759016267 L256.75 39.82249759016267 L256.75 40.17750240983733 L256.75 40.17750240983733 L256.75 39.82249759016267 Z"></path><path d="M261.75 39.85598096381448 L261.75 39.85598096381448 L261.75 40.14401903618552 L261.75 40.14401903618552 L261.75 39.85598096381448 Z"></path><path d="M266.75 39.783073127570155 L266.75 39.783073127570155 L266.75 40.216926872429845 L266.75 40.216926872429845 L266.75 39.783073127570155 Z"></path><path d="M271.75 39.81473508162141 L271.75 39.81473508162141 L271.75 40.18526491837859 L271.75 40.18526491837859 L271.75 39.81473508162141 Z"></path><path d="M276.75 36.629257369818646 L276.75 36.629257369818646 L276.75 43.37074263018135 L276.75 43.37074263018135 L276.75 36.629257369818646 Z"></path><path d="M281.75 27.356422399607716 L281.75 27.356422399607716 L281.75 52.643577600392284 L281.75 52.643577600392284 L281.75 27.356422399607716 Z"></path><path d="M286.75 39.70383623780423 L286.75 39.70383623780423 L286.75 40.296163762195775 L286.75 40.296163762195775 L286.75 39.70383623780423 Z"></path><path d="M291.75 39.858885021888824 L291.75 39.858885021888824 L291.75 40.141114978111176 L291.75 40.141114978111176 L291.75 39.858885021888824 Z"></path><path d="M296.75 39.818023825772165 L296.75 39.818023825772165 L296.75 40.181976174227835 L296.75 40.181976174227835 L296.75 39.818023825772165 Z"></path><path d="M301.75 39.82724313066082 L301.75 39.82724313066082 L301.75 40.17275686933918 L301.75 40.17275686933918 L301.75 39.82724313066082 Z"></path><path d="M306.75 39.79533842743789 L306.75 39.79533842743789 L306.75 40.2046615725621 L306.75 40.2046615725621 L306.75 39.79533842743789 Z"></path><path d="M311.75 21.641000607808298 L311.75 21.641000607808298 L311.75 58.358999392191706 L311.75 58.358999392191706 L311.75 21.641000607808298 Z"></path><path d="M316.75 31.41277688331214 L316.75 31.41277688331214 L316.75 48.58722311668785 L316.75 48.58722311668785 L316.75 31.41277688331214 Z"></path><path d="M321.75 38.93439580244225 L321.75 38.93439580244225 L321.75 41.06560419755775 L321.75 41.06560419755775 L321.75 38.93439580244225 Z"></path><path d="M326.75 39.758612815415624 L326.75 39.758612815415624 L326.75 40.241387184584376 L326.75 40.241387184584376 L326.75 39.758612815415624 Z"></path><path d="M331.75 39.829541291921856 L331.75 39.829541291921856 L331.75 40.17045870807815 L331.75 40.17045870807815 L331.75 39.829541291921856 Z"></path><path d="M336.75 33.10093286210796 L336.75 33.10093286210796 L336.75 46.89906713789203 L336.75 46.89906713789203 L336.75 33.10093286210796 Z"></path><path d="M341.75 30.507366978334048 L341.75 30.507366978334048 L341.75 49.49263302166595 L341.75 49.49263302166595 L341.75 30.507366978334048 Z"></path><path d="M346.75 39.75819076226118 L346.75 39.75819076226118 L346.75 40.24180923773881 L346.75 40.24180923773881 L346.75 39.75819076226118 Z"></path><path d="M351.75 39.85449065696408 L351.75 39.85449065696408 L351.75 40.14550934303592 L351.75 40.14550934303592 L351.75 39.85449065696408 Z"></path><path d="M356.75 39.85515907904249 L356.75 39.85515907904249 L356.75 40.144840920957506 L356.75 40.144840920957506 L356.75 39.85515907904249 Z"></path><path d="M361.75 39.74834306939684 L361.75 39.74834306939684 L361.75 40.25165693060317 L361.75 40.25165693060317 L361.75 39.74834306939684 Z"></path><path d="M366.75 39.7337018396853 L366.75 39.7337018396853 L366.75 40.26629816031469 L366.75 40.26629816031469 L366.75 39.7337018396853 Z"></path><path d="M371.75 9.444793652896294 L371.75 9.444793652896294 L371.75 70.5552063471037 L371.75 70.5552063471037 L371.75 9.444793652896294 Z"></path><path d="M376.75 37.24769122609377 L376.75 37.24769122609377 L376.75 42.752308773906236 L376.75 42.752308773906236 L376.75 37.24769122609377 Z"></path><path d="M381.75 39.41621027175519 L381.75 39.41621027175519 L381.75 40.58378972824481 L381.75 40.58378972824481 L381.75 39.41621027175519 Z"></path><path d="M386.75 39.82476327965363 L386.75 39.82476327965363 L386.75 40.17523672034637 L386.75 40.17523672034637 L386.75 39.82476327965363 Z"></path><path d="M391.75 39.83029077013185 L391.75 39.83029077013185 L391.75 40.169709229868154 L391.75 40.169709229868154 L391.75 39.83029077013185 Z"></path><path d="M396.75 39.61908737243049 L396.75 39.61908737243049 L396.75 40.3809126275695 L396.75 40.3809126275695 L396.75 39.61908737243049 Z"></path><path d="M401.75 29.613254634783445 L401.75 29.613254634783445 L401.75 50.386745365216555 L401.75 50.386745365216555 L401.75 29.613254634783445 Z"></path><path d="M406.75 15.338873877819477 L406.75 15.338873877819477 L406.75 64.66112612218052 L406.75 64.66112612218052 L406.75 15.338873877819477 Z"></path><path d="M411.75 39.704671654161714 L411.75 39.704671654161714 L411.75 40.295328345838286 L411.75 40.295328345838286 L411.75 39.704671654161714 Z"></path><path d="M416.75 39.84096626894649 L416.75 39.84096626894649 L416.75 40.159033731053505 L416.75 40.159033731053505 L416.75 39.84096626894649 Z"></path><path d="M421.75 39.85481261094741 L421.75 39.85481261094741 L421.75 40.14518738905259 L421.75 40.14518738905259 L421.75 39.85481261094741 Z"></path><path d="M426.75 39.78720971637951 L426.75 39.78720971637951 L426.75 40.212790283620485 L426.75 40.212790283620485 L426.75 39.78720971637951 Z"></path><path d="M431.75 39.82233828934661 L431.75 39.82233828934661 L431.75 40.17766171065339 L431.75 40.17766171065339 L431.75 39.82233828934661 Z"></path><path d="M436.75 38.78562995656276 L436.75 38.78562995656276 L436.75 41.21437004343724 L436.75 41.21437004343724 L436.75 38.78562995656276 Z"></path><path d="M441.75 34.096146347528425 L441.75 34.096146347528425 L441.75 45.90385365247157 L441.75 45.90385365247157 L441.75 34.096146347528425 Z"></path><path d="M446.75 38.63339049039409 L446.75 38.63339049039409 L446.75 41.36660950960591 L446.75 41.36660950960591 L446.75 38.63339049039409 Z"></path><path d="M451.75 39.66813368069073 L451.75 39.66813368069073 L451.75 40.33186631930927 L451.75 40.33186631930927 L451.75 39.66813368069073 Z"></path><path d="M456.75 39.734687159857664 L456.75 39.734687159857664 L456.75 40.265312840142336 L456.75 40.265312840142336 L456.75 39.734687159857664 Z"></path><path d="M461.75 39.838654934193045 L461.75 39.838654934193045 L461.75 40.16134506580695 L461.75 40.16134506580695 L461.75 39.838654934193045 Z"></path><path d="M466.75 25.851337272867703 L466.75 25.851337272867703 L466.75 54.148662727132304 L466.75 54.148662727132304 L466.75 25.851337272867703 Z"></path><path d="M471.75 36.07845624469151 L471.75 36.07845624469151 L471.75 43.9215437553085 L471.75 43.9215437553085 L471.75 36.07845624469151 Z"></path><path d="M476.75 39.81426209521958 L476.75 39.81426209521958 L476.75 40.185737904780424 L476.75 40.185737904780424 L476.75 39.81426209521958 Z"></path><path d="M481.75 39.82967031069425 L481.75 39.82967031069425 L481.75 40.170329689305746 L481.75 40.170329689305746 L481.75 39.82967031069425 Z"></path><path d="M486.75 39.596484120027 L486.75 39.596484120027 L486.75 40.403515879973 L486.75 40.403515879973 L486.75 39.596484120027 Z"></path><path d="M491.75 39.85701742162931 L491.75 39.85701742162931 L491.75 40.142982578370685 L491.75 40.142982578370685 L491.75 39.85701742162931 Z"></path><path d="M496.75 7.937212975835514 L496.75 7.937212975835514 L496.75 72.06278702416449 L496.75 72.06278702416449 L496.75 7.937212975835514 Z"></path></svg>