<?xml version="1.0" standalone="no"?><!DOCTYPE svg PUBLIC "-//W3C//DTD SVG 1.1//EN" "http://www.w3.org/Graphics/SVG/1.1/DTD/svg11.dtd"><svg id="d15318ac-c5a8-3243-26d0-c0686a6acaa6" xmlns="http://www.w3.org/2000/svg" version="1.1" viewBox="0 0 500 80"><style type="text/css">path{stroke:white;stroke-width:3.5}</style><path d="M1.75 17.298918271890148 L1.75 17.298918271890148 L1.75 62.701081728109855 L1.75 62.701081728109855 L1.75 17.298918271890148 Z"></path><path d="M6.75 38.84914071986997 L6.75 38.84914071986997 L6.75 41.15085928013003 L6.75 41.15085928013003 L6.75 38.84914071986997 Z"></path><path d="M11.75 39.30698812777903 L11.75 39.30698812777903 L11.75 40.69301187222097 L11.75 40.69301187222097 L11.75 39.30698812777903 Z"></path><path d="M16.75 16.504710696909868 L16.75 16.504710696909868 L16.75 63.49528930309013 L16.75 63.49528930309013 L16.75 16.504710696909868 Z"></path><path d="M21.75 25.275620248261824 L21.75 25.275620248261824 L21.75 54.72437975173818 L21.75 54.72437975173818 L21.75 25.275620248261824 Z"></path><path d="M26.75 39.07843081290543 L26.75 39.07843081290543 L26.75 40.92156918709456 L26.75 40.92156918709456 L26.75 39.07843081290543 Z"></path><path d="M31.75 38.764442534983296 L31.75 38.764442534983296 L31.75 41.2355574650167 L31.75 41.2355574650167 L31.75 38.764442534983296 Z"></path><path d="M36.75 18.94536880988208 L36.75 18.94536880988208 L36.75 61.05463119011792 L36.75 61.05463119011792 L36.75 18.94536880988208 Z"></path><path d="M41.75 21.471213115303343 L41.75 21.471213115303343 L41.75 58.52878688469666 L41.75 58.52878688469666 L41.75 21.471213115303343 Z"></path><path d="M46.75 20.438219701407476 L46.75 20.438219701407476 L46.75 59.561780298592524 L46.75 59.561780298592524 L46.75 20.438219701407476 Z"></path><path d="M51.75 28.982133753805876 L51.75 28.982133753805876 L51.75 51.01786624619412 L51.75 51.01786624619412 L51.75 28.982133753805876 Z"></path><path d="M56.75 0.1303084495557627 L56.75 0.1303084495557627 L56.75 79.86969155044423 L56.75 79.86969155044423 L56.75 0.1303084495557627 Z"></path><path d="M61.75 8.907416809213117 L61.75 8.907416809213117 L61.75 71.09258319078688 L61.75 71.09258319078688 L61.75 8.907416809213117 Z"></path><path d="M66.75 38.252510322850476 L66.75 38.252510322850476 L66.75 41.747489677149524 L66.75 41.747489677149524 L66.75 38.252510322850476 Z"></path><path d="M71.75 39.544777577618106 L71.75 39.544777577618106 L71.75 40.45522242238189 L71.75 40.45522242238189 L71.75 39.544777577618106 Z"></path><path d="M76.75 20.034809688944446 L76.75 20.034809688944446 L76.75 59.96519031105555 L76.75 59.96519031105555 L76.75 20.034809688944446 Z"></path><path d="M81.75 20.280019723012877 L81.75 20.280019723012877 L81.75 59.71998027698712 L81.75 59.71998027698712 L81.75 20.280019723012877 Z"></path><path d="M86.75 38.776267571448 L86.75 38.776267571448 L86.75 41.223732428552 L86.75 41.223732428552 L86.75 38.776267571448 Z"></path><path d="M91.75 39.13474162340965 L91.75 39.13474162340965 L91.75 40.865258376590354 L91.75 40.865258376590354 L91.75 39.13474162340965 Z"></path><path d="M96.75 39.46210687864591 L96.75 39.46210687864591 L96.75 40.53789312135409 L96.75 40.53789312135409 L96.75 39.46210687864591 Z"></path><path d="M101.75 28.115008747468252 L101.75 28.115008747468252 L101.75 51.88499125253175 L101.75 51.88499125253175 L101.75 28.115008747468252 Z"></path><path d="M106.75 37.61692352558148 L106.75 37.61692352558148 L106.75 42.38307647441852 L106.75 42.38307647441852 L106.75 37.61692352558148 Z"></path><path d="M111.75 39.577618698711184 L111.75 39.577618698711184 L111.75 40.42238130128881 L111.75 40.42238130128881 L111.75 39.577618698711184 Z"></path><path d="M116.75 39.64485551200695 L116.75 39.64485551200695 L116.75 40.35514448799306 L116.75 40.35514448799306 L116.75 39.64485551200695 Z"></path><path d="M121.75 31.83343852863036 L121.75 31.83343852863036 L121.75 48.16656147136964 L121.75 48.16656147136964 L121.75 31.83343852863036 Z"></path><path d="M126.75 38.38039076558771 L126.75 38.38039076558771 L126.75 41.61960923441229 L126.75 41.61960923441229 L126.75 38.38039076558771 Z"></path><path d="M131.75 39.60936437899201 L131.75 39.60936437899201 L131.75 40.39063562100799 L131.75 40.39063562100799 L131.75 39.60936437899201 Z"></path><path d="M136.75 39.63396520956165 L136.75 39.63396520956165 L136.75 40.36603479043834 L136.75 40.36603479043834 L136.75 39.63396520956165 Z"></path><path d="M141.75 35.528301306535376 L141.75 35.528301306535376 L141.75 44.47169869346462 L141.75 44.47169869346462 L141.75 35.528301306535376 Z"></path><path d="M146.75 38.34663286271523 L146.75 38.34663286271523 L146.75 41.65336713728477 L146.75 41.65336713728477 L146.75 38.34663286271523 Z"></path><path d="M151.75 39.549408014279585 L151.75 39.549408014279585 L151.75 40.450591985720415 L151.75 40.450591985720415 L151.75 39.549408014279585 Z"></path><path d="M156.75 38.66291329911113 L156.75 38.66291329911113 L156.75 41.337086700888875 L156.75 41.337086700888875 L156.75 38.66291329911113 Z"></path><path d="M161.75 36.001665450310135 L161.75 36.001665450310135 L161.75 43.99833454968986 L161.75 43.99833454968986 L161.75 36.001665450310135 Z"></path><path d="M166.75 30.70124898251899 L166.75 30.70124898251899 L166.75 49.29875101748101 L166.75 49.29875101748101 L166.75 30.70124898251899 Z"></path><path d="M171.75 27.63086352667163 L171.75 27.63086352667163 L171.75 52.36913647332837 L171.75 52.36913647332837 L171.75 27.63086352667163 Z"></path><path d="M176.75 24.87419831202197 L176.75 24.87419831202197 L176.75 55.125801687978026 L176.75 55.125801687978026 L176.75 24.87419831202197 Z"></path><path d="M181.75 13.849820071653824 L181.75 13.849820071653824 L181.75 66.15017992834618 L181.75 66.15017992834618 L181.75 13.849820071653824 Z"></path><path d="M186.75 3.6678797927310924 L186.75 3.6678797927310924 L186.75 76.3321202072689 L186.75 76.3321202072689 L186.75 3.6678797927310924 Z"></path><path d="M191.75 22.043739896897073 L191.75 22.043739896897073 L191.75 57.95626010310293 L191.75 57.95626010310293 L191.75 22.043739896897073 Z"></path><path d="M196.75 39.23176727289351 L196.75 39.23176727289351 L196.75 40.76823272710649 L196.75 40.76823272710649 L196.75 39.23176727289351 Z"></path><path d="M201.75 39.58544839817597 L201.75 39.58544839817597 L201.75 40.41455160182404 L201.75 40.41455160182404 L201.75 39.58544839817597 Z"></path><path d="M206.75 0.8746506296102297 L206.75 0.8746506296102297 L206.75 79.12534937038977 L206.75 79.12534937038977 L206.75 0.8746506296102297 Z"></path><path d="M211.75 6.435560735083385 L211.75 6.435560735083385 L211.75 73.56443926491662 L211.75 73.56443926491662 L211.75 6.435560735083385 Z"></path><path d="M216.75 38.68966240844591 L216.75 38.68966240844591 L216.75 41.31033759155409 L216.75 41.31033759155409 L216.75 38.68966240844591 Z"></path><path d="M221.75 39.63664056806312 L221.75 39.63664056806312 L221.75 40.36335943193688 L221.75 40.36335943193688 L221.75 39.63664056806312 Z"></path><path d="M226.75 11.912874077951962 L226.75 11.912874077951962 L226.75 68.08712592204805 L226.75 68.08712592204805 L226.75 11.912874077951962 Z"></path><path d="M231.75 19.666851728488282 L231.75 19.666851728488282 L231.75 60.33314827151172 L231.75 60.33314827151172 L231.75 19.666851728488282 Z"></path><path d="M236.75 39.080963627418996 L236.75 39.080963627418996 L236.75 40.91903637258101 L236.75 40.91903637258101 L236.75 39.080963627418996 Z"></path><path d="M241.75 39.64068560844306 L241.75 39.64068560844306 L241.75 40.35931439155694 L241.75 40.35931439155694 L241.75 39.64068560844306 Z"></path><path d="M246.75 19.486476689576133 L246.75 19.486476689576133 L246.75 60.513523310423864 L246.75 60.513523310423864 L246.75 19.486476689576133 Z"></path><path d="M251.75 25.49763794776969 L251.75 25.49763794776969 L251.75 54.50236205223031 L251.75 54.50236205223031 L251.75 25.49763794776969 Z"></path><path d="M256.75 38.984999714500944 L256.75 38.984999714500944 L256.75 41.015000285499056 L256.75 41.015000285499056 L256.75 38.984999714500944 Z"></path><path d="M261.75 39.53906886988158 L261.75 39.53906886988158 L261.75 40.46093113011842 L261.75 40.46093113011842 L261.75 39.53906886988158 Z"></path><path d="M266.75 36.10998709466868 L266.75 36.10998709466868 L266.75 43.89001290533132 L266.75 43.89001290533132 L266.75 36.10998709466868 Z"></path><path d="M271.75 27.34325311478446 L271.75 27.34325311478446 L271.75 52.65674688521554 L271.75 52.65674688521554 L271.75 27.34325311478446 Z"></path><path d="M276.75 38.97059145774827 L276.75 38.97059145774827 L276.75 41.02940854225174 L276.75 41.02940854225174 L276.75 38.97059145774827 Z"></path><path d="M281.75 39.491861354736734 L281.75 39.491861354736734 L281.75 40.50813864526326 L281.75 40.50813864526326 L281.75 39.491861354736734 Z"></path><path d="M286.75 38.560149924498326 L286.75 38.560149924498326 L286.75 41.439850075501674 L286.75 41.439850075501674 L286.75 38.560149924498326 Z"></path><path d="M291.75 22.57797847124076 L291.75 22.57797847124076 L291.75 57.422021528759245 L291.75 57.422021528759245 L291.75 22.57797847124076 Z"></path><path d="M296.75 13.702647191479524 L296.75 13.702647191479524 L296.75 66.29735280852047 L296.75 66.29735280852047 L296.75 13.702647191479524 Z"></path><path d="M301.75 18.007686322205856 L301.75 18.007686322205856 L301.75 61.992313677794144 L301.75 61.992313677794144 L301.75 18.007686322205856 Z"></path><path d="M306.75 3.6707188042233767 L306.75 3.6707188042233767 L306.75 76.32928119577662 L306.75 76.32928119577662 L306.75 3.6707188042233767 Z"></path><path d="M311.75 0 L311.75 0 L311.75 80 L311.75 80 L311.75 0 Z"></path><path d="M316.75 28.470632109146468 L316.75 28.470632109146468 L316.75 51.529367890853536 L316.75 51.529367890853536 L316.75 28.470632109146468 Z"></path><path d="M321.75 39.161605484492966 L321.75 39.161605484492966 L321.75 40.838394515507034 L321.75 40.838394515507034 L321.75 39.161605484492966 Z"></path><path d="M326.75 39.62516620488677 L326.75 39.62516620488677 L326.75 40.37483379511323 L326.75 40.37483379511323 L326.75 39.62516620488677 Z"></path><path d="M331.75 9.664418813006552 L331.75 9.664418813006552 L331.75 70.33558118699345 L331.75 70.33558118699345 L331.75 9.664418813006552 Z"></path><path d="M336.75 17.413574384207653 L336.75 17.413574384207653 L336.75 62.58642561579235 L336.75 62.58642561579235 L336.75 17.413574384207653 Z"></path><path d="M341.75 39.090097721992436 L341.75 39.090097721992436 L341.75 40.909902278007564 L341.75 40.909902278007564 L341.75 39.090097721992436 Z"></path><path d="M346.75 39.632380207843624 L346.75 39.632380207843624 L346.75 40.367619792156376 L346.75 40.367619792156376 L346.75 39.632380207843624 Z"></path><path d="M351.75 24.18198471931862 L351.75 24.18198471931862 L351.75 55.81801528068138 L351.75 55.81801528068138 L351.75 24.18198471931862 Z"></path><path d="M356.75 24.3149055294587 L356.75 24.3149055294587 L356.75 55.6850944705413 L356.75 55.6850944705413 L356.75 24.3149055294587 Z"></path><path d="M361.75 38.93726411093869 L361.75 38.93726411093869 L361.75 41.06273588906131 L361.75 41.06273588906131 L361.75 38.93726411093869 Z"></path><path d="M366.75 39.63046650582859 L366.75 39.63046650582859 L366.75 40.3695334941714 L366.75 40.3695334941714 L366.75 39.63046650582859 Z"></path><path d="M371.75 26.252180555807044 L371.75 26.252180555807044 L371.75 53.747819444192956 L371.75 53.747819444192956 L371.75 26.252180555807044 Z"></path><path d="M376.75 29.092339986561115 L376.75 29.092339986561115 L376.75 50.907660013438885 L376.75 50.907660013438885 L376.75 29.092339986561115 Z"></path><path d="M381.75 39.223650613002185 L381.75 39.223650613002185 L381.75 40.776349386997815 L381.75 40.776349386997815 L381.75 39.223650613002185 Z"></path><path d="M386.75 39.65532502931827 L386.75 39.65532502931827 L386.75 40.34467497068173 L386.75 40.34467497068173 L386.75 39.65532502931827 Z"></path><path d="M391.75 37.34454348547663 L391.75 37.34454348547663 L391.75 42.655456514523365 L391.75 42.655456514523365 L391.75 37.34454348547663 Z"></path><path d="M396.75 34.40249847445632 L396.75 34.40249847445632 L396.75 45.59750152554368 L396.75 45.59750152554368 L396.75 34.40249847445632 Z"></path><path d="M401.75 38.930195265522336 L401.75 38.930195265522336 L401.75 41.069804734477664 L401.75 41.069804734477664 L401.75 38.930195265522336 Z"></path><path d="M406.75 39.40917201313353 L406.75 39.40917201313353 L406.75 40.590827986866465 L406.75 40.590827986866465 L406.75 39.40917201313353 Z"></path><path d="M411.75 35.74207524930799 L411.75 35.74207524930799 L411.75 44.25792475069202 L411.75 44.25792475069202 L411.75 35.74207524930799 Z"></path><path d="M416.75 30.41466984999142 L416.75 30.41466984999142 L416.75 49.58533015000858 L416.75 49.58533015000858 L416.75 30.41466984999142 Z"></path><path d="M421.75 37.44424208548817 L421.75 37.44424208548817 L421.75 42.55575791451184 L421.75 42.55575791451184 L421.75 37.44424208548817 Z"></path><path d="M426.75 39.61514095465329 L426.75 39.61514095465329 L426.75 40.38485904534671 L426.75 40.38485904534671 L426.75 39.61514095465329 Z"></path><path d="M431.75 7.364367623811077 L431.75 7.364367623811077 L431.75 72.63563237618892 L431.75 72.63563237618892 L431.75 7.364367623811077 Z"></path><path d="M436.75 8.372870391909178 L436.75 8.372870391909178 L436.75 71.62712960809083 L436.75 71.62712960809083 L436.75 8.372870391909178 Z"></path><path d="M441.75 37.25776276867808 L441.75 37.25776276867808 L441.75 42.742237231321916 L441.75 42.742237231321916 L441.75 37.25776276867808 Z"></path><path d="M446.75 39.38934346088246 L446.75 39.38934346088246 L446.75 40.610656539117535 L446.75 40.610656539117535 L446.75 39.38934346088246 Z"></path><path d="M451.75 39.359621059086344 L451.75 39.359621059086344 L451.75 40.64037894091366 L451.75 40.64037894091366 L451.75 39.359621059086344 Z"></path><path d="M456.75 12.047174285627815 L456.75 12.047174285627815 L456.75 67.95282571437218 L456.75 67.95282571437218 L456.75 12.047174285627815 Z"></path><path d="M461.75 23.340097210958973 L461.75 23.340097210958973 L461.75 56.65990278904103 L461.75 56.65990278904103 L461.75 23.340097210958973 Z"></path><path d="M466.75 39.059450450086814 L466.75 39.059450450086814 L466.75 40.940549549913186 L466.75 40.940549549913186 L466.75 39.059450450086814 Z"></path><path d="M471.75 39.50698124013747 L471.75 39.50698124013747 L471.75 40.49301875986254 L471.75 40.49301875986254 L471.75 39.50698124013747 Z"></path><path d="M476.75 32.716432531344225 L476.75 32.716432531344225 L476.75 47.283567468655775 L476.75 47.283567468655775 L476.75 32.716432531344225 Z"></path><path d="M481.75 29.191111660135554 L481.75 29.191111660135554 L481.75 50.808888339864446 L481.75 50.808888339864446 L481.75 29.191111660135554 Z"></path><path d="M486.75 38.62193287855559 L486.75 38.62193287855559 L486.75 41.37806712144441 L486.75 41.37806712144441 L486.75 38.62193287855559 Z"></path><path d="M491.75 39.60115004435129 L491.75 39.60115004435129 L491.75 40.3988499556487 L491.75 40.3988499556487 L491.75 39.60115004435129 Z"></path><path d="M496.75 36.56922228249522 L496.75 36.56922228249522 L496.75 43.43077771750478 L496.75 43.43077771750478 L496.75 36.56922228249522 Z"></path></svg>