<?xml version="1.0" standalone="no"?><!DOCTYPE svg PUBLIC "-//W3C//DTD SVG 1.1//EN" "http://www.w3.org/Graphics/SVG/1.1/DTD/svg11.dtd"><svg id="602cef02-b561-d21e-d6d7-0ce0fbb7fa84" xmlns="http://www.w3.org/2000/svg" version="1.1" viewBox="0 0 500 80"><style type="text/css">path{stroke:white;stroke-width:3.5}</style><path d="M1.75 39.03913635712424 L1.75 39.03913635712424 L1.75 40.960863642875765 L1.75 40.960863642875765 L1.75 39.03913635712424 Z"></path><path d="M6.75 37.04237035917294 L6.75 37.04237035917294 L6.75 42.957629640827065 L6.75 42.957629640827065 L6.75 37.04237035917294 Z"></path><path d="M11.75 38.018312453057185 L11.75 38.018312453057185 L11.75 41.98168754694281 L11.75 41.98168754694281 L11.75 38.018312453057185 Z"></path><path d="M16.75 39.57031753892108 L16.75 39.57031753892108 L16.75 40.42968246107892 L16.75 40.42968246107892 L16.75 39.57031753892108 Z"></path><path d="M21.75 29.317876630561663 L21.75 29.317876630561663 L21.75 50.68212336943833 L21.75 50.68212336943833 L21.75 29.317876630561663 Z"></path><path d="M26.75 21.330883980810714 L26.75 21.330883980810714 L26.75 58.66911601918929 L26.75 58.66911601918929 L26.75 21.330883980810714 Z"></path><path d="M31.75 15.983173053474339 L31.75 15.983173053474339 L31.75 64.01682694652567 L31.75 64.01682694652567 L31.75 15.983173053474339 Z"></path><path d="M36.75 21.34894310338385 L36.75 21.34894310338385 L36.75 58.651056896616154 L36.75 58.651056896616154 L36.75 21.34894310338385 Z"></path><path d="M41.75 21.49977351375993 L41.75 21.49977351375993 L41.75 58.50022648624007 L41.75 58.50022648624007 L41.75 21.49977351375993 Z"></path><path d="M46.75 39.08815121781525 L46.75 39.08815121781525 L46.75 40.911848782184755 L46.75 40.911848782184755 L46.75 39.08815121781525 Z"></path><path d="M51.75 29.011526810741064 L51.75 29.011526810741064 L51.75 50.98847318925894 L51.75 50.98847318925894 L51.75 29.011526810741064 Z"></path><path d="M56.75 6.11534179126447 L56.75 6.11534179126447 L56.75 73.88465820873553 L56.75 73.88465820873553 L56.75 6.11534179126447 Z"></path><path d="M61.75 9.683087024120336 L61.75 9.683087024120336 L61.75 70.31691297587966 L61.75 70.31691297587966 L61.75 9.683087024120336 Z"></path><path d="M66.75 23.48140129199191 L66.75 23.48140129199191 L66.75 56.518598708008085 L66.75 56.518598708008085 L66.75 23.48140129199191 Z"></path><path d="M71.75 23.483311178828856 L71.75 23.483311178828856 L71.75 56.516688821171144 L71.75 56.516688821171144 L71.75 23.483311178828856 Z"></path><path d="M76.75 25.48422920891629 L76.75 25.48422920891629 L76.75 54.51577079108371 L76.75 54.51577079108371 L76.75 25.48422920891629 Z"></path><path d="M81.75 24.26864289839645 L81.75 24.26864289839645 L81.75 55.73135710160355 L81.75 55.73135710160355 L81.75 24.26864289839645 Z"></path><path d="M86.75 17.822716166159047 L86.75 17.822716166159047 L86.75 62.17728383384095 L86.75 62.17728383384095 L86.75 17.822716166159047 Z"></path><path d="M91.75 13.396125504949367 L91.75 13.396125504949367 L91.75 66.60387449505063 L91.75 66.60387449505063 L91.75 13.396125504949367 Z"></path><path d="M96.75 17.06788575293376 L96.75 17.06788575293376 L96.75 62.93211424706624 L96.75 62.93211424706624 L96.75 17.06788575293376 Z"></path><path d="M101.75 19.358315344477433 L101.75 19.358315344477433 L101.75 60.64168465552257 L101.75 60.64168465552257 L101.75 19.358315344477433 Z"></path><path d="M106.75 11.800935420458138 L106.75 11.800935420458138 L106.75 68.19906457954187 L106.75 68.19906457954187 L106.75 11.800935420458138 Z"></path><path d="M111.75 17.65316873714544 L111.75 17.65316873714544 L111.75 62.346831262854565 L111.75 62.346831262854565 L111.75 17.65316873714544 Z"></path><path d="M116.75 27.307586120388734 L116.75 27.307586120388734 L116.75 52.692413879611266 L116.75 52.692413879611266 L116.75 27.307586120388734 Z"></path><path d="M121.75 17.398143381994657 L121.75 17.398143381994657 L121.75 62.60185661800534 L121.75 62.60185661800534 L121.75 17.398143381994657 Z"></path><path d="M126.75 22.440441553081406 L126.75 22.440441553081406 L126.75 57.559558446918594 L126.75 57.559558446918594 L126.75 22.440441553081406 Z"></path><path d="M131.75 22.38536837587947 L131.75 22.38536837587947 L131.75 57.614631624120534 L131.75 57.614631624120534 L131.75 22.38536837587947 Z"></path><path d="M136.75 13.347346837053085 L136.75 13.347346837053085 L136.75 66.65265316294692 L136.75 66.65265316294692 L136.75 13.347346837053085 Z"></path><path d="M141.75 17.587564630694402 L141.75 17.587564630694402 L141.75 62.4124353693056 L141.75 62.4124353693056 L141.75 17.587564630694402 Z"></path><path d="M146.75 18.3798759394902 L146.75 18.3798759394902 L146.75 61.620124060509795 L146.75 61.620124060509795 L146.75 18.3798759394902 Z"></path><path d="M151.75 21.53308800228485 L151.75 21.53308800228485 L151.75 58.46691199771515 L151.75 58.46691199771515 L151.75 21.53308800228485 Z"></path><path d="M156.75 19.989162405799863 L156.75 19.989162405799863 L156.75 60.01083759420014 L156.75 60.01083759420014 L156.75 19.989162405799863 Z"></path><path d="M161.75 16.45308758773167 L161.75 16.45308758773167 L161.75 63.54691241226833 L161.75 63.54691241226833 L161.75 16.45308758773167 Z"></path><path d="M166.75 17.75205165800624 L166.75 17.75205165800624 L166.75 62.24794834199376 L166.75 62.24794834199376 L166.75 17.75205165800624 Z"></path><path d="M171.75 14.57849953208595 L171.75 14.57849953208595 L171.75 65.42150046791406 L171.75 65.42150046791406 L171.75 14.57849953208595 Z"></path><path d="M176.75 19.97579839890073 L176.75 19.97579839890073 L176.75 60.02420160109927 L176.75 60.02420160109927 L176.75 19.97579839890073 Z"></path><path d="M181.75 0 L181.75 0 L181.75 80 L181.75 80 L181.75 0 Z"></path><path d="M186.75 13.715531610385959 L186.75 13.715531610385959 L186.75 66.28446838961403 L186.75 66.28446838961403 L186.75 13.715531610385959 Z"></path><path d="M191.75 14.554595952160227 L191.75 14.554595952160227 L191.75 65.44540404783977 L191.75 65.44540404783977 L191.75 14.554595952160227 Z"></path><path d="M196.75 22.04587747265088 L196.75 22.04587747265088 L196.75 57.95412252734912 L196.75 57.95412252734912 L196.75 22.04587747265088 Z"></path><path d="M201.75 27.415142388155566 L201.75 27.415142388155566 L201.75 52.584857611844434 L201.75 52.584857611844434 L201.75 27.415142388155566 Z"></path><path d="M206.75 32.64222710827607 L206.75 32.64222710827607 L206.75 47.35777289172393 L206.75 47.35777289172393 L206.75 32.64222710827607 Z"></path><path d="M211.75 36.7141796647261 L211.75 36.7141796647261 L211.75 43.28582033527389 L211.75 43.28582033527389 L211.75 36.7141796647261 Z"></path><path d="M216.75 35.348055974918175 L216.75 35.348055974918175 L216.75 44.651944025081825 L216.75 44.651944025081825 L216.75 35.348055974918175 Z"></path><path d="M221.75 39.229526281374014 L221.75 39.229526281374014 L221.75 40.770473718625986 L221.75 40.770473718625986 L221.75 39.229526281374014 Z"></path><path d="M226.75 39.163624911158514 L226.75 39.163624911158514 L226.75 40.83637508884149 L226.75 40.83637508884149 L226.75 39.163624911158514 Z"></path><path d="M231.75 38.68961534869415 L231.75 38.68961534869415 L231.75 41.31038465130585 L231.75 41.31038465130585 L231.75 38.68961534869415 Z"></path><path d="M236.75 38.60367176139188 L236.75 38.60367176139188 L236.75 41.39632823860811 L236.75 41.39632823860811 L236.75 38.60367176139188 Z"></path><path d="M241.75 38.89781705901962 L241.75 38.89781705901962 L241.75 41.102182940980384 L241.75 41.102182940980384 L241.75 38.89781705901962 Z"></path><path d="M246.75 39.169596793631946 L246.75 39.169596793631946 L246.75 40.830403206368054 L246.75 40.830403206368054 L246.75 39.169596793631946 Z"></path><path d="M251.75 39.357445495560796 L251.75 39.357445495560796 L251.75 40.642554504439204 L251.75 40.642554504439204 L251.75 39.357445495560796 Z"></path><path d="M256.75 37.918095127006765 L256.75 37.918095127006765 L256.75 42.081904872993235 L256.75 42.081904872993235 L256.75 37.918095127006765 Z"></path><path d="M261.75 39.000532706675266 L261.75 39.000532706675266 L261.75 40.999467293324734 L261.75 40.999467293324734 L261.75 39.000532706675266 Z"></path><path d="M266.75 39.40437527975655 L266.75 39.40437527975655 L266.75 40.59562472024346 L266.75 40.59562472024346 L266.75 39.40437527975655 Z"></path><path d="M271.75 23.574578827841282 L271.75 23.574578827841282 L271.75 56.42542117215872 L271.75 56.42542117215872 L271.75 23.574578827841282 Z"></path><path d="M276.75 19.841785722118317 L276.75 19.841785722118317 L276.75 60.15821427788168 L276.75 60.15821427788168 L276.75 19.841785722118317 Z"></path><path d="M281.75 14.303163894764463 L281.75 14.303163894764463 L281.75 65.69683610523553 L281.75 65.69683610523553 L281.75 14.303163894764463 Z"></path><path d="M286.75 25.72934064427463 L286.75 25.72934064427463 L286.75 54.27065935572537 L286.75 54.27065935572537 L286.75 25.72934064427463 Z"></path><path d="M291.75 23.068796643926294 L291.75 23.068796643926294 L291.75 56.93120335607371 L291.75 56.93120335607371 L291.75 23.068796643926294 Z"></path><path d="M296.75 38.99190691144105 L296.75 38.99190691144105 L296.75 41.008093088558944 L296.75 41.008093088558944 L296.75 38.99190691144105 Z"></path><path d="M301.75 28.813311139091773 L301.75 28.813311139091773 L301.75 51.18668886090823 L301.75 51.18668886090823 L301.75 28.813311139091773 Z"></path><path d="M306.75 3.293430015264242 L306.75 3.293430015264242 L306.75 76.70656998473575 L306.75 76.70656998473575 L306.75 3.293430015264242 Z"></path><path d="M311.75 7.609988287288601 L311.75 7.609988287288601 L311.75 72.3900117127114 L311.75 72.3900117127114 L311.75 7.609988287288601 Z"></path><path d="M316.75 8.058193689651254 L316.75 8.058193689651254 L316.75 71.94180631034874 L316.75 71.94180631034874 L316.75 8.058193689651254 Z"></path><path d="M321.75 19.55315498437561 L321.75 19.55315498437561 L321.75 60.44684501562439 L321.75 60.44684501562439 L321.75 19.55315498437561 Z"></path><path d="M326.75 35.50320860360051 L326.75 35.50320860360051 L326.75 44.496791396399495 L326.75 44.496791396399495 L326.75 35.50320860360051 Z"></path><path d="M331.75 37.63983609624243 L331.75 37.63983609624243 L331.75 42.36016390375756 L331.75 42.36016390375756 L331.75 37.63983609624243 Z"></path><path d="M336.75 23.388497723418016 L336.75 23.388497723418016 L336.75 56.61150227658199 L336.75 56.61150227658199 L336.75 23.388497723418016 Z"></path><path d="M341.75 20.921606908106718 L341.75 20.921606908106718 L341.75 59.07839309189328 L341.75 59.07839309189328 L341.75 20.921606908106718 Z"></path><path d="M346.75 19.330899952988958 L346.75 19.330899952988958 L346.75 60.66910004701104 L346.75 60.66910004701104 L346.75 19.330899952988958 Z"></path><path d="M351.75 10.056684746078929 L351.75 10.056684746078929 L351.75 69.94331525392107 L351.75 69.94331525392107 L351.75 10.056684746078929 Z"></path><path d="M356.75 12.908539403272812 L356.75 12.908539403272812 L356.75 67.09146059672719 L356.75 67.09146059672719 L356.75 12.908539403272812 Z"></path><path d="M361.75 15.980831388917778 L361.75 15.980831388917778 L361.75 64.01916861108222 L361.75 64.01916861108222 L361.75 15.980831388917778 Z"></path><path d="M366.75 17.10966666917985 L366.75 17.10966666917985 L366.75 62.890333330820155 L366.75 62.890333330820155 L366.75 17.10966666917985 Z"></path><path d="M371.75 12.909946402788687 L371.75 12.909946402788687 L371.75 67.09005359721131 L371.75 67.09005359721131 L371.75 12.909946402788687 Z"></path><path d="M376.75 9.653709194415512 L376.75 9.653709194415512 L376.75 70.34629080558449 L376.75 70.34629080558449 L376.75 9.653709194415512 Z"></path><path d="M381.75 4.533773488967249 L381.75 4.533773488967249 L381.75 75.46622651103274 L381.75 75.46622651103274 L381.75 4.533773488967249 Z"></path><path d="M386.75 7.832923010529264 L386.75 7.832923010529264 L386.75 72.16707698947073 L386.75 72.16707698947073 L386.75 7.832923010529264 Z"></path><path d="M391.75 16.419489636451598 L391.75 16.419489636451598 L391.75 63.5805103635484 L391.75 63.5805103635484 L391.75 16.419489636451598 Z"></path><path d="M396.75 14.762759013539856 L396.75 14.762759013539856 L396.75 65.23724098646014 L396.75 65.23724098646014 L396.75 14.762759013539856 Z"></path><path d="M401.75 18.086991122994128 L401.75 18.086991122994128 L401.75 61.91300887700587 L401.75 61.91300887700587 L401.75 18.086991122994128 Z"></path><path d="M406.75 15.869455606423436 L406.75 15.869455606423436 L406.75 64.13054439357657 L406.75 64.13054439357657 L406.75 15.869455606423436 Z"></path><path d="M411.75 10.270625406930758 L411.75 10.270625406930758 L411.75 69.72937459306924 L411.75 69.72937459306924 L411.75 10.270625406930758 Z"></path><path d="M416.75 9.147422249802162 L416.75 9.147422249802162 L416.75 70.85257775019784 L416.75 70.85257775019784 L416.75 9.147422249802162 Z"></path><path d="M421.75 13.49827358373475 L421.75 13.49827358373475 L421.75 66.50172641626526 L421.75 66.50172641626526 L421.75 13.49827358373475 Z"></path><path d="M426.75 22.681672480361584 L426.75 22.681672480361584 L426.75 57.318327519638416 L426.75 57.318327519638416 L426.75 22.681672480361584 Z"></path><path d="M431.75 5.6067758629147875 L431.75 5.6067758629147875 L431.75 74.39322413708521 L431.75 74.39322413708521 L431.75 5.6067758629147875 Z"></path><path d="M436.75 15.274131559397247 L436.75 15.274131559397247 L436.75 64.72586844060275 L436.75 64.72586844060275 L436.75 15.274131559397247 Z"></path><path d="M441.75 13.26938193724608 L441.75 13.26938193724608 L441.75 66.73061806275392 L441.75 66.73061806275392 L441.75 13.26938193724608 Z"></path><path d="M446.75 16.6218001009768 L446.75 16.6218001009768 L446.75 63.3781998990232 L446.75 63.3781998990232 L446.75 16.6218001009768 Z"></path><path d="M451.75 21.084100519020815 L451.75 21.084100519020815 L451.75 58.915899480979185 L451.75 58.915899480979185 L451.75 21.084100519020815 Z"></path><path d="M456.75 23.11985751180273 L456.75 23.11985751180273 L456.75 56.880142488197265 L456.75 56.880142488197265 L456.75 23.11985751180273 Z"></path><path d="M461.75 29.394422522690597 L461.75 29.394422522690597 L461.75 50.60557747730941 L461.75 50.60557747730941 L461.75 29.394422522690597 Z"></path><path d="M466.75 33.55547960557688 L466.75 33.55547960557688 L466.75 46.44452039442313 L466.75 46.44452039442313 L466.75 33.55547960557688 Z"></path><path d="M471.75 35.35824737869113 L471.75 35.35824737869113 L471.75 44.64175262130886 L471.75 44.64175262130886 L471.75 35.35824737869113 Z"></path><path d="M476.75 37.159746649107596 L476.75 37.159746649107596 L476.75 42.8402533508924 L476.75 42.8402533508924 L476.75 37.159746649107596 Z"></path><path d="M481.75 38.547587478558846 L481.75 38.547587478558846 L481.75 41.452412521441154 L481.75 41.452412521441154 L481.75 38.547587478558846 Z"></path><path d="M486.75 39.68237059881991 L486.75 39.68237059881991 L486.75 40.31762940118009 L486.75 40.31762940118009 L486.75 39.68237059881991 Z"></path><path d="M491.75 39.71382072020431 L491.75 39.71382072020431 L491.75 40.28617927979569 L491.75 40.28617927979569 L491.75 39.71382072020431 Z"></path><path d="M496.75 39.73335503474782 L496.75 39.73335503474782 L496.75 40.26664496525219 L496.75 40.26664496525219 L496.75 39.73335503474782 Z"></path></svg>