<?xml version="1.0" standalone="no"?><!DOCTYPE svg PUBLIC "-//W3C//DTD SVG 1.1//EN" "http://www.w3.org/Graphics/SVG/1.1/DTD/svg11.dtd"><svg id="7c938ac9-7905-48ad-5c0a-9e60180d990e" xmlns="http://www.w3.org/2000/svg" version="1.1" viewBox="0 0 500 80"><style type="text/css">path{stroke:white;stroke-width:3.5}</style><path d="M1.75 36.29588487246895 L1.75 36.29588487246895 L1.75 43.70411512753105 L1.75 43.70411512753105 L1.75 36.29588487246895 Z"></path><path d="M6.75 8.107506750497322 L6.75 8.107506750497322 L6.75 71.89249324950268 L6.75 71.89249324950268 L6.75 8.107506750497322 Z"></path><path d="M11.75 10.399609896769324 L11.75 10.399609896769324 L11.75 69.60039010323068 L11.75 69.60039010323068 L11.75 10.399609896769324 Z"></path><path d="M16.75 29.665064662392346 L16.75 29.665064662392346 L16.75 50.33493533760766 L16.75 50.33493533760766 L16.75 29.665064662392346 Z"></path><path d="M21.75 38.98375641638855 L21.75 38.98375641638855 L21.75 41.01624358361145 L21.75 41.01624358361145 L21.75 38.98375641638855 Z"></path><path d="M26.75 39.70360533346023 L26.75 39.70360533346023 L26.75 40.29639466653977 L26.75 40.29639466653977 L26.75 39.70360533346023 Z"></path><path d="M31.75 13.623848245559309 L31.75 13.623848245559309 L31.75 66.37615175444068 L31.75 66.37615175444068 L31.75 13.623848245559309 Z"></path><path d="M36.75 22.611869928421697 L36.75 22.611869928421697 L36.75 57.3881300715783 L36.75 57.3881300715783 L36.75 22.611869928421697 Z"></path><path d="M41.75 36.125660403969206 L41.75 36.125660403969206 L41.75 43.8743395960308 L41.75 43.8743395960308 L41.75 36.125660403969206 Z"></path><path d="M46.75 39.57246188383951 L46.75 39.57246188383951 L46.75 40.427538116160484 L46.75 40.427538116160484 L46.75 39.57246188383951 Z"></path><path d="M51.75 39.58605423924445 L51.75 39.58605423924445 L51.75 40.413945760755546 L51.75 40.413945760755546 L51.75 39.58605423924445 Z"></path><path d="M56.75 1.8232953627250694 L56.75 1.8232953627250694 L56.75 78.17670463727492 L56.75 78.17670463727492 L56.75 1.8232953627250694 Z"></path><path d="M61.75 20.58280404224127 L61.75 20.58280404224127 L61.75 59.41719595775873 L61.75 59.41719595775873 L61.75 20.58280404224127 Z"></path><path d="M66.75 35.34113991896613 L66.75 35.34113991896613 L66.75 44.65886008103388 L66.75 44.65886008103388 L66.75 35.34113991896613 Z"></path><path d="M71.75 39.45847524573401 L71.75 39.45847524573401 L71.75 40.54152475426599 L71.75 40.54152475426599 L71.75 39.45847524573401 Z"></path><path d="M76.75 39.122993027835186 L76.75 39.122993027835186 L76.75 40.87700697216482 L76.75 40.87700697216482 L76.75 39.122993027835186 Z"></path><path d="M81.75 39.57265777588626 L81.75 39.57265777588626 L81.75 40.42734222411374 L81.75 40.42734222411374 L81.75 39.57265777588626 Z"></path><path d="M86.75 39.73817974205335 L86.75 39.73817974205335 L86.75 40.26182025794665 L86.75 40.26182025794665 L86.75 39.73817974205335 Z"></path><path d="M91.75 39.720181237422516 L91.75 39.720181237422516 L91.75 40.27981876257748 L91.75 40.27981876257748 L91.75 39.720181237422516 Z"></path><path d="M96.75 39.54155239772456 L96.75 39.54155239772456 L96.75 40.45844760227545 L96.75 40.45844760227545 L96.75 39.54155239772456 Z"></path><path d="M101.75 39.63380440012722 L101.75 39.63380440012722 L101.75 40.36619559987278 L101.75 40.36619559987278 L101.75 39.63380440012722 Z"></path><path d="M106.75 39.26773224847713 L106.75 39.26773224847713 L106.75 40.732267751522876 L106.75 40.732267751522876 L106.75 39.26773224847713 Z"></path><path d="M111.75 39.39735225874963 L111.75 39.39735225874963 L111.75 40.60264774125038 L111.75 40.60264774125038 L111.75 39.39735225874963 Z"></path><path d="M116.75 39.28238511086946 L116.75 39.28238511086946 L116.75 40.71761488913054 L116.75 40.71761488913054 L116.75 39.28238511086946 Z"></path><path d="M121.75 39.63928659186759 L121.75 39.63928659186759 L121.75 40.360713408132405 L121.75 40.360713408132405 L121.75 39.63928659186759 Z"></path><path d="M126.75 31.04272332717875 L126.75 31.04272332717875 L126.75 48.95727667282125 L126.75 48.95727667282125 L126.75 31.04272332717875 Z"></path><path d="M131.75 16.5480940423406 L131.75 16.5480940423406 L131.75 63.4519059576594 L131.75 63.4519059576594 L131.75 16.5480940423406 Z"></path><path d="M136.75 0 L136.75 0 L136.75 80 L136.75 80 L136.75 0 Z"></path><path d="M141.75 25.52109415427089 L141.75 25.52109415427089 L141.75 54.478905845729116 L141.75 54.478905845729116 L141.75 25.52109415427089 Z"></path><path d="M146.75 39.225530414323536 L146.75 39.225530414323536 L146.75 40.77446958567647 L146.75 40.77446958567647 L146.75 39.225530414323536 Z"></path><path d="M151.75 39.465870256013226 L151.75 39.465870256013226 L151.75 40.534129743986774 L151.75 40.534129743986774 L151.75 39.465870256013226 Z"></path><path d="M156.75 14.898105035889504 L156.75 14.898105035889504 L156.75 65.1018949641105 L156.75 65.1018949641105 L156.75 14.898105035889504 Z"></path><path d="M161.75 13.415931207064904 L161.75 13.415931207064904 L161.75 66.5840687929351 L161.75 66.5840687929351 L161.75 13.415931207064904 Z"></path><path d="M166.75 31.585557072875737 L166.75 31.585557072875737 L166.75 48.414442927124256 L166.75 48.414442927124256 L166.75 31.585557072875737 Z"></path><path d="M171.75 39.586855560518124 L171.75 39.586855560518124 L171.75 40.413144439481876 L171.75 40.413144439481876 L171.75 39.586855560518124 Z"></path><path d="M176.75 39.69541078525439 L176.75 39.69541078525439 L176.75 40.304589214745604 L176.75 40.304589214745604 L176.75 39.69541078525439 Z"></path><path d="M181.75 9.264961354143228 L181.75 9.264961354143228 L181.75 70.73503864585678 L181.75 70.73503864585678 L181.75 9.264961354143228 Z"></path><path d="M186.75 19.33841264287521 L186.75 19.33841264287521 L186.75 60.66158735712479 L186.75 60.66158735712479 L186.75 19.33841264287521 Z"></path><path d="M191.75 35.9386945846127 L191.75 35.9386945846127 L191.75 44.06130541538731 L191.75 44.06130541538731 L191.75 35.9386945846127 Z"></path><path d="M196.75 39.632669448096706 L196.75 39.632669448096706 L196.75 40.367330551903294 L196.75 40.367330551903294 L196.75 39.632669448096706 Z"></path><path d="M201.75 39.72618097149109 L201.75 39.72618097149109 L201.75 40.27381902850891 L201.75 40.27381902850891 L201.75 39.72618097149109 Z"></path><path d="M206.75 39.776516742228246 L206.75 39.776516742228246 L206.75 40.22348325777176 L206.75 40.22348325777176 L206.75 39.776516742228246 Z"></path><path d="M211.75 39.77223357350656 L211.75 39.77223357350656 L211.75 40.22776642649344 L211.75 40.22776642649344 L211.75 39.77223357350656 Z"></path><path d="M216.75 39.74100539441533 L216.75 39.74100539441533 L216.75 40.25899460558467 L216.75 40.25899460558467 L216.75 39.74100539441533 Z"></path><path d="M221.75 39.76571288385089 L221.75 39.76571288385089 L221.75 40.234287116149105 L221.75 40.234287116149105 L221.75 39.76571288385089 Z"></path><path d="M226.75 39.277116078121786 L226.75 39.277116078121786 L226.75 40.72288392187821 L226.75 40.72288392187821 L226.75 39.277116078121786 Z"></path><path d="M231.75 39.584717089964336 L231.75 39.584717089964336 L231.75 40.41528291003566 L231.75 40.41528291003566 L231.75 39.584717089964336 Z"></path><path d="M236.75 39.449459996453314 L236.75 39.449459996453314 L236.75 40.55054000354669 L236.75 40.55054000354669 L236.75 39.449459996453314 Z"></path><path d="M241.75 39.59786960115941 L241.75 39.59786960115941 L241.75 40.40213039884059 L241.75 40.40213039884059 L241.75 39.59786960115941 Z"></path><path d="M246.75 39.51730268280021 L246.75 39.51730268280021 L246.75 40.48269731719979 L246.75 40.48269731719979 L246.75 39.51730268280021 Z"></path><path d="M251.75 39.71730300701514 L251.75 39.71730300701514 L251.75 40.28269699298486 L251.75 40.28269699298486 L251.75 39.71730300701514 Z"></path><path d="M256.75 19.62570476404953 L256.75 19.62570476404953 L256.75 60.37429523595047 L256.75 60.37429523595047 L256.75 19.62570476404953 Z"></path><path d="M261.75 10.80646222754915 L261.75 10.80646222754915 L261.75 69.19353777245085 L261.75 69.19353777245085 L261.75 10.80646222754915 Z"></path><path d="M266.75 26.5871631454253 L266.75 26.5871631454253 L266.75 53.41283685457469 L266.75 53.41283685457469 L266.75 26.5871631454253 Z"></path><path d="M271.75 37.99815733564285 L271.75 37.99815733564285 L271.75 42.00184266435715 L271.75 42.00184266435715 L271.75 37.99815733564285 Z"></path><path d="M276.75 39.687168104192935 L276.75 39.687168104192935 L276.75 40.31283189580707 L276.75 40.31283189580707 L276.75 39.687168104192935 Z"></path><path d="M281.75 22.954652722926102 L281.75 22.954652722926102 L281.75 57.0453472770739 L281.75 57.0453472770739 L281.75 22.954652722926102 Z"></path><path d="M286.75 15.349715542579965 L286.75 15.349715542579965 L286.75 64.65028445742004 L286.75 64.65028445742004 L286.75 15.349715542579965 Z"></path><path d="M291.75 34.21886024335137 L291.75 34.21886024335137 L291.75 45.781139756648635 L291.75 45.781139756648635 L291.75 34.21886024335137 Z"></path><path d="M296.75 39.62200333018757 L296.75 39.62200333018757 L296.75 40.377996669812426 L296.75 40.377996669812426 L296.75 39.62200333018757 Z"></path><path d="M301.75 39.60141245451414 L301.75 39.60141245451414 L301.75 40.39858754548587 L301.75 40.39858754548587 L301.75 39.60141245451414 Z"></path><path d="M306.75 4.3083666465379125 L306.75 4.3083666465379125 L306.75 75.6916333534621 L306.75 75.6916333534621 L306.75 4.3083666465379125 Z"></path><path d="M311.75 25.06744998386218 L311.75 25.06744998386218 L311.75 54.932550016137824 L311.75 54.932550016137824 L311.75 25.06744998386218 Z"></path><path d="M316.75 37.048482151334326 L316.75 37.048482151334326 L316.75 42.951517848665674 L316.75 42.951517848665674 L316.75 37.048482151334326 Z"></path><path d="M321.75 39.69999594849183 L321.75 39.69999594849183 L321.75 40.30000405150817 L321.75 40.30000405150817 L321.75 39.69999594849183 Z"></path><path d="M326.75 39.6855064767511 L326.75 39.6855064767511 L326.75 40.3144935232489 L326.75 40.3144935232489 L326.75 39.6855064767511 Z"></path><path d="M331.75 39.69397406869204 L331.75 39.69397406869204 L331.75 40.306025931307964 L331.75 40.306025931307964 L331.75 39.69397406869204 Z"></path><path d="M336.75 39.744520589901576 L336.75 39.744520589901576 L336.75 40.25547941009842 L336.75 40.25547941009842 L336.75 39.744520589901576 Z"></path><path d="M341.75 39.76396548226792 L341.75 39.76396548226792 L341.75 40.23603451773207 L341.75 40.23603451773207 L341.75 39.76396548226792 Z"></path><path d="M346.75 39.6320114183033 L346.75 39.6320114183033 L346.75 40.36798858169669 L346.75 40.36798858169669 L346.75 39.6320114183033 Z"></path><path d="M351.75 39.65932143750433 L351.75 39.65932143750433 L351.75 40.34067856249567 L351.75 40.34067856249567 L351.75 39.65932143750433 Z"></path><path d="M356.75 38.233244721306335 L356.75 38.233244721306335 L356.75 41.76675527869366 L356.75 41.76675527869366 L356.75 38.233244721306335 Z"></path><path d="M361.75 39.44053324041263 L361.75 39.44053324041263 L361.75 40.559466759587366 L361.75 40.559466759587366 L361.75 39.44053324041263 Z"></path><path d="M366.75 39.64034085342778 L366.75 39.64034085342778 L366.75 40.35965914657222 L366.75 40.35965914657222 L366.75 39.64034085342778 Z"></path><path d="M371.75 39.733593619018905 L371.75 39.733593619018905 L371.75 40.2664063809811 L371.75 40.2664063809811 L371.75 39.733593619018905 Z"></path><path d="M376.75 32.32606713114712 L376.75 32.32606713114712 L376.75 47.67393286885289 L376.75 47.67393286885289 L376.75 32.32606713114712 Z"></path><path d="M381.75 10.003769176922038 L381.75 10.003769176922038 L381.75 69.99623082307797 L381.75 69.99623082307797 L381.75 10.003769176922038 Z"></path><path d="M386.75 16.195550858481937 L386.75 16.195550858481937 L386.75 63.80444914151806 L386.75 63.80444914151806 L386.75 16.195550858481937 Z"></path><path d="M391.75 32.711550935462725 L391.75 32.711550935462725 L391.75 47.288449064537275 L391.75 47.288449064537275 L391.75 32.711550935462725 Z"></path><path d="M396.75 39.53003902331511 L396.75 39.53003902331511 L396.75 40.46996097668489 L396.75 40.46996097668489 L396.75 39.53003902331511 Z"></path><path d="M401.75 39.71038759736054 L401.75 39.71038759736054 L401.75 40.28961240263946 L401.75 40.28961240263946 L401.75 39.71038759736054 Z"></path><path d="M406.75 0.9372807463665538 L406.75 0.9372807463665538 L406.75 79.06271925363345 L406.75 79.06271925363345 L406.75 0.9372807463665538 Z"></path><path d="M411.75 23.06963957738727 L411.75 23.06963957738727 L411.75 56.93036042261273 L411.75 56.93036042261273 L411.75 23.06963957738727 Z"></path><path d="M416.75 37.10357266583998 L416.75 37.10357266583998 L416.75 42.896427334160016 L416.75 42.896427334160016 L416.75 37.10357266583998 Z"></path><path d="M421.75 39.51928400614038 L421.75 39.51928400614038 L421.75 40.48071599385962 L421.75 40.48071599385962 L421.75 39.51928400614038 Z"></path><path d="M426.75 30.02527354410146 L426.75 30.02527354410146 L426.75 49.97472645589854 L426.75 49.97472645589854 L426.75 30.02527354410146 Z"></path><path d="M431.75 15.248416087220217 L431.75 15.248416087220217 L431.75 64.75158391277978 L431.75 64.75158391277978 L431.75 15.248416087220217 Z"></path><path d="M436.75 31.868890106636005 L436.75 31.868890106636005 L436.75 48.131109893364 L436.75 48.131109893364 L436.75 31.868890106636005 Z"></path><path d="M441.75 39.274294073228795 L441.75 39.274294073228795 L441.75 40.725705926771205 L441.75 40.725705926771205 L441.75 39.274294073228795 Z"></path><path d="M446.75 39.76441337735925 L446.75 39.76441337735925 L446.75 40.23558662264075 L446.75 40.23558662264075 L446.75 39.76441337735925 Z"></path><path d="M451.75 39.76647757516252 L451.75 39.76647757516252 L451.75 40.23352242483748 L451.75 40.23352242483748 L451.75 39.76647757516252 Z"></path><path d="M456.75 39.69379320979543 L456.75 39.69379320979543 L456.75 40.30620679020456 L456.75 40.30620679020456 L456.75 39.69379320979543 Z"></path><path d="M461.75 39.71874935371536 L461.75 39.71874935371536 L461.75 40.28125064628464 L461.75 40.28125064628464 L461.75 39.71874935371536 Z"></path><path d="M466.75 39.77146797496993 L466.75 39.77146797496993 L466.75 40.22853202503008 L466.75 40.22853202503008 L466.75 39.77146797496993 Z"></path><path d="M471.75 39.79359591002517 L471.75 39.79359591002517 L471.75 40.20640408997483 L471.75 40.20640408997483 L471.75 39.79359591002517 Z"></path><path d="M476.75 39.51453749843874 L476.75 39.51453749843874 L476.75 40.48546250156126 L476.75 40.48546250156126 L476.75 39.51453749843874 Z"></path><path d="M481.75 38.98768808093523 L481.75 38.98768808093523 L481.75 41.01231191906477 L481.75 41.01231191906477 L481.75 38.98768808093523 Z"></path><path d="M486.75 39.367141832482396 L486.75 39.367141832482396 L486.75 40.63285816751761 L486.75 40.63285816751761 L486.75 39.367141832482396 Z"></path><path d="M491.75 39.64885044700269 L491.75 39.64885044700269 L491.75 40.35114955299732 L491.75 40.35114955299732 L491.75 39.64885044700269 Z"></path><path d="M496.75 39.72757787329602 L496.75 39.72757787329602 L496.75 40.27242212670397 L496.75 40.27242212670397 L496.75 39.72757787329602 Z"></path></svg>