<?xml version="1.0" standalone="no"?><!DOCTYPE svg PUBLIC "-//W3C//DTD SVG 1.1//EN" "http://www.w3.org/Graphics/SVG/1.1/DTD/svg11.dtd"><svg id="1c4f29ef-88e8-0eca-ca1f-f325df6ab4e0" xmlns="http://www.w3.org/2000/svg" version="1.1" viewBox="0 0 500 80"><style type="text/css">path{stroke:white;stroke-width:3.5}</style><path d="M1.75 39.72088876617592 L1.75 39.72088876617592 L1.75 40.279111233824075 L1.75 40.279111233824075 L1.75 39.72088876617592 Z"></path><path d="M6.75 30.578935352387226 L6.75 30.578935352387226 L6.75 49.42106464761278 L6.75 49.42106464761278 L6.75 30.578935352387226 Z"></path><path d="M11.75 20.16515721627444 L11.75 20.16515721627444 L11.75 59.83484278372556 L11.75 59.83484278372556 L11.75 20.16515721627444 Z"></path><path d="M16.75 28.454762816956546 L16.75 28.454762816956546 L16.75 51.545237183043454 L16.75 51.545237183043454 L16.75 28.454762816956546 Z"></path><path d="M21.75 38.00546325045864 L21.75 38.00546325045864 L21.75 41.99453674954135 L21.75 41.99453674954135 L21.75 38.00546325045864 Z"></path><path d="M26.75 37.563365931357616 L26.75 37.563365931357616 L26.75 42.43663406864238 L26.75 42.43663406864238 L26.75 37.563365931357616 Z"></path><path d="M31.75 31.958108404756366 L31.75 31.958108404756366 L31.75 48.04189159524363 L31.75 48.04189159524363 L31.75 31.958108404756366 Z"></path><path d="M36.75 0 L36.75 0 L36.75 80 L36.75 80 L36.75 0 Z"></path><path d="M41.75 37.44412151710959 L41.75 37.44412151710959 L41.75 42.55587848289041 L41.75 42.55587848289041 L41.75 37.44412151710959 Z"></path><path d="M46.75 39.534791197268696 L46.75 39.534791197268696 L46.75 40.46520880273131 L46.75 40.46520880273131 L46.75 39.534791197268696 Z"></path><path d="M51.75 29.044821919443116 L51.75 29.044821919443116 L51.75 50.955178080556884 L51.75 50.955178080556884 L51.75 29.044821919443116 Z"></path><path d="M56.75 15.154665384762453 L56.75 15.154665384762453 L56.75 64.84533461523755 L56.75 64.84533461523755 L56.75 15.154665384762453 Z"></path><path d="M61.75 28.670114012752897 L61.75 28.670114012752897 L61.75 51.32988598724711 L61.75 51.32988598724711 L61.75 28.670114012752897 Z"></path><path d="M66.75 36.02125924144004 L66.75 36.02125924144004 L66.75 43.978740758559965 L66.75 43.978740758559965 L66.75 36.02125924144004 Z"></path><path d="M71.75 39.308326064480966 L71.75 39.308326064480966 L71.75 40.69167393551904 L71.75 40.69167393551904 L71.75 39.308326064480966 Z"></path><path d="M76.75 39.50007791630132 L76.75 39.50007791630132 L76.75 40.49992208369868 L76.75 40.49992208369868 L76.75 39.50007791630132 Z"></path><path d="M81.75 25.986243916147103 L81.75 25.986243916147103 L81.75 54.0137560838529 L81.75 54.0137560838529 L81.75 25.986243916147103 Z"></path><path d="M86.75 35.57737693623074 L86.75 35.57737693623074 L86.75 44.42262306376926 L86.75 44.42262306376926 L86.75 35.57737693623074 Z"></path><path d="M91.75 31.454672528955605 L91.75 31.454672528955605 L91.75 48.54532747104439 L91.75 48.54532747104439 L91.75 31.454672528955605 Z"></path><path d="M96.75 34.939067062331105 L96.75 34.939067062331105 L96.75 45.060932937668895 L96.75 45.060932937668895 L96.75 34.939067062331105 Z"></path><path d="M101.75 31.083784641325177 L101.75 31.083784641325177 L101.75 48.91621535867482 L101.75 48.91621535867482 L101.75 31.083784641325177 Z"></path><path d="M106.75 24.261939828502577 L106.75 24.261939828502577 L106.75 55.73806017149742 L106.75 55.73806017149742 L106.75 24.261939828502577 Z"></path><path d="M111.75 29.238100593185152 L111.75 29.238100593185152 L111.75 50.76189940681485 L111.75 50.76189940681485 L111.75 29.238100593185152 Z"></path><path d="M116.75 29.361905541158865 L116.75 29.361905541158865 L116.75 50.63809445884114 L116.75 50.63809445884114 L116.75 29.361905541158865 Z"></path><path d="M121.75 29.247948676698527 L121.75 29.247948676698527 L121.75 50.75205132330147 L121.75 50.75205132330147 L121.75 29.247948676698527 Z"></path><path d="M126.75 29.949204635757162 L126.75 29.949204635757162 L126.75 50.05079536424284 L126.75 50.05079536424284 L126.75 29.949204635757162 Z"></path><path d="M131.75 37.80269046638222 L131.75 37.80269046638222 L131.75 42.19730953361778 L131.75 42.19730953361778 L131.75 37.80269046638222 Z"></path><path d="M136.75 33.31726987707534 L136.75 33.31726987707534 L136.75 46.68273012292466 L136.75 46.68273012292466 L136.75 33.31726987707534 Z"></path><path d="M141.75 33.293694007048074 L141.75 33.293694007048074 L141.75 46.706305992951926 L141.75 46.706305992951926 L141.75 33.293694007048074 Z"></path><path d="M146.75 37.01398891145796 L146.75 37.01398891145796 L146.75 42.98601108854204 L146.75 42.98601108854204 L146.75 37.01398891145796 Z"></path><path d="M151.75 37.867922155996446 L151.75 37.867922155996446 L151.75 42.132077844003554 L151.75 42.132077844003554 L151.75 37.867922155996446 Z"></path><path d="M156.75 36.426374969062564 L156.75 36.426374969062564 L156.75 43.57362503093744 L156.75 43.57362503093744 L156.75 36.426374969062564 Z"></path><path d="M161.75 20.23485478646717 L161.75 20.23485478646717 L161.75 59.76514521353283 L161.75 59.76514521353283 L161.75 20.23485478646717 Z"></path><path d="M166.75 37.920025630431354 L166.75 37.920025630431354 L166.75 42.07997436956865 L166.75 42.07997436956865 L166.75 37.920025630431354 Z"></path><path d="M171.75 37.68462048488109 L171.75 37.68462048488109 L171.75 42.31537951511892 L171.75 42.31537951511892 L171.75 37.68462048488109 Z"></path><path d="M176.75 29.156534459998113 L176.75 29.156534459998113 L176.75 50.84346554000189 L176.75 50.84346554000189 L176.75 29.156534459998113 Z"></path><path d="M181.75 25.40863873864234 L181.75 25.40863873864234 L181.75 54.59136126135766 L181.75 54.59136126135766 L181.75 25.40863873864234 Z"></path><path d="M186.75 34.76326419130298 L186.75 34.76326419130298 L186.75 45.23673580869702 L186.75 45.23673580869702 L186.75 34.76326419130298 Z"></path><path d="M191.75 37.69321423580931 L191.75 37.69321423580931 L191.75 42.30678576419069 L191.75 42.30678576419069 L191.75 37.69321423580931 Z"></path><path d="M196.75 39.41650296573151 L196.75 39.41650296573151 L196.75 40.58349703426849 L196.75 40.58349703426849 L196.75 39.41650296573151 Z"></path><path d="M201.75 39.632402686272 L201.75 39.632402686272 L201.75 40.36759731372799 L201.75 40.36759731372799 L201.75 39.632402686272 Z"></path><path d="M206.75 34.59139884312691 L206.75 34.59139884312691 L206.75 45.40860115687309 L206.75 45.40860115687309 L206.75 34.59139884312691 Z"></path><path d="M211.75 32.13713877412187 L211.75 32.13713877412187 L211.75 47.86286122587813 L211.75 47.86286122587813 L211.75 32.13713877412187 Z"></path><path d="M216.75 30.471057834067658 L216.75 30.471057834067658 L216.75 49.52894216593234 L216.75 49.52894216593234 L216.75 30.471057834067658 Z"></path><path d="M221.75 35.21395558922199 L221.75 35.21395558922199 L221.75 44.78604441077801 L221.75 44.78604441077801 L221.75 35.21395558922199 Z"></path><path d="M226.75 27.708534872873983 L226.75 27.708534872873983 L226.75 52.29146512712602 L226.75 52.29146512712602 L226.75 27.708534872873983 Z"></path><path d="M231.75 26.621969372505166 L231.75 26.621969372505166 L231.75 53.37803062749484 L231.75 53.37803062749484 L231.75 26.621969372505166 Z"></path><path d="M236.75 29.332706257738387 L236.75 29.332706257738387 L236.75 50.667293742261606 L236.75 50.667293742261606 L236.75 29.332706257738387 Z"></path><path d="M241.75 31.001015586165813 L241.75 31.001015586165813 L241.75 48.998984413834194 L241.75 48.998984413834194 L241.75 31.001015586165813 Z"></path><path d="M246.75 28.83186156571263 L246.75 28.83186156571263 L246.75 51.16813843428737 L246.75 51.16813843428737 L246.75 28.83186156571263 Z"></path><path d="M251.75 32.24851206340799 L251.75 32.24851206340799 L251.75 47.75148793659201 L251.75 47.75148793659201 L251.75 32.24851206340799 Z"></path><path d="M256.75 36.8128996524576 L256.75 36.8128996524576 L256.75 43.18710034754239 L256.75 43.18710034754239 L256.75 36.8128996524576 Z"></path><path d="M261.75 33.25487802748131 L261.75 33.25487802748131 L261.75 46.74512197251868 L261.75 46.74512197251868 L261.75 33.25487802748131 Z"></path><path d="M266.75 33.53529032641998 L266.75 33.53529032641998 L266.75 46.46470967358002 L266.75 46.46470967358002 L266.75 33.53529032641998 Z"></path><path d="M271.75 37.118625879172804 L271.75 37.118625879172804 L271.75 42.8813741208272 L271.75 42.8813741208272 L271.75 37.118625879172804 Z"></path><path d="M276.75 37.96421682662542 L276.75 37.96421682662542 L276.75 42.035783173374575 L276.75 42.035783173374575 L276.75 37.96421682662542 Z"></path><path d="M281.75 31.736771804455614 L281.75 31.736771804455614 L281.75 48.263228195544386 L281.75 48.263228195544386 L281.75 31.736771804455614 Z"></path><path d="M286.75 25.724933872429226 L286.75 25.724933872429226 L286.75 54.275066127570774 L286.75 54.275066127570774 L286.75 25.724933872429226 Z"></path><path d="M291.75 38.67470613039694 L291.75 38.67470613039694 L291.75 41.32529386960306 L291.75 41.32529386960306 L291.75 38.67470613039694 Z"></path><path d="M296.75 39.64768827412851 L296.75 39.64768827412851 L296.75 40.35231172587149 L296.75 40.35231172587149 L296.75 39.64768827412851 Z"></path><path d="M301.75 33.56018926702945 L301.75 33.56018926702945 L301.75 46.43981073297054 L301.75 46.43981073297054 L301.75 33.56018926702945 Z"></path><path d="M306.75 23.833553856027173 L306.75 23.833553856027173 L306.75 56.16644614397283 L306.75 56.16644614397283 L306.75 23.833553856027173 Z"></path><path d="M311.75 35.248936370306964 L311.75 35.248936370306964 L311.75 44.751063629693036 L311.75 44.751063629693036 L311.75 35.248936370306964 Z"></path><path d="M316.75 39.61490061835538 L316.75 39.61490061835538 L316.75 40.38509938164462 L316.75 40.38509938164462 L316.75 39.61490061835538 Z"></path><path d="M321.75 39.54630062036037 L321.75 39.54630062036037 L321.75 40.45369937963963 L321.75 40.45369937963963 L321.75 39.54630062036037 Z"></path><path d="M326.75 39.55030680187097 L326.75 39.55030680187097 L326.75 40.44969319812903 L326.75 40.44969319812903 L326.75 39.55030680187097 Z"></path><path d="M331.75 35.18964437196999 L331.75 35.18964437196999 L331.75 44.81035562803 L331.75 44.81035562803 L331.75 35.18964437196999 Z"></path><path d="M336.75 34.00189749417912 L336.75 34.00189749417912 L336.75 45.998102505820874 L336.75 45.998102505820874 L336.75 34.00189749417912 Z"></path><path d="M341.75 34.84318462229109 L341.75 34.84318462229109 L341.75 45.15681537770891 L341.75 45.15681537770891 L341.75 34.84318462229109 Z"></path><path d="M346.75 13.866462660863185 L346.75 13.866462660863185 L346.75 66.13353733913681 L346.75 66.13353733913681 L346.75 13.866462660863185 Z"></path><path d="M351.75 21.627702505601597 L351.75 21.627702505601597 L351.75 58.3722974943984 L351.75 58.3722974943984 L351.75 21.627702505601597 Z"></path><path d="M356.75 28.28539440192865 L356.75 28.28539440192865 L356.75 51.71460559807135 L356.75 51.71460559807135 L356.75 28.28539440192865 Z"></path><path d="M361.75 30.060057773056847 L361.75 30.060057773056847 L361.75 49.93994222694316 L361.75 49.93994222694316 L361.75 30.060057773056847 Z"></path><path d="M366.75 28.283805234042728 L366.75 28.283805234042728 L366.75 51.71619476595727 L366.75 51.71619476595727 L366.75 28.283805234042728 Z"></path><path d="M371.75 31.058297352221473 L371.75 31.058297352221473 L371.75 48.94170264777853 L371.75 48.94170264777853 L371.75 31.058297352221473 Z"></path><path d="M376.75 34.085436092973325 L376.75 34.085436092973325 L376.75 45.914563907026675 L376.75 45.914563907026675 L376.75 34.085436092973325 Z"></path><path d="M381.75 33.40486230606343 L381.75 33.40486230606343 L381.75 46.59513769393657 L381.75 46.59513769393657 L381.75 33.40486230606343 Z"></path><path d="M386.75 31.725241153035075 L386.75 31.725241153035075 L386.75 48.27475884696493 L386.75 48.27475884696493 L386.75 31.725241153035075 Z"></path><path d="M391.75 34.81827824735222 L391.75 34.81827824735222 L391.75 45.18172175264779 L391.75 45.18172175264779 L391.75 34.81827824735222 Z"></path><path d="M396.75 37.71015868682412 L396.75 37.71015868682412 L396.75 42.28984131317588 L396.75 42.28984131317588 L396.75 37.71015868682412 Z"></path><path d="M401.75 38.44895933519095 L401.75 38.44895933519095 L401.75 41.55104066480906 L401.75 41.55104066480906 L401.75 38.44895933519095 Z"></path><path d="M406.75 30.371143202237818 L406.75 30.371143202237818 L406.75 49.62885679776218 L406.75 49.62885679776218 L406.75 30.371143202237818 Z"></path><path d="M411.75 33.86457415911549 L411.75 33.86457415911549 L411.75 46.135425840884515 L411.75 46.135425840884515 L411.75 33.86457415911549 Z"></path><path d="M416.75 38.94153342626896 L416.75 38.94153342626896 L416.75 41.058466573731046 L416.75 41.058466573731046 L416.75 38.94153342626896 Z"></path><path d="M421.75 39.223008838920045 L421.75 39.223008838920045 L421.75 40.77699116107995 L421.75 40.77699116107995 L421.75 39.223008838920045 Z"></path><path d="M426.75 28.522263120599604 L426.75 28.522263120599604 L426.75 51.477736879400396 L426.75 51.477736879400396 L426.75 28.522263120599604 Z"></path><path d="M431.75 29.18551818198131 L431.75 29.18551818198131 L431.75 50.81448181801869 L431.75 50.81448181801869 L431.75 29.18551818198131 Z"></path><path d="M436.75 37.92818363293457 L436.75 37.92818363293457 L436.75 42.07181636706544 L436.75 42.07181636706544 L436.75 37.92818363293457 Z"></path><path d="M441.75 39.371100831487695 L441.75 39.371100831487695 L441.75 40.62889916851231 L441.75 40.62889916851231 L441.75 39.371100831487695 Z"></path><path d="M446.75 39.12805750891428 L446.75 39.12805750891428 L446.75 40.87194249108572 L446.75 40.87194249108572 L446.75 39.12805750891428 Z"></path><path d="M451.75 39.57881414011021 L451.75 39.57881414011021 L451.75 40.42118585988978 L451.75 40.42118585988978 L451.75 39.57881414011021 Z"></path><path d="M456.75 31.229277419533936 L456.75 31.229277419533936 L456.75 48.770722580466064 L456.75 48.770722580466064 L456.75 31.229277419533936 Z"></path><path d="M461.75 34.82875235474751 L461.75 34.82875235474751 L461.75 45.17124764525249 L461.75 45.17124764525249 L461.75 34.82875235474751 Z"></path><path d="M466.75 33.26741815110208 L466.75 33.26741815110208 L466.75 46.73258184889793 L466.75 46.73258184889793 L466.75 33.26741815110208 Z"></path><path d="M471.75 17.379681901792036 L471.75 17.379681901792036 L471.75 62.62031809820796 L471.75 62.62031809820796 L471.75 17.379681901792036 Z"></path><path d="M476.75 16.79347582180658 L476.75 16.79347582180658 L476.75 63.20652417819342 L476.75 63.20652417819342 L476.75 16.79347582180658 Z"></path><path d="M481.75 26.877637825245813 L481.75 26.877637825245813 L481.75 53.12236217475419 L481.75 53.12236217475419 L481.75 26.877637825245813 Z"></path><path d="M486.75 27.286005763619514 L486.75 27.286005763619514 L486.75 52.713994236380486 L486.75 52.713994236380486 L486.75 27.286005763619514 Z"></path><path d="M491.75 28.94628059515076 L491.75 28.94628059515076 L491.75 51.05371940484925 L491.75 51.05371940484925 L491.75 28.94628059515076 Z"></path><path d="M496.75 31.000931611331367 L496.75 31.000931611331367 L496.75 48.99906838866863 L496.75 48.99906838866863 L496.75 31.000931611331367 Z"></path></svg>