<?xml version="1.0" standalone="no"?><!DOCTYPE svg PUBLIC "-//W3C//DTD SVG 1.1//EN" "http://www.w3.org/Graphics/SVG/1.1/DTD/svg11.dtd"><svg id="fe9a9945-865e-75a3-8bfc-327ec8fbff9c" xmlns="http://www.w3.org/2000/svg" version="1.1" viewBox="0 0 500 80"><style type="text/css">path{stroke:white;stroke-width:3.5}</style><path d="M1.75 37.65608342430796 L1.75 37.65608342430796 L1.75 42.343916575692035 L1.75 42.343916575692035 L1.75 37.65608342430796 Z"></path><path d="M6.75 38.56865468058747 L6.75 38.56865468058747 L6.75 41.43134531941252 L6.75 41.43134531941252 L6.75 38.56865468058747 Z"></path><path d="M11.75 37.974148724954034 L11.75 37.974148724954034 L11.75 42.02585127504597 L11.75 42.02585127504597 L11.75 37.974148724954034 Z"></path><path d="M16.75 37.366737649738305 L16.75 37.366737649738305 L16.75 42.6332623502617 L16.75 42.6332623502617 L16.75 37.366737649738305 Z"></path><path d="M21.75 38.049116384101985 L21.75 38.049116384101985 L21.75 41.95088361589801 L21.75 41.95088361589801 L21.75 38.049116384101985 Z"></path><path d="M26.75 38.63919597625244 L26.75 38.63919597625244 L26.75 41.36080402374757 L26.75 41.36080402374757 L26.75 38.63919597625244 Z"></path><path d="M31.75 35.06685436263071 L31.75 35.06685436263071 L31.75 44.933145637369286 L31.75 44.933145637369286 L31.75 35.06685436263071 Z"></path><path d="M36.75 37.35410327215688 L36.75 37.35410327215688 L36.75 42.64589672784312 L36.75 42.64589672784312 L36.75 37.35410327215688 Z"></path><path d="M41.75 2.552476767172024 L41.75 2.552476767172024 L41.75 77.44752323282798 L41.75 77.44752323282798 L41.75 2.552476767172024 Z"></path><path d="M46.75 11.47186760797592 L46.75 11.47186760797592 L46.75 68.52813239202408 L46.75 68.52813239202408 L46.75 11.47186760797592 Z"></path><path d="M51.75 15.645047722437987 L51.75 15.645047722437987 L51.75 64.354952277562 L51.75 64.354952277562 L51.75 15.645047722437987 Z"></path><path d="M56.75 4.264360293560898 L56.75 4.264360293560898 L56.75 75.7356397064391 L56.75 75.7356397064391 L56.75 4.264360293560898 Z"></path><path d="M61.75 13.22931538022798 L61.75 13.22931538022798 L61.75 66.77068461977203 L61.75 66.77068461977203 L61.75 13.22931538022798 Z"></path><path d="M66.75 17.027847483338096 L66.75 17.027847483338096 L66.75 62.97215251666191 L66.75 62.97215251666191 L66.75 17.027847483338096 Z"></path><path d="M71.75 0 L71.75 0 L71.75 80 L71.75 80 L71.75 0 Z"></path><path d="M76.75 9.583113368458985 L76.75 9.583113368458985 L76.75 70.41688663154102 L76.75 70.41688663154102 L76.75 9.583113368458985 Z"></path><path d="M81.75 16.882943779304284 L81.75 16.882943779304284 L81.75 63.117056220695716 L81.75 63.117056220695716 L81.75 16.882943779304284 Z"></path><path d="M86.75 9.773607430631653 L86.75 9.773607430631653 L86.75 70.22639256936834 L86.75 70.22639256936834 L86.75 9.773607430631653 Z"></path><path d="M91.75 12.18892286235998 L91.75 12.18892286235998 L91.75 67.81107713764001 L91.75 67.81107713764001 L91.75 12.18892286235998 Z"></path><path d="M96.75 16.65672695567287 L96.75 16.65672695567287 L96.75 63.343273044327134 L96.75 63.343273044327134 L96.75 16.65672695567287 Z"></path><path d="M101.75 17.530310159729588 L101.75 17.530310159729588 L101.75 62.46968984027041 L101.75 62.46968984027041 L101.75 17.530310159729588 Z"></path><path d="M106.75 17.419720716117606 L106.75 17.419720716117606 L106.75 62.58027928388239 L106.75 62.58027928388239 L106.75 17.419720716117606 Z"></path><path d="M111.75 39.43658509007564 L111.75 39.43658509007564 L111.75 40.56341490992436 L111.75 40.56341490992436 L111.75 39.43658509007564 Z"></path><path d="M116.75 29.043468831028 L116.75 29.043468831028 L116.75 50.956531168972 L116.75 50.956531168972 L116.75 29.043468831028 Z"></path><path d="M121.75 3.5837553433839275 L121.75 3.5837553433839275 L121.75 76.41624465661607 L121.75 76.41624465661607 L121.75 3.5837553433839275 Z"></path><path d="M126.75 13.981852358249213 L126.75 13.981852358249213 L126.75 66.01814764175079 L126.75 66.01814764175079 L126.75 13.981852358249213 Z"></path><path d="M131.75 39.503657730990774 L131.75 39.503657730990774 L131.75 40.496342269009226 L131.75 40.496342269009226 L131.75 39.503657730990774 Z"></path><path d="M136.75 39.668664266470934 L136.75 39.668664266470934 L136.75 40.33133573352907 L136.75 40.33133573352907 L136.75 39.668664266470934 Z"></path><path d="M141.75 39.680551122430295 L141.75 39.680551122430295 L141.75 40.319448877569705 L141.75 40.319448877569705 L141.75 39.680551122430295 Z"></path><path d="M146.75 23.74360527076547 L146.75 23.74360527076547 L146.75 56.25639472923453 L146.75 56.25639472923453 L146.75 23.74360527076547 Z"></path><path d="M151.75 7.212387138504035 L151.75 7.212387138504035 L151.75 72.78761286149597 L151.75 72.78761286149597 L151.75 7.212387138504035 Z"></path><path d="M156.75 15.252666917892501 L156.75 15.252666917892501 L156.75 64.7473330821075 L156.75 64.7473330821075 L156.75 15.252666917892501 Z"></path><path d="M161.75 18.99769389166812 L161.75 18.99769389166812 L161.75 61.00230610833188 L161.75 61.00230610833188 L161.75 18.99769389166812 Z"></path><path d="M166.75 24.026899338068453 L166.75 24.026899338068453 L166.75 55.97310066193155 L166.75 55.97310066193155 L166.75 24.026899338068453 Z"></path><path d="M171.75 24.05437629207659 L171.75 24.05437629207659 L171.75 55.9456237079234 L171.75 55.9456237079234 L171.75 24.05437629207659 Z"></path><path d="M176.75 23.296801368864426 L176.75 23.296801368864426 L176.75 56.70319863113558 L176.75 56.70319863113558 L176.75 23.296801368864426 Z"></path><path d="M181.75 26.7071709389564 L181.75 26.7071709389564 L181.75 53.292829061043605 L181.75 53.292829061043605 L181.75 26.7071709389564 Z"></path><path d="M186.75 26.15735571531064 L186.75 26.15735571531064 L186.75 53.84264428468936 L186.75 53.84264428468936 L186.75 26.15735571531064 Z"></path><path d="M191.75 27.318001793691852 L191.75 27.318001793691852 L191.75 52.68199820630815 L191.75 52.68199820630815 L191.75 27.318001793691852 Z"></path><path d="M196.75 28.667929706346 L196.75 28.667929706346 L196.75 51.332070293654 L196.75 51.332070293654 L196.75 28.667929706346 Z"></path><path d="M201.75 28.925032787381454 L201.75 28.925032787381454 L201.75 51.074967212618546 L201.75 51.074967212618546 L201.75 28.925032787381454 Z"></path><path d="M206.75 29.113966101150922 L206.75 29.113966101150922 L206.75 50.88603389884908 L206.75 50.88603389884908 L206.75 29.113966101150922 Z"></path><path d="M211.75 28.116093412754882 L211.75 28.116093412754882 L211.75 51.88390658724512 L211.75 51.88390658724512 L211.75 28.116093412754882 Z"></path><path d="M216.75 29.079447550008084 L216.75 29.079447550008084 L216.75 50.920552449991916 L216.75 50.920552449991916 L216.75 29.079447550008084 Z"></path><path d="M221.75 29.48336005795989 L221.75 29.48336005795989 L221.75 50.516639942040115 L221.75 50.516639942040115 L221.75 29.48336005795989 Z"></path><path d="M226.75 17.68806876922109 L226.75 17.68806876922109 L226.75 62.31193123077891 L226.75 62.31193123077891 L226.75 17.68806876922109 Z"></path><path d="M231.75 25.704474525232115 L231.75 25.704474525232115 L231.75 54.295525474767885 L231.75 54.295525474767885 L231.75 25.704474525232115 Z"></path><path d="M236.75 25.342815874863916 L236.75 25.342815874863916 L236.75 54.657184125136084 L236.75 54.657184125136084 L236.75 25.342815874863916 Z"></path><path d="M241.75 31.228190366420502 L241.75 31.228190366420502 L241.75 48.771809633579494 L241.75 48.771809633579494 L241.75 31.228190366420502 Z"></path><path d="M246.75 28.985659627329465 L246.75 28.985659627329465 L246.75 51.01434037267053 L246.75 51.01434037267053 L246.75 28.985659627329465 Z"></path><path d="M251.75 32.34083125664741 L251.75 32.34083125664741 L251.75 47.65916874335258 L251.75 47.65916874335258 L251.75 32.34083125664741 Z"></path><path d="M256.75 35.53849886452287 L256.75 35.53849886452287 L256.75 44.46150113547713 L256.75 44.46150113547713 L256.75 35.53849886452287 Z"></path><path d="M261.75 37.29501520897088 L261.75 37.29501520897088 L261.75 42.704984791029126 L261.75 42.704984791029126 L261.75 37.29501520897088 Z"></path><path d="M266.75 35.61916955911768 L266.75 35.61916955911768 L266.75 44.38083044088231 L266.75 44.38083044088231 L266.75 35.61916955911768 Z"></path><path d="M271.75 37.29823008519523 L271.75 37.29823008519523 L271.75 42.70176991480477 L271.75 42.70176991480477 L271.75 37.29823008519523 Z"></path><path d="M276.75 39.22502523988511 L276.75 39.22502523988511 L276.75 40.774974760114894 L276.75 40.774974760114894 L276.75 39.22502523988511 Z"></path><path d="M281.75 39.514372350993305 L281.75 39.514372350993305 L281.75 40.485627649006695 L281.75 40.485627649006695 L281.75 39.514372350993305 Z"></path><path d="M286.75 32.13151693889568 L286.75 32.13151693889568 L286.75 47.868483061104314 L286.75 47.868483061104314 L286.75 32.13151693889568 Z"></path><path d="M291.75 12.784199620105532 L291.75 12.784199620105532 L291.75 67.21580037989446 L291.75 67.21580037989446 L291.75 12.784199620105532 Z"></path><path d="M296.75 11.66183748720897 L296.75 11.66183748720897 L296.75 68.33816251279103 L296.75 68.33816251279103 L296.75 11.66183748720897 Z"></path><path d="M301.75 18.823067942330354 L301.75 18.823067942330354 L301.75 61.176932057669646 L301.75 61.176932057669646 L301.75 18.823067942330354 Z"></path><path d="M306.75 13.42919393422212 L306.75 13.42919393422212 L306.75 66.57080606577787 L306.75 66.57080606577787 L306.75 13.42919393422212 Z"></path><path d="M311.75 18.85342467293691 L311.75 18.85342467293691 L311.75 61.14657532706309 L311.75 61.14657532706309 L311.75 18.85342467293691 Z"></path><path d="M316.75 33.943858013543334 L316.75 33.943858013543334 L316.75 46.05614198645666 L316.75 46.05614198645666 L316.75 33.943858013543334 Z"></path><path d="M321.75 10.634930766567638 L321.75 10.634930766567638 L321.75 69.36506923343237 L321.75 69.36506923343237 L321.75 10.634930766567638 Z"></path><path d="M326.75 13.760072166306095 L326.75 13.760072166306095 L326.75 66.23992783369391 L326.75 66.23992783369391 L326.75 13.760072166306095 Z"></path><path d="M331.75 16.267440768285397 L331.75 16.267440768285397 L331.75 63.7325592317146 L331.75 63.7325592317146 L331.75 16.267440768285397 Z"></path><path d="M336.75 13.005649429946093 L336.75 13.005649429946093 L336.75 66.99435057005391 L336.75 66.99435057005391 L336.75 13.005649429946093 Z"></path><path d="M341.75 14.718513214626995 L341.75 14.718513214626995 L341.75 65.281486785373 L341.75 65.281486785373 L341.75 14.718513214626995 Z"></path><path d="M346.75 16.982806524439468 L346.75 16.982806524439468 L346.75 63.01719347556053 L346.75 63.01719347556053 L346.75 16.982806524439468 Z"></path><path d="M351.75 15.748435829964379 L351.75 15.748435829964379 L351.75 64.25156417003562 L351.75 64.25156417003562 L351.75 15.748435829964379 Z"></path><path d="M356.75 16.779625515844746 L356.75 16.779625515844746 L356.75 63.22037448415526 L356.75 63.22037448415526 L356.75 16.779625515844746 Z"></path><path d="M361.75 39.55232838973304 L361.75 39.55232838973304 L361.75 40.44767161026696 L361.75 40.44767161026696 L361.75 39.55232838973304 Z"></path><path d="M366.75 17.884798997262166 L366.75 17.884798997262166 L366.75 62.115201002737834 L366.75 62.115201002737834 L366.75 17.884798997262166 Z"></path><path d="M371.75 10.631435560974392 L371.75 10.631435560974392 L371.75 69.3685644390256 L371.75 69.3685644390256 L371.75 10.631435560974392 Z"></path><path d="M376.75 22.344486011974087 L376.75 22.344486011974087 L376.75 57.655513988025916 L376.75 57.655513988025916 L376.75 22.344486011974087 Z"></path><path d="M381.75 39.723683993247455 L381.75 39.723683993247455 L381.75 40.27631600675255 L381.75 40.27631600675255 L381.75 39.723683993247455 Z"></path><path d="M386.75 39.76585143880628 L386.75 39.76585143880628 L386.75 40.23414856119372 L386.75 40.23414856119372 L386.75 39.76585143880628 Z"></path><path d="M391.75 39.78175046854603 L391.75 39.78175046854603 L391.75 40.218249531453964 L391.75 40.218249531453964 L391.75 39.78175046854603 Z"></path><path d="M396.75 19.24005039207686 L396.75 19.24005039207686 L396.75 60.75994960792314 L396.75 60.75994960792314 L396.75 19.24005039207686 Z"></path><path d="M401.75 14.824145353797384 L401.75 14.824145353797384 L401.75 65.17585464620262 L401.75 65.17585464620262 L401.75 14.824145353797384 Z"></path><path d="M406.75 17.0746536729186 L406.75 17.0746536729186 L406.75 62.9253463270814 L406.75 62.9253463270814 L406.75 17.0746536729186 Z"></path><path d="M411.75 16.483023895097215 L411.75 16.483023895097215 L411.75 63.51697610490278 L411.75 63.51697610490278 L411.75 16.483023895097215 Z"></path><path d="M416.75 22.400446456855228 L416.75 22.400446456855228 L416.75 57.59955354314477 L416.75 57.59955354314477 L416.75 22.400446456855228 Z"></path><path d="M421.75 24.495134043022894 L421.75 24.495134043022894 L421.75 55.50486595697711 L421.75 55.50486595697711 L421.75 24.495134043022894 Z"></path><path d="M426.75 21.309007266369903 L426.75 21.309007266369903 L426.75 58.6909927336301 L426.75 58.6909927336301 L426.75 21.309007266369903 Z"></path><path d="M431.75 26.728261204839313 L431.75 26.728261204839313 L431.75 53.27173879516069 L431.75 53.27173879516069 L431.75 26.728261204839313 Z"></path><path d="M436.75 25.91473902679399 L436.75 25.91473902679399 L436.75 54.08526097320601 L436.75 54.08526097320601 L436.75 25.91473902679399 Z"></path><path d="M441.75 29.60230306308349 L441.75 29.60230306308349 L441.75 50.39769693691652 L441.75 50.39769693691652 L441.75 29.60230306308349 Z"></path><path d="M446.75 31.821127208345757 L446.75 31.821127208345757 L446.75 48.17887279165424 L446.75 48.17887279165424 L446.75 31.821127208345757 Z"></path><path d="M451.75 31.04448862914972 L451.75 31.04448862914972 L451.75 48.95551137085029 L451.75 48.95551137085029 L451.75 31.04448862914972 Z"></path><path d="M456.75 32.46075950950599 L456.75 32.46075950950599 L456.75 47.53924049049402 L456.75 47.53924049049402 L456.75 32.46075950950599 Z"></path><path d="M461.75 29.57210242403752 L461.75 29.57210242403752 L461.75 50.427897575962476 L461.75 50.427897575962476 L461.75 29.57210242403752 Z"></path><path d="M466.75 28.90655258764204 L466.75 28.90655258764204 L466.75 51.09344741235796 L466.75 51.09344741235796 L466.75 28.90655258764204 Z"></path><path d="M471.75 33.051262840609546 L471.75 33.051262840609546 L471.75 46.94873715939046 L471.75 46.94873715939046 L471.75 33.051262840609546 Z"></path><path d="M476.75 17.978057470281186 L476.75 17.978057470281186 L476.75 62.021942529718814 L476.75 62.021942529718814 L476.75 17.978057470281186 Z"></path><path d="M481.75 22.771006204776697 L481.75 22.771006204776697 L481.75 57.2289937952233 L481.75 57.2289937952233 L481.75 22.771006204776697 Z"></path><path d="M486.75 26.050219854794094 L486.75 26.050219854794094 L486.75 53.94978014520591 L486.75 53.94978014520591 L486.75 26.050219854794094 Z"></path><path d="M491.75 28.1584212221477 L491.75 28.1584212221477 L491.75 51.8415787778523 L491.75 51.8415787778523 L491.75 28.1584212221477 Z"></path><path d="M496.75 28.98522346732397 L496.75 28.98522346732397 L496.75 51.01477653267603 L496.75 51.01477653267603 L496.75 28.98522346732397 Z"></path></svg>