<?xml version="1.0" standalone="no"?><!DOCTYPE svg PUBLIC "-//W3C//DTD SVG 1.1//EN" "http://www.w3.org/Graphics/SVG/1.1/DTD/svg11.dtd"><svg id="3348807c-bdc0-6353-7668-04ffeecf9b4d" xmlns="http://www.w3.org/2000/svg" version="1.1" viewBox="0 0 500 80"><style type="text/css">path{stroke:white;stroke-width:3.5}</style><path d="M1.75 39.73767016819304 L1.75 39.73767016819304 L1.75 40.26232983180695 L1.75 40.26232983180695 L1.75 39.73767016819304 Z"></path><path d="M6.75 37.308735293410585 L6.75 37.308735293410585 L6.75 42.691264706589415 L6.75 42.691264706589415 L6.75 37.308735293410585 Z"></path><path d="M11.75 23.512982094005153 L11.75 23.512982094005153 L11.75 56.48701790599485 L11.75 56.48701790599485 L11.75 23.512982094005153 Z"></path><path d="M16.75 36.19689493179799 L16.75 36.19689493179799 L16.75 43.803105068202 L16.75 43.803105068202 L16.75 36.19689493179799 Z"></path><path d="M21.75 39.31887464711271 L21.75 39.31887464711271 L21.75 40.68112535288729 L21.75 40.68112535288729 L21.75 39.31887464711271 Z"></path><path d="M26.75 39.76398877103367 L26.75 39.76398877103367 L26.75 40.23601122896633 L26.75 40.23601122896633 L26.75 39.76398877103367 Z"></path><path d="M31.75 39.7519198506243 L31.75 39.7519198506243 L31.75 40.248080149375696 L31.75 40.248080149375696 L31.75 39.7519198506243 Z"></path><path d="M36.75 15.220489826453964 L36.75 15.220489826453964 L36.75 64.77951017354604 L36.75 64.77951017354604 L36.75 15.220489826453964 Z"></path><path d="M41.75 29.664130447861233 L41.75 29.664130447861233 L41.75 50.33586955213876 L41.75 50.33586955213876 L41.75 29.664130447861233 Z"></path><path d="M46.75 39.74290978764672 L46.75 39.74290978764672 L46.75 40.25709021235328 L46.75 40.25709021235328 L46.75 39.74290978764672 Z"></path><path d="M51.75 33.062378664033716 L51.75 33.062378664033716 L51.75 46.93762133596629 L51.75 46.93762133596629 L51.75 33.062378664033716 Z"></path><path d="M56.75 27.91851753513622 L56.75 27.91851753513622 L56.75 52.08148246486378 L56.75 52.08148246486378 L56.75 27.91851753513622 Z"></path><path d="M61.75 27.02874245953545 L61.75 27.02874245953545 L61.75 52.97125754046455 L61.75 52.97125754046455 L61.75 27.02874245953545 Z"></path><path d="M66.75 39.75944687332687 L66.75 39.75944687332687 L66.75 40.24055312667313 L66.75 40.24055312667313 L66.75 39.75944687332687 Z"></path><path d="M71.75 38.67929434212225 L71.75 38.67929434212225 L71.75 41.32070565787775 L71.75 41.32070565787775 L71.75 38.67929434212225 Z"></path><path d="M76.75 39.619555778921274 L76.75 39.619555778921274 L76.75 40.380444221078726 L76.75 40.380444221078726 L76.75 39.619555778921274 Z"></path><path d="M81.75 39.736586098781814 L81.75 39.736586098781814 L81.75 40.26341390121818 L81.75 40.26341390121818 L81.75 39.736586098781814 Z"></path><path d="M86.75 38.59535880418661 L86.75 38.59535880418661 L86.75 41.40464119581338 L86.75 41.40464119581338 L86.75 38.59535880418661 Z"></path><path d="M91.75 38.33362723282984 L91.75 38.33362723282984 L91.75 41.66637276717016 L91.75 41.66637276717016 L91.75 38.33362723282984 Z"></path><path d="M96.75 39.69873654363256 L96.75 39.69873654363256 L96.75 40.301263456367444 L96.75 40.301263456367444 L96.75 39.69873654363256 Z"></path><path d="M101.75 39.05966371086645 L101.75 39.05966371086645 L101.75 40.940336289133555 L101.75 40.940336289133555 L101.75 39.05966371086645 Z"></path><path d="M106.75 39.70750357416174 L106.75 39.70750357416174 L106.75 40.292496425838266 L106.75 40.292496425838266 L106.75 39.70750357416174 Z"></path><path d="M111.75 39.81806672815254 L111.75 39.81806672815254 L111.75 40.18193327184747 L111.75 40.18193327184747 L111.75 39.81806672815254 Z"></path><path d="M116.75 0 L116.75 0 L116.75 80 L116.75 80 L116.75 0 Z"></path><path d="M121.75 31.231412174552485 L121.75 31.231412174552485 L121.75 48.76858782544751 L121.75 48.76858782544751 L121.75 31.231412174552485 Z"></path><path d="M126.75 39.107951367833344 L126.75 39.107951367833344 L126.75 40.892048632166656 L126.75 40.892048632166656 L126.75 39.107951367833344 Z"></path><path d="M131.75 39.75814508406107 L131.75 39.75814508406107 L131.75 40.24185491593893 L131.75 40.24185491593893 L131.75 39.75814508406107 Z"></path><path d="M136.75 39.2926506734301 L136.75 39.2926506734301 L136.75 40.7073493265699 L136.75 40.7073493265699 L136.75 39.2926506734301 Z"></path><path d="M141.75 39.520423058502345 L141.75 39.520423058502345 L141.75 40.479576941497655 L141.75 40.479576941497655 L141.75 39.520423058502345 Z"></path><path d="M146.75 26.188176432723786 L146.75 26.188176432723786 L146.75 53.81182356727621 L146.75 53.81182356727621 L146.75 26.188176432723786 Z"></path><path d="M151.75 39.23792941740994 L151.75 39.23792941740994 L151.75 40.762070582590056 L151.75 40.762070582590056 L151.75 39.23792941740994 Z"></path><path d="M156.75 33.545214143589604 L156.75 33.545214143589604 L156.75 46.454785856410396 L156.75 46.454785856410396 L156.75 33.545214143589604 Z"></path><path d="M161.75 39.332993828909125 L161.75 39.332993828909125 L161.75 40.66700617109087 L161.75 40.66700617109087 L161.75 39.332993828909125 Z"></path><path d="M166.75 27.121358057768767 L166.75 27.121358057768767 L166.75 52.87864194223124 L166.75 52.87864194223124 L166.75 27.121358057768767 Z"></path><path d="M171.75 39.56219410964569 L171.75 39.56219410964569 L171.75 40.437805890354305 L171.75 40.437805890354305 L171.75 39.56219410964569 Z"></path><path d="M176.75 39.72749642398944 L176.75 39.72749642398944 L176.75 40.27250357601056 L176.75 40.27250357601056 L176.75 39.72749642398944 Z"></path><path d="M181.75 9.519279137996932 L181.75 9.519279137996932 L181.75 70.48072086200307 L181.75 70.48072086200307 L181.75 9.519279137996932 Z"></path><path d="M186.75 21.24786968899894 L186.75 21.24786968899894 L186.75 58.75213031100106 L186.75 58.75213031100106 L186.75 21.24786968899894 Z"></path><path d="M191.75 39.74256943369771 L191.75 39.74256943369771 L191.75 40.25743056630228 L191.75 40.25743056630228 L191.75 39.74256943369771 Z"></path><path d="M196.75 37.29241987145989 L196.75 37.29241987145989 L196.75 42.707580128540116 L196.75 42.707580128540116 L196.75 37.29241987145989 Z"></path><path d="M201.75 39.4950190705246 L201.75 39.4950190705246 L201.75 40.5049809294754 L201.75 40.5049809294754 L201.75 39.4950190705246 Z"></path><path d="M206.75 39.778937365280655 L206.75 39.778937365280655 L206.75 40.22106263471934 L206.75 40.22106263471934 L206.75 39.778937365280655 Z"></path><path d="M211.75 37.42625082957545 L211.75 37.42625082957545 L211.75 42.57374917042454 L211.75 42.57374917042454 L211.75 37.42625082957545 Z"></path><path d="M216.75 39.56852721878825 L216.75 39.56852721878825 L216.75 40.431472781211745 L216.75 40.431472781211745 L216.75 39.56852721878825 Z"></path><path d="M221.75 39.750517989674336 L221.75 39.750517989674336 L221.75 40.24948201032566 L221.75 40.24948201032566 L221.75 39.750517989674336 Z"></path><path d="M226.75 19.600469936752532 L226.75 19.600469936752532 L226.75 60.39953006324747 L226.75 60.39953006324747 L226.75 19.600469936752532 Z"></path><path d="M231.75 32.733623717889 L231.75 32.733623717889 L231.75 47.266376282111 L231.75 47.266376282111 L231.75 32.733623717889 Z"></path><path d="M236.75 39.732370020558974 L236.75 39.732370020558974 L236.75 40.267629979441026 L236.75 40.267629979441026 L236.75 39.732370020558974 Z"></path><path d="M241.75 38.58597950599121 L241.75 38.58597950599121 L241.75 41.41402049400879 L241.75 41.41402049400879 L241.75 38.58597950599121 Z"></path><path d="M246.75 39.76417188391027 L246.75 39.76417188391027 L246.75 40.23582811608973 L246.75 40.23582811608973 L246.75 39.76417188391027 Z"></path><path d="M251.75 39.74251412801312 L251.75 39.74251412801312 L251.75 40.25748587198688 L251.75 40.25748587198688 L251.75 39.74251412801312 Z"></path><path d="M256.75 30.934002079640337 L256.75 30.934002079640337 L256.75 49.06599792035966 L256.75 49.06599792035966 L256.75 30.934002079640337 Z"></path><path d="M261.75 39.19075251449185 L261.75 39.19075251449185 L261.75 40.80924748550815 L261.75 40.80924748550815 L261.75 39.19075251449185 Z"></path><path d="M266.75 38.758377908809365 L266.75 38.758377908809365 L266.75 41.241622091190635 L266.75 41.241622091190635 L266.75 38.758377908809365 Z"></path><path d="M271.75 39.22006184339331 L271.75 39.22006184339331 L271.75 40.77993815660668 L271.75 40.77993815660668 L271.75 39.22006184339331 Z"></path><path d="M276.75 39.76154313984751 L276.75 39.76154313984751 L276.75 40.23845686015249 L276.75 40.23845686015249 L276.75 39.76154313984751 Z"></path><path d="M281.75 39.753378657619024 L281.75 39.753378657619024 L281.75 40.246621342380976 L281.75 40.246621342380976 L281.75 39.753378657619024 Z"></path><path d="M286.75 24.05898292456334 L286.75 24.05898292456334 L286.75 55.94101707543666 L286.75 55.94101707543666 L286.75 24.05898292456334 Z"></path><path d="M291.75 37.27721806797659 L291.75 37.27721806797659 L291.75 42.72278193202341 L291.75 42.72278193202341 L291.75 37.27721806797659 Z"></path><path d="M296.75 39.785745780763406 L296.75 39.785745780763406 L296.75 40.21425421923659 L296.75 40.21425421923659 L296.75 39.785745780763406 Z"></path><path d="M301.75 25.867160437129677 L301.75 25.867160437129677 L301.75 54.13283956287033 L301.75 54.13283956287033 L301.75 25.867160437129677 Z"></path><path d="M306.75 13.506239198401772 L306.75 13.506239198401772 L306.75 66.49376080159823 L306.75 66.49376080159823 L306.75 13.506239198401772 Z"></path><path d="M311.75 33.84308495586005 L311.75 33.84308495586005 L311.75 46.15691504413995 L311.75 46.15691504413995 L311.75 33.84308495586005 Z"></path><path d="M316.75 21.524336065162373 L316.75 21.524336065162373 L316.75 58.47566393483763 L316.75 58.47566393483763 L316.75 21.524336065162373 Z"></path><path d="M321.75 38.42085202792933 L321.75 38.42085202792933 L321.75 41.57914797207067 L321.75 41.57914797207067 L321.75 38.42085202792933 Z"></path><path d="M326.75 39.358025196857774 L326.75 39.358025196857774 L326.75 40.64197480314222 L326.75 40.64197480314222 L326.75 39.358025196857774 Z"></path><path d="M331.75 39.79104464622263 L331.75 39.79104464622263 L331.75 40.20895535377737 L331.75 40.20895535377737 L331.75 39.79104464622263 Z"></path><path d="M336.75 37.83810005615322 L336.75 37.83810005615322 L336.75 42.161899943846784 L336.75 42.161899943846784 L336.75 37.83810005615322 Z"></path><path d="M341.75 39.766963486644755 L341.75 39.766963486644755 L341.75 40.23303651335525 L341.75 40.23303651335525 L341.75 39.766963486644755 Z"></path><path d="M346.75 39.77833778467531 L346.75 39.77833778467531 L346.75 40.22166221532469 L346.75 40.22166221532469 L346.75 39.77833778467531 Z"></path><path d="M351.75 37.950893783024625 L351.75 37.950893783024625 L351.75 42.04910621697538 L351.75 42.04910621697538 L351.75 37.950893783024625 Z"></path><path d="M356.75 39.54776824746843 L356.75 39.54776824746843 L356.75 40.45223175253157 L356.75 40.45223175253157 L356.75 39.54776824746843 Z"></path><path d="M361.75 39.737184933776184 L361.75 39.737184933776184 L361.75 40.26281506622382 L361.75 40.26281506622382 L361.75 39.737184933776184 Z"></path><path d="M366.75 23.590611646096132 L366.75 23.590611646096132 L366.75 56.409388353903864 L366.75 56.409388353903864 L366.75 23.590611646096132 Z"></path><path d="M371.75 39.17989531954265 L371.75 39.17989531954265 L371.75 40.82010468045734 L371.75 40.82010468045734 L371.75 39.17989531954265 Z"></path><path d="M376.75 39.757966530778084 L376.75 39.757966530778084 L376.75 40.242033469221916 L376.75 40.242033469221916 L376.75 39.757966530778084 Z"></path><path d="M381.75 38.978940187802 L381.75 38.978940187802 L381.75 41.021059812198 L381.75 41.021059812198 L381.75 38.978940187802 Z"></path><path d="M386.75 39.45393859842512 L386.75 39.45393859842512 L386.75 40.54606140157489 L386.75 40.54606140157489 L386.75 39.45393859842512 Z"></path><path d="M391.75 39.82592457332029 L391.75 39.82592457332029 L391.75 40.17407542667971 L391.75 40.17407542667971 L391.75 39.82592457332029 Z"></path><path d="M396.75 38.22952311670133 L396.75 38.22952311670133 L396.75 41.77047688329867 L396.75 41.77047688329867 L396.75 38.22952311670133 Z"></path><path d="M401.75 39.505833556936715 L401.75 39.505833556936715 L401.75 40.49416644306328 L401.75 40.49416644306328 L401.75 39.505833556936715 Z"></path><path d="M406.75 39.69451366717824 L406.75 39.69451366717824 L406.75 40.30548633282175 L406.75 40.30548633282175 L406.75 39.69451366717824 Z"></path><path d="M411.75 18.464947912041072 L411.75 18.464947912041072 L411.75 61.53505208795893 L411.75 61.53505208795893 L411.75 18.464947912041072 Z"></path><path d="M416.75 34.29504994806813 L416.75 34.29504994806813 L416.75 45.704950051931874 L416.75 45.704950051931874 L416.75 34.29504994806813 Z"></path><path d="M421.75 39.55185127535517 L421.75 39.55185127535517 L421.75 40.44814872464483 L421.75 40.44814872464483 L421.75 39.55185127535517 Z"></path><path d="M426.75 31.045920257797867 L426.75 31.045920257797867 L426.75 48.95407974220214 L426.75 48.95407974220214 L426.75 31.045920257797867 Z"></path><path d="M431.75 21.538800513362027 L431.75 21.538800513362027 L431.75 58.46119948663797 L431.75 58.46119948663797 L431.75 21.538800513362027 Z"></path><path d="M436.75 22.999749694555742 L436.75 22.999749694555742 L436.75 57.000250305444254 L436.75 57.000250305444254 L436.75 22.999749694555742 Z"></path><path d="M441.75 38.406683751133286 L441.75 38.406683751133286 L441.75 41.59331624886672 L441.75 41.59331624886672 L441.75 38.406683751133286 Z"></path><path d="M446.75 36.64468655321347 L446.75 36.64468655321347 L446.75 43.35531344678654 L446.75 43.35531344678654 L446.75 36.64468655321347 Z"></path><path d="M451.75 39.322320005149365 L451.75 39.322320005149365 L451.75 40.677679994850635 L451.75 40.677679994850635 L451.75 39.322320005149365 Z"></path><path d="M456.75 39.763513014175786 L456.75 39.763513014175786 L456.75 40.23648698582421 L456.75 40.23648698582421 L456.75 39.763513014175786 Z"></path><path d="M461.75 37.63899235376574 L461.75 37.63899235376574 L461.75 42.36100764623427 L461.75 42.36100764623427 L461.75 37.63899235376574 Z"></path><path d="M466.75 39.46602080926252 L466.75 39.46602080926252 L466.75 40.53397919073749 L466.75 40.53397919073749 L466.75 39.46602080926252 Z"></path><path d="M471.75 39.81773308226159 L471.75 39.81773308226159 L471.75 40.18226691773841 L471.75 40.18226691773841 L471.75 39.81773308226159 Z"></path><path d="M476.75 27.072680512833326 L476.75 27.072680512833326 L476.75 52.92731948716667 L476.75 52.92731948716667 L476.75 27.072680512833326 Z"></path><path d="M481.75 36.13539079572803 L481.75 36.13539079572803 L481.75 43.86460920427197 L481.75 43.86460920427197 L481.75 36.13539079572803 Z"></path><path d="M486.75 39.668164521129945 L486.75 39.668164521129945 L486.75 40.33183547887006 L486.75 40.33183547887006 L486.75 39.668164521129945 Z"></path><path d="M491.75 38.22008245978621 L491.75 38.22008245978621 L491.75 41.77991754021379 L491.75 41.77991754021379 L491.75 38.22008245978621 Z"></path><path d="M496.75 39.73665716288706 L496.75 39.73665716288706 L496.75 40.263342837112944 L496.75 40.263342837112944 L496.75 39.73665716288706 Z"></path></svg>