<?xml version="1.0" standalone="no"?><!DOCTYPE svg PUBLIC "-//W3C//DTD SVG 1.1//EN" "http://www.w3.org/Graphics/SVG/1.1/DTD/svg11.dtd"><svg id="629bc49a-ab4c-b803-40f3-98a4e93bcdc5" xmlns="http://www.w3.org/2000/svg" version="1.1" viewBox="0 0 500 80"><style type="text/css">path{stroke:white;stroke-width:3.5}</style><path d="M1.75 39.4975181210171 L1.75 39.4975181210171 L1.75 40.5024818789829 L1.75 40.5024818789829 L1.75 39.4975181210171 Z"></path><path d="M6.75 1.5702804856738766 L6.75 1.5702804856738766 L6.75 78.42971951432612 L6.75 78.42971951432612 L6.75 1.5702804856738766 Z"></path><path d="M11.75 19.12700279848622 L11.75 19.12700279848622 L11.75 60.87299720151378 L11.75 60.87299720151378 L11.75 19.12700279848622 Z"></path><path d="M16.75 25.535224905516397 L16.75 25.535224905516397 L16.75 54.4647750944836 L16.75 54.4647750944836 L16.75 25.535224905516397 Z"></path><path d="M21.75 28.54962400932216 L21.75 28.54962400932216 L21.75 51.45037599067784 L21.75 51.45037599067784 L21.75 28.54962400932216 Z"></path><path d="M26.75 29.079130376654767 L26.75 29.079130376654767 L26.75 50.92086962334524 L26.75 50.92086962334524 L26.75 29.079130376654767 Z"></path><path d="M31.75 35.294248828344436 L31.75 35.294248828344436 L31.75 44.70575117165556 L31.75 44.70575117165556 L31.75 35.294248828344436 Z"></path><path d="M36.75 21.969560595572162 L36.75 21.969560595572162 L36.75 58.03043940442784 L36.75 58.03043940442784 L36.75 21.969560595572162 Z"></path><path d="M41.75 25.585645314640264 L41.75 25.585645314640264 L41.75 54.41435468535974 L41.75 54.41435468535974 L41.75 25.585645314640264 Z"></path><path d="M46.75 37.695295396352776 L46.75 37.695295396352776 L46.75 42.30470460364723 L46.75 42.30470460364723 L46.75 37.695295396352776 Z"></path><path d="M51.75 29.202427707299215 L51.75 29.202427707299215 L51.75 50.797572292700785 L51.75 50.797572292700785 L51.75 29.202427707299215 Z"></path><path d="M56.75 23.828282480856654 L56.75 23.828282480856654 L56.75 56.17171751914334 L56.75 56.17171751914334 L56.75 23.828282480856654 Z"></path><path d="M61.75 39.33899581981352 L61.75 39.33899581981352 L61.75 40.661004180186474 L61.75 40.661004180186474 L61.75 39.33899581981352 Z"></path><path d="M66.75 27.63231220881459 L66.75 27.63231220881459 L66.75 52.36768779118542 L66.75 52.36768779118542 L66.75 27.63231220881459 Z"></path><path d="M71.75 17.288458094315352 L71.75 17.288458094315352 L71.75 62.71154190568465 L71.75 62.71154190568465 L71.75 17.288458094315352 Z"></path><path d="M76.75 18.306866329105077 L76.75 18.306866329105077 L76.75 61.69313367089492 L76.75 61.69313367089492 L76.75 18.306866329105077 Z"></path><path d="M81.75 26.87909124106819 L81.75 26.87909124106819 L81.75 53.120908758931805 L81.75 53.120908758931805 L81.75 26.87909124106819 Z"></path><path d="M86.75 24.661745425598248 L86.75 24.661745425598248 L86.75 55.33825457440175 L86.75 55.33825457440175 L86.75 24.661745425598248 Z"></path><path d="M91.75 25.940128414749903 L91.75 25.940128414749903 L91.75 54.05987158525009 L91.75 54.05987158525009 L91.75 25.940128414749903 Z"></path><path d="M96.75 37.673994486378795 L96.75 37.673994486378795 L96.75 42.326005513621205 L96.75 42.326005513621205 L96.75 37.673994486378795 Z"></path><path d="M101.75 37.87712177363927 L101.75 37.87712177363927 L101.75 42.122878226360726 L101.75 42.122878226360726 L101.75 37.87712177363927 Z"></path><path d="M106.75 33.99146580063919 L106.75 33.99146580063919 L106.75 46.00853419936082 L106.75 46.00853419936082 L106.75 33.99146580063919 Z"></path><path d="M111.75 38.72062449287457 L111.75 38.72062449287457 L111.75 41.27937550712542 L111.75 41.27937550712542 L111.75 38.72062449287457 Z"></path><path d="M116.75 19.32550978541067 L116.75 19.32550978541067 L116.75 60.674490214589326 L116.75 60.674490214589326 L116.75 19.32550978541067 Z"></path><path d="M121.75 24.172028629906897 L121.75 24.172028629906897 L121.75 55.827971370093096 L121.75 55.827971370093096 L121.75 24.172028629906897 Z"></path><path d="M126.75 25.909745725055707 L126.75 25.909745725055707 L126.75 54.0902542749443 L126.75 54.0902542749443 L126.75 25.909745725055707 Z"></path><path d="M131.75 29.103163048997864 L131.75 29.103163048997864 L131.75 50.896836951002136 L131.75 50.896836951002136 L131.75 29.103163048997864 Z"></path><path d="M136.75 29.94667962564304 L136.75 29.94667962564304 L136.75 50.05332037435696 L136.75 50.05332037435696 L136.75 29.94667962564304 Z"></path><path d="M141.75 38.51334770281814 L141.75 38.51334770281814 L141.75 41.48665229718186 L141.75 41.48665229718186 L141.75 38.51334770281814 Z"></path><path d="M146.75 35.69824625480205 L146.75 35.69824625480205 L146.75 44.301753745197956 L146.75 44.301753745197956 L146.75 35.69824625480205 Z"></path><path d="M151.75 37.366862836781706 L151.75 37.366862836781706 L151.75 42.63313716321829 L151.75 42.63313716321829 L151.75 37.366862836781706 Z"></path><path d="M156.75 39.48719467553381 L156.75 39.48719467553381 L156.75 40.51280532446619 L156.75 40.51280532446619 L156.75 39.48719467553381 Z"></path><path d="M161.75 21.166204871544206 L161.75 21.166204871544206 L161.75 58.83379512845579 L161.75 58.83379512845579 L161.75 21.166204871544206 Z"></path><path d="M166.75 38.003629654133846 L166.75 38.003629654133846 L166.75 41.996370345866154 L166.75 41.996370345866154 L166.75 38.003629654133846 Z"></path><path d="M171.75 39.649028392715564 L171.75 39.649028392715564 L171.75 40.350971607284436 L171.75 40.350971607284436 L171.75 39.649028392715564 Z"></path><path d="M176.75 32.81030707869752 L176.75 32.81030707869752 L176.75 47.18969292130247 L176.75 47.18969292130247 L176.75 32.81030707869752 Z"></path><path d="M181.75 18.612183020034397 L181.75 18.612183020034397 L181.75 61.387816979965606 L181.75 61.387816979965606 L181.75 18.612183020034397 Z"></path><path d="M186.75 23.926796538579488 L186.75 23.926796538579488 L186.75 56.07320346142051 L186.75 56.07320346142051 L186.75 23.926796538579488 Z"></path><path d="M191.75 20.241896595315705 L191.75 20.241896595315705 L191.75 59.75810340468429 L191.75 59.75810340468429 L191.75 20.241896595315705 Z"></path><path d="M196.75 10.318625951068892 L196.75 10.318625951068892 L196.75 69.6813740489311 L196.75 69.6813740489311 L196.75 10.318625951068892 Z"></path><path d="M201.75 13.651872139667397 L201.75 13.651872139667397 L201.75 66.3481278603326 L201.75 66.3481278603326 L201.75 13.651872139667397 Z"></path><path d="M206.75 34.181008806121504 L206.75 34.181008806121504 L206.75 45.818991193878496 L206.75 45.818991193878496 L206.75 34.181008806121504 Z"></path><path d="M211.75 17.099975016691374 L211.75 17.099975016691374 L211.75 62.900024983308626 L211.75 62.900024983308626 L211.75 17.099975016691374 Z"></path><path d="M216.75 16.76864224464176 L216.75 16.76864224464176 L216.75 63.23135775535824 L216.75 63.23135775535824 L216.75 16.76864224464176 Z"></path><path d="M221.75 39.19882721519475 L221.75 39.19882721519475 L221.75 40.801172784805246 L221.75 40.801172784805246 L221.75 39.19882721519475 Z"></path><path d="M226.75 38.98885608285958 L226.75 38.98885608285958 L226.75 41.011143917140416 L226.75 41.011143917140416 L226.75 38.98885608285958 Z"></path><path d="M231.75 39.67258313408437 L231.75 39.67258313408437 L231.75 40.32741686591564 L231.75 40.32741686591564 L231.75 39.67258313408437 Z"></path><path d="M236.75 38.26606146949661 L236.75 38.26606146949661 L236.75 41.73393853050339 L236.75 41.73393853050339 L236.75 38.26606146949661 Z"></path><path d="M241.75 23.350723407258247 L241.75 23.350723407258247 L241.75 56.64927659274176 L241.75 56.64927659274176 L241.75 23.350723407258247 Z"></path><path d="M246.75 25.556217522095885 L246.75 25.556217522095885 L246.75 54.44378247790411 L246.75 54.44378247790411 L246.75 25.556217522095885 Z"></path><path d="M251.75 38.50027900994959 L251.75 38.50027900994959 L251.75 41.49972099005041 L251.75 41.49972099005041 L251.75 38.50027900994959 Z"></path><path d="M256.75 9.600868740103149 L256.75 9.600868740103149 L256.75 70.39913125989685 L256.75 70.39913125989685 L256.75 9.600868740103149 Z"></path><path d="M261.75 20.766966468466777 L261.75 20.766966468466777 L261.75 59.23303353153322 L261.75 59.23303353153322 L261.75 20.766966468466777 Z"></path><path d="M266.75 24.351534098102043 L266.75 24.351534098102043 L266.75 55.648465901897964 L266.75 55.648465901897964 L266.75 24.351534098102043 Z"></path><path d="M271.75 27.35321407482358 L271.75 27.35321407482358 L271.75 52.64678592517642 L271.75 52.64678592517642 L271.75 27.35321407482358 Z"></path><path d="M276.75 30.181651413053718 L276.75 30.181651413053718 L276.75 49.818348586946286 L276.75 49.818348586946286 L276.75 30.181651413053718 Z"></path><path d="M281.75 33.731195568774446 L281.75 33.731195568774446 L281.75 46.26880443122555 L281.75 46.26880443122555 L281.75 33.731195568774446 Z"></path><path d="M286.75 19.238611946250835 L286.75 19.238611946250835 L286.75 60.761388053749165 L286.75 60.761388053749165 L286.75 19.238611946250835 Z"></path><path d="M291.75 22.21116891914184 L291.75 22.21116891914184 L291.75 57.78883108085816 L291.75 57.78883108085816 L291.75 22.21116891914184 Z"></path><path d="M296.75 39.54549843006187 L296.75 39.54549843006187 L296.75 40.45450156993813 L296.75 40.45450156993813 L296.75 39.54549843006187 Z"></path><path d="M301.75 23.065283043097885 L301.75 23.065283043097885 L301.75 56.934716956902115 L301.75 56.934716956902115 L301.75 23.065283043097885 Z"></path><path d="M306.75 19.185220732632835 L306.75 19.185220732632835 L306.75 60.814779267367165 L306.75 60.814779267367165 L306.75 19.185220732632835 Z"></path><path d="M311.75 39.42402728420349 L311.75 39.42402728420349 L311.75 40.5759727157965 L311.75 40.5759727157965 L311.75 39.42402728420349 Z"></path><path d="M316.75 26.412538657108016 L316.75 26.412538657108016 L316.75 53.587461342891984 L316.75 53.587461342891984 L316.75 26.412538657108016 Z"></path><path d="M321.75 21.782773360314067 L321.75 21.782773360314067 L321.75 58.21722663968593 L321.75 58.21722663968593 L321.75 21.782773360314067 Z"></path><path d="M326.75 24.627246627154648 L326.75 24.627246627154648 L326.75 55.37275337284535 L326.75 55.37275337284535 L326.75 24.627246627154648 Z"></path><path d="M331.75 23.740397515813243 L331.75 23.740397515813243 L331.75 56.25960248418676 L331.75 56.25960248418676 L331.75 23.740397515813243 Z"></path><path d="M336.75 25.935122128919595 L336.75 25.935122128919595 L336.75 54.06487787108041 L336.75 54.06487787108041 L336.75 25.935122128919595 Z"></path><path d="M341.75 26.49866735661344 L341.75 26.49866735661344 L341.75 53.50133264338656 L341.75 53.50133264338656 L341.75 26.49866735661344 Z"></path><path d="M346.75 37.757440479506315 L346.75 37.757440479506315 L346.75 42.242559520493685 L346.75 42.242559520493685 L346.75 37.757440479506315 Z"></path><path d="M351.75 34.13824208484177 L351.75 34.13824208484177 L351.75 45.86175791515823 L351.75 45.86175791515823 L351.75 34.13824208484177 Z"></path><path d="M356.75 35.471055657825374 L356.75 35.471055657825374 L356.75 44.52894434217463 L356.75 44.52894434217463 L356.75 35.471055657825374 Z"></path><path d="M361.75 39.163935519251616 L361.75 39.163935519251616 L361.75 40.836064480748384 L361.75 40.836064480748384 L361.75 39.163935519251616 Z"></path><path d="M366.75 25.526552110767817 L366.75 25.526552110767817 L366.75 54.47344788923218 L366.75 54.47344788923218 L366.75 25.526552110767817 Z"></path><path d="M371.75 29.447192642818997 L371.75 29.447192642818997 L371.75 50.552807357180995 L371.75 50.552807357180995 L371.75 29.447192642818997 Z"></path><path d="M376.75 31.04304898346827 L376.75 31.04304898346827 L376.75 48.95695101653173 L376.75 48.95695101653173 L376.75 31.04304898346827 Z"></path><path d="M381.75 31.460590791816752 L381.75 31.460590791816752 L381.75 48.539409208183244 L381.75 48.539409208183244 L381.75 31.460590791816752 Z"></path><path d="M386.75 37.91171172169448 L386.75 37.91171172169448 L386.75 42.08828827830552 L386.75 42.08828827830552 L386.75 37.91171172169448 Z"></path><path d="M391.75 34.42667357121712 L391.75 34.42667357121712 L391.75 45.57332642878288 L391.75 45.57332642878288 L391.75 34.42667357121712 Z"></path><path d="M396.75 34.92429239805948 L396.75 34.92429239805948 L396.75 45.07570760194053 L396.75 45.07570760194053 L396.75 34.92429239805948 Z"></path><path d="M401.75 38.5700019696296 L401.75 38.5700019696296 L401.75 41.4299980303704 L401.75 41.4299980303704 L401.75 38.5700019696296 Z"></path><path d="M406.75 39.50552217404542 L406.75 39.50552217404542 L406.75 40.494477825954576 L406.75 40.494477825954576 L406.75 39.50552217404542 Z"></path><path d="M411.75 2.4975375528754 L411.75 2.4975375528754 L411.75 77.5024624471246 L411.75 77.5024624471246 L411.75 2.4975375528754 Z"></path><path d="M416.75 39.36293541713474 L416.75 39.36293541713474 L416.75 40.63706458286526 L416.75 40.63706458286526 L416.75 39.36293541713474 Z"></path><path d="M421.75 39.603325918114386 L421.75 39.603325918114386 L421.75 40.39667408188561 L421.75 40.39667408188561 L421.75 39.603325918114386 Z"></path><path d="M426.75 23.309293322677956 L426.75 23.309293322677956 L426.75 56.69070667732204 L426.75 56.69070667732204 L426.75 23.309293322677956 Z"></path><path d="M431.75 22.245931688566827 L431.75 22.245931688566827 L431.75 57.75406831143317 L431.75 57.75406831143317 L431.75 22.245931688566827 Z"></path><path d="M436.75 29.013224992938852 L436.75 29.013224992938852 L436.75 50.98677500706115 L436.75 50.98677500706115 L436.75 29.013224992938852 Z"></path><path d="M441.75 0 L441.75 0 L441.75 80 L441.75 80 L441.75 0 Z"></path><path d="M446.75 12.663808279297808 L446.75 12.663808279297808 L446.75 67.33619172070219 L446.75 67.33619172070219 L446.75 12.663808279297808 Z"></path><path d="M451.75 11.769528858506106 L451.75 11.769528858506106 L451.75 68.2304711414939 L451.75 68.2304711414939 L451.75 11.769528858506106 Z"></path><path d="M456.75 21.121224041111457 L456.75 21.121224041111457 L456.75 58.87877595888854 L456.75 58.87877595888854 L456.75 21.121224041111457 Z"></path><path d="M461.75 13.789210574069852 L461.75 13.789210574069852 L461.75 66.21078942593014 L461.75 66.21078942593014 L461.75 13.789210574069852 Z"></path><path d="M466.75 16.325386106430273 L466.75 16.325386106430273 L466.75 63.67461389356973 L466.75 63.67461389356973 L466.75 16.325386106430273 Z"></path><path d="M471.75 37.323043297050035 L471.75 37.323043297050035 L471.75 42.676956702949965 L471.75 42.676956702949965 L471.75 37.323043297050035 Z"></path><path d="M476.75 21.71699666755495 L476.75 21.71699666755495 L476.75 58.28300333244505 L476.75 58.28300333244505 L476.75 21.71699666755495 Z"></path><path d="M481.75 39.60201012342127 L481.75 39.60201012342127 L481.75 40.397989876578734 L481.75 40.397989876578734 L481.75 39.60201012342127 Z"></path><path d="M486.75 38.16236196769593 L486.75 38.16236196769593 L486.75 41.83763803230407 L486.75 41.83763803230407 L486.75 38.16236196769593 Z"></path><path d="M491.75 21.05119621063512 L491.75 21.05119621063512 L491.75 58.94880378936488 L491.75 58.94880378936488 L491.75 21.05119621063512 Z"></path><path d="M496.75 29.382122677673273 L496.75 29.382122677673273 L496.75 50.61787732232672 L496.75 50.61787732232672 L496.75 29.382122677673273 Z"></path></svg>