<?xml version="1.0" standalone="no"?><!DOCTYPE svg PUBLIC "-//W3C//DTD SVG 1.1//EN" "http://www.w3.org/Graphics/SVG/1.1/DTD/svg11.dtd"><svg id="2216626a-23da-d46a-3e9d-940315bbe1ca" xmlns="http://www.w3.org/2000/svg" version="1.1" viewBox="0 0 500 80"><style type="text/css">path{stroke:white;stroke-width:3.5}</style><path d="M1.75 10.28246214147466 L1.75 10.28246214147466 L1.75 69.71753785852533 L1.75 69.71753785852533 L1.75 10.28246214147466 Z"></path><path d="M6.75 0 L6.75 0 L6.75 80 L6.75 80 L6.75 0 Z"></path><path d="M11.75 14.247058997130203 L11.75 14.247058997130203 L11.75 65.75294100286979 L11.75 65.75294100286979 L11.75 14.247058997130203 Z"></path><path d="M16.75 15.002944370396342 L16.75 15.002944370396342 L16.75 64.99705562960366 L16.75 64.99705562960366 L16.75 15.002944370396342 Z"></path><path d="M21.75 22.26639301612435 L21.75 22.26639301612435 L21.75 57.733606983875646 L21.75 57.733606983875646 L21.75 22.26639301612435 Z"></path><path d="M26.75 6.384978872508995 L26.75 6.384978872508995 L26.75 73.615021127491 L26.75 73.615021127491 L26.75 6.384978872508995 Z"></path><path d="M31.75 4.115495688802504 L31.75 4.115495688802504 L31.75 75.8845043111975 L31.75 75.8845043111975 L31.75 4.115495688802504 Z"></path><path d="M36.75 11.74175890728193 L36.75 11.74175890728193 L36.75 68.25824109271807 L36.75 68.25824109271807 L36.75 11.74175890728193 Z"></path><path d="M41.75 17.635387778314655 L41.75 17.635387778314655 L41.75 62.36461222168535 L41.75 62.36461222168535 L41.75 17.635387778314655 Z"></path><path d="M46.75 21.777528856781636 L46.75 21.777528856781636 L46.75 58.222471143218364 L46.75 58.222471143218364 L46.75 21.777528856781636 Z"></path><path d="M51.75 5.154931576149544 L51.75 5.154931576149544 L51.75 74.84506842385045 L51.75 74.84506842385045 L51.75 5.154931576149544 Z"></path><path d="M56.75 5.076002052228745 L56.75 5.076002052228745 L56.75 74.92399794777126 L56.75 74.92399794777126 L56.75 5.076002052228745 Z"></path><path d="M61.75 16.963520063172968 L61.75 16.963520063172968 L61.75 63.036479936827035 L61.75 63.036479936827035 L61.75 16.963520063172968 Z"></path><path d="M66.75 21.74055594425255 L66.75 21.74055594425255 L66.75 58.25944405574745 L66.75 58.25944405574745 L66.75 21.74055594425255 Z"></path><path d="M71.75 0.537662986217164 L71.75 0.537662986217164 L71.75 79.46233701378284 L71.75 79.46233701378284 L71.75 0.537662986217164 Z"></path><path d="M76.75 7.4486005393811325 L76.75 7.4486005393811325 L76.75 72.55139946061887 L76.75 72.55139946061887 L76.75 7.4486005393811325 Z"></path><path d="M81.75 11.890029985545173 L81.75 11.890029985545173 L81.75 68.10997001445483 L81.75 68.10997001445483 L81.75 11.890029985545173 Z"></path><path d="M86.75 25.5658919565505 L86.75 25.5658919565505 L86.75 54.4341080434495 L86.75 54.4341080434495 L86.75 25.5658919565505 Z"></path><path d="M91.75 4.578639168858238 L91.75 4.578639168858238 L91.75 75.42136083114175 L91.75 75.42136083114175 L91.75 4.578639168858238 Z"></path><path d="M96.75 8.193257437226539 L96.75 8.193257437226539 L96.75 71.80674256277347 L96.75 71.80674256277347 L96.75 8.193257437226539 Z"></path><path d="M101.75 15.27276453301221 L101.75 15.27276453301221 L101.75 64.72723546698779 L101.75 64.72723546698779 L101.75 15.27276453301221 Z"></path><path d="M106.75 20.293147700829792 L106.75 20.293147700829792 L106.75 59.70685229917021 L106.75 59.70685229917021 L106.75 20.293147700829792 Z"></path><path d="M111.75 25.174722544479636 L111.75 25.174722544479636 L111.75 54.825277455520364 L111.75 54.825277455520364 L111.75 25.174722544479636 Z"></path><path d="M116.75 5.979820289096885 L116.75 5.979820289096885 L116.75 74.02017971090311 L116.75 74.02017971090311 L116.75 5.979820289096885 Z"></path><path d="M121.75 12.799606431253295 L121.75 12.799606431253295 L121.75 67.2003935687467 L121.75 67.2003935687467 L121.75 12.799606431253295 Z"></path><path d="M126.75 26.290440287930327 L126.75 26.290440287930327 L126.75 53.70955971206968 L126.75 53.70955971206968 L126.75 26.290440287930327 Z"></path><path d="M131.75 7.317813120656922 L131.75 7.317813120656922 L131.75 72.68218687934308 L131.75 72.68218687934308 L131.75 7.317813120656922 Z"></path><path d="M136.75 16.53476537228574 L136.75 16.53476537228574 L136.75 63.46523462771426 L136.75 63.46523462771426 L136.75 16.53476537228574 Z"></path><path d="M141.75 22.960806130350154 L141.75 22.960806130350154 L141.75 57.03919386964985 L141.75 57.03919386964985 L141.75 22.960806130350154 Z"></path><path d="M146.75 24.827960367711896 L146.75 24.827960367711896 L146.75 55.172039632288104 L146.75 55.172039632288104 L146.75 24.827960367711896 Z"></path><path d="M151.75 23.077266556155276 L151.75 23.077266556155276 L151.75 56.92273344384472 L151.75 56.92273344384472 L151.75 23.077266556155276 Z"></path><path d="M156.75 15.598173578417075 L156.75 15.598173578417075 L156.75 64.40182642158292 L156.75 64.40182642158292 L156.75 15.598173578417075 Z"></path><path d="M161.75 19.618217079727046 L161.75 19.618217079727046 L161.75 60.381782920272954 L161.75 60.381782920272954 L161.75 19.618217079727046 Z"></path><path d="M166.75 24.652765076328073 L166.75 24.652765076328073 L166.75 55.347234923671934 L166.75 55.347234923671934 L166.75 24.652765076328073 Z"></path><path d="M171.75 27.401837583231554 L171.75 27.401837583231554 L171.75 52.598162416768446 L171.75 52.598162416768446 L171.75 27.401837583231554 Z"></path><path d="M176.75 15.179367901122628 L176.75 15.179367901122628 L176.75 64.82063209887737 L176.75 64.82063209887737 L176.75 15.179367901122628 Z"></path><path d="M181.75 16.16138039619713 L181.75 16.16138039619713 L181.75 63.83861960380287 L181.75 63.83861960380287 L181.75 16.16138039619713 Z"></path><path d="M186.75 23.14894746943083 L186.75 23.14894746943083 L186.75 56.85105253056917 L186.75 56.85105253056917 L186.75 23.14894746943083 Z"></path><path d="M191.75 27.900026020108367 L191.75 27.900026020108367 L191.75 52.09997397989163 L191.75 52.09997397989163 L191.75 27.900026020108367 Z"></path><path d="M196.75 23.109157591851886 L196.75 23.109157591851886 L196.75 56.89084240814812 L196.75 56.89084240814812 L196.75 23.109157591851886 Z"></path><path d="M201.75 25.18418699324451 L201.75 25.18418699324451 L201.75 54.81581300675549 L201.75 54.81581300675549 L201.75 25.18418699324451 Z"></path><path d="M206.75 30.48516586273029 L206.75 30.48516586273029 L206.75 49.514834137269716 L206.75 49.514834137269716 L206.75 30.48516586273029 Z"></path><path d="M211.75 33.302608916898265 L211.75 33.302608916898265 L211.75 46.69739108310174 L211.75 46.69739108310174 L211.75 33.302608916898265 Z"></path><path d="M216.75 24.900509504528898 L216.75 24.900509504528898 L216.75 55.0994904954711 L216.75 55.0994904954711 L216.75 24.900509504528898 Z"></path><path d="M221.75 26.274816110252146 L221.75 26.274816110252146 L221.75 53.72518388974785 L221.75 53.72518388974785 L221.75 26.274816110252146 Z"></path><path d="M226.75 29.05591109081815 L226.75 29.05591109081815 L226.75 50.94408890918184 L226.75 50.94408890918184 L226.75 29.05591109081815 Z"></path><path d="M231.75 30.778455345182167 L231.75 30.778455345182167 L231.75 49.22154465481783 L231.75 49.22154465481783 L231.75 30.778455345182167 Z"></path><path d="M236.75 25.13071835899574 L236.75 25.13071835899574 L236.75 54.869281641004264 L236.75 54.869281641004264 L236.75 25.13071835899574 Z"></path><path d="M241.75 24.226246870932506 L241.75 24.226246870932506 L241.75 55.7737531290675 L241.75 55.7737531290675 L241.75 24.226246870932506 Z"></path><path d="M246.75 32.47254033237385 L246.75 32.47254033237385 L246.75 47.52745966762614 L246.75 47.52745966762614 L246.75 32.47254033237385 Z"></path><path d="M251.75 24.89115122025553 L251.75 24.89115122025553 L251.75 55.10884877974448 L251.75 55.10884877974448 L251.75 24.89115122025553 Z"></path><path d="M256.75 15.777852662229673 L256.75 15.777852662229673 L256.75 64.22214733777032 L256.75 64.22214733777032 L256.75 15.777852662229673 Z"></path><path d="M261.75 19.334177099636005 L261.75 19.334177099636005 L261.75 60.66582290036399 L261.75 60.66582290036399 L261.75 19.334177099636005 Z"></path><path d="M266.75 25.487923376110565 L266.75 25.487923376110565 L266.75 54.512076623889435 L266.75 54.512076623889435 L266.75 25.487923376110565 Z"></path><path d="M271.75 24.11538039206757 L271.75 24.11538039206757 L271.75 55.884619607932436 L271.75 55.884619607932436 L271.75 24.11538039206757 Z"></path><path d="M276.75 12.228571348758667 L276.75 12.228571348758667 L276.75 67.77142865124134 L276.75 67.77142865124134 L276.75 12.228571348758667 Z"></path><path d="M281.75 7.160976759844523 L281.75 7.160976759844523 L281.75 72.83902324015548 L281.75 72.83902324015548 L281.75 7.160976759844523 Z"></path><path d="M286.75 17.646753721040746 L286.75 17.646753721040746 L286.75 62.353246278959254 L286.75 62.353246278959254 L286.75 17.646753721040746 Z"></path><path d="M291.75 25.21736655927646 L291.75 25.21736655927646 L291.75 54.782633440723544 L291.75 54.782633440723544 L291.75 25.21736655927646 Z"></path><path d="M296.75 24.822213861066377 L296.75 24.822213861066377 L296.75 55.17778613893363 L296.75 55.17778613893363 L296.75 24.822213861066377 Z"></path><path d="M301.75 11.688926637248098 L301.75 11.688926637248098 L301.75 68.3110733627519 L301.75 68.3110733627519 L301.75 11.688926637248098 Z"></path><path d="M306.75 14.491423852867005 L306.75 14.491423852867005 L306.75 65.508576147133 L306.75 65.508576147133 L306.75 14.491423852867005 Z"></path><path d="M311.75 24.784484370739996 L311.75 24.784484370739996 L311.75 55.21551562926001 L311.75 55.21551562926001 L311.75 24.784484370739996 Z"></path><path d="M316.75 21.330662680447478 L316.75 21.330662680447478 L316.75 58.669337319552525 L316.75 58.669337319552525 L316.75 21.330662680447478 Z"></path><path d="M321.75 11.942180705252074 L321.75 11.942180705252074 L321.75 68.05781929474793 L321.75 68.05781929474793 L321.75 11.942180705252074 Z"></path><path d="M326.75 16.21267967394637 L326.75 16.21267967394637 L326.75 63.78732032605363 L326.75 63.78732032605363 L326.75 16.21267967394637 Z"></path><path d="M331.75 23.866690375517457 L331.75 23.866690375517457 L331.75 56.13330962448254 L331.75 56.13330962448254 L331.75 23.866690375517457 Z"></path><path d="M336.75 24.169477032520565 L336.75 24.169477032520565 L336.75 55.83052296747944 L336.75 55.83052296747944 L336.75 24.169477032520565 Z"></path><path d="M341.75 14.114741192969042 L341.75 14.114741192969042 L341.75 65.88525880703097 L341.75 65.88525880703097 L341.75 14.114741192969042 Z"></path><path d="M346.75 12.934138929526124 L346.75 12.934138929526124 L346.75 67.06586107047387 L346.75 67.06586107047387 L346.75 12.934138929526124 Z"></path><path d="M351.75 19.95247095575386 L351.75 19.95247095575386 L351.75 60.04752904424614 L351.75 60.04752904424614 L351.75 19.95247095575386 Z"></path><path d="M356.75 27.85448147124869 L356.75 27.85448147124869 L356.75 52.14551852875131 L356.75 52.14551852875131 L356.75 27.85448147124869 Z"></path><path d="M361.75 24.567952015495788 L361.75 24.567952015495788 L361.75 55.43204798450421 L361.75 55.43204798450421 L361.75 24.567952015495788 Z"></path><path d="M366.75 7.653814622661628 L366.75 7.653814622661628 L366.75 72.34618537733837 L366.75 72.34618537733837 L366.75 7.653814622661628 Z"></path><path d="M371.75 18.60489648130475 L371.75 18.60489648130475 L371.75 61.39510351869525 L371.75 61.39510351869525 L371.75 18.60489648130475 Z"></path><path d="M376.75 25.51262511012853 L376.75 25.51262511012853 L376.75 54.487374889871475 L376.75 54.487374889871475 L376.75 25.51262511012853 Z"></path><path d="M381.75 16.16467537528941 L381.75 16.16467537528941 L381.75 63.835324624710594 L381.75 63.835324624710594 L381.75 16.16467537528941 Z"></path><path d="M386.75 21.78443427734105 L386.75 21.78443427734105 L386.75 58.21556572265895 L386.75 58.21556572265895 L386.75 21.78443427734105 Z"></path><path d="M391.75 25.360904526276407 L391.75 25.360904526276407 L391.75 54.639095473723586 L391.75 54.639095473723586 L391.75 25.360904526276407 Z"></path><path d="M396.75 27.607518722558844 L396.75 27.607518722558844 L396.75 52.392481277441156 L396.75 52.392481277441156 L396.75 27.607518722558844 Z"></path><path d="M401.75 21.308750945008846 L401.75 21.308750945008846 L401.75 58.691249054991154 L401.75 58.691249054991154 L401.75 21.308750945008846 Z"></path><path d="M406.75 19.409248776267294 L406.75 19.409248776267294 L406.75 60.59075122373271 L406.75 60.59075122373271 L406.75 19.409248776267294 Z"></path><path d="M411.75 22.53392600869984 L411.75 22.53392600869984 L411.75 57.46607399130016 L411.75 57.46607399130016 L411.75 22.53392600869984 Z"></path><path d="M416.75 25.379459657989134 L416.75 25.379459657989134 L416.75 54.62054034201087 L416.75 54.62054034201087 L416.75 25.379459657989134 Z"></path><path d="M421.75 25.706344108613255 L421.75 25.706344108613255 L421.75 54.29365589138675 L421.75 54.29365589138675 L421.75 25.706344108613255 Z"></path><path d="M426.75 16.593592579879935 L426.75 16.593592579879935 L426.75 63.40640742012006 L426.75 63.40640742012006 L426.75 16.593592579879935 Z"></path><path d="M431.75 19.759765707719865 L431.75 19.759765707719865 L431.75 60.240234292280135 L431.75 60.240234292280135 L431.75 19.759765707719865 Z"></path><path d="M436.75 24.47495440146904 L436.75 24.47495440146904 L436.75 55.525045598530966 L436.75 55.525045598530966 L436.75 24.47495440146904 Z"></path><path d="M441.75 30.716990871664994 L441.75 30.716990871664994 L441.75 49.28300912833501 L441.75 49.28300912833501 L441.75 30.716990871664994 Z"></path><path d="M446.75 29.67696906105829 L446.75 29.67696906105829 L446.75 50.32303093894171 L446.75 50.32303093894171 L446.75 29.67696906105829 Z"></path><path d="M451.75 31.618257833148334 L451.75 31.618257833148334 L451.75 48.381742166851666 L451.75 48.381742166851666 L451.75 31.618257833148334 Z"></path><path d="M456.75 33.253571638821086 L456.75 33.253571638821086 L456.75 46.746428361178914 L456.75 46.746428361178914 L456.75 33.253571638821086 Z"></path><path d="M461.75 33.64383833204303 L461.75 33.64383833204303 L461.75 46.35616166795696 L461.75 46.35616166795696 L461.75 33.64383833204303 Z"></path><path d="M466.75 28.592887359347706 L466.75 28.592887359347706 L466.75 51.40711264065229 L466.75 51.40711264065229 L466.75 28.592887359347706 Z"></path><path d="M471.75 26.086807781590508 L471.75 26.086807781590508 L471.75 53.91319221840949 L471.75 53.91319221840949 L471.75 26.086807781590508 Z"></path><path d="M476.75 30.07062473793307 L476.75 30.07062473793307 L476.75 49.92937526206693 L476.75 49.92937526206693 L476.75 30.07062473793307 Z"></path><path d="M481.75 31.70662808972236 L481.75 31.70662808972236 L481.75 48.29337191027764 L481.75 48.29337191027764 L481.75 31.70662808972236 Z"></path><path d="M486.75 26.719434092979725 L486.75 26.719434092979725 L486.75 53.280565907020275 L486.75 53.280565907020275 L486.75 26.719434092979725 Z"></path><path d="M491.75 28.56077575189867 L491.75 28.56077575189867 L491.75 51.439224248101326 L491.75 51.439224248101326 L491.75 28.56077575189867 Z"></path><path d="M496.75 34.030443406696165 L496.75 34.030443406696165 L496.75 45.96955659330384 L496.75 45.96955659330384 L496.75 34.030443406696165 Z"></path></svg>