<?xml version="1.0" standalone="no"?><!DOCTYPE svg PUBLIC "-//W3C//DTD SVG 1.1//EN" "http://www.w3.org/Graphics/SVG/1.1/DTD/svg11.dtd"><svg id="511cad2b-bb29-e82b-67ee-ad92b7bf9cb7" xmlns="http://www.w3.org/2000/svg" version="1.1" viewBox="0 0 500 80"><style type="text/css">path{stroke:white;stroke-width:3.5}</style><path d="M1.75 38.98802813573565 L1.75 38.98802813573565 L1.75 41.01197186426435 L1.75 41.01197186426435 L1.75 38.98802813573565 Z"></path><path d="M6.75 38.841772465555785 L6.75 38.841772465555785 L6.75 41.158227534444215 L6.75 41.158227534444215 L6.75 38.841772465555785 Z"></path><path d="M11.75 39.047560347969664 L11.75 39.047560347969664 L11.75 40.952439652030336 L11.75 40.952439652030336 L11.75 39.047560347969664 Z"></path><path d="M16.75 38.8536361045265 L16.75 38.8536361045265 L16.75 41.14636389547349 L16.75 41.14636389547349 L16.75 38.8536361045265 Z"></path><path d="M21.75 31.292462803093688 L21.75 31.292462803093688 L21.75 48.707537196906316 L21.75 48.707537196906316 L21.75 31.292462803093688 Z"></path><path d="M26.75 38.67854853465479 L26.75 38.67854853465479 L26.75 41.32145146534522 L26.75 41.32145146534522 L26.75 38.67854853465479 Z"></path><path d="M31.75 37.656285410262164 L31.75 37.656285410262164 L31.75 42.34371458973784 L31.75 42.34371458973784 L31.75 37.656285410262164 Z"></path><path d="M36.75 5.264562484176693 L36.75 5.264562484176693 L36.75 74.7354375158233 L36.75 74.7354375158233 L36.75 5.264562484176693 Z"></path><path d="M41.75 13.300379562160064 L41.75 13.300379562160064 L41.75 66.69962043783994 L41.75 66.69962043783994 L41.75 13.300379562160064 Z"></path><path d="M46.75 22.608500959670856 L46.75 22.608500959670856 L46.75 57.391499040329144 L46.75 57.391499040329144 L46.75 22.608500959670856 Z"></path><path d="M51.75 9.669511038990017 L51.75 9.669511038990017 L51.75 70.33048896100999 L51.75 70.33048896100999 L51.75 9.669511038990017 Z"></path><path d="M56.75 14.7992614167538 L56.75 14.7992614167538 L56.75 65.20073858324619 L56.75 65.20073858324619 L56.75 14.7992614167538 Z"></path><path d="M61.75 38.756939783857035 L61.75 38.756939783857035 L61.75 41.24306021614297 L61.75 41.24306021614297 L61.75 38.756939783857035 Z"></path><path d="M66.75 21.89318626599529 L66.75 21.89318626599529 L66.75 58.10681373400471 L66.75 58.10681373400471 L66.75 21.89318626599529 Z"></path><path d="M71.75 19.207732248000013 L71.75 19.207732248000013 L71.75 60.79226775199999 L71.75 60.79226775199999 L71.75 19.207732248000013 Z"></path><path d="M76.75 24.23429247449914 L76.75 24.23429247449914 L76.75 55.76570752550086 L76.75 55.76570752550086 L76.75 24.23429247449914 Z"></path><path d="M81.75 15.677064950025322 L81.75 15.677064950025322 L81.75 64.32293504997467 L81.75 64.32293504997467 L81.75 15.677064950025322 Z"></path><path d="M86.75 15.554346788675744 L86.75 15.554346788675744 L86.75 64.44565321132426 L86.75 64.44565321132426 L86.75 15.554346788675744 Z"></path><path d="M91.75 20.08375826793737 L91.75 20.08375826793737 L91.75 59.91624173206263 L91.75 59.91624173206263 L91.75 20.08375826793737 Z"></path><path d="M96.75 25.588476939083776 L96.75 25.588476939083776 L96.75 54.411523060916224 L96.75 54.411523060916224 L96.75 25.588476939083776 Z"></path><path d="M101.75 26.398851289629057 L101.75 26.398851289629057 L101.75 53.60114871037095 L101.75 53.60114871037095 L101.75 26.398851289629057 Z"></path><path d="M106.75 39.09629493954318 L106.75 39.09629493954318 L106.75 40.903705060456815 L106.75 40.903705060456815 L106.75 39.09629493954318 Z"></path><path d="M111.75 35.24082195129811 L111.75 35.24082195129811 L111.75 44.759178048701884 L111.75 44.759178048701884 L111.75 35.24082195129811 Z"></path><path d="M116.75 0 L116.75 0 L116.75 80 L116.75 80 L116.75 0 Z"></path><path d="M121.75 17.82891660414479 L121.75 17.82891660414479 L121.75 62.171083395855206 L121.75 62.171083395855206 L121.75 17.82891660414479 Z"></path><path d="M126.75 22.357197282430544 L126.75 22.357197282430544 L126.75 57.64280271756945 L126.75 57.64280271756945 L126.75 22.357197282430544 Z"></path><path d="M131.75 26.797353509743893 L131.75 26.797353509743893 L131.75 53.20264649025611 L131.75 53.20264649025611 L131.75 26.797353509743893 Z"></path><path d="M136.75 29.402359606932063 L136.75 29.402359606932063 L136.75 50.597640393067934 L136.75 50.597640393067934 L136.75 29.402359606932063 Z"></path><path d="M141.75 29.312302674107116 L141.75 29.312302674107116 L141.75 50.687697325892884 L141.75 50.687697325892884 L141.75 29.312302674107116 Z"></path><path d="M146.75 28.10869201582475 L146.75 28.10869201582475 L146.75 51.89130798417524 L146.75 51.89130798417524 L146.75 28.10869201582475 Z"></path><path d="M151.75 28.355872257417264 L151.75 28.355872257417264 L151.75 51.64412774258274 L151.75 51.64412774258274 L151.75 28.355872257417264 Z"></path><path d="M156.75 29.590997685682186 L156.75 29.590997685682186 L156.75 50.40900231431782 L156.75 50.40900231431782 L156.75 29.590997685682186 Z"></path><path d="M161.75 25.326488411309434 L161.75 25.326488411309434 L161.75 54.67351158869057 L161.75 54.67351158869057 L161.75 25.326488411309434 Z"></path><path d="M166.75 29.23083203788415 L166.75 29.23083203788415 L166.75 50.76916796211586 L166.75 50.76916796211586 L166.75 29.23083203788415 Z"></path><path d="M171.75 28.427448023795556 L171.75 28.427448023795556 L171.75 51.57255197620445 L171.75 51.57255197620445 L171.75 28.427448023795556 Z"></path><path d="M176.75 12.842907281221862 L176.75 12.842907281221862 L176.75 67.15709271877813 L176.75 67.15709271877813 L176.75 12.842907281221862 Z"></path><path d="M181.75 16.225052708735735 L181.75 16.225052708735735 L181.75 63.77494729126427 L181.75 63.77494729126427 L181.75 16.225052708735735 Z"></path><path d="M186.75 28.352138883056952 L186.75 28.352138883056952 L186.75 51.64786111694305 L186.75 51.64786111694305 L186.75 28.352138883056952 Z"></path><path d="M191.75 33.730257465831954 L191.75 33.730257465831954 L191.75 46.26974253416805 L191.75 46.26974253416805 L191.75 33.730257465831954 Z"></path><path d="M196.75 36.61166678966762 L196.75 36.61166678966762 L196.75 43.38833321033237 L196.75 43.38833321033237 L196.75 36.61166678966762 Z"></path><path d="M201.75 39.35847384251527 L201.75 39.35847384251527 L201.75 40.641526157484726 L201.75 40.641526157484726 L201.75 39.35847384251527 Z"></path><path d="M206.75 39.343258934828434 L206.75 39.343258934828434 L206.75 40.656741065171566 L206.75 40.656741065171566 L206.75 39.343258934828434 Z"></path><path d="M211.75 39.27456078199763 L211.75 39.27456078199763 L211.75 40.725439218002364 L211.75 40.725439218002364 L211.75 39.27456078199763 Z"></path><path d="M216.75 39.523094773808026 L216.75 39.523094773808026 L216.75 40.47690522619198 L216.75 40.47690522619198 L216.75 39.523094773808026 Z"></path><path d="M221.75 39.20131603088116 L221.75 39.20131603088116 L221.75 40.79868396911884 L221.75 40.79868396911884 L221.75 39.20131603088116 Z"></path><path d="M226.75 39.348404816203 L226.75 39.348404816203 L226.75 40.65159518379699 L226.75 40.65159518379699 L226.75 39.348404816203 Z"></path><path d="M231.75 39.370821243677106 L231.75 39.370821243677106 L231.75 40.629178756322894 L231.75 40.629178756322894 L231.75 39.370821243677106 Z"></path><path d="M236.75 39.3418649849831 L236.75 39.3418649849831 L236.75 40.6581350150169 L236.75 40.6581350150169 L236.75 39.3418649849831 Z"></path><path d="M241.75 39.510945048746926 L241.75 39.510945048746926 L241.75 40.489054951253074 L241.75 40.489054951253074 L241.75 39.510945048746926 Z"></path><path d="M246.75 39.33456990483421 L246.75 39.33456990483421 L246.75 40.665430095165796 L246.75 40.665430095165796 L246.75 39.33456990483421 Z"></path><path d="M251.75 39.01001984977542 L251.75 39.01001984977542 L251.75 40.98998015022459 L251.75 40.98998015022459 L251.75 39.01001984977542 Z"></path><path d="M256.75 38.93702094099042 L256.75 38.93702094099042 L256.75 41.06297905900958 L256.75 41.06297905900958 L256.75 38.93702094099042 Z"></path><path d="M261.75 39.2696962934101 L261.75 39.2696962934101 L261.75 40.73030370658989 L261.75 40.73030370658989 L261.75 39.2696962934101 Z"></path><path d="M266.75 39.55779681207502 L266.75 39.55779681207502 L266.75 40.442203187924974 L266.75 40.442203187924974 L266.75 39.55779681207502 Z"></path><path d="M271.75 26.951404631555043 L271.75 26.951404631555043 L271.75 53.04859536844495 L271.75 53.04859536844495 L271.75 26.951404631555043 Z"></path><path d="M276.75 38.682036694524136 L276.75 38.682036694524136 L276.75 41.31796330547587 L276.75 41.31796330547587 L276.75 38.682036694524136 Z"></path><path d="M281.75 39.458506403101794 L281.75 39.458506403101794 L281.75 40.5414935968982 L281.75 40.5414935968982 L281.75 39.458506403101794 Z"></path><path d="M286.75 5.946674268777045 L286.75 5.946674268777045 L286.75 74.05332573122296 L286.75 74.05332573122296 L286.75 5.946674268777045 Z"></path><path d="M291.75 7.785500077614344 L291.75 7.785500077614344 L291.75 72.21449992238566 L291.75 72.21449992238566 L291.75 7.785500077614344 Z"></path><path d="M296.75 17.46717422915559 L296.75 17.46717422915559 L296.75 62.53282577084441 L296.75 62.53282577084441 L296.75 17.46717422915559 Z"></path><path d="M301.75 14.750637821769754 L301.75 14.750637821769754 L301.75 65.24936217823024 L301.75 65.24936217823024 L301.75 14.750637821769754 Z"></path><path d="M306.75 9.162054841659607 L306.75 9.162054841659607 L306.75 70.83794515834039 L306.75 70.83794515834039 L306.75 9.162054841659607 Z"></path><path d="M311.75 24.662182433958343 L311.75 24.662182433958343 L311.75 55.33781756604166 L311.75 55.33781756604166 L311.75 24.662182433958343 Z"></path><path d="M316.75 16.069623830637642 L316.75 16.069623830637642 L316.75 63.93037616936236 L316.75 63.93037616936236 L316.75 16.069623830637642 Z"></path><path d="M321.75 18.554905310501447 L321.75 18.554905310501447 L321.75 61.44509468949855 L321.75 61.44509468949855 L321.75 18.554905310501447 Z"></path><path d="M326.75 9.057712288156033 L326.75 9.057712288156033 L326.75 70.94228771184396 L326.75 70.94228771184396 L326.75 9.057712288156033 Z"></path><path d="M331.75 13.745170063764238 L331.75 13.745170063764238 L331.75 66.25482993623577 L331.75 66.25482993623577 L331.75 13.745170063764238 Z"></path><path d="M336.75 18.777722234025013 L336.75 18.777722234025013 L336.75 61.22227776597499 L336.75 61.22227776597499 L336.75 18.777722234025013 Z"></path><path d="M341.75 17.656171503754038 L341.75 17.656171503754038 L341.75 62.34382849624596 L341.75 62.34382849624596 L341.75 17.656171503754038 Z"></path><path d="M346.75 31.16589895960642 L346.75 31.16589895960642 L346.75 48.83410104039358 L346.75 48.83410104039358 L346.75 31.16589895960642 Z"></path><path d="M351.75 23.175497849467764 L351.75 23.175497849467764 L351.75 56.82450215053224 L351.75 56.82450215053224 L351.75 23.175497849467764 Z"></path><path d="M356.75 30.046835446796713 L356.75 30.046835446796713 L356.75 49.95316455320328 L356.75 49.95316455320328 L356.75 30.046835446796713 Z"></path><path d="M361.75 39.404241178305966 L361.75 39.404241178305966 L361.75 40.59575882169404 L361.75 40.59575882169404 L361.75 39.404241178305966 Z"></path><path d="M366.75 7.598102431355919 L366.75 7.598102431355919 L366.75 72.40189756864407 L366.75 72.40189756864407 L366.75 7.598102431355919 Z"></path><path d="M371.75 16.449060492544977 L371.75 16.449060492544977 L371.75 63.55093950745503 L371.75 63.55093950745503 L371.75 16.449060492544977 Z"></path><path d="M376.75 19.867929387307857 L376.75 19.867929387307857 L376.75 60.13207061269215 L376.75 60.13207061269215 L376.75 19.867929387307857 Z"></path><path d="M381.75 22.55325512673927 L381.75 22.55325512673927 L381.75 57.44674487326073 L381.75 57.44674487326073 L381.75 22.55325512673927 Z"></path><path d="M386.75 23.500523637862678 L386.75 23.500523637862678 L386.75 56.49947636213732 L386.75 56.49947636213732 L386.75 23.500523637862678 Z"></path><path d="M391.75 29.49209313488926 L391.75 29.49209313488926 L391.75 50.50790686511074 L391.75 50.50790686511074 L391.75 29.49209313488926 Z"></path><path d="M396.75 25.945912235260582 L396.75 25.945912235260582 L396.75 54.05408776473942 L396.75 54.05408776473942 L396.75 25.945912235260582 Z"></path><path d="M401.75 26.70017689017697 L401.75 26.70017689017697 L401.75 53.29982310982302 L401.75 53.29982310982302 L401.75 26.70017689017697 Z"></path><path d="M406.75 27.587831516788235 L406.75 27.587831516788235 L406.75 52.41216848321176 L406.75 52.41216848321176 L406.75 27.587831516788235 Z"></path><path d="M411.75 21.460747713723535 L411.75 21.460747713723535 L411.75 58.539252286276465 L411.75 58.539252286276465 L411.75 21.460747713723535 Z"></path><path d="M416.75 20.09243697127224 L416.75 20.09243697127224 L416.75 59.907563028727765 L416.75 59.907563028727765 L416.75 20.09243697127224 Z"></path><path d="M421.75 35.62473468101949 L421.75 35.62473468101949 L421.75 44.37526531898051 L421.75 44.37526531898051 L421.75 35.62473468101949 Z"></path><path d="M426.75 13.103917812443335 L426.75 13.103917812443335 L426.75 66.89608218755666 L426.75 66.89608218755666 L426.75 13.103917812443335 Z"></path><path d="M431.75 18.761424511211068 L431.75 18.761424511211068 L431.75 61.23857548878893 L431.75 61.23857548878893 L431.75 18.761424511211068 Z"></path><path d="M436.75 20.57660385996768 L436.75 20.57660385996768 L436.75 59.423396140032324 L436.75 59.423396140032324 L436.75 20.57660385996768 Z"></path><path d="M441.75 12.5432153762413 L441.75 12.5432153762413 L441.75 67.4567846237587 L441.75 67.4567846237587 L441.75 12.5432153762413 Z"></path><path d="M446.75 24.610100476929766 L446.75 24.610100476929766 L446.75 55.389899523070234 L446.75 55.389899523070234 L446.75 24.610100476929766 Z"></path><path d="M451.75 27.649282087616253 L451.75 27.649282087616253 L451.75 52.35071791238374 L451.75 52.35071791238374 L451.75 27.649282087616253 Z"></path><path d="M456.75 30.4340966225717 L456.75 30.4340966225717 L456.75 49.5659033774283 L456.75 49.5659033774283 L456.75 30.4340966225717 Z"></path><path d="M461.75 34.702407550273755 L461.75 34.702407550273755 L461.75 45.297592449726245 L461.75 45.297592449726245 L461.75 34.702407550273755 Z"></path><path d="M466.75 37.19098217362687 L466.75 37.19098217362687 L466.75 42.80901782637313 L466.75 42.80901782637313 L466.75 37.19098217362687 Z"></path><path d="M471.75 38.7573645357172 L471.75 38.7573645357172 L471.75 41.2426354642828 L471.75 41.2426354642828 L471.75 38.7573645357172 Z"></path><path d="M476.75 39.10087219847475 L476.75 39.10087219847475 L476.75 40.899127801525246 L476.75 40.899127801525246 L476.75 39.10087219847475 Z"></path><path d="M481.75 39.27094516247307 L481.75 39.27094516247307 L481.75 40.72905483752693 L481.75 40.72905483752693 L481.75 39.27094516247307 Z"></path><path d="M486.75 39.339999653280806 L486.75 39.339999653280806 L486.75 40.66000034671919 L486.75 40.66000034671919 L486.75 39.339999653280806 Z"></path><path d="M491.75 39.38475506307384 L491.75 39.38475506307384 L491.75 40.61524493692617 L491.75 40.61524493692617 L491.75 39.38475506307384 Z"></path><path d="M496.75 39.555740439495 L496.75 39.555740439495 L496.75 40.444259560505 L496.75 40.444259560505 L496.75 39.555740439495 Z"></path></svg>