<?xml version="1.0" standalone="no"?><!DOCTYPE svg PUBLIC "-//W3C//DTD SVG 1.1//EN" "http://www.w3.org/Graphics/SVG/1.1/DTD/svg11.dtd"><svg id="80c62605-be54-8807-06ba-91f7d85c8a68" xmlns="http://www.w3.org/2000/svg" version="1.1" viewBox="0 0 500 80"><style type="text/css">path{stroke:white;stroke-width:3.5}</style><path d="M1.75 39.6871263451698 L1.75 39.6871263451698 L1.75 40.3128736548302 L1.75 40.3128736548302 L1.75 39.6871263451698 Z"></path><path d="M6.75 38.77740793722174 L6.75 38.77740793722174 L6.75 41.222592062778254 L6.75 41.222592062778254 L6.75 38.77740793722174 Z"></path><path d="M11.75 37.62725691445119 L11.75 37.62725691445119 L11.75 42.37274308554881 L11.75 42.37274308554881 L11.75 37.62725691445119 Z"></path><path d="M16.75 39.400632816204855 L16.75 39.400632816204855 L16.75 40.599367183795145 L16.75 40.599367183795145 L16.75 39.400632816204855 Z"></path><path d="M21.75 39.57819393015051 L21.75 39.57819393015051 L21.75 40.421806069849495 L21.75 40.421806069849495 L21.75 39.57819393015051 Z"></path><path d="M26.75 39.712886715323194 L26.75 39.712886715323194 L26.75 40.2871132846768 L26.75 40.2871132846768 L26.75 39.712886715323194 Z"></path><path d="M31.75 39.591887817727404 L31.75 39.591887817727404 L31.75 40.4081121822726 L31.75 40.4081121822726 L31.75 39.591887817727404 Z"></path><path d="M36.75 20.675174311203953 L36.75 20.675174311203953 L36.75 59.32482568879605 L36.75 59.32482568879605 L36.75 20.675174311203953 Z"></path><path d="M41.75 27.01796148627001 L41.75 27.01796148627001 L41.75 52.98203851372999 L41.75 52.98203851372999 L41.75 27.01796148627001 Z"></path><path d="M46.75 33.567814369105434 L46.75 33.567814369105434 L46.75 46.432185630894566 L46.75 46.432185630894566 L46.75 33.567814369105434 Z"></path><path d="M51.75 39.43720398625791 L51.75 39.43720398625791 L51.75 40.562796013742094 L51.75 40.562796013742094 L51.75 39.43720398625791 Z"></path><path d="M56.75 39.690076803945665 L56.75 39.690076803945665 L56.75 40.309923196054335 L56.75 40.309923196054335 L56.75 39.690076803945665 Z"></path><path d="M61.75 39.68600889798501 L61.75 39.68600889798501 L61.75 40.31399110201499 L61.75 40.31399110201499 L61.75 39.68600889798501 Z"></path><path d="M66.75 26.540270895727524 L66.75 26.540270895727524 L66.75 53.45972910427248 L66.75 53.45972910427248 L66.75 26.540270895727524 Z"></path><path d="M71.75 38.8659321298801 L71.75 38.8659321298801 L71.75 41.1340678701199 L71.75 41.1340678701199 L71.75 38.8659321298801 Z"></path><path d="M76.75 36.26276061799844 L76.75 36.26276061799844 L76.75 43.737239382001555 L76.75 43.737239382001555 L76.75 36.26276061799844 Z"></path><path d="M81.75 39.590385209548394 L81.75 39.590385209548394 L81.75 40.409614790451606 L81.75 40.409614790451606 L81.75 39.590385209548394 Z"></path><path d="M86.75 39.63727058639586 L86.75 39.63727058639586 L86.75 40.36272941360414 L86.75 40.36272941360414 L86.75 39.63727058639586 Z"></path><path d="M91.75 39.023086644600774 L91.75 39.023086644600774 L91.75 40.97691335539922 L91.75 40.97691335539922 L91.75 39.023086644600774 Z"></path><path d="M96.75 39.676815011475355 L96.75 39.676815011475355 L96.75 40.323184988524645 L96.75 40.323184988524645 L96.75 39.676815011475355 Z"></path><path d="M101.75 15.986727831917513 L101.75 15.986727831917513 L101.75 64.0132721680825 L101.75 64.0132721680825 L101.75 15.986727831917513 Z"></path><path d="M106.75 29.229881636667905 L106.75 29.229881636667905 L106.75 50.770118363332095 L106.75 50.770118363332095 L106.75 29.229881636667905 Z"></path><path d="M111.75 34.64306796087699 L111.75 34.64306796087699 L111.75 45.35693203912301 L111.75 45.35693203912301 L111.75 34.64306796087699 Z"></path><path d="M116.75 39.339272998197124 L116.75 39.339272998197124 L116.75 40.660727001802876 L116.75 40.660727001802876 L116.75 39.339272998197124 Z"></path><path d="M121.75 39.56107781832978 L121.75 39.56107781832978 L121.75 40.438922181670215 L121.75 40.438922181670215 L121.75 39.56107781832978 Z"></path><path d="M126.75 39.63837516699813 L126.75 39.63837516699813 L126.75 40.36162483300187 L126.75 40.36162483300187 L126.75 39.63837516699813 Z"></path><path d="M131.75 38.64391248459819 L131.75 38.64391248459819 L131.75 41.35608751540181 L131.75 41.35608751540181 L131.75 38.64391248459819 Z"></path><path d="M136.75 39.404475907009804 L136.75 39.404475907009804 L136.75 40.595524092990196 L136.75 40.595524092990196 L136.75 39.404475907009804 Z"></path><path d="M141.75 37.63516287580707 L141.75 37.63516287580707 L141.75 42.36483712419294 L141.75 42.36483712419294 L141.75 37.63516287580707 Z"></path><path d="M146.75 37.2721370180478 L146.75 37.2721370180478 L146.75 42.7278629819522 L146.75 42.7278629819522 L146.75 37.2721370180478 Z"></path><path d="M151.75 38.77394474665528 L151.75 38.77394474665528 L151.75 41.22605525334471 L151.75 41.22605525334471 L151.75 38.77394474665528 Z"></path><path d="M156.75 39.32787266486687 L156.75 39.32787266486687 L156.75 40.672127335133126 L156.75 40.672127335133126 L156.75 39.32787266486687 Z"></path><path d="M161.75 29.89032830368256 L161.75 29.89032830368256 L161.75 50.109671696317434 L161.75 50.109671696317434 L161.75 29.89032830368256 Z"></path><path d="M166.75 26.468993758826596 L166.75 26.468993758826596 L166.75 53.5310062411734 L166.75 53.5310062411734 L166.75 26.468993758826596 Z"></path><path d="M171.75 30.66109206818814 L171.75 30.66109206818814 L171.75 49.33890793181186 L171.75 49.33890793181186 L171.75 30.66109206818814 Z"></path><path d="M176.75 39.322443746851675 L176.75 39.322443746851675 L176.75 40.67755625314832 L176.75 40.67755625314832 L176.75 39.322443746851675 Z"></path><path d="M181.75 39.653658271578166 L181.75 39.653658271578166 L181.75 40.34634172842183 L181.75 40.34634172842183 L181.75 39.653658271578166 Z"></path><path d="M186.75 39.67591066769763 L186.75 39.67591066769763 L186.75 40.32408933230237 L186.75 40.32408933230237 L186.75 39.67591066769763 Z"></path><path d="M191.75 31.983532408487484 L191.75 31.983532408487484 L191.75 48.016467591512516 L191.75 48.016467591512516 L191.75 31.983532408487484 Z"></path><path d="M196.75 39.18641895553271 L196.75 39.18641895553271 L196.75 40.81358104446729 L196.75 40.81358104446729 L196.75 39.18641895553271 Z"></path><path d="M201.75 30.535335248887414 L201.75 30.535335248887414 L201.75 49.46466475111258 L201.75 49.46466475111258 L201.75 30.535335248887414 Z"></path><path d="M206.75 39.49157505009776 L206.75 39.49157505009776 L206.75 40.508424949902235 L206.75 40.508424949902235 L206.75 39.49157505009776 Z"></path><path d="M211.75 39.253628101644075 L211.75 39.253628101644075 L211.75 40.74637189835592 L211.75 40.74637189835592 L211.75 39.253628101644075 Z"></path><path d="M216.75 39.67591241861539 L216.75 39.67591241861539 L216.75 40.32408758138462 L216.75 40.32408758138462 L216.75 39.67591241861539 Z"></path><path d="M221.75 39.647383897259694 L221.75 39.647383897259694 L221.75 40.35261610274031 L221.75 40.35261610274031 L221.75 39.647383897259694 Z"></path><path d="M226.75 23.38855888144959 L226.75 23.38855888144959 L226.75 56.61144111855041 L226.75 56.61144111855041 L226.75 23.38855888144959 Z"></path><path d="M231.75 26.95000925450295 L231.75 26.95000925450295 L231.75 53.04999074549705 L231.75 53.04999074549705 L231.75 26.95000925450295 Z"></path><path d="M236.75 36.94868041390513 L236.75 36.94868041390513 L236.75 43.05131958609487 L236.75 43.05131958609487 L236.75 36.94868041390513 Z"></path><path d="M241.75 39.357690411771316 L241.75 39.357690411771316 L241.75 40.642309588228684 L241.75 40.642309588228684 L241.75 39.357690411771316 Z"></path><path d="M246.75 39.68578086896474 L246.75 39.68578086896474 L246.75 40.31421913103526 L246.75 40.31421913103526 L246.75 39.68578086896474 Z"></path><path d="M251.75 39.706485348967426 L251.75 39.706485348967426 L251.75 40.29351465103257 L251.75 40.29351465103257 L251.75 39.706485348967426 Z"></path><path d="M256.75 36.674246711065045 L256.75 36.674246711065045 L256.75 43.32575328893495 L256.75 43.32575328893495 L256.75 36.674246711065045 Z"></path><path d="M261.75 37.51707098321595 L261.75 37.51707098321595 L261.75 42.48292901678405 L261.75 42.48292901678405 L261.75 37.51707098321595 Z"></path><path d="M266.75 37.35286325199227 L266.75 37.35286325199227 L266.75 42.647136748007725 L266.75 42.647136748007725 L266.75 37.35286325199227 Z"></path><path d="M271.75 39.663266888906826 L271.75 39.663266888906826 L271.75 40.33673311109317 L271.75 40.33673311109317 L271.75 39.663266888906826 Z"></path><path d="M276.75 39.7101694984827 L276.75 39.7101694984827 L276.75 40.28983050151731 L276.75 40.28983050151731 L276.75 39.7101694984827 Z"></path><path d="M281.75 39.70881671750572 L281.75 39.70881671750572 L281.75 40.29118328249429 L281.75 40.29118328249429 L281.75 39.70881671750572 Z"></path><path d="M286.75 26.317100638357715 L286.75 26.317100638357715 L286.75 53.682899361642285 L286.75 53.682899361642285 L286.75 26.317100638357715 Z"></path><path d="M291.75 23.58284861498312 L291.75 23.58284861498312 L291.75 56.41715138501688 L291.75 56.41715138501688 L291.75 23.58284861498312 Z"></path><path d="M296.75 31.89898717074421 L296.75 31.89898717074421 L296.75 48.101012829255794 L296.75 48.101012829255794 L296.75 31.89898717074421 Z"></path><path d="M301.75 38.84357775439964 L301.75 38.84357775439964 L301.75 41.15642224560037 L301.75 41.15642224560037 L301.75 38.84357775439964 Z"></path><path d="M306.75 39.64113172747575 L306.75 39.64113172747575 L306.75 40.358868272524255 L306.75 40.358868272524255 L306.75 39.64113172747575 Z"></path><path d="M311.75 39.675288523453 L311.75 39.675288523453 L311.75 40.324711476547 L311.75 40.324711476547 L311.75 39.675288523453 Z"></path><path d="M316.75 39.68004566118325 L316.75 39.68004566118325 L316.75 40.31995433881676 L316.75 40.31995433881676 L316.75 39.68004566118325 Z"></path><path d="M321.75 39.061163971307614 L321.75 39.061163971307614 L321.75 40.93883602869238 L321.75 40.93883602869238 L321.75 39.061163971307614 Z"></path><path d="M326.75 21.928514492436673 L326.75 21.928514492436673 L326.75 58.071485507563324 L326.75 58.071485507563324 L326.75 21.928514492436673 Z"></path><path d="M331.75 39.366338771356375 L331.75 39.366338771356375 L331.75 40.633661228643625 L331.75 40.633661228643625 L331.75 39.366338771356375 Z"></path><path d="M336.75 39.74294030547012 L336.75 39.74294030547012 L336.75 40.25705969452988 L336.75 40.25705969452988 L336.75 39.74294030547012 Z"></path><path d="M341.75 39.71525654317868 L341.75 39.71525654317868 L341.75 40.28474345682132 L341.75 40.28474345682132 L341.75 39.71525654317868 Z"></path><path d="M346.75 39.71340786130666 L346.75 39.71340786130666 L346.75 40.28659213869334 L346.75 40.28659213869334 L346.75 39.71340786130666 Z"></path><path d="M351.75 20.991288910877447 L351.75 20.991288910877447 L351.75 59.008711089122556 L351.75 59.008711089122556 L351.75 20.991288910877447 Z"></path><path d="M356.75 18.924865702929576 L356.75 18.924865702929576 L356.75 61.07513429707042 L356.75 61.07513429707042 L356.75 18.924865702929576 Z"></path><path d="M361.75 27.794457163431964 L361.75 27.794457163431964 L361.75 52.20554283656804 L361.75 52.20554283656804 L361.75 27.794457163431964 Z"></path><path d="M366.75 39.1540937444333 L366.75 39.1540937444333 L366.75 40.8459062555667 L366.75 40.8459062555667 L366.75 39.1540937444333 Z"></path><path d="M371.75 39.626285059110074 L371.75 39.626285059110074 L371.75 40.37371494088992 L371.75 40.37371494088992 L371.75 39.626285059110074 Z"></path><path d="M376.75 39.67618528830255 L376.75 39.67618528830255 L376.75 40.32381471169746 L376.75 40.32381471169746 L376.75 39.67618528830255 Z"></path><path d="M381.75 34.21590477974932 L381.75 34.21590477974932 L381.75 45.78409522025068 L381.75 45.78409522025068 L381.75 34.21590477974932 Z"></path><path d="M386.75 0 L386.75 0 L386.75 80 L386.75 80 L386.75 0 Z"></path><path d="M391.75 34.51196749128199 L391.75 34.51196749128199 L391.75 45.48803250871801 L391.75 45.48803250871801 L391.75 34.51196749128199 Z"></path><path d="M396.75 39.36085883926491 L396.75 39.36085883926491 L396.75 40.639141160735086 L396.75 40.639141160735086 L396.75 39.36085883926491 Z"></path><path d="M401.75 39.6192117619265 L401.75 39.6192117619265 L401.75 40.38078823807351 L401.75 40.38078823807351 L401.75 39.6192117619265 Z"></path><path d="M406.75 39.70426742500025 L406.75 39.70426742500025 L406.75 40.29573257499975 L406.75 40.29573257499975 L406.75 39.70426742500025 Z"></path><path d="M411.75 34.411927404141 L411.75 34.411927404141 L411.75 45.588072595859 L411.75 45.588072595859 L411.75 34.411927404141 Z"></path><path d="M416.75 22.451624936228928 L416.75 22.451624936228928 L416.75 57.548375063771076 L416.75 57.548375063771076 L416.75 22.451624936228928 Z"></path><path d="M421.75 28.930784390246444 L421.75 28.930784390246444 L421.75 51.069215609753556 L421.75 51.069215609753556 L421.75 28.930784390246444 Z"></path><path d="M426.75 38.3329681542518 L426.75 38.3329681542518 L426.75 41.667031845748205 L426.75 41.667031845748205 L426.75 38.3329681542518 Z"></path><path d="M431.75 39.65516799562962 L431.75 39.65516799562962 L431.75 40.34483200437038 L431.75 40.34483200437038 L431.75 39.65516799562962 Z"></path><path d="M436.75 39.71513876770142 L436.75 39.71513876770142 L436.75 40.28486123229858 L436.75 40.28486123229858 L436.75 39.71513876770142 Z"></path><path d="M441.75 39.71278022878172 L441.75 39.71278022878172 L441.75 40.28721977121828 L441.75 40.28721977121828 L441.75 39.71278022878172 Z"></path><path d="M446.75 39.039084799263954 L446.75 39.039084799263954 L446.75 40.960915200736046 L446.75 40.960915200736046 L446.75 39.039084799263954 Z"></path><path d="M451.75 27.838462666024796 L451.75 27.838462666024796 L451.75 52.161537333975204 L451.75 52.161537333975204 L451.75 27.838462666024796 Z"></path><path d="M456.75 37.548775145336535 L456.75 37.548775145336535 L456.75 42.45122485466347 L456.75 42.45122485466347 L456.75 37.548775145336535 Z"></path><path d="M461.75 39.66717386925359 L461.75 39.66717386925359 L461.75 40.33282613074641 L461.75 40.33282613074641 L461.75 39.66717386925359 Z"></path><path d="M466.75 39.527686304503476 L466.75 39.527686304503476 L466.75 40.47231369549652 L466.75 40.47231369549652 L466.75 39.527686304503476 Z"></path><path d="M471.75 39.69610720067804 L471.75 39.69610720067804 L471.75 40.303892799321964 L471.75 40.303892799321964 L471.75 39.69610720067804 Z"></path><path d="M476.75 15.065114342813999 L476.75 15.065114342813999 L476.75 64.934885657186 L476.75 64.934885657186 L476.75 15.065114342813999 Z"></path><path d="M481.75 21.5001803307703 L481.75 21.5001803307703 L481.75 58.4998196692297 L481.75 58.4998196692297 L481.75 21.5001803307703 Z"></path><path d="M486.75 32.175726920739436 L486.75 32.175726920739436 L486.75 47.82427307926057 L486.75 47.82427307926057 L486.75 32.175726920739436 Z"></path><path d="M491.75 39.00721532841566 L491.75 39.00721532841566 L491.75 40.99278467158434 L491.75 40.99278467158434 L491.75 39.00721532841566 Z"></path><path d="M496.75 39.67826250633093 L496.75 39.67826250633093 L496.75 40.32173749366907 L496.75 40.32173749366907 L496.75 39.67826250633093 Z"></path></svg>