<?xml version="1.0" standalone="no"?><!DOCTYPE svg PUBLIC "-//W3C//DTD SVG 1.1//EN" "http://www.w3.org/Graphics/SVG/1.1/DTD/svg11.dtd"><svg id="caa0118b-2c4f-7e34-08b8-5d2efc749c0c" xmlns="http://www.w3.org/2000/svg" version="1.1" viewBox="0 0 500 80"><style type="text/css">path{stroke:white;stroke-width:3.5}</style><path d="M1.75 38.855031164172026 L1.75 38.855031164172026 L1.75 41.14496883582798 L1.75 41.14496883582798 L1.75 38.855031164172026 Z"></path><path d="M6.75 39.562789490661274 L6.75 39.562789490661274 L6.75 40.437210509338726 L6.75 40.437210509338726 L6.75 39.562789490661274 Z"></path><path d="M11.75 27.061335641105742 L11.75 27.061335641105742 L11.75 52.93866435889426 L11.75 52.93866435889426 L11.75 27.061335641105742 Z"></path><path d="M16.75 30.583829864551074 L16.75 30.583829864551074 L16.75 49.41617013544892 L16.75 49.41617013544892 L16.75 30.583829864551074 Z"></path><path d="M21.75 19.103449044181662 L21.75 19.103449044181662 L21.75 60.89655095581834 L21.75 60.89655095581834 L21.75 19.103449044181662 Z"></path><path d="M26.75 24.21120398469577 L26.75 24.21120398469577 L26.75 55.78879601530423 L26.75 55.78879601530423 L26.75 24.21120398469577 Z"></path><path d="M31.75 39.412479799664155 L31.75 39.412479799664155 L31.75 40.58752020033585 L31.75 40.58752020033585 L31.75 39.412479799664155 Z"></path><path d="M36.75 39.4939229977318 L36.75 39.4939229977318 L36.75 40.5060770022682 L36.75 40.5060770022682 L36.75 39.4939229977318 Z"></path><path d="M41.75 34.88550543763861 L41.75 34.88550543763861 L41.75 45.11449456236139 L41.75 45.11449456236139 L41.75 34.88550543763861 Z"></path><path d="M46.75 38.973459912189846 L46.75 38.973459912189846 L46.75 41.026540087810154 L46.75 41.026540087810154 L46.75 38.973459912189846 Z"></path><path d="M51.75 39.381466905673264 L51.75 39.381466905673264 L51.75 40.61853309432673 L51.75 40.61853309432673 L51.75 39.381466905673264 Z"></path><path d="M56.75 39.45645606923695 L56.75 39.45645606923695 L56.75 40.54354393076305 L56.75 40.54354393076305 L56.75 39.45645606923695 Z"></path><path d="M61.75 39.55669594914471 L61.75 39.55669594914471 L61.75 40.44330405085528 L61.75 40.44330405085528 L61.75 39.55669594914471 Z"></path><path d="M66.75 38.77732647644202 L66.75 38.77732647644202 L66.75 41.22267352355798 L66.75 41.22267352355798 L66.75 38.77732647644202 Z"></path><path d="M71.75 16.881119682094464 L71.75 16.881119682094464 L71.75 63.118880317905536 L71.75 63.118880317905536 L71.75 16.881119682094464 Z"></path><path d="M76.75 14.466219253446187 L76.75 14.466219253446187 L76.75 65.53378074655382 L76.75 65.53378074655382 L76.75 14.466219253446187 Z"></path><path d="M81.75 38.07042880797226 L81.75 38.07042880797226 L81.75 41.92957119202774 L81.75 41.92957119202774 L81.75 38.07042880797226 Z"></path><path d="M86.75 39.47180252309753 L86.75 39.47180252309753 L86.75 40.52819747690247 L86.75 40.52819747690247 L86.75 39.47180252309753 Z"></path><path d="M91.75 39.190489116074254 L91.75 39.190489116074254 L91.75 40.80951088392574 L91.75 40.80951088392574 L91.75 39.190489116074254 Z"></path><path d="M96.75 39.57791253647953 L96.75 39.57791253647953 L96.75 40.42208746352047 L96.75 40.42208746352047 L96.75 39.57791253647953 Z"></path><path d="M101.75 39.39203104995074 L101.75 39.39203104995074 L101.75 40.60796895004926 L101.75 40.60796895004926 L101.75 39.39203104995074 Z"></path><path d="M106.75 39.20092092322037 L106.75 39.20092092322037 L106.75 40.799079076779634 L106.75 40.799079076779634 L106.75 39.20092092322037 Z"></path><path d="M111.75 39.55928240368607 L111.75 39.55928240368607 L111.75 40.44071759631394 L111.75 40.44071759631394 L111.75 39.55928240368607 Z"></path><path d="M116.75 35.92718128811171 L116.75 35.92718128811171 L116.75 44.07281871188828 L116.75 44.07281871188828 L116.75 35.92718128811171 Z"></path><path d="M121.75 38.94947781095026 L121.75 38.94947781095026 L121.75 41.05052218904974 L121.75 41.05052218904974 L121.75 38.94947781095026 Z"></path><path d="M126.75 38.59729617038087 L126.75 38.59729617038087 L126.75 41.40270382961913 L126.75 41.40270382961913 L126.75 38.59729617038087 Z"></path><path d="M131.75 33.88713778406252 L131.75 33.88713778406252 L131.75 46.11286221593748 L131.75 46.11286221593748 L131.75 33.88713778406252 Z"></path><path d="M136.75 0 L136.75 0 L136.75 80 L136.75 80 L136.75 0 Z"></path><path d="M141.75 14.332359895379767 L141.75 14.332359895379767 L141.75 65.66764010462023 L141.75 65.66764010462023 L141.75 14.332359895379767 Z"></path><path d="M146.75 22.614221252083713 L146.75 22.614221252083713 L146.75 57.38577874791629 L146.75 57.38577874791629 L146.75 22.614221252083713 Z"></path><path d="M151.75 39.31523083615554 L151.75 39.31523083615554 L151.75 40.68476916384445 L151.75 40.68476916384445 L151.75 39.31523083615554 Z"></path><path d="M156.75 39.579889541385555 L156.75 39.579889541385555 L156.75 40.42011045861445 L156.75 40.42011045861445 L156.75 39.579889541385555 Z"></path><path d="M161.75 2.3828545806178596 L161.75 2.3828545806178596 L161.75 77.61714541938214 L161.75 77.61714541938214 L161.75 2.3828545806178596 Z"></path><path d="M166.75 24.18856120805986 L166.75 24.18856120805986 L166.75 55.81143879194014 L166.75 55.81143879194014 L166.75 24.18856120805986 Z"></path><path d="M171.75 11.202988062357345 L171.75 11.202988062357345 L171.75 68.79701193764265 L171.75 68.79701193764265 L171.75 11.202988062357345 Z"></path><path d="M176.75 24.24770657154677 L176.75 24.24770657154677 L176.75 55.75229342845323 L176.75 55.75229342845323 L176.75 24.24770657154677 Z"></path><path d="M181.75 36.548238700777084 L181.75 36.548238700777084 L181.75 43.451761299222916 L181.75 43.451761299222916 L181.75 36.548238700777084 Z"></path><path d="M186.75 39.50843025821144 L186.75 39.50843025821144 L186.75 40.49156974178855 L186.75 40.49156974178855 L186.75 39.50843025821144 Z"></path><path d="M191.75 2.9438025003104187 L191.75 2.9438025003104187 L191.75 77.05619749968957 L191.75 77.05619749968957 L191.75 2.9438025003104187 Z"></path><path d="M196.75 36.624387958124366 L196.75 36.624387958124366 L196.75 43.37561204187563 L196.75 43.37561204187563 L196.75 36.624387958124366 Z"></path><path d="M201.75 39.53947416231946 L201.75 39.53947416231946 L201.75 40.46052583768054 L201.75 40.46052583768054 L201.75 39.53947416231946 Z"></path><path d="M206.75 39.498659513012235 L206.75 39.498659513012235 L206.75 40.50134048698777 L206.75 40.50134048698777 L206.75 39.498659513012235 Z"></path><path d="M211.75 39.50445387745238 L211.75 39.50445387745238 L211.75 40.495546122547616 L211.75 40.495546122547616 L211.75 39.50445387745238 Z"></path><path d="M216.75 39.59541358016386 L216.75 39.59541358016386 L216.75 40.40458641983614 L216.75 40.40458641983614 L216.75 39.59541358016386 Z"></path><path d="M221.75 39.393958422192455 L221.75 39.393958422192455 L221.75 40.60604157780755 L221.75 40.60604157780755 L221.75 39.393958422192455 Z"></path><path d="M226.75 39.19930397134074 L226.75 39.19930397134074 L226.75 40.80069602865925 L226.75 40.80069602865925 L226.75 39.19930397134074 Z"></path><path d="M231.75 39.482192397585465 L231.75 39.482192397585465 L231.75 40.51780760241453 L231.75 40.51780760241453 L231.75 39.482192397585465 Z"></path><path d="M236.75 39.54389696490981 L236.75 39.54389696490981 L236.75 40.45610303509018 L236.75 40.45610303509018 L236.75 39.54389696490981 Z"></path><path d="M241.75 39.50424631396768 L241.75 39.50424631396768 L241.75 40.49575368603232 L241.75 40.49575368603232 L241.75 39.50424631396768 Z"></path><path d="M246.75 39.611107556274334 L246.75 39.611107556274334 L246.75 40.38889244372567 L246.75 40.38889244372567 L246.75 39.611107556274334 Z"></path><path d="M251.75 39.61167591260926 L251.75 39.61167591260926 L251.75 40.38832408739074 L251.75 40.38832408739074 L251.75 39.61167591260926 Z"></path><path d="M256.75 19.77497059001791 L256.75 19.77497059001791 L256.75 60.225029409982085 L256.75 60.225029409982085 L256.75 19.77497059001791 Z"></path><path d="M261.75 10.747186070291278 L261.75 10.747186070291278 L261.75 69.25281392970872 L261.75 69.25281392970872 L261.75 10.747186070291278 Z"></path><path d="M266.75 35.99926125682218 L266.75 35.99926125682218 L266.75 44.00073874317781 L266.75 44.00073874317781 L266.75 35.99926125682218 Z"></path><path d="M271.75 38.12807012562363 L271.75 38.12807012562363 L271.75 41.87192987437636 L271.75 41.87192987437636 L271.75 38.12807012562363 Z"></path><path d="M276.75 38.469861676624944 L276.75 38.469861676624944 L276.75 41.530138323375056 L276.75 41.530138323375056 L276.75 38.469861676624944 Z"></path><path d="M281.75 38.834690552415985 L281.75 38.834690552415985 L281.75 41.16530944758401 L281.75 41.16530944758401 L281.75 38.834690552415985 Z"></path><path d="M286.75 38.44633755161105 L286.75 38.44633755161105 L286.75 41.55366244838895 L286.75 41.55366244838895 L286.75 38.44633755161105 Z"></path><path d="M291.75 39.33248552856202 L291.75 39.33248552856202 L291.75 40.66751447143798 L291.75 40.66751447143798 L291.75 39.33248552856202 Z"></path><path d="M296.75 39.46226888533492 L296.75 39.46226888533492 L296.75 40.537731114665085 L296.75 40.537731114665085 L296.75 39.46226888533492 Z"></path><path d="M301.75 39.52516264805325 L301.75 39.52516264805325 L301.75 40.47483735194675 L301.75 40.47483735194675 L301.75 39.52516264805325 Z"></path><path d="M306.75 39.54809585773154 L306.75 39.54809585773154 L306.75 40.451904142268454 L306.75 40.451904142268454 L306.75 39.54809585773154 Z"></path><path d="M311.75 39.39041664006966 L311.75 39.39041664006966 L311.75 40.60958335993034 L311.75 40.60958335993034 L311.75 39.39041664006966 Z"></path><path d="M316.75 39.57353198563762 L316.75 39.57353198563762 L316.75 40.42646801436237 L316.75 40.42646801436237 L316.75 39.57353198563762 Z"></path><path d="M321.75 39.543792655113705 L321.75 39.543792655113705 L321.75 40.4562073448863 L321.75 40.4562073448863 L321.75 39.543792655113705 Z"></path><path d="M326.75 17.305258245727025 L326.75 17.305258245727025 L326.75 62.694741754272975 L326.75 62.694741754272975 L326.75 17.305258245727025 Z"></path><path d="M331.75 38.71631492384045 L331.75 38.71631492384045 L331.75 41.28368507615956 L331.75 41.28368507615956 L331.75 38.71631492384045 Z"></path><path d="M336.75 39.426422595652475 L336.75 39.426422595652475 L336.75 40.573577404347525 L336.75 40.573577404347525 L336.75 39.426422595652475 Z"></path><path d="M341.75 39.464941153681735 L341.75 39.464941153681735 L341.75 40.535058846318265 L341.75 40.535058846318265 L341.75 39.464941153681735 Z"></path><path d="M346.75 39.34325328820998 L346.75 39.34325328820998 L346.75 40.656746711790014 L346.75 40.656746711790014 L346.75 39.34325328820998 Z"></path><path d="M351.75 39.49604799552452 L351.75 39.49604799552452 L351.75 40.50395200447547 L351.75 40.50395200447547 L351.75 39.49604799552452 Z"></path><path d="M356.75 39.1758366660993 L356.75 39.1758366660993 L356.75 40.8241633339007 L356.75 40.8241633339007 L356.75 39.1758366660993 Z"></path><path d="M361.75 39.52048381346854 L361.75 39.52048381346854 L361.75 40.47951618653147 L361.75 40.47951618653147 L361.75 39.52048381346854 Z"></path><path d="M366.75 39.45894540145918 L366.75 39.45894540145918 L366.75 40.541054598540825 L366.75 40.541054598540825 L366.75 39.45894540145918 Z"></path><path d="M371.75 39.26150114108287 L371.75 39.26150114108287 L371.75 40.73849885891714 L371.75 40.73849885891714 L371.75 39.26150114108287 Z"></path><path d="M376.75 37.43212205203532 L376.75 37.43212205203532 L376.75 42.56787794796469 L376.75 42.56787794796469 L376.75 37.43212205203532 Z"></path><path d="M381.75 39.45966486555482 L381.75 39.45966486555482 L381.75 40.54033513444518 L381.75 40.54033513444518 L381.75 39.45966486555482 Z"></path><path d="M386.75 39.31161680373795 L386.75 39.31161680373795 L386.75 40.68838319626205 L386.75 40.68838319626205 L386.75 39.31161680373795 Z"></path><path d="M391.75 20.443714495148075 L391.75 20.443714495148075 L391.75 59.55628550485193 L391.75 59.55628550485193 L391.75 20.443714495148075 Z"></path><path d="M396.75 31.840413396634762 L396.75 31.840413396634762 L396.75 48.15958660336524 L396.75 48.15958660336524 L396.75 31.840413396634762 Z"></path><path d="M401.75 30.843977828718113 L401.75 30.843977828718113 L401.75 49.15602217128189 L401.75 49.15602217128189 L401.75 30.843977828718113 Z"></path><path d="M406.75 37.28901436889378 L406.75 37.28901436889378 L406.75 42.71098563110622 L406.75 42.71098563110622 L406.75 37.28901436889378 Z"></path><path d="M411.75 39.56212855613791 L411.75 39.56212855613791 L411.75 40.437871443862086 L411.75 40.437871443862086 L411.75 39.56212855613791 Z"></path><path d="M416.75 29.77244623902658 L416.75 29.77244623902658 L416.75 50.22755376097342 L416.75 50.22755376097342 L416.75 29.77244623902658 Z"></path><path d="M421.75 34.19617970488091 L421.75 34.19617970488091 L421.75 45.803820295119095 L421.75 45.803820295119095 L421.75 34.19617970488091 Z"></path><path d="M426.75 17.946626281117645 L426.75 17.946626281117645 L426.75 62.053373718882355 L426.75 62.053373718882355 L426.75 17.946626281117645 Z"></path><path d="M431.75 20.068289107408056 L431.75 20.068289107408056 L431.75 59.931710892591944 L431.75 59.931710892591944 L431.75 20.068289107408056 Z"></path><path d="M436.75 37.11836911643439 L436.75 37.11836911643439 L436.75 42.88163088356561 L436.75 42.88163088356561 L436.75 37.11836911643439 Z"></path><path d="M441.75 39.60044426801322 L441.75 39.60044426801322 L441.75 40.39955573198678 L441.75 40.39955573198678 L441.75 39.60044426801322 Z"></path><path d="M446.75 24.02687197776701 L446.75 24.02687197776701 L446.75 55.973128022232984 L446.75 55.973128022232984 L446.75 24.02687197776701 Z"></path><path d="M451.75 38.768345170648814 L451.75 38.768345170648814 L451.75 41.23165482935118 L451.75 41.23165482935118 L451.75 38.768345170648814 Z"></path><path d="M456.75 38.912271161223366 L456.75 38.912271161223366 L456.75 41.087728838776634 L456.75 41.087728838776634 L456.75 38.912271161223366 Z"></path><path d="M461.75 39.24317169047082 L461.75 39.24317169047082 L461.75 40.756828309529176 L461.75 40.756828309529176 L461.75 39.24317169047082 Z"></path><path d="M466.75 39.5560998502528 L466.75 39.5560998502528 L466.75 40.4439001497472 L466.75 40.4439001497472 L466.75 39.5560998502528 Z"></path><path d="M471.75 39.58849352931697 L471.75 39.58849352931697 L471.75 40.41150647068303 L471.75 40.41150647068303 L471.75 39.58849352931697 Z"></path><path d="M476.75 39.58384855116384 L476.75 39.58384855116384 L476.75 40.41615144883617 L476.75 40.41615144883617 L476.75 39.58384855116384 Z"></path><path d="M481.75 39.572641102164276 L481.75 39.572641102164276 L481.75 40.42735889783573 L481.75 40.42735889783573 L481.75 39.572641102164276 Z"></path><path d="M486.75 39.10611401366981 L486.75 39.10611401366981 L486.75 40.89388598633019 L486.75 40.89388598633019 L486.75 39.10611401366981 Z"></path><path d="M491.75 39.267277370020516 L491.75 39.267277370020516 L491.75 40.73272262997948 L491.75 40.73272262997948 L491.75 39.267277370020516 Z"></path><path d="M496.75 39.49744512943774 L496.75 39.49744512943774 L496.75 40.50255487056226 L496.75 40.50255487056226 L496.75 39.49744512943774 Z"></path></svg>