<?xml version="1.0" standalone="no"?><!DOCTYPE svg PUBLIC "-//W3C//DTD SVG 1.1//EN" "http://www.w3.org/Graphics/SVG/1.1/DTD/svg11.dtd"><svg id="d60b10b5-6dba-a244-c105-83dc776d3621" xmlns="http://www.w3.org/2000/svg" version="1.1" viewBox="0 0 500 80"><style type="text/css">path{stroke:white;stroke-width:3.5}</style><path d="M1.75 39.329667486885036 L1.75 39.329667486885036 L1.75 40.67033251311497 L1.75 40.67033251311497 L1.75 39.329667486885036 Z"></path><path d="M6.75 39.096723268286425 L6.75 39.096723268286425 L6.75 40.903276731713575 L6.75 40.903276731713575 L6.75 39.096723268286425 Z"></path><path d="M11.75 19.15623702352376 L11.75 19.15623702352376 L11.75 60.84376297647624 L11.75 60.84376297647624 L11.75 19.15623702352376 Z"></path><path d="M16.75 16.212027970231723 L16.75 16.212027970231723 L16.75 63.78797202976828 L16.75 63.78797202976828 L16.75 16.212027970231723 Z"></path><path d="M21.75 8.732893719836998 L21.75 8.732893719836998 L21.75 71.267106280163 L21.75 71.267106280163 L21.75 8.732893719836998 Z"></path><path d="M26.75 9.327748007327788 L26.75 9.327748007327788 L26.75 70.67225199267222 L26.75 70.67225199267222 L26.75 9.327748007327788 Z"></path><path d="M31.75 9.557214414720779 L31.75 9.557214414720779 L31.75 70.44278558527922 L31.75 70.44278558527922 L31.75 9.557214414720779 Z"></path><path d="M36.75 7.803741879820386 L36.75 7.803741879820386 L36.75 72.1962581201796 L36.75 72.1962581201796 L36.75 7.803741879820386 Z"></path><path d="M41.75 6.544607879063612 L41.75 6.544607879063612 L41.75 73.45539212093638 L41.75 73.45539212093638 L41.75 6.544607879063612 Z"></path><path d="M46.75 10.02109600324718 L46.75 10.02109600324718 L46.75 69.97890399675282 L46.75 69.97890399675282 L46.75 10.02109600324718 Z"></path><path d="M51.75 8.93565307180232 L51.75 8.93565307180232 L51.75 71.06434692819768 L51.75 71.06434692819768 L51.75 8.93565307180232 Z"></path><path d="M56.75 6.904636917766005 L56.75 6.904636917766005 L56.75 73.095363082234 L56.75 73.095363082234 L56.75 6.904636917766005 Z"></path><path d="M61.75 6.512164961521144 L61.75 6.512164961521144 L61.75 73.48783503847886 L61.75 73.48783503847886 L61.75 6.512164961521144 Z"></path><path d="M66.75 8.712124956023715 L66.75 8.712124956023715 L66.75 71.28787504397629 L66.75 71.28787504397629 L66.75 8.712124956023715 Z"></path><path d="M71.75 13.452195235555966 L71.75 13.452195235555966 L71.75 66.54780476444404 L71.75 66.54780476444404 L71.75 13.452195235555966 Z"></path><path d="M76.75 13.779759676515429 L76.75 13.779759676515429 L76.75 66.22024032348457 L76.75 66.22024032348457 L76.75 13.779759676515429 Z"></path><path d="M81.75 14.661655502223052 L81.75 14.661655502223052 L81.75 65.33834449777694 L81.75 65.33834449777694 L81.75 14.661655502223052 Z"></path><path d="M86.75 14.395615946093383 L86.75 14.395615946093383 L86.75 65.60438405390661 L86.75 65.60438405390661 L86.75 14.395615946093383 Z"></path><path d="M91.75 17.278568466970743 L91.75 17.278568466970743 L91.75 62.72143153302926 L91.75 62.72143153302926 L91.75 17.278568466970743 Z"></path><path d="M96.75 16.332127279832847 L96.75 16.332127279832847 L96.75 63.66787272016715 L96.75 63.66787272016715 L96.75 16.332127279832847 Z"></path><path d="M101.75 14.630443600760678 L101.75 14.630443600760678 L101.75 65.36955639923931 L101.75 65.36955639923931 L101.75 14.630443600760678 Z"></path><path d="M106.75 14.441121370055217 L106.75 14.441121370055217 L106.75 65.55887862994479 L106.75 65.55887862994479 L106.75 14.441121370055217 Z"></path><path d="M111.75 15.62989081430987 L111.75 15.62989081430987 L111.75 64.37010918569013 L111.75 64.37010918569013 L111.75 15.62989081430987 Z"></path><path d="M116.75 20.11077417152185 L116.75 20.11077417152185 L116.75 59.889225828478146 L116.75 59.889225828478146 L116.75 20.11077417152185 Z"></path><path d="M121.75 21.43625598846853 L121.75 21.43625598846853 L121.75 58.56374401153147 L121.75 58.56374401153147 L121.75 21.43625598846853 Z"></path><path d="M126.75 22.400096761215643 L126.75 22.400096761215643 L126.75 57.59990323878436 L126.75 57.59990323878436 L126.75 22.400096761215643 Z"></path><path d="M131.75 23.28514766941951 L131.75 23.28514766941951 L131.75 56.71485233058049 L131.75 56.71485233058049 L131.75 23.28514766941951 Z"></path><path d="M136.75 20.49504752216205 L136.75 20.49504752216205 L136.75 59.504952477837946 L136.75 59.504952477837946 L136.75 20.49504752216205 Z"></path><path d="M141.75 16.84887026183995 L141.75 16.84887026183995 L141.75 63.15112973816005 L141.75 63.15112973816005 L141.75 16.84887026183995 Z"></path><path d="M146.75 18.465198478203973 L146.75 18.465198478203973 L146.75 61.53480152179603 L146.75 61.53480152179603 L146.75 18.465198478203973 Z"></path><path d="M151.75 20.87127140826177 L151.75 20.87127140826177 L151.75 59.12872859173823 L151.75 59.12872859173823 L151.75 20.87127140826177 Z"></path><path d="M156.75 18.788988017936465 L156.75 18.788988017936465 L156.75 61.21101198206354 L156.75 61.21101198206354 L156.75 18.788988017936465 Z"></path><path d="M161.75 21.223395882254298 L161.75 21.223395882254298 L161.75 58.776604117745705 L161.75 58.776604117745705 L161.75 21.223395882254298 Z"></path><path d="M166.75 21.32416988663269 L166.75 21.32416988663269 L166.75 58.67583011336731 L166.75 58.67583011336731 L166.75 21.32416988663269 Z"></path><path d="M171.75 20.652399648456715 L171.75 20.652399648456715 L171.75 59.347600351543285 L171.75 59.347600351543285 L171.75 20.652399648456715 Z"></path><path d="M176.75 22.134436724555 L176.75 22.134436724555 L176.75 57.865563275445 L176.75 57.865563275445 L176.75 22.134436724555 Z"></path><path d="M181.75 21.052731017353945 L181.75 21.052731017353945 L181.75 58.94726898264605 L181.75 58.94726898264605 L181.75 21.052731017353945 Z"></path><path d="M186.75 23.704503648344176 L186.75 23.704503648344176 L186.75 56.29549635165583 L186.75 56.29549635165583 L186.75 23.704503648344176 Z"></path><path d="M191.75 22.141642530916506 L191.75 22.141642530916506 L191.75 57.858357469083494 L191.75 57.858357469083494 L191.75 22.141642530916506 Z"></path><path d="M196.75 22.580314938455704 L196.75 22.580314938455704 L196.75 57.4196850615443 L196.75 57.4196850615443 L196.75 22.580314938455704 Z"></path><path d="M201.75 23.95812529897245 L201.75 23.95812529897245 L201.75 56.04187470102755 L201.75 56.04187470102755 L201.75 23.95812529897245 Z"></path><path d="M206.75 25.08463334292503 L206.75 25.08463334292503 L206.75 54.91536665707497 L206.75 54.91536665707497 L206.75 25.08463334292503 Z"></path><path d="M211.75 25.114585978476057 L211.75 25.114585978476057 L211.75 54.88541402152394 L211.75 54.88541402152394 L211.75 25.114585978476057 Z"></path><path d="M216.75 25.734757926949676 L216.75 25.734757926949676 L216.75 54.26524207305032 L216.75 54.26524207305032 L216.75 25.734757926949676 Z"></path><path d="M221.75 27.06982958203902 L221.75 27.06982958203902 L221.75 52.93017041796098 L221.75 52.93017041796098 L221.75 27.06982958203902 Z"></path><path d="M226.75 26.962795370426143 L226.75 26.962795370426143 L226.75 53.03720462957386 L226.75 53.03720462957386 L226.75 26.962795370426143 Z"></path><path d="M231.75 26.952249948768248 L231.75 26.952249948768248 L231.75 53.047750051231745 L231.75 53.047750051231745 L231.75 26.952249948768248 Z"></path><path d="M236.75 26.97571947909482 L236.75 26.97571947909482 L236.75 53.02428052090518 L236.75 53.02428052090518 L236.75 26.97571947909482 Z"></path><path d="M241.75 26.590020689964753 L241.75 26.590020689964753 L241.75 53.40997931003525 L241.75 53.40997931003525 L241.75 26.590020689964753 Z"></path><path d="M246.75 28.01317780002875 L246.75 28.01317780002875 L246.75 51.98682219997126 L246.75 51.98682219997126 L246.75 28.01317780002875 Z"></path><path d="M251.75 21.89965558228268 L251.75 21.89965558228268 L251.75 58.100344417717324 L251.75 58.100344417717324 L251.75 21.89965558228268 Z"></path><path d="M256.75 16.936663778680646 L256.75 16.936663778680646 L256.75 63.063336221319354 L256.75 63.063336221319354 L256.75 16.936663778680646 Z"></path><path d="M261.75 21.930823083638426 L261.75 21.930823083638426 L261.75 58.06917691636157 L261.75 58.06917691636157 L261.75 21.930823083638426 Z"></path><path d="M266.75 17.77474977891255 L266.75 17.77474977891255 L266.75 62.22525022108745 L266.75 62.22525022108745 L266.75 17.77474977891255 Z"></path><path d="M271.75 15.581608469169783 L271.75 15.581608469169783 L271.75 64.41839153083022 L271.75 64.41839153083022 L271.75 15.581608469169783 Z"></path><path d="M276.75 17.93724903793306 L276.75 17.93724903793306 L276.75 62.06275096206694 L276.75 62.06275096206694 L276.75 17.93724903793306 Z"></path><path d="M281.75 20.28288854367296 L281.75 20.28288854367296 L281.75 59.71711145632704 L281.75 59.71711145632704 L281.75 20.28288854367296 Z"></path><path d="M286.75 14.040621053044106 L286.75 14.040621053044106 L286.75 65.9593789469559 L286.75 65.9593789469559 L286.75 14.040621053044106 Z"></path><path d="M291.75 20.387158566639968 L291.75 20.387158566639968 L291.75 59.61284143336003 L291.75 59.61284143336003 L291.75 20.387158566639968 Z"></path><path d="M296.75 23.18087611231051 L296.75 23.18087611231051 L296.75 56.819123887689486 L296.75 56.819123887689486 L296.75 23.18087611231051 Z"></path><path d="M301.75 27.451940312845814 L301.75 27.451940312845814 L301.75 52.548059687154186 L301.75 52.548059687154186 L301.75 27.451940312845814 Z"></path><path d="M306.75 22.57148322316787 L306.75 22.57148322316787 L306.75 57.428516776832126 L306.75 57.428516776832126 L306.75 22.57148322316787 Z"></path><path d="M311.75 18.659307127235675 L311.75 18.659307127235675 L311.75 61.34069287276432 L311.75 61.34069287276432 L311.75 18.659307127235675 Z"></path><path d="M316.75 21.22232784432764 L316.75 21.22232784432764 L316.75 58.77767215567236 L316.75 58.77767215567236 L316.75 21.22232784432764 Z"></path><path d="M321.75 20.043117301405374 L321.75 20.043117301405374 L321.75 59.956882698594626 L321.75 59.956882698594626 L321.75 20.043117301405374 Z"></path><path d="M326.75 18.168132122412434 L326.75 18.168132122412434 L326.75 61.83186787758757 L326.75 61.83186787758757 L326.75 18.168132122412434 Z"></path><path d="M331.75 18.44714555534271 L331.75 18.44714555534271 L331.75 61.552854444657285 L331.75 61.552854444657285 L331.75 18.44714555534271 Z"></path><path d="M336.75 19.246013352732692 L336.75 19.246013352732692 L336.75 60.75398664726731 L336.75 60.75398664726731 L336.75 19.246013352732692 Z"></path><path d="M341.75 18.013750553194978 L341.75 18.013750553194978 L341.75 61.98624944680502 L341.75 61.98624944680502 L341.75 18.013750553194978 Z"></path><path d="M346.75 25.270853383948833 L346.75 25.270853383948833 L346.75 54.72914661605117 L346.75 54.72914661605117 L346.75 25.270853383948833 Z"></path><path d="M351.75 19.704420947922024 L351.75 19.704420947922024 L351.75 60.295579052077976 L351.75 60.295579052077976 L351.75 19.704420947922024 Z"></path><path d="M356.75 20.48312236188109 L356.75 20.48312236188109 L356.75 59.51687763811891 L356.75 59.51687763811891 L356.75 20.48312236188109 Z"></path><path d="M361.75 19.858201619468577 L361.75 19.858201619468577 L361.75 60.14179838053143 L361.75 60.14179838053143 L361.75 19.858201619468577 Z"></path><path d="M366.75 19.430076391300727 L366.75 19.430076391300727 L366.75 60.56992360869927 L366.75 60.56992360869927 L366.75 19.430076391300727 Z"></path><path d="M371.75 18.039452892933298 L371.75 18.039452892933298 L371.75 61.9605471070667 L371.75 61.9605471070667 L371.75 18.039452892933298 Z"></path><path d="M376.75 16.524416817062445 L376.75 16.524416817062445 L376.75 63.475583182937555 L376.75 63.475583182937555 L376.75 16.524416817062445 Z"></path><path d="M381.75 16.72683361528384 L381.75 16.72683361528384 L381.75 63.27316638471616 L381.75 63.27316638471616 L381.75 16.72683361528384 Z"></path><path d="M386.75 16.616099393879065 L386.75 16.616099393879065 L386.75 63.38390060612093 L386.75 63.38390060612093 L386.75 16.616099393879065 Z"></path><path d="M391.75 15.742782796821785 L391.75 15.742782796821785 L391.75 64.25721720317821 L391.75 64.25721720317821 L391.75 15.742782796821785 Z"></path><path d="M396.75 16.370234238336703 L396.75 16.370234238336703 L396.75 63.62976576166329 L396.75 63.62976576166329 L396.75 16.370234238336703 Z"></path><path d="M401.75 21.6812484091763 L401.75 21.6812484091763 L401.75 58.3187515908237 L401.75 58.3187515908237 L401.75 21.6812484091763 Z"></path><path d="M406.75 21.017474175030568 L406.75 21.017474175030568 L406.75 58.98252582496943 L406.75 58.98252582496943 L406.75 21.017474175030568 Z"></path><path d="M411.75 20.75847482208146 L411.75 20.75847482208146 L411.75 59.24152517791854 L411.75 59.24152517791854 L411.75 20.75847482208146 Z"></path><path d="M416.75 20.421966850899697 L416.75 20.421966850899697 L416.75 59.57803314910031 L416.75 59.57803314910031 L416.75 20.421966850899697 Z"></path><path d="M421.75 17.20086361694237 L421.75 17.20086361694237 L421.75 62.79913638305763 L421.75 62.79913638305763 L421.75 17.20086361694237 Z"></path><path d="M426.75 16.88573930129766 L426.75 16.88573930129766 L426.75 63.11426069870234 L426.75 63.11426069870234 L426.75 16.88573930129766 Z"></path><path d="M431.75 16.767932267484987 L431.75 16.767932267484987 L431.75 63.23206773251501 L431.75 63.23206773251501 L431.75 16.767932267484987 Z"></path><path d="M436.75 10.914861416044893 L436.75 10.914861416044893 L436.75 69.08513858395511 L436.75 69.08513858395511 L436.75 10.914861416044893 Z"></path><path d="M441.75 17.67947383162134 L441.75 17.67947383162134 L441.75 62.32052616837866 L441.75 62.32052616837866 L441.75 17.67947383162134 Z"></path><path d="M446.75 24.46751308582204 L446.75 24.46751308582204 L446.75 55.532486914177966 L446.75 55.532486914177966 L446.75 24.46751308582204 Z"></path><path d="M451.75 0 L451.75 0 L451.75 80 L451.75 80 L451.75 0 Z"></path><path d="M456.75 7.93419261533154 L456.75 7.93419261533154 L456.75 72.06580738466846 L456.75 72.06580738466846 L456.75 7.93419261533154 Z"></path><path d="M461.75 18.571732209706475 L461.75 18.571732209706475 L461.75 61.428267790293525 L461.75 61.428267790293525 L461.75 18.571732209706475 Z"></path><path d="M466.75 21.689370677611983 L466.75 21.689370677611983 L466.75 58.31062932238802 L466.75 58.31062932238802 L466.75 21.689370677611983 Z"></path><path d="M471.75 23.402831416742657 L471.75 23.402831416742657 L471.75 56.59716858325734 L471.75 56.59716858325734 L471.75 23.402831416742657 Z"></path><path d="M476.75 20.03630455529561 L476.75 20.03630455529561 L476.75 59.963695444704385 L476.75 59.963695444704385 L476.75 20.03630455529561 Z"></path><path d="M481.75 19.3139856756489 L481.75 19.3139856756489 L481.75 60.6860143243511 L481.75 60.6860143243511 L481.75 19.3139856756489 Z"></path><path d="M486.75 18.214705510433298 L486.75 18.214705510433298 L486.75 61.7852944895667 L486.75 61.7852944895667 L486.75 18.214705510433298 Z"></path><path d="M491.75 13.991068077450407 L491.75 13.991068077450407 L491.75 66.00893192254959 L491.75 66.00893192254959 L491.75 13.991068077450407 Z"></path><path d="M496.75 14.987280405802807 L496.75 14.987280405802807 L496.75 65.0127195941972 L496.75 65.0127195941972 L496.75 14.987280405802807 Z"></path></svg>