<?xml version="1.0" standalone="no"?><!DOCTYPE svg PUBLIC "-//W3C//DTD SVG 1.1//EN" "http://www.w3.org/Graphics/SVG/1.1/DTD/svg11.dtd"><svg id="7a06a5b7-77cc-1217-aea4-97f182af85cc" xmlns="http://www.w3.org/2000/svg" version="1.1" viewBox="0 0 500 80"><style type="text/css">path{stroke:white;stroke-width:3.5}</style><path d="M1.75 39.10849304314198 L1.75 39.10849304314198 L1.75 40.891506956858024 L1.75 40.891506956858024 L1.75 39.10849304314198 Z"></path><path d="M6.75 31.59258284348151 L6.75 31.59258284348151 L6.75 48.40741715651849 L6.75 48.40741715651849 L6.75 31.59258284348151 Z"></path><path d="M11.75 22.75413340918389 L11.75 22.75413340918389 L11.75 57.24586659081611 L11.75 57.24586659081611 L11.75 22.75413340918389 Z"></path><path d="M16.75 31.263121509121603 L16.75 31.263121509121603 L16.75 48.7368784908784 L16.75 48.7368784908784 L16.75 31.263121509121603 Z"></path><path d="M21.75 32.29466164564075 L21.75 32.29466164564075 L21.75 47.705338354359256 L21.75 47.705338354359256 L21.75 32.29466164564075 Z"></path><path d="M26.75 16.157814100242586 L26.75 16.157814100242586 L26.75 63.84218589975741 L26.75 63.84218589975741 L26.75 16.157814100242586 Z"></path><path d="M31.75 21.4746198253364 L31.75 21.4746198253364 L31.75 58.525380174663596 L31.75 58.525380174663596 L31.75 21.4746198253364 Z"></path><path d="M36.75 18.887292900810866 L36.75 18.887292900810866 L36.75 61.11270709918914 L36.75 61.11270709918914 L36.75 18.887292900810866 Z"></path><path d="M41.75 10.883561902542272 L41.75 10.883561902542272 L41.75 69.11643809745773 L41.75 69.11643809745773 L41.75 10.883561902542272 Z"></path><path d="M46.75 15.960512012597349 L46.75 15.960512012597349 L46.75 64.03948798740265 L46.75 64.03948798740265 L46.75 15.960512012597349 Z"></path><path d="M51.75 23.53805066321646 L51.75 23.53805066321646 L51.75 56.46194933678354 L51.75 56.46194933678354 L51.75 23.53805066321646 Z"></path><path d="M56.75 20.648461443914737 L56.75 20.648461443914737 L56.75 59.35153855608526 L56.75 59.35153855608526 L56.75 20.648461443914737 Z"></path><path d="M61.75 19.517018605582997 L61.75 19.517018605582997 L61.75 60.482981394417 L61.75 60.482981394417 L61.75 19.517018605582997 Z"></path><path d="M66.75 25.567038123617934 L66.75 25.567038123617934 L66.75 54.432961876382066 L66.75 54.432961876382066 L66.75 25.567038123617934 Z"></path><path d="M71.75 7.69715514685052 L71.75 7.69715514685052 L71.75 72.30284485314948 L71.75 72.30284485314948 L71.75 7.69715514685052 Z"></path><path d="M76.75 0 L76.75 0 L76.75 80 L76.75 80 L76.75 0 Z"></path><path d="M81.75 15.573996805199137 L81.75 15.573996805199137 L81.75 64.42600319480087 L81.75 64.42600319480087 L81.75 15.573996805199137 Z"></path><path d="M86.75 11.999279967608988 L86.75 11.999279967608988 L86.75 68.00072003239102 L86.75 68.00072003239102 L86.75 11.999279967608988 Z"></path><path d="M91.75 25.992620375817125 L91.75 25.992620375817125 L91.75 54.007379624182875 L91.75 54.007379624182875 L91.75 25.992620375817125 Z"></path><path d="M96.75 24.038155313026692 L96.75 24.038155313026692 L96.75 55.96184468697331 L96.75 55.96184468697331 L96.75 24.038155313026692 Z"></path><path d="M101.75 23.28025153111618 L101.75 23.28025153111618 L101.75 56.71974846888382 L101.75 56.71974846888382 L101.75 23.28025153111618 Z"></path><path d="M106.75 25.016582319747055 L106.75 25.016582319747055 L106.75 54.98341768025294 L106.75 54.98341768025294 L106.75 25.016582319747055 Z"></path><path d="M111.75 26.885526075456074 L111.75 26.885526075456074 L111.75 53.11447392454393 L111.75 53.11447392454393 L111.75 26.885526075456074 Z"></path><path d="M116.75 5.665428096950109 L116.75 5.665428096950109 L116.75 74.33457190304989 L116.75 74.33457190304989 L116.75 5.665428096950109 Z"></path><path d="M121.75 13.323158924109304 L121.75 13.323158924109304 L121.75 66.67684107589069 L121.75 66.67684107589069 L121.75 13.323158924109304 Z"></path><path d="M126.75 16.3824520734392 L126.75 16.3824520734392 L126.75 63.6175479265608 L126.75 63.6175479265608 L126.75 16.3824520734392 Z"></path><path d="M131.75 18.96541755855727 L131.75 18.96541755855727 L131.75 61.03458244144273 L131.75 61.03458244144273 L131.75 18.96541755855727 Z"></path><path d="M136.75 22.464599064397333 L136.75 22.464599064397333 L136.75 57.53540093560267 L136.75 57.53540093560267 L136.75 22.464599064397333 Z"></path><path d="M141.75 29.053950620528376 L141.75 29.053950620528376 L141.75 50.94604937947163 L141.75 50.94604937947163 L141.75 29.053950620528376 Z"></path><path d="M146.75 29.45341334959219 L146.75 29.45341334959219 L146.75 50.54658665040781 L146.75 50.54658665040781 L146.75 29.45341334959219 Z"></path><path d="M151.75 18.03304968484241 L151.75 18.03304968484241 L151.75 61.96695031515759 L151.75 61.96695031515759 L151.75 18.03304968484241 Z"></path><path d="M156.75 14.898150634246456 L156.75 14.898150634246456 L156.75 65.10184936575354 L156.75 65.10184936575354 L156.75 14.898150634246456 Z"></path><path d="M161.75 18.661507599220645 L161.75 18.661507599220645 L161.75 61.33849240077936 L161.75 61.33849240077936 L161.75 18.661507599220645 Z"></path><path d="M166.75 22.4194394497582 L166.75 22.4194394497582 L166.75 57.5805605502418 L166.75 57.5805605502418 L166.75 22.4194394497582 Z"></path><path d="M171.75 24.845314576350503 L171.75 24.845314576350503 L171.75 55.1546854236495 L171.75 55.1546854236495 L171.75 24.845314576350503 Z"></path><path d="M176.75 24.371506846343166 L176.75 24.371506846343166 L176.75 55.628493153656834 L176.75 55.628493153656834 L176.75 24.371506846343166 Z"></path><path d="M181.75 21.528709850807548 L181.75 21.528709850807548 L181.75 58.471290149192455 L181.75 58.471290149192455 L181.75 21.528709850807548 Z"></path><path d="M186.75 23.704222551423697 L186.75 23.704222551423697 L186.75 56.2957774485763 L186.75 56.2957774485763 L186.75 23.704222551423697 Z"></path><path d="M191.75 31.621496859027577 L191.75 31.621496859027577 L191.75 48.37850314097243 L191.75 48.37850314097243 L191.75 31.621496859027577 Z"></path><path d="M196.75 19.58448208466853 L196.75 19.58448208466853 L196.75 60.41551791533147 L196.75 60.41551791533147 L196.75 19.58448208466853 Z"></path><path d="M201.75 22.92246340104234 L201.75 22.92246340104234 L201.75 57.077536598957664 L201.75 57.077536598957664 L201.75 22.92246340104234 Z"></path><path d="M206.75 25.107625257015584 L206.75 25.107625257015584 L206.75 54.892374742984416 L206.75 54.892374742984416 L206.75 25.107625257015584 Z"></path><path d="M211.75 24.21667296826429 L211.75 24.21667296826429 L211.75 55.78332703173571 L211.75 55.78332703173571 L211.75 24.21667296826429 Z"></path><path d="M216.75 22.87870687323228 L216.75 22.87870687323228 L216.75 57.121293126767725 L216.75 57.121293126767725 L216.75 22.87870687323228 Z"></path><path d="M221.75 21.43294147618956 L221.75 21.43294147618956 L221.75 58.567058523810445 L221.75 58.567058523810445 L221.75 21.43294147618956 Z"></path><path d="M226.75 21.997176691275737 L226.75 21.997176691275737 L226.75 58.00282330872426 L226.75 58.00282330872426 L226.75 21.997176691275737 Z"></path><path d="M231.75 24.06102171829923 L231.75 24.06102171829923 L231.75 55.93897828170077 L231.75 55.93897828170077 L231.75 24.06102171829923 Z"></path><path d="M236.75 24.473992964438374 L236.75 24.473992964438374 L236.75 55.526007035561626 L236.75 55.526007035561626 L236.75 24.473992964438374 Z"></path><path d="M241.75 22.388360045724397 L241.75 22.388360045724397 L241.75 57.6116399542756 L241.75 57.6116399542756 L241.75 22.388360045724397 Z"></path><path d="M246.75 21.181489010095834 L246.75 21.181489010095834 L246.75 58.81851098990417 L246.75 58.81851098990417 L246.75 21.181489010095834 Z"></path><path d="M251.75 23.797499636355518 L251.75 23.797499636355518 L251.75 56.20250036364448 L251.75 56.20250036364448 L251.75 23.797499636355518 Z"></path><path d="M256.75 31.30752406380412 L256.75 31.30752406380412 L256.75 48.692475936195876 L256.75 48.692475936195876 L256.75 31.30752406380412 Z"></path><path d="M261.75 23.83474878018669 L261.75 23.83474878018669 L261.75 56.165251219813314 L261.75 56.165251219813314 L261.75 23.83474878018669 Z"></path><path d="M266.75 32.3690146530733 L266.75 32.3690146530733 L266.75 47.63098534692671 L266.75 47.63098534692671 L266.75 32.3690146530733 Z"></path><path d="M271.75 31.436318565733785 L271.75 31.436318565733785 L271.75 48.563681434266215 L271.75 48.563681434266215 L271.75 31.436318565733785 Z"></path><path d="M276.75 15.564457032818805 L276.75 15.564457032818805 L276.75 64.43554296718119 L276.75 64.43554296718119 L276.75 15.564457032818805 Z"></path><path d="M281.75 29.005173586256113 L281.75 29.005173586256113 L281.75 50.994826413743894 L281.75 50.994826413743894 L281.75 29.005173586256113 Z"></path><path d="M286.75 23.42270939917404 L286.75 23.42270939917404 L286.75 56.57729060082596 L286.75 56.57729060082596 L286.75 23.42270939917404 Z"></path><path d="M291.75 15.890257598550328 L291.75 15.890257598550328 L291.75 64.10974240144967 L291.75 64.10974240144967 L291.75 15.890257598550328 Z"></path><path d="M296.75 21.064990706017365 L296.75 21.064990706017365 L296.75 58.93500929398263 L296.75 58.93500929398263 L296.75 21.064990706017365 Z"></path><path d="M301.75 24.587311057229385 L301.75 24.587311057229385 L301.75 55.412688942770615 L301.75 55.412688942770615 L301.75 24.587311057229385 Z"></path><path d="M306.75 19.99232935073586 L306.75 19.99232935073586 L306.75 60.00767064926414 L306.75 60.00767064926414 L306.75 19.99232935073586 Z"></path><path d="M311.75 25.56705982358966 L311.75 25.56705982358966 L311.75 54.43294017641034 L311.75 54.43294017641034 L311.75 25.56705982358966 Z"></path><path d="M316.75 32.91598282863378 L316.75 32.91598282863378 L316.75 47.08401717136621 L316.75 47.08401717136621 L316.75 32.91598282863378 Z"></path><path d="M321.75 5.1586271527129455 L321.75 5.1586271527129455 L321.75 74.84137284728706 L321.75 74.84137284728706 L321.75 5.1586271527129455 Z"></path><path d="M326.75 10.704766018389698 L326.75 10.704766018389698 L326.75 69.2952339816103 L326.75 69.2952339816103 L326.75 10.704766018389698 Z"></path><path d="M331.75 13.593449580876435 L331.75 13.593449580876435 L331.75 66.40655041912356 L331.75 66.40655041912356 L331.75 13.593449580876435 Z"></path><path d="M336.75 15.744982371999932 L336.75 15.744982371999932 L336.75 64.25501762800008 L336.75 64.25501762800008 L336.75 15.744982371999932 Z"></path><path d="M341.75 19.03740457434597 L341.75 19.03740457434597 L341.75 60.96259542565403 L341.75 60.96259542565403 L341.75 19.03740457434597 Z"></path><path d="M346.75 23.48995091765268 L346.75 23.48995091765268 L346.75 56.51004908234732 L346.75 56.51004908234732 L346.75 23.48995091765268 Z"></path><path d="M351.75 27.465409072664002 L351.75 27.465409072664002 L351.75 52.534590927336 L351.75 52.534590927336 L351.75 27.465409072664002 Z"></path><path d="M356.75 23.877656761159223 L356.75 23.877656761159223 L356.75 56.12234323884078 L356.75 56.12234323884078 L356.75 23.877656761159223 Z"></path><path d="M361.75 28.70743117473821 L361.75 28.70743117473821 L361.75 51.29256882526178 L361.75 51.29256882526178 L361.75 28.70743117473821 Z"></path><path d="M366.75 13.257844034290788 L366.75 13.257844034290788 L366.75 66.74215596570922 L366.75 66.74215596570922 L366.75 13.257844034290788 Z"></path><path d="M371.75 10.509341556955544 L371.75 10.509341556955544 L371.75 69.49065844304445 L371.75 69.49065844304445 L371.75 10.509341556955544 Z"></path><path d="M376.75 14.533257868763425 L376.75 14.533257868763425 L376.75 65.46674213123657 L376.75 65.46674213123657 L376.75 14.533257868763425 Z"></path><path d="M381.75 20.197207514524226 L381.75 20.197207514524226 L381.75 59.80279248547578 L381.75 59.80279248547578 L381.75 20.197207514524226 Z"></path><path d="M386.75 18.227222565974493 L386.75 18.227222565974493 L386.75 61.77277743402551 L386.75 61.77277743402551 L386.75 18.227222565974493 Z"></path><path d="M391.75 25.287381884309166 L391.75 25.287381884309166 L391.75 54.71261811569083 L391.75 54.71261811569083 L391.75 25.287381884309166 Z"></path><path d="M396.75 25.541395520556094 L396.75 25.541395520556094 L396.75 54.458604479443906 L396.75 54.458604479443906 L396.75 25.541395520556094 Z"></path><path d="M401.75 23.215321624997507 L401.75 23.215321624997507 L401.75 56.78467837500249 L401.75 56.78467837500249 L401.75 23.215321624997507 Z"></path><path d="M406.75 23.50470694528188 L406.75 23.50470694528188 L406.75 56.49529305471812 L406.75 56.49529305471812 L406.75 23.50470694528188 Z"></path><path d="M411.75 17.709808851138963 L411.75 17.709808851138963 L411.75 62.29019114886104 L411.75 62.29019114886104 L411.75 17.709808851138963 Z"></path><path d="M416.75 24.087945486241683 L416.75 24.087945486241683 L416.75 55.91205451375832 L416.75 55.91205451375832 L416.75 24.087945486241683 Z"></path><path d="M421.75 24.080563161940255 L421.75 24.080563161940255 L421.75 55.91943683805974 L421.75 55.91943683805974 L421.75 24.080563161940255 Z"></path><path d="M426.75 27.393465219989984 L426.75 27.393465219989984 L426.75 52.606534780010016 L426.75 52.606534780010016 L426.75 27.393465219989984 Z"></path><path d="M431.75 22.723399342060592 L431.75 22.723399342060592 L431.75 57.27660065793941 L431.75 57.27660065793941 L431.75 22.723399342060592 Z"></path><path d="M436.75 19.49578849976722 L436.75 19.49578849976722 L436.75 60.504211500232785 L436.75 60.504211500232785 L436.75 19.49578849976722 Z"></path><path d="M441.75 19.85231725206615 L441.75 19.85231725206615 L441.75 60.14768274793385 L441.75 60.14768274793385 L441.75 19.85231725206615 Z"></path><path d="M446.75 24.1773482176444 L446.75 24.1773482176444 L446.75 55.8226517823556 L446.75 55.8226517823556 L446.75 24.1773482176444 Z"></path><path d="M451.75 28.28179844885264 L451.75 28.28179844885264 L451.75 51.71820155114736 L451.75 51.71820155114736 L451.75 28.28179844885264 Z"></path><path d="M456.75 25.854839434189742 L456.75 25.854839434189742 L456.75 54.14516056581026 L456.75 54.14516056581026 L456.75 25.854839434189742 Z"></path><path d="M461.75 24.1089579650499 L461.75 24.1089579650499 L461.75 55.891042034950104 L461.75 55.891042034950104 L461.75 24.1089579650499 Z"></path><path d="M466.75 27.951208320833707 L466.75 27.951208320833707 L466.75 52.04879167916629 L466.75 52.04879167916629 L466.75 27.951208320833707 Z"></path><path d="M471.75 24.335484382637034 L471.75 24.335484382637034 L471.75 55.664515617362966 L471.75 55.664515617362966 L471.75 24.335484382637034 Z"></path><path d="M476.75 25.32566890700061 L476.75 25.32566890700061 L476.75 54.674331092999395 L476.75 54.674331092999395 L476.75 25.32566890700061 Z"></path><path d="M481.75 24.337500696010643 L481.75 24.337500696010643 L481.75 55.662499303989364 L481.75 55.662499303989364 L481.75 24.337500696010643 Z"></path><path d="M486.75 24.03859564985786 L486.75 24.03859564985786 L486.75 55.96140435014213 L486.75 55.96140435014213 L486.75 24.03859564985786 Z"></path><path d="M491.75 18.77472398964769 L491.75 18.77472398964769 L491.75 61.22527601035231 L491.75 61.22527601035231 L491.75 18.77472398964769 Z"></path><path d="M496.75 18.771535885432495 L496.75 18.771535885432495 L496.75 61.2284641145675 L496.75 61.2284641145675 L496.75 18.771535885432495 Z"></path></svg>