<?xml version="1.0" standalone="no"?><!DOCTYPE svg PUBLIC "-//W3C//DTD SVG 1.1//EN" "http://www.w3.org/Graphics/SVG/1.1/DTD/svg11.dtd"><svg id="c7655905-5dc7-49fc-9fd4-f0b641ca7f63" xmlns="http://www.w3.org/2000/svg" version="1.1" viewBox="0 0 500 80"><style type="text/css">path{stroke:white;stroke-width:3.5}</style><path d="M1.75 39.143266806525354 L1.75 39.143266806525354 L1.75 40.856733193474646 L1.75 40.856733193474646 L1.75 39.143266806525354 Z"></path><path d="M6.75 39.23613220532438 L6.75 39.23613220532438 L6.75 40.76386779467562 L6.75 40.76386779467562 L6.75 39.23613220532438 Z"></path><path d="M11.75 22.151117715753603 L11.75 22.151117715753603 L11.75 57.8488822842464 L11.75 57.8488822842464 L11.75 22.151117715753603 Z"></path><path d="M16.75 10.242561302727438 L16.75 10.242561302727438 L16.75 69.75743869727256 L16.75 69.75743869727256 L16.75 10.242561302727438 Z"></path><path d="M21.75 17.617106044820993 L21.75 17.617106044820993 L21.75 62.38289395517901 L21.75 62.38289395517901 L21.75 17.617106044820993 Z"></path><path d="M26.75 32.45185217721199 L26.75 32.45185217721199 L26.75 47.54814782278802 L26.75 47.54814782278802 L26.75 32.45185217721199 Z"></path><path d="M31.75 36.15134459551513 L31.75 36.15134459551513 L31.75 43.84865540448487 L31.75 43.84865540448487 L31.75 36.15134459551513 Z"></path><path d="M36.75 3.0955933673781217 L36.75 3.0955933673781217 L36.75 76.90440663262189 L36.75 76.90440663262189 L36.75 3.0955933673781217 Z"></path><path d="M41.75 18.287354296698247 L41.75 18.287354296698247 L41.75 61.71264570330175 L41.75 61.71264570330175 L41.75 18.287354296698247 Z"></path><path d="M46.75 18.401653295725122 L46.75 18.401653295725122 L46.75 61.598346704274874 L46.75 61.598346704274874 L46.75 18.401653295725122 Z"></path><path d="M51.75 26.262557004391624 L51.75 26.262557004391624 L51.75 53.737442995608376 L51.75 53.737442995608376 L51.75 26.262557004391624 Z"></path><path d="M56.75 29.224115310959643 L56.75 29.224115310959643 L56.75 50.77588468904035 L56.75 50.77588468904035 L56.75 29.224115310959643 Z"></path><path d="M61.75 35.9648169625878 L61.75 35.9648169625878 L61.75 44.035183037412196 L61.75 44.035183037412196 L61.75 35.9648169625878 Z"></path><path d="M66.75 39.4403817917422 L66.75 39.4403817917422 L66.75 40.559618208257795 L66.75 40.559618208257795 L66.75 39.4403817917422 Z"></path><path d="M71.75 22.224117004643826 L71.75 22.224117004643826 L71.75 57.77588299535617 L71.75 57.77588299535617 L71.75 22.224117004643826 Z"></path><path d="M76.75 35.238611803604016 L76.75 35.238611803604016 L76.75 44.761388196395984 L76.75 44.761388196395984 L76.75 35.238611803604016 Z"></path><path d="M81.75 39.32324109832466 L81.75 39.32324109832466 L81.75 40.67675890167534 L81.75 40.67675890167534 L81.75 39.32324109832466 Z"></path><path d="M86.75 32.61670936744849 L86.75 32.61670936744849 L86.75 47.383290632551514 L86.75 47.383290632551514 L86.75 32.61670936744849 Z"></path><path d="M91.75 39.45353608366632 L91.75 39.45353608366632 L91.75 40.54646391633367 L91.75 40.54646391633367 L91.75 39.45353608366632 Z"></path><path d="M96.75 39.59586531321103 L96.75 39.59586531321103 L96.75 40.40413468678897 L96.75 40.40413468678897 L96.75 39.59586531321103 Z"></path><path d="M101.75 16.355453153481033 L101.75 16.355453153481033 L101.75 63.64454684651896 L101.75 63.64454684651896 L101.75 16.355453153481033 Z"></path><path d="M106.75 17.900556052834876 L106.75 17.900556052834876 L106.75 62.09944394716513 L106.75 62.09944394716513 L106.75 17.900556052834876 Z"></path><path d="M111.75 23.16922714816115 L111.75 23.16922714816115 L111.75 56.83077285183885 L111.75 56.83077285183885 L111.75 23.16922714816115 Z"></path><path d="M116.75 28.647604562678133 L116.75 28.647604562678133 L116.75 51.352395437321874 L116.75 51.352395437321874 L116.75 28.647604562678133 Z"></path><path d="M121.75 37.86521084209336 L121.75 37.86521084209336 L121.75 42.13478915790663 L121.75 42.13478915790663 L121.75 37.86521084209336 Z"></path><path d="M126.75 39.40193908362864 L126.75 39.40193908362864 L126.75 40.59806091637137 L126.75 40.59806091637137 L126.75 39.40193908362864 Z"></path><path d="M131.75 33.14342695168463 L131.75 33.14342695168463 L131.75 46.856573048315376 L131.75 46.856573048315376 L131.75 33.14342695168463 Z"></path><path d="M136.75 9.11976965606236 L136.75 9.11976965606236 L136.75 70.88023034393764 L136.75 70.88023034393764 L136.75 9.11976965606236 Z"></path><path d="M141.75 19.018503770028282 L141.75 19.018503770028282 L141.75 60.98149622997172 L141.75 60.98149622997172 L141.75 19.018503770028282 Z"></path><path d="M146.75 17.845448695030893 L146.75 17.845448695030893 L146.75 62.154551304969104 L146.75 62.154551304969104 L146.75 17.845448695030893 Z"></path><path d="M151.75 27.713869001441925 L151.75 27.713869001441925 L151.75 52.28613099855808 L151.75 52.28613099855808 L151.75 27.713869001441925 Z"></path><path d="M156.75 37.513945180273 L156.75 37.513945180273 L156.75 42.48605481972701 L156.75 42.48605481972701 L156.75 37.513945180273 Z"></path><path d="M161.75 19.98141660209516 L161.75 19.98141660209516 L161.75 60.01858339790484 L161.75 60.01858339790484 L161.75 19.98141660209516 Z"></path><path d="M166.75 27.810185704466186 L166.75 27.810185704466186 L166.75 52.18981429553381 L166.75 52.18981429553381 L166.75 27.810185704466186 Z"></path><path d="M171.75 39.115935057707915 L171.75 39.115935057707915 L171.75 40.88406494229208 L171.75 40.88406494229208 L171.75 39.115935057707915 Z"></path><path d="M176.75 39.48514193711441 L176.75 39.48514193711441 L176.75 40.51485806288559 L176.75 40.51485806288559 L176.75 39.48514193711441 Z"></path><path d="M181.75 39.50835647645133 L181.75 39.50835647645133 L181.75 40.49164352354867 L181.75 40.49164352354867 L181.75 39.50835647645133 Z"></path><path d="M186.75 39.561806772728644 L186.75 39.561806772728644 L186.75 40.438193227271356 L186.75 40.438193227271356 L186.75 39.561806772728644 Z"></path><path d="M191.75 39.55866191723461 L191.75 39.55866191723461 L191.75 40.441338082765384 L191.75 40.441338082765384 L191.75 39.55866191723461 Z"></path><path d="M196.75 8.746435317254171 L196.75 8.746435317254171 L196.75 71.25356468274583 L196.75 71.25356468274583 L196.75 8.746435317254171 Z"></path><path d="M201.75 36.92786037933582 L201.75 36.92786037933582 L201.75 43.07213962066418 L201.75 43.07213962066418 L201.75 36.92786037933582 Z"></path><path d="M206.75 39.37812203077833 L206.75 39.37812203077833 L206.75 40.62187796922167 L206.75 40.62187796922167 L206.75 39.37812203077833 Z"></path><path d="M211.75 39.32414081428513 L211.75 39.32414081428513 L211.75 40.67585918571488 L211.75 40.67585918571488 L211.75 39.32414081428513 Z"></path><path d="M216.75 39.61624896231426 L216.75 39.61624896231426 L216.75 40.38375103768574 L216.75 40.38375103768574 L216.75 39.61624896231426 Z"></path><path d="M221.75 36.33879433476496 L221.75 36.33879433476496 L221.75 43.66120566523504 L221.75 43.66120566523504 L221.75 36.33879433476496 Z"></path><path d="M226.75 36.19136088918398 L226.75 36.19136088918398 L226.75 43.80863911081602 L226.75 43.80863911081602 L226.75 36.19136088918398 Z"></path><path d="M231.75 38.64878061395837 L231.75 38.64878061395837 L231.75 41.35121938604163 L231.75 41.35121938604163 L231.75 38.64878061395837 Z"></path><path d="M236.75 39.5122065165089 L236.75 39.5122065165089 L236.75 40.4877934834911 L236.75 40.4877934834911 L236.75 39.5122065165089 Z"></path><path d="M241.75 39.60002588140468 L241.75 39.60002588140468 L241.75 40.39997411859532 L241.75 40.39997411859532 L241.75 39.60002588140468 Z"></path><path d="M246.75 30.580166482571784 L246.75 30.580166482571784 L246.75 49.419833517428216 L246.75 49.419833517428216 L246.75 30.580166482571784 Z"></path><path d="M251.75 38.94937318043222 L251.75 38.94937318043222 L251.75 41.050626819567775 L251.75 41.050626819567775 L251.75 38.94937318043222 Z"></path><path d="M256.75 27.953775189972568 L256.75 27.953775189972568 L256.75 52.046224810027425 L256.75 52.046224810027425 L256.75 27.953775189972568 Z"></path><path d="M261.75 22.222408374130453 L261.75 22.222408374130453 L261.75 57.77759162586955 L261.75 57.77759162586955 L261.75 22.222408374130453 Z"></path><path d="M266.75 26.310321654271903 L266.75 26.310321654271903 L266.75 53.6896783457281 L266.75 53.6896783457281 L266.75 26.310321654271903 Z"></path><path d="M271.75 28.480310590341865 L271.75 28.480310590341865 L271.75 51.519689409658135 L271.75 51.519689409658135 L271.75 28.480310590341865 Z"></path><path d="M276.75 39.13466756391297 L276.75 39.13466756391297 L276.75 40.86533243608702 L276.75 40.86533243608702 L276.75 39.13466756391297 Z"></path><path d="M281.75 1.9498364858094064 L281.75 1.9498364858094064 L281.75 78.05016351419059 L281.75 78.05016351419059 L281.75 1.9498364858094064 Z"></path><path d="M286.75 25.85437082353696 L286.75 25.85437082353696 L286.75 54.14562917646303 L286.75 54.14562917646303 L286.75 25.85437082353696 Z"></path><path d="M291.75 23.970578459050852 L291.75 23.970578459050852 L291.75 56.029421540949144 L291.75 56.029421540949144 L291.75 23.970578459050852 Z"></path><path d="M296.75 25.863116723934272 L296.75 25.863116723934272 L296.75 54.13688327606573 L296.75 54.13688327606573 L296.75 25.863116723934272 Z"></path><path d="M301.75 25.19902176640779 L301.75 25.19902176640779 L301.75 54.80097823359222 L301.75 54.80097823359222 L301.75 25.19902176640779 Z"></path><path d="M306.75 30.077899021166402 L306.75 30.077899021166402 L306.75 49.9221009788336 L306.75 49.9221009788336 L306.75 30.077899021166402 Z"></path><path d="M311.75 39.386434459682434 L311.75 39.386434459682434 L311.75 40.61356554031757 L311.75 40.61356554031757 L311.75 39.386434459682434 Z"></path><path d="M316.75 39.56125321105036 L316.75 39.56125321105036 L316.75 40.43874678894964 L316.75 40.43874678894964 L316.75 39.56125321105036 Z"></path><path d="M321.75 24.652989180611318 L321.75 24.652989180611318 L321.75 55.347010819388686 L321.75 55.347010819388686 L321.75 24.652989180611318 Z"></path><path d="M326.75 39.237112200210355 L326.75 39.237112200210355 L326.75 40.762887799789645 L326.75 40.762887799789645 L326.75 39.237112200210355 Z"></path><path d="M331.75 39.50112232205231 L331.75 39.50112232205231 L331.75 40.49887767794769 L331.75 40.49887767794769 L331.75 39.50112232205231 Z"></path><path d="M336.75 32.656482175628184 L336.75 32.656482175628184 L336.75 47.34351782437181 L336.75 47.34351782437181 L336.75 32.656482175628184 Z"></path><path d="M341.75 39.38009201998249 L341.75 39.38009201998249 L341.75 40.6199079800175 L341.75 40.6199079800175 L341.75 39.38009201998249 Z"></path><path d="M346.75 30.782838771383624 L346.75 30.782838771383624 L346.75 49.217161228616376 L346.75 49.217161228616376 L346.75 30.782838771383624 Z"></path><path d="M351.75 24.91287153193619 L351.75 24.91287153193619 L351.75 55.08712846806381 L351.75 55.08712846806381 L351.75 24.91287153193619 Z"></path><path d="M356.75 25.66004805623442 L356.75 25.66004805623442 L356.75 54.339951943765584 L356.75 54.339951943765584 L356.75 25.66004805623442 Z"></path><path d="M361.75 27.704517928733992 L361.75 27.704517928733992 L361.75 52.29548207126601 L361.75 52.29548207126601 L361.75 27.704517928733992 Z"></path><path d="M366.75 28.833754670762975 L366.75 28.833754670762975 L366.75 51.16624532923703 L366.75 51.16624532923703 L366.75 28.833754670762975 Z"></path><path d="M371.75 39.156253997121084 L371.75 39.156253997121084 L371.75 40.843746002878916 L371.75 40.843746002878916 L371.75 39.156253997121084 Z"></path><path d="M376.75 39.56696497970082 L376.75 39.56696497970082 L376.75 40.43303502029918 L376.75 40.43303502029918 L376.75 39.56696497970082 Z"></path><path d="M381.75 31.01528640180495 L381.75 31.01528640180495 L381.75 48.98471359819505 L381.75 48.98471359819505 L381.75 31.01528640180495 Z"></path><path d="M386.75 12.3342941013793 L386.75 12.3342941013793 L386.75 67.6657058986207 L386.75 67.6657058986207 L386.75 12.3342941013793 Z"></path><path d="M391.75 19.441908954902168 L391.75 19.441908954902168 L391.75 60.55809104509783 L391.75 60.55809104509783 L391.75 19.441908954902168 Z"></path><path d="M396.75 23.77847197940143 L396.75 23.77847197940143 L396.75 56.22152802059857 L396.75 56.22152802059857 L396.75 23.77847197940143 Z"></path><path d="M401.75 27.139190138994984 L401.75 27.139190138994984 L401.75 52.860809861005016 L401.75 52.860809861005016 L401.75 27.139190138994984 Z"></path><path d="M406.75 27.216903640595113 L406.75 27.216903640595113 L406.75 52.78309635940489 L406.75 52.78309635940489 L406.75 27.216903640595113 Z"></path><path d="M411.75 0 L411.75 0 L411.75 80 L411.75 80 L411.75 0 Z"></path><path d="M416.75 0.7163848605735836 L416.75 0.7163848605735836 L416.75 79.28361513942642 L416.75 79.28361513942642 L416.75 0.7163848605735836 Z"></path><path d="M421.75 38.89152883059111 L421.75 38.89152883059111 L421.75 41.108471169408894 L421.75 41.108471169408894 L421.75 38.89152883059111 Z"></path><path d="M426.75 39.53179587507014 L426.75 39.53179587507014 L426.75 40.46820412492987 L426.75 40.46820412492987 L426.75 39.53179587507014 Z"></path><path d="M431.75 39.50035707081719 L431.75 39.50035707081719 L431.75 40.49964292918281 L431.75 40.49964292918281 L431.75 39.50035707081719 Z"></path><path d="M436.75 39.601176246808734 L436.75 39.601176246808734 L436.75 40.398823753191266 L436.75 40.398823753191266 L436.75 39.601176246808734 Z"></path><path d="M441.75 39.52806876086675 L441.75 39.52806876086675 L441.75 40.47193123913324 L441.75 40.47193123913324 L441.75 39.52806876086675 Z"></path><path d="M446.75 11.486914465707283 L446.75 11.486914465707283 L446.75 68.51308553429271 L446.75 68.51308553429271 L446.75 11.486914465707283 Z"></path><path d="M451.75 38.79639193043256 L451.75 38.79639193043256 L451.75 41.20360806956744 L451.75 41.20360806956744 L451.75 38.79639193043256 Z"></path><path d="M456.75 38.53224904830827 L456.75 38.53224904830827 L456.75 41.46775095169172 L456.75 41.46775095169172 L456.75 38.53224904830827 Z"></path><path d="M461.75 39.45267362399906 L461.75 39.45267362399906 L461.75 40.54732637600093 L461.75 40.54732637600093 L461.75 39.45267362399906 Z"></path><path d="M466.75 39.43221690218047 L466.75 39.43221690218047 L466.75 40.56778309781952 L466.75 40.56778309781952 L466.75 39.43221690218047 Z"></path><path d="M471.75 38.68708898800571 L471.75 38.68708898800571 L471.75 41.312911011994295 L471.75 41.312911011994295 L471.75 38.68708898800571 Z"></path><path d="M476.75 37.06115367633157 L476.75 37.06115367633157 L476.75 42.93884632366843 L476.75 42.93884632366843 L476.75 37.06115367633157 Z"></path><path d="M481.75 38.534987940395695 L481.75 38.534987940395695 L481.75 41.465012059604305 L481.75 41.465012059604305 L481.75 38.534987940395695 Z"></path><path d="M486.75 39.50122848076906 L486.75 39.50122848076906 L486.75 40.49877151923094 L486.75 40.49877151923094 L486.75 39.50122848076906 Z"></path><path d="M491.75 39.46188790287218 L491.75 39.46188790287218 L491.75 40.53811209712782 L491.75 40.53811209712782 L491.75 39.46188790287218 Z"></path><path d="M496.75 31.151230512380632 L496.75 31.151230512380632 L496.75 48.848769487619364 L496.75 48.848769487619364 L496.75 31.151230512380632 Z"></path></svg>