<?xml version="1.0" standalone="no"?><!DOCTYPE svg PUBLIC "-//W3C//DTD SVG 1.1//EN" "http://www.w3.org/Graphics/SVG/1.1/DTD/svg11.dtd"><svg id="71139980-e155-3081-4838-0a2c08eb2028" xmlns="http://www.w3.org/2000/svg" version="1.1" viewBox="0 0 500 80"><style type="text/css">path{stroke:white;stroke-width:3.5}</style><path d="M1.75 35.50287081558908 L1.75 35.50287081558908 L1.75 44.497129184410916 L1.75 44.497129184410916 L1.75 35.50287081558908 Z"></path><path d="M6.75 39.20652144153115 L6.75 39.20652144153115 L6.75 40.79347855846885 L6.75 40.79347855846885 L6.75 39.20652144153115 Z"></path><path d="M11.75 39.09973577506975 L11.75 39.09973577506975 L11.75 40.900264224930254 L11.75 40.900264224930254 L11.75 39.09973577506975 Z"></path><path d="M16.75 38.816927833514406 L16.75 38.816927833514406 L16.75 41.183072166485594 L16.75 41.183072166485594 L16.75 38.816927833514406 Z"></path><path d="M21.75 38.52725608132463 L21.75 38.52725608132463 L21.75 41.47274391867537 L21.75 41.47274391867537 L21.75 38.52725608132463 Z"></path><path d="M26.75 38.87581343559936 L26.75 38.87581343559936 L26.75 41.124186564400645 L26.75 41.124186564400645 L26.75 38.87581343559936 Z"></path><path d="M31.75 39.31113208295444 L31.75 39.31113208295444 L31.75 40.68886791704557 L31.75 40.68886791704557 L31.75 39.31113208295444 Z"></path><path d="M36.75 39.47187833008555 L36.75 39.47187833008555 L36.75 40.52812166991445 L36.75 40.52812166991445 L36.75 39.47187833008555 Z"></path><path d="M41.75 31.86525987943681 L41.75 31.86525987943681 L41.75 48.134740120563194 L41.75 48.134740120563194 L41.75 31.86525987943681 Z"></path><path d="M46.75 18.49701111980322 L46.75 18.49701111980322 L46.75 61.50298888019678 L46.75 61.50298888019678 L46.75 18.49701111980322 Z"></path><path d="M51.75 18.983762109760075 L51.75 18.983762109760075 L51.75 61.01623789023992 L51.75 61.01623789023992 L51.75 18.983762109760075 Z"></path><path d="M56.75 18.96972607089286 L56.75 18.96972607089286 L56.75 61.03027392910714 L56.75 61.03027392910714 L56.75 18.96972607089286 Z"></path><path d="M61.75 16.413332112584417 L61.75 16.413332112584417 L61.75 63.58666788741559 L61.75 63.58666788741559 L61.75 16.413332112584417 Z"></path><path d="M66.75 17.235084111246866 L66.75 17.235084111246866 L66.75 62.76491588875314 L66.75 62.76491588875314 L66.75 17.235084111246866 Z"></path><path d="M71.75 9.562682684188307 L71.75 9.562682684188307 L71.75 70.4373173158117 L71.75 70.4373173158117 L71.75 9.562682684188307 Z"></path><path d="M76.75 2.249087607698648 L76.75 2.249087607698648 L76.75 77.75091239230136 L76.75 77.75091239230136 L76.75 2.249087607698648 Z"></path><path d="M81.75 7.679609041858058 L81.75 7.679609041858058 L81.75 72.32039095814194 L81.75 72.32039095814194 L81.75 7.679609041858058 Z"></path><path d="M86.75 0 L86.75 0 L86.75 80 L86.75 80 L86.75 0 Z"></path><path d="M91.75 10.93790722455353 L91.75 10.93790722455353 L91.75 69.06209277544647 L91.75 69.06209277544647 L91.75 10.93790722455353 Z"></path><path d="M96.75 15.393955813187244 L96.75 15.393955813187244 L96.75 64.60604418681275 L96.75 64.60604418681275 L96.75 15.393955813187244 Z"></path><path d="M101.75 20.57069487697986 L101.75 20.57069487697986 L101.75 59.42930512302014 L101.75 59.42930512302014 L101.75 20.57069487697986 Z"></path><path d="M106.75 11.430789052612091 L106.75 11.430789052612091 L106.75 68.56921094738792 L106.75 68.56921094738792 L106.75 11.430789052612091 Z"></path><path d="M111.75 14.079989377411788 L111.75 14.079989377411788 L111.75 65.92001062258821 L111.75 65.92001062258821 L111.75 14.079989377411788 Z"></path><path d="M116.75 17.586554934038762 L116.75 17.586554934038762 L116.75 62.41344506596124 L116.75 62.41344506596124 L116.75 17.586554934038762 Z"></path><path d="M121.75 14.282216571477278 L121.75 14.282216571477278 L121.75 65.71778342852272 L121.75 65.71778342852272 L121.75 14.282216571477278 Z"></path><path d="M126.75 5.887582664041993 L126.75 5.887582664041993 L126.75 74.11241733595801 L126.75 74.11241733595801 L126.75 5.887582664041993 Z"></path><path d="M131.75 9.011118733175064 L131.75 9.011118733175064 L131.75 70.98888126682493 L131.75 70.98888126682493 L131.75 9.011118733175064 Z"></path><path d="M136.75 11.407305633155008 L136.75 11.407305633155008 L136.75 68.592694366845 L136.75 68.592694366845 L136.75 11.407305633155008 Z"></path><path d="M141.75 12.47835745440862 L141.75 12.47835745440862 L141.75 67.52164254559138 L141.75 67.52164254559138 L141.75 12.47835745440862 Z"></path><path d="M146.75 16.033643235851237 L146.75 16.033643235851237 L146.75 63.96635676414876 L146.75 63.96635676414876 L146.75 16.033643235851237 Z"></path><path d="M151.75 24.163355981219222 L151.75 24.163355981219222 L151.75 55.836644018780774 L151.75 55.836644018780774 L151.75 24.163355981219222 Z"></path><path d="M156.75 25.956355146984304 L156.75 25.956355146984304 L156.75 54.04364485301569 L156.75 54.04364485301569 L156.75 25.956355146984304 Z"></path><path d="M161.75 24.108754714962657 L161.75 24.108754714962657 L161.75 55.89124528503734 L161.75 55.89124528503734 L161.75 24.108754714962657 Z"></path><path d="M166.75 12.878539997379871 L166.75 12.878539997379871 L166.75 67.12146000262013 L166.75 67.12146000262013 L166.75 12.878539997379871 Z"></path><path d="M171.75 11.922594490434168 L171.75 11.922594490434168 L171.75 68.07740550956584 L171.75 68.07740550956584 L171.75 11.922594490434168 Z"></path><path d="M176.75 16.78965964416864 L176.75 16.78965964416864 L176.75 63.21034035583136 L176.75 63.21034035583136 L176.75 16.78965964416864 Z"></path><path d="M181.75 16.94568762335143 L181.75 16.94568762335143 L181.75 63.05431237664857 L181.75 63.05431237664857 L181.75 16.94568762335143 Z"></path><path d="M186.75 17.96082450198739 L186.75 17.96082450198739 L186.75 62.03917549801261 L186.75 62.03917549801261 L186.75 17.96082450198739 Z"></path><path d="M191.75 22.293834650081966 L191.75 22.293834650081966 L191.75 57.70616534991804 L191.75 57.70616534991804 L191.75 22.293834650081966 Z"></path><path d="M196.75 8.69722362060277 L196.75 8.69722362060277 L196.75 71.30277637939723 L196.75 71.30277637939723 L196.75 8.69722362060277 Z"></path><path d="M201.75 9.359217919047868 L201.75 9.359217919047868 L201.75 70.64078208095214 L201.75 70.64078208095214 L201.75 9.359217919047868 Z"></path><path d="M206.75 5.581890493563158 L206.75 5.581890493563158 L206.75 74.41810950643685 L206.75 74.41810950643685 L206.75 5.581890493563158 Z"></path><path d="M211.75 15.061870487909108 L211.75 15.061870487909108 L211.75 64.9381295120909 L211.75 64.9381295120909 L211.75 15.061870487909108 Z"></path><path d="M216.75 17.00126186065261 L216.75 17.00126186065261 L216.75 62.998738139347395 L216.75 62.998738139347395 L216.75 17.00126186065261 Z"></path><path d="M221.75 20.299862996917142 L221.75 20.299862996917142 L221.75 59.70013700308286 L221.75 59.70013700308286 L221.75 20.299862996917142 Z"></path><path d="M226.75 24.24960042678923 L226.75 24.24960042678923 L226.75 55.75039957321077 L226.75 55.75039957321077 L226.75 24.24960042678923 Z"></path><path d="M231.75 16.77094258085297 L231.75 16.77094258085297 L231.75 63.229057419147026 L231.75 63.229057419147026 L231.75 16.77094258085297 Z"></path><path d="M236.75 25.51949537904389 L236.75 25.51949537904389 L236.75 54.48050462095611 L236.75 54.48050462095611 L236.75 25.51949537904389 Z"></path><path d="M241.75 24.829051117143514 L241.75 24.829051117143514 L241.75 55.17094888285649 L241.75 55.17094888285649 L241.75 24.829051117143514 Z"></path><path d="M246.75 34.91587542709532 L246.75 34.91587542709532 L246.75 45.08412457290467 L246.75 45.08412457290467 L246.75 34.91587542709532 Z"></path><path d="M251.75 38.77903611945184 L251.75 38.77903611945184 L251.75 41.22096388054816 L251.75 41.22096388054816 L251.75 38.77903611945184 Z"></path><path d="M256.75 39.0136615606803 L256.75 39.0136615606803 L256.75 40.98633843931971 L256.75 40.98633843931971 L256.75 39.0136615606803 Z"></path><path d="M261.75 38.898797408129205 L261.75 38.898797408129205 L261.75 41.101202591870795 L261.75 41.101202591870795 L261.75 38.898797408129205 Z"></path><path d="M266.75 38.90788659038178 L266.75 38.90788659038178 L266.75 41.092113409618214 L266.75 41.092113409618214 L266.75 38.90788659038178 Z"></path><path d="M271.75 39.032538401829136 L271.75 39.032538401829136 L271.75 40.967461598170864 L271.75 40.967461598170864 L271.75 39.032538401829136 Z"></path><path d="M276.75 39.324105757431504 L276.75 39.324105757431504 L276.75 40.675894242568496 L276.75 40.675894242568496 L276.75 39.324105757431504 Z"></path><path d="M281.75 39.53867550279844 L281.75 39.53867550279844 L281.75 40.46132449720156 L281.75 40.46132449720156 L281.75 39.53867550279844 Z"></path><path d="M286.75 25.64409941118141 L286.75 25.64409941118141 L286.75 54.355900588818585 L286.75 54.355900588818585 L286.75 25.64409941118141 Z"></path><path d="M291.75 9.26669068849414 L291.75 9.26669068849414 L291.75 70.73330931150586 L291.75 70.73330931150586 L291.75 9.26669068849414 Z"></path><path d="M296.75 16.72708289452282 L296.75 16.72708289452282 L296.75 63.27291710547718 L296.75 63.27291710547718 L296.75 16.72708289452282 Z"></path><path d="M301.75 20.98869215144619 L301.75 20.98869215144619 L301.75 59.01130784855381 L301.75 59.01130784855381 L301.75 20.98869215144619 Z"></path><path d="M306.75 19.657700840404086 L306.75 19.657700840404086 L306.75 60.34229915959591 L306.75 60.34229915959591 L306.75 19.657700840404086 Z"></path><path d="M311.75 19.093061172359388 L311.75 19.093061172359388 L311.75 60.906938827640616 L311.75 60.906938827640616 L311.75 19.093061172359388 Z"></path><path d="M316.75 13.094426666183569 L316.75 13.094426666183569 L316.75 66.90557333381643 L316.75 66.90557333381643 L316.75 13.094426666183569 Z"></path><path d="M321.75 9.593667564599112 L321.75 9.593667564599112 L321.75 70.40633243540088 L321.75 70.40633243540088 L321.75 9.593667564599112 Z"></path><path d="M326.75 10.237618196698804 L326.75 10.237618196698804 L326.75 69.7623818033012 L326.75 69.7623818033012 L326.75 10.237618196698804 Z"></path><path d="M331.75 8.108676720208777 L331.75 8.108676720208777 L331.75 71.89132327979122 L331.75 71.89132327979122 L331.75 8.108676720208777 Z"></path><path d="M336.75 13.656872710169829 L336.75 13.656872710169829 L336.75 66.34312728983016 L336.75 66.34312728983016 L336.75 13.656872710169829 Z"></path><path d="M341.75 14.012110189687498 L341.75 14.012110189687498 L341.75 65.98788981031251 L341.75 65.98788981031251 L341.75 14.012110189687498 Z"></path><path d="M346.75 15.498962937638062 L346.75 15.498962937638062 L346.75 64.50103706236195 L346.75 64.50103706236195 L346.75 15.498962937638062 Z"></path><path d="M351.75 20.90819471444903 L351.75 20.90819471444903 L351.75 59.09180528555097 L351.75 59.09180528555097 L351.75 20.90819471444903 Z"></path><path d="M356.75 24.49965469033217 L356.75 24.49965469033217 L356.75 55.50034530966783 L356.75 55.50034530966783 L356.75 24.49965469033217 Z"></path><path d="M361.75 19.39373820133904 L361.75 19.39373820133904 L361.75 60.60626179866096 L361.75 60.60626179866096 L361.75 19.39373820133904 Z"></path><path d="M366.75 25.538049868762343 L366.75 25.538049868762343 L366.75 54.46195013123766 L366.75 54.46195013123766 L366.75 25.538049868762343 Z"></path><path d="M371.75 8.58998630259407 L371.75 8.58998630259407 L371.75 71.41001369740593 L371.75 71.41001369740593 L371.75 8.58998630259407 Z"></path><path d="M376.75 13.795895893546316 L376.75 13.795895893546316 L376.75 66.20410410645368 L376.75 66.20410410645368 L376.75 13.795895893546316 Z"></path><path d="M381.75 13.018872854809647 L381.75 13.018872854809647 L381.75 66.98112714519036 L381.75 66.98112714519036 L381.75 13.018872854809647 Z"></path><path d="M386.75 11.189649506455176 L386.75 11.189649506455176 L386.75 68.81035049354483 L386.75 68.81035049354483 L386.75 11.189649506455176 Z"></path><path d="M391.75 16.309638410050418 L391.75 16.309638410050418 L391.75 63.69036158994958 L391.75 63.69036158994958 L391.75 16.309638410050418 Z"></path><path d="M396.75 19.456261350364155 L396.75 19.456261350364155 L396.75 60.54373864963584 L396.75 60.54373864963584 L396.75 19.456261350364155 Z"></path><path d="M401.75 21.38702092043322 L401.75 21.38702092043322 L401.75 58.612979079566784 L401.75 58.612979079566784 L401.75 21.38702092043322 Z"></path><path d="M406.75 19.8261067962231 L406.75 19.8261067962231 L406.75 60.1738932037769 L406.75 60.1738932037769 L406.75 19.8261067962231 Z"></path><path d="M411.75 5.867600092162306 L411.75 5.867600092162306 L411.75 74.1323999078377 L411.75 74.1323999078377 L411.75 5.867600092162306 Z"></path><path d="M416.75 13.07915535379491 L416.75 13.07915535379491 L416.75 66.9208446462051 L416.75 66.9208446462051 L416.75 13.07915535379491 Z"></path><path d="M421.75 14.123836936260894 L421.75 14.123836936260894 L421.75 65.87616306373911 L421.75 65.87616306373911 L421.75 14.123836936260894 Z"></path><path d="M426.75 19.94712326391566 L426.75 19.94712326391566 L426.75 60.05287673608434 L426.75 60.05287673608434 L426.75 19.94712326391566 Z"></path><path d="M431.75 17.789473328770832 L431.75 17.789473328770832 L431.75 62.21052667122917 L431.75 62.21052667122917 L431.75 17.789473328770832 Z"></path><path d="M436.75 20.992889711651465 L436.75 20.992889711651465 L436.75 59.007110288348535 L436.75 59.007110288348535 L436.75 20.992889711651465 Z"></path><path d="M441.75 8.590738955023348 L441.75 8.590738955023348 L441.75 71.40926104497666 L441.75 71.40926104497666 L441.75 8.590738955023348 Z"></path><path d="M446.75 12.334911319733479 L446.75 12.334911319733479 L446.75 67.66508868026652 L446.75 67.66508868026652 L446.75 12.334911319733479 Z"></path><path d="M451.75 14.999922005677458 L451.75 14.999922005677458 L451.75 65.00007799432254 L451.75 65.00007799432254 L451.75 14.999922005677458 Z"></path><path d="M456.75 15.559775680974834 L456.75 15.559775680974834 L456.75 64.44022431902516 L456.75 64.44022431902516 L456.75 15.559775680974834 Z"></path><path d="M461.75 22.60412295211048 L461.75 22.60412295211048 L461.75 57.39587704788952 L461.75 57.39587704788952 L461.75 22.60412295211048 Z"></path><path d="M466.75 22.100823958804806 L466.75 22.100823958804806 L466.75 57.89917604119519 L466.75 57.89917604119519 L466.75 22.100823958804806 Z"></path><path d="M471.75 21.19965081178567 L471.75 21.19965081178567 L471.75 58.80034918821433 L471.75 58.80034918821433 L471.75 21.19965081178567 Z"></path><path d="M476.75 15.845628672934833 L476.75 15.845628672934833 L476.75 64.15437132706516 L476.75 64.15437132706516 L476.75 15.845628672934833 Z"></path><path d="M481.75 23.11355095366787 L481.75 23.11355095366787 L481.75 56.88644904633213 L481.75 56.88644904633213 L481.75 23.11355095366787 Z"></path><path d="M486.75 26.150190833969102 L486.75 26.150190833969102 L486.75 53.849809166030894 L486.75 53.849809166030894 L486.75 26.150190833969102 Z"></path><path d="M491.75 19.780892871427746 L491.75 19.780892871427746 L491.75 60.219107128572254 L491.75 60.219107128572254 L491.75 19.780892871427746 Z"></path><path d="M496.75 21.865269038389428 L496.75 21.865269038389428 L496.75 58.13473096161057 L496.75 58.13473096161057 L496.75 21.865269038389428 Z"></path></svg>