<?xml version="1.0" standalone="no"?><!DOCTYPE svg PUBLIC "-//W3C//DTD SVG 1.1//EN" "http://www.w3.org/Graphics/SVG/1.1/DTD/svg11.dtd"><svg id="c2d82022-b37b-e3b3-d6ff-f102c73eebc1" xmlns="http://www.w3.org/2000/svg" version="1.1" viewBox="0 0 500 80"><style type="text/css">path{stroke:white;stroke-width:3.5}</style><path d="M1.75 33.189333441721274 L1.75 33.189333441721274 L1.75 46.810666558278726 L1.75 46.810666558278726 L1.75 33.189333441721274 Z"></path><path d="M6.75 32.229121907972285 L6.75 32.229121907972285 L6.75 47.770878092027715 L6.75 47.770878092027715 L6.75 32.229121907972285 Z"></path><path d="M11.75 30.85625645355444 L11.75 30.85625645355444 L11.75 49.14374354644556 L11.75 49.14374354644556 L11.75 30.85625645355444 Z"></path><path d="M16.75 37.073703383223986 L16.75 37.073703383223986 L16.75 42.926296616776014 L16.75 42.926296616776014 L16.75 37.073703383223986 Z"></path><path d="M21.75 39.79739949077614 L21.75 39.79739949077614 L21.75 40.20260050922387 L21.75 40.20260050922387 L21.75 39.79739949077614 Z"></path><path d="M26.75 39.90330796892196 L26.75 39.90330796892196 L26.75 40.096692031078035 L26.75 40.096692031078035 L26.75 39.90330796892196 Z"></path><path d="M31.75 26.53032356947146 L31.75 26.53032356947146 L31.75 53.46967643052854 L31.75 53.46967643052854 L31.75 26.53032356947146 Z"></path><path d="M36.75 35.973656605950254 L36.75 35.973656605950254 L36.75 44.02634339404974 L36.75 44.02634339404974 L36.75 35.973656605950254 Z"></path><path d="M41.75 39.00096654105794 L41.75 39.00096654105794 L41.75 40.99903345894205 L41.75 40.99903345894205 L41.75 39.00096654105794 Z"></path><path d="M46.75 39.883139960350405 L46.75 39.883139960350405 L46.75 40.116860039649595 L46.75 40.116860039649595 L46.75 39.883139960350405 Z"></path><path d="M51.75 30.07417250508004 L51.75 30.07417250508004 L51.75 49.92582749491996 L51.75 49.92582749491996 L51.75 30.07417250508004 Z"></path><path d="M56.75 37.442342744762996 L56.75 37.442342744762996 L56.75 42.557657255237004 L56.75 42.557657255237004 L56.75 37.442342744762996 Z"></path><path d="M61.75 39.80013252008007 L61.75 39.80013252008007 L61.75 40.199867479919924 L61.75 40.199867479919924 L61.75 39.80013252008007 Z"></path><path d="M66.75 39.79046576832658 L66.75 39.79046576832658 L66.75 40.20953423167342 L66.75 40.20953423167342 L66.75 39.79046576832658 Z"></path><path d="M71.75 39.888821589942914 L71.75 39.888821589942914 L71.75 40.11117841005708 L71.75 40.11117841005708 L71.75 39.888821589942914 Z"></path><path d="M76.75 39.797382069734255 L76.75 39.797382069734255 L76.75 40.20261793026575 L76.75 40.20261793026575 L76.75 39.797382069734255 Z"></path><path d="M81.75 18.627088008714455 L81.75 18.627088008714455 L81.75 61.37291199128555 L81.75 61.37291199128555 L81.75 18.627088008714455 Z"></path><path d="M86.75 22.43115691637621 L86.75 22.43115691637621 L86.75 57.56884308362379 L86.75 57.56884308362379 L86.75 22.43115691637621 Z"></path><path d="M91.75 33.928862106470774 L91.75 33.928862106470774 L91.75 46.071137893529226 L91.75 46.071137893529226 L91.75 33.928862106470774 Z"></path><path d="M96.75 26.10440658449803 L96.75 26.10440658449803 L96.75 53.89559341550198 L96.75 53.89559341550198 L96.75 26.10440658449803 Z"></path><path d="M101.75 24.595183978596154 L101.75 24.595183978596154 L101.75 55.404816021403846 L101.75 55.404816021403846 L101.75 24.595183978596154 Z"></path><path d="M106.75 33.102286710559376 L106.75 33.102286710559376 L106.75 46.89771328944063 L106.75 46.89771328944063 L106.75 33.102286710559376 Z"></path><path d="M111.75 34.92257317620243 L111.75 34.92257317620243 L111.75 45.077426823797566 L111.75 45.077426823797566 L111.75 34.92257317620243 Z"></path><path d="M116.75 39.12956300013726 L116.75 39.12956300013726 L116.75 40.87043699986274 L116.75 40.87043699986274 L116.75 39.12956300013726 Z"></path><path d="M121.75 39.15493795663923 L121.75 39.15493795663923 L121.75 40.84506204336078 L121.75 40.84506204336078 L121.75 39.15493795663923 Z"></path><path d="M126.75 39.295832143341364 L126.75 39.295832143341364 L126.75 40.704167856658636 L126.75 40.704167856658636 L126.75 39.295832143341364 Z"></path><path d="M131.75 39.57957647192928 L131.75 39.57957647192928 L131.75 40.42042352807072 L131.75 40.42042352807072 L131.75 39.57957647192928 Z"></path><path d="M136.75 39.43290935626949 L136.75 39.43290935626949 L136.75 40.567090643730516 L136.75 40.567090643730516 L136.75 39.43290935626949 Z"></path><path d="M141.75 33.502236639272475 L141.75 33.502236639272475 L141.75 46.497763360727525 L141.75 46.497763360727525 L141.75 33.502236639272475 Z"></path><path d="M146.75 35.58938611185143 L146.75 35.58938611185143 L146.75 44.41061388814856 L146.75 44.41061388814856 L146.75 35.58938611185143 Z"></path><path d="M151.75 39.63709699788145 L151.75 39.63709699788145 L151.75 40.36290300211854 L151.75 40.36290300211854 L151.75 39.63709699788145 Z"></path><path d="M156.75 39.73260035869137 L156.75 39.73260035869137 L156.75 40.26739964130862 L156.75 40.26739964130862 L156.75 39.73260035869137 Z"></path><path d="M161.75 24.875447416937185 L161.75 24.875447416937185 L161.75 55.12455258306281 L161.75 55.12455258306281 L161.75 24.875447416937185 Z"></path><path d="M166.75 34.66447384369472 L166.75 34.66447384369472 L166.75 45.33552615630528 L166.75 45.33552615630528 L166.75 34.66447384369472 Z"></path><path d="M171.75 39.62725828311106 L171.75 39.62725828311106 L171.75 40.37274171688894 L171.75 40.37274171688894 L171.75 39.62725828311106 Z"></path><path d="M176.75 39.81175246648704 L176.75 39.81175246648704 L176.75 40.18824753351296 L176.75 40.18824753351296 L176.75 39.81175246648704 Z"></path><path d="M181.75 39.76987293588738 L181.75 39.76987293588738 L181.75 40.23012706411262 L181.75 40.23012706411262 L181.75 39.76987293588738 Z"></path><path d="M186.75 39.8531721584582 L186.75 39.8531721584582 L186.75 40.1468278415418 L186.75 40.1468278415418 L186.75 39.8531721584582 Z"></path><path d="M191.75 30.791912508196106 L191.75 30.791912508196106 L191.75 49.208087491803894 L191.75 49.208087491803894 L191.75 30.791912508196106 Z"></path><path d="M196.75 39.1479380128031 L196.75 39.1479380128031 L196.75 40.852061987196905 L196.75 40.852061987196905 L196.75 39.1479380128031 Z"></path><path d="M201.75 39.79931154360251 L201.75 39.79931154360251 L201.75 40.20068845639749 L201.75 40.20068845639749 L201.75 39.79931154360251 Z"></path><path d="M206.75 39.80781358499207 L206.75 39.80781358499207 L206.75 40.19218641500793 L206.75 40.19218641500793 L206.75 39.80781358499207 Z"></path><path d="M211.75 39.76823391610264 L211.75 39.76823391610264 L211.75 40.23176608389736 L211.75 40.23176608389736 L211.75 39.76823391610264 Z"></path><path d="M216.75 39.87737895329325 L216.75 39.87737895329325 L216.75 40.12262104670675 L216.75 40.12262104670675 L216.75 39.87737895329325 Z"></path><path d="M221.75 9.02785696188145 L221.75 9.02785696188145 L221.75 70.97214303811855 L221.75 70.97214303811855 L221.75 9.02785696188145 Z"></path><path d="M226.75 39.17772709938553 L226.75 39.17772709938553 L226.75 40.82227290061448 L226.75 40.82227290061448 L226.75 39.17772709938553 Z"></path><path d="M231.75 39.78665376497665 L231.75 39.78665376497665 L231.75 40.21334623502336 L231.75 40.21334623502336 L231.75 39.78665376497665 Z"></path><path d="M236.75 39.223295908073226 L236.75 39.223295908073226 L236.75 40.776704091926774 L236.75 40.776704091926774 L236.75 39.223295908073226 Z"></path><path d="M241.75 39.895183086235214 L241.75 39.895183086235214 L241.75 40.10481691376479 L241.75 40.10481691376479 L241.75 39.895183086235214 Z"></path><path d="M246.75 39.907679674882125 L246.75 39.907679674882125 L246.75 40.092320325117875 L246.75 40.092320325117875 L246.75 39.907679674882125 Z"></path><path d="M251.75 36.91946161475114 L251.75 36.91946161475114 L251.75 43.080538385248865 L251.75 43.080538385248865 L251.75 36.91946161475114 Z"></path><path d="M256.75 32.13075155130853 L256.75 32.13075155130853 L256.75 47.86924844869147 L256.75 47.86924844869147 L256.75 32.13075155130853 Z"></path><path d="M261.75 34.423320126392376 L261.75 34.423320126392376 L261.75 45.576679873607624 L261.75 45.576679873607624 L261.75 34.423320126392376 Z"></path><path d="M266.75 37.762713308779425 L266.75 37.762713308779425 L266.75 42.23728669122057 L266.75 42.23728669122057 L266.75 37.762713308779425 Z"></path><path d="M271.75 39.479356111895164 L271.75 39.479356111895164 L271.75 40.52064388810484 L271.75 40.52064388810484 L271.75 39.479356111895164 Z"></path><path d="M276.75 39.87090731333393 L276.75 39.87090731333393 L276.75 40.12909268666607 L276.75 40.12909268666607 L276.75 39.87090731333393 Z"></path><path d="M281.75 34.0317140262426 L281.75 34.0317140262426 L281.75 45.96828597375741 L281.75 45.96828597375741 L281.75 34.0317140262426 Z"></path><path d="M286.75 28.281583209068735 L286.75 28.281583209068735 L286.75 51.718416790931265 L286.75 51.718416790931265 L286.75 28.281583209068735 Z"></path><path d="M291.75 38.78487735702692 L291.75 38.78487735702692 L291.75 41.21512264297307 L291.75 41.21512264297307 L291.75 38.78487735702692 Z"></path><path d="M296.75 39.893003735998995 L296.75 39.893003735998995 L296.75 40.106996264001 L296.75 40.106996264001 L296.75 39.893003735998995 Z"></path><path d="M301.75 32.83539394382683 L301.75 32.83539394382683 L301.75 47.16460605617317 L301.75 47.16460605617317 L301.75 32.83539394382683 Z"></path><path d="M306.75 38.0468118358131 L306.75 38.0468118358131 L306.75 41.953188164186905 L306.75 41.953188164186905 L306.75 38.0468118358131 Z"></path><path d="M311.75 39.71846833342096 L311.75 39.71846833342096 L311.75 40.28153166657904 L311.75 40.28153166657904 L311.75 39.71846833342096 Z"></path><path d="M316.75 39.06169590970762 L316.75 39.06169590970762 L316.75 40.93830409029238 L316.75 40.93830409029238 L316.75 39.06169590970762 Z"></path><path d="M321.75 39.893646862269726 L321.75 39.893646862269726 L321.75 40.10635313773027 L321.75 40.10635313773027 L321.75 39.893646862269726 Z"></path><path d="M326.75 39.90236648572714 L326.75 39.90236648572714 L326.75 40.097633514272864 L326.75 40.097633514272864 L326.75 39.90236648572714 Z"></path><path d="M331.75 32.77117770057623 L331.75 32.77117770057623 L331.75 47.22882229942377 L331.75 47.22882229942377 L331.75 32.77117770057623 Z"></path><path d="M336.75 17.179401309533016 L336.75 17.179401309533016 L336.75 62.82059869046698 L336.75 62.82059869046698 L336.75 17.179401309533016 Z"></path><path d="M341.75 25.454636064968213 L341.75 25.454636064968213 L341.75 54.54536393503179 L341.75 54.54536393503179 L341.75 25.454636064968213 Z"></path><path d="M346.75 30.972180754477762 L346.75 30.972180754477762 L346.75 49.02781924552224 L346.75 49.02781924552224 L346.75 30.972180754477762 Z"></path><path d="M351.75 21.671733462198254 L351.75 21.671733462198254 L351.75 58.328266537801746 L351.75 58.328266537801746 L351.75 21.671733462198254 Z"></path><path d="M356.75 29.12739369046173 L356.75 29.12739369046173 L356.75 50.87260630953827 L356.75 50.87260630953827 L356.75 29.12739369046173 Z"></path><path d="M361.75 38.9220658255242 L361.75 38.9220658255242 L361.75 41.07793417447581 L361.75 41.07793417447581 L361.75 38.9220658255242 Z"></path><path d="M366.75 23.524444257104836 L366.75 23.524444257104836 L366.75 56.47555574289517 L366.75 56.47555574289517 L366.75 23.524444257104836 Z"></path><path d="M371.75 38.91955099234416 L371.75 38.91955099234416 L371.75 41.080449007655844 L371.75 41.080449007655844 L371.75 38.91955099234416 Z"></path><path d="M376.75 39.87017586331806 L376.75 39.87017586331806 L376.75 40.12982413668194 L376.75 40.12982413668194 L376.75 39.87017586331806 Z"></path><path d="M381.75 39.85571451433879 L381.75 39.85571451433879 L381.75 40.144285485661214 L381.75 40.144285485661214 L381.75 39.85571451433879 Z"></path><path d="M386.75 39.8980620275508 L386.75 39.8980620275508 L386.75 40.1019379724492 L386.75 40.1019379724492 L386.75 39.8980620275508 Z"></path><path d="M391.75 39.88724159800302 L391.75 39.88724159800302 L391.75 40.11275840199697 L391.75 40.11275840199697 L391.75 39.88724159800302 Z"></path><path d="M396.75 0 L396.75 0 L396.75 80 L396.75 80 L396.75 0 Z"></path><path d="M401.75 39.67199173199818 L401.75 39.67199173199818 L401.75 40.328008268001824 L401.75 40.328008268001824 L401.75 39.67199173199818 Z"></path><path d="M406.75 39.894734567859594 L406.75 39.894734567859594 L406.75 40.105265432140406 L406.75 40.105265432140406 L406.75 39.894734567859594 Z"></path><path d="M411.75 38.71040541196935 L411.75 38.71040541196935 L411.75 41.28959458803065 L411.75 41.28959458803065 L411.75 38.71040541196935 Z"></path><path d="M416.75 34.09450839634937 L416.75 34.09450839634937 L416.75 45.90549160365063 L416.75 45.90549160365063 L416.75 34.09450839634937 Z"></path><path d="M421.75 33.72009286455053 L421.75 33.72009286455053 L421.75 46.27990713544947 L421.75 46.27990713544947 L421.75 33.72009286455053 Z"></path><path d="M426.75 38.2998098906232 L426.75 38.2998098906232 L426.75 41.7001901093768 L426.75 41.7001901093768 L426.75 38.2998098906232 Z"></path><path d="M431.75 39.61274909971477 L431.75 39.61274909971477 L431.75 40.387250900285224 L431.75 40.387250900285224 L431.75 39.61274909971477 Z"></path><path d="M436.75 39.8801685150394 L436.75 39.8801685150394 L436.75 40.1198314849606 L436.75 40.1198314849606 L436.75 39.8801685150394 Z"></path><path d="M441.75 27.077500128976713 L441.75 27.077500128976713 L441.75 52.92249987102329 L441.75 52.92249987102329 L441.75 27.077500128976713 Z"></path><path d="M446.75 37.660121541770046 L446.75 37.660121541770046 L446.75 42.33987845822996 L446.75 42.33987845822996 L446.75 37.660121541770046 Z"></path><path d="M451.75 39.86602934248308 L451.75 39.86602934248308 L451.75 40.133970657516926 L451.75 40.133970657516926 L451.75 39.86602934248308 Z"></path><path d="M456.75 39.863595988994085 L456.75 39.863595988994085 L456.75 40.13640401100591 L456.75 40.13640401100591 L456.75 39.863595988994085 Z"></path><path d="M461.75 39.86637532262978 L461.75 39.86637532262978 L461.75 40.133624677370214 L461.75 40.133624677370214 L461.75 39.86637532262978 Z"></path><path d="M466.75 39.8925749840594 L466.75 39.8925749840594 L466.75 40.107425015940606 L466.75 40.107425015940606 L466.75 39.8925749840594 Z"></path><path d="M471.75 39.85020738090652 L471.75 39.85020738090652 L471.75 40.149792619093475 L471.75 40.149792619093475 L471.75 39.85020738090652 Z"></path><path d="M476.75 33.30044063095092 L476.75 33.30044063095092 L476.75 46.699559369049084 L476.75 46.699559369049084 L476.75 33.30044063095092 Z"></path><path d="M481.75 39.70546318991617 L481.75 39.70546318991617 L481.75 40.29453681008382 L481.75 40.29453681008382 L481.75 39.70546318991617 Z"></path><path d="M486.75 39.87771366511842 L486.75 39.87771366511842 L486.75 40.12228633488158 L486.75 40.12228633488158 L486.75 39.87771366511842 Z"></path><path d="M491.75 39.89218527801666 L491.75 39.89218527801666 L491.75 40.10781472198333 L491.75 40.10781472198333 L491.75 39.89218527801666 Z"></path><path d="M496.75 39.87591550836489 L496.75 39.87591550836489 L496.75 40.12408449163511 L496.75 40.12408449163511 L496.75 39.87591550836489 Z"></path></svg>