<?xml version="1.0" standalone="no"?><!DOCTYPE svg PUBLIC "-//W3C//DTD SVG 1.1//EN" "http://www.w3.org/Graphics/SVG/1.1/DTD/svg11.dtd"><svg id="ee6a288b-8631-f0b1-b692-55b163958706" xmlns="http://www.w3.org/2000/svg" version="1.1" viewBox="0 0 500 80"><style type="text/css">path{stroke:white;stroke-width:3.5}</style><path d="M1.75 39.328992340893265 L1.75 39.328992340893265 L1.75 40.671007659106735 L1.75 40.671007659106735 L1.75 39.328992340893265 Z"></path><path d="M6.75 38.8700414756591 L6.75 38.8700414756591 L6.75 41.12995852434091 L6.75 41.12995852434091 L6.75 38.8700414756591 Z"></path><path d="M11.75 38.56424751784718 L11.75 38.56424751784718 L11.75 41.43575248215283 L11.75 41.43575248215283 L11.75 38.56424751784718 Z"></path><path d="M16.75 38.70647298030826 L16.75 38.70647298030826 L16.75 41.29352701969173 L16.75 41.29352701969173 L16.75 38.70647298030826 Z"></path><path d="M21.75 38.99113854476246 L21.75 38.99113854476246 L21.75 41.008861455237536 L21.75 41.008861455237536 L21.75 38.99113854476246 Z"></path><path d="M26.75 39.34967390116244 L26.75 39.34967390116244 L26.75 40.65032609883757 L26.75 40.65032609883757 L26.75 39.34967390116244 Z"></path><path d="M31.75 39.796614179887676 L31.75 39.796614179887676 L31.75 40.20338582011233 L31.75 40.20338582011233 L31.75 39.796614179887676 Z"></path><path d="M36.75 27.816210421815896 L36.75 27.816210421815896 L36.75 52.183789578184104 L36.75 52.183789578184104 L36.75 27.816210421815896 Z"></path><path d="M41.75 2.899173509840317 L41.75 2.899173509840317 L41.75 77.10082649015968 L41.75 77.10082649015968 L41.75 2.899173509840317 Z"></path><path d="M46.75 15.517992242606827 L46.75 15.517992242606827 L46.75 64.48200775739318 L46.75 64.48200775739318 L46.75 15.517992242606827 Z"></path><path d="M51.75 26.408112302812462 L51.75 26.408112302812462 L51.75 53.591887697187545 L51.75 53.591887697187545 L51.75 26.408112302812462 Z"></path><path d="M56.75 16.571302708796317 L56.75 16.571302708796317 L56.75 63.42869729120368 L56.75 63.42869729120368 L56.75 16.571302708796317 Z"></path><path d="M61.75 18.013317690026962 L61.75 18.013317690026962 L61.75 61.986682309973034 L61.75 61.986682309973034 L61.75 18.013317690026962 Z"></path><path d="M66.75 17.033258142625787 L66.75 17.033258142625787 L66.75 62.96674185737422 L66.75 62.96674185737422 L66.75 17.033258142625787 Z"></path><path d="M71.75 18.75079147647978 L71.75 18.75079147647978 L71.75 61.249208523520224 L71.75 61.249208523520224 L71.75 18.75079147647978 Z"></path><path d="M76.75 22.268511055830043 L76.75 22.268511055830043 L76.75 57.73148894416995 L76.75 57.73148894416995 L76.75 22.268511055830043 Z"></path><path d="M81.75 21.340510930238334 L81.75 21.340510930238334 L81.75 58.65948906976166 L81.75 58.65948906976166 L81.75 21.340510930238334 Z"></path><path d="M86.75 24.68839855629942 L86.75 24.68839855629942 L86.75 55.31160144370058 L86.75 55.31160144370058 L86.75 24.68839855629942 Z"></path><path d="M91.75 32.11683452319308 L91.75 32.11683452319308 L91.75 47.88316547680693 L91.75 47.88316547680693 L91.75 32.11683452319308 Z"></path><path d="M96.75 31.26978003164819 L96.75 31.26978003164819 L96.75 48.73021996835182 L96.75 48.73021996835182 L96.75 31.26978003164819 Z"></path><path d="M101.75 29.516388825102432 L101.75 29.516388825102432 L101.75 50.48361117489756 L101.75 50.48361117489756 L101.75 29.516388825102432 Z"></path><path d="M106.75 23.62558234985224 L106.75 23.62558234985224 L106.75 56.37441765014776 L106.75 56.37441765014776 L106.75 23.62558234985224 Z"></path><path d="M111.75 19.532825476258775 L111.75 19.532825476258775 L111.75 60.46717452374122 L111.75 60.46717452374122 L111.75 19.532825476258775 Z"></path><path d="M116.75 21.041293826980066 L116.75 21.041293826980066 L116.75 58.958706173019934 L116.75 58.958706173019934 L116.75 21.041293826980066 Z"></path><path d="M121.75 21.371883221638246 L121.75 21.371883221638246 L121.75 58.62811677836176 L121.75 58.62811677836176 L121.75 21.371883221638246 Z"></path><path d="M126.75 24.70946498558567 L126.75 24.70946498558567 L126.75 55.29053501441433 L126.75 55.29053501441433 L126.75 24.70946498558567 Z"></path><path d="M131.75 26.176318748204558 L131.75 26.176318748204558 L131.75 53.82368125179544 L131.75 53.82368125179544 L131.75 26.176318748204558 Z"></path><path d="M136.75 28.44297276099995 L136.75 28.44297276099995 L136.75 51.55702723900005 L136.75 51.55702723900005 L136.75 28.44297276099995 Z"></path><path d="M141.75 30.05264956495629 L141.75 30.05264956495629 L141.75 49.94735043504372 L141.75 49.94735043504372 L141.75 30.05264956495629 Z"></path><path d="M146.75 19.904818765499428 L146.75 19.904818765499428 L146.75 60.09518123450057 L146.75 60.09518123450057 L146.75 19.904818765499428 Z"></path><path d="M151.75 24.595046486849238 L151.75 24.595046486849238 L151.75 55.40495351315076 L151.75 55.40495351315076 L151.75 24.595046486849238 Z"></path><path d="M156.75 31.106901267111866 L156.75 31.106901267111866 L156.75 48.893098732888134 L156.75 48.893098732888134 L156.75 31.106901267111866 Z"></path><path d="M161.75 38.432037404281864 L161.75 38.432037404281864 L161.75 41.56796259571814 L161.75 41.56796259571814 L161.75 38.432037404281864 Z"></path><path d="M166.75 39.2348330235702 L166.75 39.2348330235702 L166.75 40.7651669764298 L166.75 40.7651669764298 L166.75 39.2348330235702 Z"></path><path d="M171.75 39.521719329327055 L171.75 39.521719329327055 L171.75 40.478280670672945 L171.75 40.478280670672945 L171.75 39.521719329327055 Z"></path><path d="M176.75 16.79584498031633 L176.75 16.79584498031633 L176.75 63.20415501968367 L176.75 63.20415501968367 L176.75 16.79584498031633 Z"></path><path d="M181.75 27.158251560418382 L181.75 27.158251560418382 L181.75 52.84174843958162 L181.75 52.84174843958162 L181.75 27.158251560418382 Z"></path><path d="M186.75 25.519340158671625 L186.75 25.519340158671625 L186.75 54.480659841328375 L186.75 54.480659841328375 L186.75 25.519340158671625 Z"></path><path d="M191.75 30.203881227142517 L191.75 30.203881227142517 L191.75 49.79611877285748 L191.75 49.79611877285748 L191.75 30.203881227142517 Z"></path><path d="M196.75 33.45994879429602 L196.75 33.45994879429602 L196.75 46.54005120570398 L196.75 46.54005120570398 L196.75 33.45994879429602 Z"></path><path d="M201.75 34.93957930887028 L201.75 34.93957930887028 L201.75 45.060420691129714 L201.75 45.060420691129714 L201.75 34.93957930887028 Z"></path><path d="M206.75 35.561036832970096 L206.75 35.561036832970096 L206.75 44.43896316702991 L206.75 44.43896316702991 L206.75 35.561036832970096 Z"></path><path d="M211.75 37.55150453923246 L211.75 37.55150453923246 L211.75 42.44849546076753 L211.75 42.44849546076753 L211.75 37.55150453923246 Z"></path><path d="M216.75 39.44809857501255 L216.75 39.44809857501255 L216.75 40.55190142498744 L216.75 40.55190142498744 L216.75 39.44809857501255 Z"></path><path d="M221.75 39.51628848259615 L221.75 39.51628848259615 L221.75 40.48371151740385 L221.75 40.48371151740385 L221.75 39.51628848259615 Z"></path><path d="M226.75 39.668709780102546 L226.75 39.668709780102546 L226.75 40.33129021989746 L226.75 40.33129021989746 L226.75 39.668709780102546 Z"></path><path d="M231.75 39.762346491341155 L231.75 39.762346491341155 L231.75 40.23765350865885 L231.75 40.23765350865885 L231.75 39.762346491341155 Z"></path><path d="M236.75 39.78874740227879 L236.75 39.78874740227879 L236.75 40.21125259772121 L236.75 40.21125259772121 L236.75 39.78874740227879 Z"></path><path d="M241.75 39.77057047665844 L241.75 39.77057047665844 L241.75 40.22942952334156 L241.75 40.22942952334156 L241.75 39.77057047665844 Z"></path><path d="M246.75 39.7888235405998 L246.75 39.7888235405998 L246.75 40.21117645940019 L246.75 40.21117645940019 L246.75 39.7888235405998 Z"></path><path d="M251.75 39.73093563289568 L251.75 39.73093563289568 L251.75 40.26906436710432 L251.75 40.26906436710432 L251.75 39.73093563289568 Z"></path><path d="M256.75 39.06235120331844 L256.75 39.06235120331844 L256.75 40.93764879668156 L256.75 40.93764879668156 L256.75 39.06235120331844 Z"></path><path d="M261.75 38.86505611419217 L261.75 38.86505611419217 L261.75 41.134943885807836 L261.75 41.134943885807836 L261.75 38.86505611419217 Z"></path><path d="M266.75 39.254842556629406 L266.75 39.254842556629406 L266.75 40.745157443370594 L266.75 40.745157443370594 L266.75 39.254842556629406 Z"></path><path d="M271.75 39.42996302423534 L271.75 39.42996302423534 L271.75 40.57003697576465 L271.75 40.57003697576465 L271.75 39.42996302423534 Z"></path><path d="M276.75 39.475695285217064 L276.75 39.475695285217064 L276.75 40.524304714782936 L276.75 40.524304714782936 L276.75 39.475695285217064 Z"></path><path d="M281.75 39.81953156234109 L281.75 39.81953156234109 L281.75 40.1804684376589 L281.75 40.1804684376589 L281.75 39.81953156234109 Z"></path><path d="M286.75 38.66472953405708 L286.75 38.66472953405708 L286.75 41.335270465942926 L286.75 41.335270465942926 L286.75 38.66472953405708 Z"></path><path d="M291.75 14.288285881790838 L291.75 14.288285881790838 L291.75 65.71171411820916 L291.75 65.71171411820916 L291.75 14.288285881790838 Z"></path><path d="M296.75 27.974170120294676 L296.75 27.974170120294676 L296.75 52.02582987970533 L296.75 52.02582987970533 L296.75 27.974170120294676 Z"></path><path d="M301.75 28.356167940563928 L301.75 28.356167940563928 L301.75 51.64383205943608 L301.75 51.64383205943608 L301.75 28.356167940563928 Z"></path><path d="M306.75 18.341664964284053 L306.75 18.341664964284053 L306.75 61.65833503571595 L306.75 61.65833503571595 L306.75 18.341664964284053 Z"></path><path d="M311.75 19.91009970274267 L311.75 19.91009970274267 L311.75 60.08990029725733 L311.75 60.08990029725733 L311.75 19.91009970274267 Z"></path><path d="M316.75 18.075597738120038 L316.75 18.075597738120038 L316.75 61.92440226187996 L316.75 61.92440226187996 L316.75 18.075597738120038 Z"></path><path d="M321.75 15.092667080182608 L321.75 15.092667080182608 L321.75 64.90733291981739 L321.75 64.90733291981739 L321.75 15.092667080182608 Z"></path><path d="M326.75 23.097514927202784 L326.75 23.097514927202784 L326.75 56.90248507279722 L326.75 56.90248507279722 L326.75 23.097514927202784 Z"></path><path d="M331.75 24.798945719417915 L331.75 24.798945719417915 L331.75 55.201054280582085 L331.75 55.201054280582085 L331.75 24.798945719417915 Z"></path><path d="M336.75 26.32437729430383 L336.75 26.32437729430383 L336.75 53.67562270569617 L336.75 53.67562270569617 L336.75 26.32437729430383 Z"></path><path d="M341.75 26.227314640447666 L341.75 26.227314640447666 L341.75 53.77268535955234 L341.75 53.77268535955234 L341.75 26.227314640447666 Z"></path><path d="M346.75 28.28706281378482 L346.75 28.28706281378482 L346.75 51.71293718621518 L346.75 51.71293718621518 L346.75 28.28706281378482 Z"></path><path d="M351.75 23.89284951217704 L351.75 23.89284951217704 L351.75 56.10715048782296 L351.75 56.10715048782296 L351.75 23.89284951217704 Z"></path><path d="M356.75 20.943211335113894 L356.75 20.943211335113894 L356.75 59.056788664886106 L356.75 59.056788664886106 L356.75 20.943211335113894 Z"></path><path d="M361.75 21.195666947309345 L361.75 21.195666947309345 L361.75 58.80433305269065 L361.75 58.80433305269065 L361.75 21.195666947309345 Z"></path><path d="M366.75 18.36974620274167 L366.75 18.36974620274167 L366.75 61.630253797258334 L366.75 61.630253797258334 L366.75 18.36974620274167 Z"></path><path d="M371.75 19.913372403023534 L371.75 19.913372403023534 L371.75 60.08662759697647 L371.75 60.08662759697647 L371.75 19.913372403023534 Z"></path><path d="M376.75 25.888132361086775 L376.75 25.888132361086775 L376.75 54.111867638913225 L376.75 54.111867638913225 L376.75 25.888132361086775 Z"></path><path d="M381.75 26.41931322698182 L381.75 26.41931322698182 L381.75 53.58068677301817 L381.75 53.58068677301817 L381.75 26.41931322698182 Z"></path><path d="M386.75 26.27390604034933 L386.75 26.27390604034933 L386.75 53.72609395965067 L386.75 53.72609395965067 L386.75 26.27390604034933 Z"></path><path d="M391.75 27.483416813214873 L391.75 27.483416813214873 L391.75 52.51658318678513 L391.75 52.51658318678513 L391.75 27.483416813214873 Z"></path><path d="M396.75 26.84527790497934 L396.75 26.84527790497934 L396.75 53.15472209502066 L396.75 53.15472209502066 L396.75 26.84527790497934 Z"></path><path d="M401.75 25.443189344610932 L401.75 25.443189344610932 L401.75 54.55681065538907 L401.75 54.55681065538907 L401.75 25.443189344610932 Z"></path><path d="M406.75 30.02356356509457 L406.75 30.02356356509457 L406.75 49.97643643490542 L406.75 49.97643643490542 L406.75 30.02356356509457 Z"></path><path d="M411.75 36.87106250982994 L411.75 36.87106250982994 L411.75 43.12893749017006 L411.75 43.12893749017006 L411.75 36.87106250982994 Z"></path><path d="M416.75 39.76548412128858 L416.75 39.76548412128858 L416.75 40.23451587871143 L416.75 40.23451587871143 L416.75 39.76548412128858 Z"></path><path d="M421.75 39.79276390848653 L421.75 39.79276390848653 L421.75 40.20723609151348 L421.75 40.20723609151348 L421.75 39.79276390848653 Z"></path><path d="M426.75 39.82538118819387 L426.75 39.82538118819387 L426.75 40.174618811806134 L426.75 40.174618811806134 L426.75 39.82538118819387 Z"></path><path d="M431.75 0 L431.75 0 L431.75 80 L431.75 80 L431.75 0 Z"></path><path d="M436.75 15.473943778914428 L436.75 15.473943778914428 L436.75 64.52605622108557 L436.75 64.52605622108557 L436.75 15.473943778914428 Z"></path><path d="M441.75 32.33451414280675 L441.75 32.33451414280675 L441.75 47.66548585719325 L441.75 47.66548585719325 L441.75 32.33451414280675 Z"></path><path d="M446.75 39.65694015357122 L446.75 39.65694015357122 L446.75 40.34305984642878 L446.75 40.34305984642878 L446.75 39.65694015357122 Z"></path><path d="M451.75 39.776557105911955 L451.75 39.776557105911955 L451.75 40.22344289408805 L451.75 40.22344289408805 L451.75 39.776557105911955 Z"></path><path d="M456.75 39.78209274224464 L456.75 39.78209274224464 L456.75 40.217907257755364 L456.75 40.217907257755364 L456.75 39.78209274224464 Z"></path><path d="M461.75 29.850424661214532 L461.75 29.850424661214532 L461.75 50.14957533878547 L461.75 50.14957533878547 L461.75 29.850424661214532 Z"></path><path d="M466.75 3.302701020238132 L466.75 3.302701020238132 L466.75 76.69729897976187 L466.75 76.69729897976187 L466.75 3.302701020238132 Z"></path><path d="M471.75 10.619619562404328 L471.75 10.619619562404328 L471.75 69.38038043759568 L471.75 69.38038043759568 L471.75 10.619619562404328 Z"></path><path d="M476.75 20.47663169505611 L476.75 20.47663169505611 L476.75 59.52336830494389 L476.75 59.52336830494389 L476.75 20.47663169505611 Z"></path><path d="M481.75 28.47056855045785 L481.75 28.47056855045785 L481.75 51.529431449542145 L481.75 51.529431449542145 L481.75 28.47056855045785 Z"></path><path d="M486.75 29.49342963129132 L486.75 29.49342963129132 L486.75 50.50657036870868 L486.75 50.50657036870868 L486.75 29.49342963129132 Z"></path><path d="M491.75 31.766938357402168 L491.75 31.766938357402168 L491.75 48.23306164259783 L491.75 48.23306164259783 L491.75 31.766938357402168 Z"></path><path d="M496.75 33.31255996831416 L496.75 33.31255996831416 L496.75 46.68744003168584 L496.75 46.68744003168584 L496.75 33.31255996831416 Z"></path></svg>