<?xml version="1.0" standalone="no"?><!DOCTYPE svg PUBLIC "-//W3C//DTD SVG 1.1//EN" "http://www.w3.org/Graphics/SVG/1.1/DTD/svg11.dtd"><svg id="c30f8da9-f4fd-6f16-149c-71281c5c8703" xmlns="http://www.w3.org/2000/svg" version="1.1" viewBox="0 0 500 80"><style type="text/css">path{stroke:white;stroke-width:3.5}</style><path d="M1.75 39.61007362162962 L1.75 39.61007362162962 L1.75 40.389926378370376 L1.75 40.389926378370376 L1.75 39.61007362162962 Z"></path><path d="M6.75 38.16994651982267 L6.75 38.16994651982267 L6.75 41.83005348017733 L6.75 41.83005348017733 L6.75 38.16994651982267 Z"></path><path d="M11.75 38.44615083921281 L11.75 38.44615083921281 L11.75 41.553849160787195 L11.75 41.553849160787195 L11.75 38.44615083921281 Z"></path><path d="M16.75 38.478312249916605 L16.75 38.478312249916605 L16.75 41.521687750083395 L16.75 41.521687750083395 L16.75 38.478312249916605 Z"></path><path d="M21.75 38.97289195625442 L21.75 38.97289195625442 L21.75 41.02710804374558 L21.75 41.02710804374558 L21.75 38.97289195625442 Z"></path><path d="M26.75 39.711505700981355 L26.75 39.711505700981355 L26.75 40.288494299018645 L26.75 40.288494299018645 L26.75 39.711505700981355 Z"></path><path d="M31.75 31.16060454296982 L31.75 31.16060454296982 L31.75 48.83939545703018 L31.75 48.83939545703018 L31.75 31.16060454296982 Z"></path><path d="M36.75 21.269237127523752 L36.75 21.269237127523752 L36.75 58.73076287247625 L36.75 58.73076287247625 L36.75 21.269237127523752 Z"></path><path d="M41.75 1.5366156981762273 L41.75 1.5366156981762273 L41.75 78.46338430182377 L41.75 78.46338430182377 L41.75 1.5366156981762273 Z"></path><path d="M46.75 19.344034947041482 L46.75 19.344034947041482 L46.75 60.65596505295852 L46.75 60.65596505295852 L46.75 19.344034947041482 Z"></path><path d="M51.75 16.435340404708196 L51.75 16.435340404708196 L51.75 63.5646595952918 L51.75 63.5646595952918 L51.75 16.435340404708196 Z"></path><path d="M56.75 0.11840270968316702 L56.75 0.11840270968316702 L56.75 79.88159729031683 L56.75 79.88159729031683 L56.75 0.11840270968316702 Z"></path><path d="M61.75 9.552774290325015 L61.75 9.552774290325015 L61.75 70.44722570967498 L61.75 70.44722570967498 L61.75 9.552774290325015 Z"></path><path d="M66.75 5.269013240643552 L66.75 5.269013240643552 L66.75 74.73098675935645 L66.75 74.73098675935645 L66.75 5.269013240643552 Z"></path><path d="M71.75 9.823542095552657 L71.75 9.823542095552657 L71.75 70.17645790444735 L71.75 70.17645790444735 L71.75 9.823542095552657 Z"></path><path d="M76.75 12.89144375793413 L76.75 12.89144375793413 L76.75 67.10855624206587 L76.75 67.10855624206587 L76.75 12.89144375793413 Z"></path><path d="M81.75 13.840685753711316 L81.75 13.840685753711316 L81.75 66.15931424628869 L81.75 66.15931424628869 L81.75 13.840685753711316 Z"></path><path d="M86.75 9.676159066451955 L86.75 9.676159066451955 L86.75 70.32384093354804 L86.75 70.32384093354804 L86.75 9.676159066451955 Z"></path><path d="M91.75 6.8820091915472545 L91.75 6.8820091915472545 L91.75 73.11799080845275 L91.75 73.11799080845275 L91.75 6.8820091915472545 Z"></path><path d="M96.75 13.735453413094667 L96.75 13.735453413094667 L96.75 66.26454658690534 L96.75 66.26454658690534 L96.75 13.735453413094667 Z"></path><path d="M101.75 6.073725902923371 L101.75 6.073725902923371 L101.75 73.92627409707663 L101.75 73.92627409707663 L101.75 6.073725902923371 Z"></path><path d="M106.75 10.486685151998891 L106.75 10.486685151998891 L106.75 69.5133148480011 L106.75 69.5133148480011 L106.75 10.486685151998891 Z"></path><path d="M111.75 7.59367425278986 L111.75 7.59367425278986 L111.75 72.40632574721013 L111.75 72.40632574721013 L111.75 7.59367425278986 Z"></path><path d="M116.75 0 L116.75 0 L116.75 80 L116.75 80 L116.75 0 Z"></path><path d="M121.75 12.24143796051407 L121.75 12.24143796051407 L121.75 67.75856203948592 L121.75 67.75856203948592 L121.75 12.24143796051407 Z"></path><path d="M126.75 15.760741511856931 L126.75 15.760741511856931 L126.75 64.23925848814307 L126.75 64.23925848814307 L126.75 15.760741511856931 Z"></path><path d="M131.75 13.453243135805899 L131.75 13.453243135805899 L131.75 66.5467568641941 L131.75 66.5467568641941 L131.75 13.453243135805899 Z"></path><path d="M136.75 18.689640567569235 L136.75 18.689640567569235 L136.75 61.310359432430765 L136.75 61.310359432430765 L136.75 18.689640567569235 Z"></path><path d="M141.75 20.999059439813482 L141.75 20.999059439813482 L141.75 59.00094056018652 L141.75 59.00094056018652 L141.75 20.999059439813482 Z"></path><path d="M146.75 18.15082518002375 L146.75 18.15082518002375 L146.75 61.84917481997625 L146.75 61.84917481997625 L146.75 18.15082518002375 Z"></path><path d="M151.75 15.048886834788945 L151.75 15.048886834788945 L151.75 64.95111316521105 L151.75 64.95111316521105 L151.75 15.048886834788945 Z"></path><path d="M156.75 12.675439357827656 L156.75 12.675439357827656 L156.75 67.32456064217234 L156.75 67.32456064217234 L156.75 12.675439357827656 Z"></path><path d="M161.75 7.728501267148211 L161.75 7.728501267148211 L161.75 72.2714987328518 L161.75 72.2714987328518 L161.75 7.728501267148211 Z"></path><path d="M166.75 18.057448764940577 L166.75 18.057448764940577 L166.75 61.942551235059426 L166.75 61.942551235059426 L166.75 18.057448764940577 Z"></path><path d="M171.75 27.154348214748023 L171.75 27.154348214748023 L171.75 52.845651785251974 L171.75 52.845651785251974 L171.75 27.154348214748023 Z"></path><path d="M176.75 15.704499260034783 L176.75 15.704499260034783 L176.75 64.29550073996522 L176.75 64.29550073996522 L176.75 15.704499260034783 Z"></path><path d="M181.75 11.6956136875943 L181.75 11.6956136875943 L181.75 68.3043863124057 L181.75 68.3043863124057 L181.75 11.6956136875943 Z"></path><path d="M186.75 8.629593343963148 L186.75 8.629593343963148 L186.75 71.37040665603685 L186.75 71.37040665603685 L186.75 8.629593343963148 Z"></path><path d="M191.75 16.210620404925624 L191.75 16.210620404925624 L191.75 63.78937959507438 L191.75 63.78937959507438 L191.75 16.210620404925624 Z"></path><path d="M196.75 16.55124980004655 L196.75 16.55124980004655 L196.75 63.44875019995345 L196.75 63.44875019995345 L196.75 16.55124980004655 Z"></path><path d="M201.75 18.21003930290953 L201.75 18.21003930290953 L201.75 61.78996069709047 L201.75 61.78996069709047 L201.75 18.21003930290953 Z"></path><path d="M206.75 22.514548082384465 L206.75 22.514548082384465 L206.75 57.485451917615535 L206.75 57.485451917615535 L206.75 22.514548082384465 Z"></path><path d="M211.75 12.555264025754639 L211.75 12.555264025754639 L211.75 67.44473597424536 L211.75 67.44473597424536 L211.75 12.555264025754639 Z"></path><path d="M216.75 18.12814243503561 L216.75 18.12814243503561 L216.75 61.87185756496439 L216.75 61.87185756496439 L216.75 18.12814243503561 Z"></path><path d="M221.75 21.56130720896479 L221.75 21.56130720896479 L221.75 58.43869279103521 L221.75 58.43869279103521 L221.75 21.56130720896479 Z"></path><path d="M226.75 23.735420699828346 L226.75 23.735420699828346 L226.75 56.264579300171654 L226.75 56.264579300171654 L226.75 23.735420699828346 Z"></path><path d="M231.75 26.445708603888136 L231.75 26.445708603888136 L231.75 53.554291396111864 L231.75 53.554291396111864 L231.75 26.445708603888136 Z"></path><path d="M236.75 28.365687941653995 L236.75 28.365687941653995 L236.75 51.634312058346 L236.75 51.634312058346 L236.75 28.365687941653995 Z"></path><path d="M241.75 35.476405604736925 L241.75 35.476405604736925 L241.75 44.52359439526307 L241.75 44.52359439526307 L241.75 35.476405604736925 Z"></path><path d="M246.75 39.765309063677066 L246.75 39.765309063677066 L246.75 40.23469093632293 L246.75 40.23469093632293 L246.75 39.765309063677066 Z"></path><path d="M251.75 39.55455491069975 L251.75 39.55455491069975 L251.75 40.44544508930026 L251.75 40.44544508930026 L251.75 39.55455491069975 Z"></path><path d="M256.75 39.082549863020745 L256.75 39.082549863020745 L256.75 40.917450136979255 L256.75 40.917450136979255 L256.75 39.082549863020745 Z"></path><path d="M261.75 38.76964510618179 L261.75 38.76964510618179 L261.75 41.23035489381821 L261.75 41.23035489381821 L261.75 38.76964510618179 Z"></path><path d="M266.75 38.6950403908179 L266.75 38.6950403908179 L266.75 41.30495960918209 L266.75 41.30495960918209 L266.75 38.6950403908179 Z"></path><path d="M271.75 39.10867554923508 L271.75 39.10867554923508 L271.75 40.89132445076492 L271.75 40.89132445076492 L271.75 39.10867554923508 Z"></path><path d="M276.75 39.66898459549858 L276.75 39.66898459549858 L276.75 40.33101540450143 L276.75 40.33101540450143 L276.75 39.66898459549858 Z"></path><path d="M281.75 35.062723846879805 L281.75 35.062723846879805 L281.75 44.9372761531202 L281.75 44.9372761531202 L281.75 35.062723846879805 Z"></path><path d="M286.75 11.670173628912774 L286.75 11.670173628912774 L286.75 68.32982637108722 L286.75 68.32982637108722 L286.75 11.670173628912774 Z"></path><path d="M291.75 9.93087153025849 L291.75 9.93087153025849 L291.75 70.06912846974151 L291.75 70.06912846974151 L291.75 9.93087153025849 Z"></path><path d="M296.75 23.770333763311477 L296.75 23.770333763311477 L296.75 56.22966623668852 L296.75 56.22966623668852 L296.75 23.770333763311477 Z"></path><path d="M301.75 9.226637023711763 L301.75 9.226637023711763 L301.75 70.77336297628824 L301.75 70.77336297628824 L301.75 9.226637023711763 Z"></path><path d="M306.75 7.577789732204387 L306.75 7.577789732204387 L306.75 72.4222102677956 L306.75 72.4222102677956 L306.75 7.577789732204387 Z"></path><path d="M311.75 8.14376200242507 L311.75 8.14376200242507 L311.75 71.85623799757494 L311.75 71.85623799757494 L311.75 8.14376200242507 Z"></path><path d="M316.75 4.1645929382009115 L316.75 4.1645929382009115 L316.75 75.83540706179909 L316.75 75.83540706179909 L316.75 4.1645929382009115 Z"></path><path d="M321.75 9.134561943090699 L321.75 9.134561943090699 L321.75 70.8654380569093 L321.75 70.8654380569093 L321.75 9.134561943090699 Z"></path><path d="M326.75 13.136679034218727 L326.75 13.136679034218727 L326.75 66.86332096578127 L326.75 66.86332096578127 L326.75 13.136679034218727 Z"></path><path d="M331.75 11.134769664712817 L331.75 11.134769664712817 L331.75 68.86523033528718 L331.75 68.86523033528718 L331.75 11.134769664712817 Z"></path><path d="M336.75 10.315213134879336 L336.75 10.315213134879336 L336.75 69.68478686512066 L336.75 69.68478686512066 L336.75 10.315213134879336 Z"></path><path d="M341.75 10.486180398939108 L341.75 10.486180398939108 L341.75 69.51381960106089 L341.75 69.51381960106089 L341.75 10.486180398939108 Z"></path><path d="M346.75 16.004444461665404 L346.75 16.004444461665404 L346.75 63.9955555383346 L346.75 63.9955555383346 L346.75 16.004444461665404 Z"></path><path d="M351.75 5.0055493661171155 L351.75 5.0055493661171155 L351.75 74.99445063388288 L351.75 74.99445063388288 L351.75 5.0055493661171155 Z"></path><path d="M356.75 14.227559636865703 L356.75 14.227559636865703 L356.75 65.7724403631343 L356.75 65.7724403631343 L356.75 14.227559636865703 Z"></path><path d="M361.75 13.021997128863244 L361.75 13.021997128863244 L361.75 66.97800287113675 L361.75 66.97800287113675 L361.75 13.021997128863244 Z"></path><path d="M366.75 8.39126755838457 L366.75 8.39126755838457 L366.75 71.60873244161543 L366.75 71.60873244161543 L366.75 8.39126755838457 Z"></path><path d="M371.75 11.572931268710338 L371.75 11.572931268710338 L371.75 68.42706873128967 L371.75 68.42706873128967 L371.75 11.572931268710338 Z"></path><path d="M376.75 18.10153818734187 L376.75 18.10153818734187 L376.75 61.89846181265813 L376.75 61.89846181265813 L376.75 18.10153818734187 Z"></path><path d="M381.75 20.308094075010203 L381.75 20.308094075010203 L381.75 59.6919059249898 L381.75 59.6919059249898 L381.75 20.308094075010203 Z"></path><path d="M386.75 18.324534679536136 L386.75 18.324534679536136 L386.75 61.675465320463864 L386.75 61.675465320463864 L386.75 18.324534679536136 Z"></path><path d="M391.75 24.46939869337354 L391.75 24.46939869337354 L391.75 55.53060130662645 L391.75 55.53060130662645 L391.75 24.46939869337354 Z"></path><path d="M396.75 26.689850251800873 L396.75 26.689850251800873 L396.75 53.31014974819912 L396.75 53.31014974819912 L396.75 26.689850251800873 Z"></path><path d="M401.75 20.682757962073538 L401.75 20.682757962073538 L401.75 59.31724203792646 L401.75 59.31724203792646 L401.75 20.682757962073538 Z"></path><path d="M406.75 21.343946078919114 L406.75 21.343946078919114 L406.75 58.65605392108088 L406.75 58.65605392108088 L406.75 21.343946078919114 Z"></path><path d="M411.75 21.239947213027104 L411.75 21.239947213027104 L411.75 58.76005278697289 L411.75 58.76005278697289 L411.75 21.239947213027104 Z"></path><path d="M416.75 19.364799604679952 L416.75 19.364799604679952 L416.75 60.63520039532005 L416.75 60.63520039532005 L416.75 19.364799604679952 Z"></path><path d="M421.75 27.971789063649837 L421.75 27.971789063649837 L421.75 52.02821093635016 L421.75 52.02821093635016 L421.75 27.971789063649837 Z"></path><path d="M426.75 19.768393367516932 L426.75 19.768393367516932 L426.75 60.231606632483064 L426.75 60.231606632483064 L426.75 19.768393367516932 Z"></path><path d="M431.75 16.251292019465705 L431.75 16.251292019465705 L431.75 63.74870798053429 L431.75 63.74870798053429 L431.75 16.251292019465705 Z"></path><path d="M436.75 15.93830195696015 L436.75 15.93830195696015 L436.75 64.06169804303985 L436.75 64.06169804303985 L436.75 15.93830195696015 Z"></path><path d="M441.75 18.843872742018096 L441.75 18.843872742018096 L441.75 61.15612725798191 L441.75 61.15612725798191 L441.75 18.843872742018096 Z"></path><path d="M446.75 12.879501451775468 L446.75 12.879501451775468 L446.75 67.12049854822453 L446.75 67.12049854822453 L446.75 12.879501451775468 Z"></path><path d="M451.75 19.632739706317945 L451.75 19.632739706317945 L451.75 60.36726029368205 L451.75 60.36726029368205 L451.75 19.632739706317945 Z"></path><path d="M456.75 20.586201995308468 L456.75 20.586201995308468 L456.75 59.41379800469153 L456.75 59.41379800469153 L456.75 20.586201995308468 Z"></path><path d="M461.75 23.913524193305417 L461.75 23.913524193305417 L461.75 56.08647580669458 L461.75 56.08647580669458 L461.75 23.913524193305417 Z"></path><path d="M466.75 20.268004795332484 L466.75 20.268004795332484 L466.75 59.73199520466751 L466.75 59.73199520466751 L466.75 20.268004795332484 Z"></path><path d="M471.75 21.433748641850784 L471.75 21.433748641850784 L471.75 58.566251358149216 L471.75 58.566251358149216 L471.75 21.433748641850784 Z"></path><path d="M476.75 25.788287060274158 L476.75 25.788287060274158 L476.75 54.21171293972584 L476.75 54.21171293972584 L476.75 25.788287060274158 Z"></path><path d="M481.75 25.618515548757166 L481.75 25.618515548757166 L481.75 54.38148445124284 L481.75 54.38148445124284 L481.75 25.618515548757166 Z"></path><path d="M486.75 25.75707268819446 L486.75 25.75707268819446 L486.75 54.242927311805545 L486.75 54.242927311805545 L486.75 25.75707268819446 Z"></path><path d="M491.75 25.82951742315548 L491.75 25.82951742315548 L491.75 54.17048257684452 L491.75 54.17048257684452 L491.75 25.82951742315548 Z"></path><path d="M496.75 27.496962176625175 L496.75 27.496962176625175 L496.75 52.503037823374825 L496.75 52.503037823374825 L496.75 27.496962176625175 Z"></path></svg>