<?xml version="1.0" standalone="no"?><!DOCTYPE svg PUBLIC "-//W3C//DTD SVG 1.1//EN" "http://www.w3.org/Graphics/SVG/1.1/DTD/svg11.dtd"><svg id="36e65456-094e-fa28-2414-e1c4fefc41c0" xmlns="http://www.w3.org/2000/svg" version="1.1" viewBox="0 0 500 80"><style type="text/css">path{stroke:white;stroke-width:3.5}</style><path d="M1.75 24.351030330042597 L1.75 24.351030330042597 L1.75 55.64896966995741 L1.75 55.64896966995741 L1.75 24.351030330042597 Z"></path><path d="M6.75 17.833576798656924 L6.75 17.833576798656924 L6.75 62.16642320134308 L6.75 62.16642320134308 L6.75 17.833576798656924 Z"></path><path d="M11.75 20.130111362053704 L11.75 20.130111362053704 L11.75 59.869888637946296 L11.75 59.869888637946296 L11.75 20.130111362053704 Z"></path><path d="M16.75 18.187710346321445 L16.75 18.187710346321445 L16.75 61.812289653678555 L16.75 61.812289653678555 L16.75 18.187710346321445 Z"></path><path d="M21.75 19.13636039010588 L21.75 19.13636039010588 L21.75 60.86363960989412 L21.75 60.86363960989412 L21.75 19.13636039010588 Z"></path><path d="M26.75 21.2274489312816 L26.75 21.2274489312816 L26.75 58.7725510687184 L26.75 58.7725510687184 L26.75 21.2274489312816 Z"></path><path d="M31.75 19.88324942767459 L31.75 19.88324942767459 L31.75 60.116750572325415 L31.75 60.116750572325415 L31.75 19.88324942767459 Z"></path><path d="M36.75 19.674746629378113 L36.75 19.674746629378113 L36.75 60.32525337062189 L36.75 60.32525337062189 L36.75 19.674746629378113 Z"></path><path d="M41.75 22.438678370560353 L41.75 22.438678370560353 L41.75 57.56132162943965 L41.75 57.56132162943965 L41.75 22.438678370560353 Z"></path><path d="M46.75 21.31327280142908 L46.75 21.31327280142908 L46.75 58.68672719857092 L46.75 58.68672719857092 L46.75 21.31327280142908 Z"></path><path d="M51.75 15.62353277924083 L51.75 15.62353277924083 L51.75 64.37646722075917 L51.75 64.37646722075917 L51.75 15.62353277924083 Z"></path><path d="M56.75 19.677657290908463 L56.75 19.677657290908463 L56.75 60.32234270909154 L56.75 60.32234270909154 L56.75 19.677657290908463 Z"></path><path d="M61.75 22.463049406654395 L61.75 22.463049406654395 L61.75 57.53695059334561 L61.75 57.53695059334561 L61.75 22.463049406654395 Z"></path><path d="M66.75 22.400621110735337 L66.75 22.400621110735337 L66.75 57.59937888926466 L66.75 57.59937888926466 L66.75 22.400621110735337 Z"></path><path d="M71.75 16.115013204673755 L71.75 16.115013204673755 L71.75 63.88498679532624 L71.75 63.88498679532624 L71.75 16.115013204673755 Z"></path><path d="M76.75 20.77367598884287 L76.75 20.77367598884287 L76.75 59.22632401115713 L76.75 59.22632401115713 L76.75 20.77367598884287 Z"></path><path d="M81.75 23.014261966524813 L81.75 23.014261966524813 L81.75 56.98573803347519 L81.75 56.98573803347519 L81.75 23.014261966524813 Z"></path><path d="M86.75 26.963947414902968 L86.75 26.963947414902968 L86.75 53.03605258509703 L86.75 53.03605258509703 L86.75 26.963947414902968 Z"></path><path d="M91.75 35.710155096744984 L91.75 35.710155096744984 L91.75 44.28984490325501 L91.75 44.28984490325501 L91.75 35.710155096744984 Z"></path><path d="M96.75 37.47672586117679 L96.75 37.47672586117679 L96.75 42.52327413882321 L96.75 42.52327413882321 L96.75 37.47672586117679 Z"></path><path d="M101.75 37.16880986352062 L101.75 37.16880986352062 L101.75 42.831190136479385 L101.75 42.831190136479385 L101.75 37.16880986352062 Z"></path><path d="M106.75 38.59973139329462 L106.75 38.59973139329462 L106.75 41.40026860670539 L106.75 41.40026860670539 L106.75 38.59973139329462 Z"></path><path d="M111.75 39.36007892504113 L111.75 39.36007892504113 L111.75 40.63992107495886 L111.75 40.63992107495886 L111.75 39.36007892504113 Z"></path><path d="M116.75 28.04206072902588 L116.75 28.04206072902588 L116.75 51.95793927097412 L116.75 51.95793927097412 L116.75 28.04206072902588 Z"></path><path d="M121.75 30.719944968917083 L121.75 30.719944968917083 L121.75 49.28005503108292 L121.75 49.28005503108292 L121.75 30.719944968917083 Z"></path><path d="M126.75 30.057933687331015 L126.75 30.057933687331015 L126.75 49.942066312668985 L126.75 49.942066312668985 L126.75 30.057933687331015 Z"></path><path d="M131.75 32.22936262414901 L131.75 32.22936262414901 L131.75 47.770637375850995 L131.75 47.770637375850995 L131.75 32.22936262414901 Z"></path><path d="M136.75 34.66868657781446 L136.75 34.66868657781446 L136.75 45.331313422185545 L136.75 45.331313422185545 L136.75 34.66868657781446 Z"></path><path d="M141.75 39.3925972467967 L141.75 39.3925972467967 L141.75 40.60740275320331 L141.75 40.60740275320331 L141.75 39.3925972467967 Z"></path><path d="M146.75 28.033890308981817 L146.75 28.033890308981817 L146.75 51.96610969101819 L146.75 51.96610969101819 L146.75 28.033890308981817 Z"></path><path d="M151.75 28.515465266858143 L151.75 28.515465266858143 L151.75 51.48453473314186 L151.75 51.48453473314186 L151.75 28.515465266858143 Z"></path><path d="M156.75 32.29915404391704 L156.75 32.29915404391704 L156.75 47.700845956082965 L156.75 47.700845956082965 L156.75 32.29915404391704 Z"></path><path d="M161.75 34.487027306055154 L161.75 34.487027306055154 L161.75 45.512972693944846 L161.75 45.512972693944846 L161.75 34.487027306055154 Z"></path><path d="M166.75 34.971627002792665 L166.75 34.971627002792665 L166.75 45.02837299720733 L166.75 45.02837299720733 L166.75 34.971627002792665 Z"></path><path d="M171.75 37.13031530579462 L171.75 37.13031530579462 L171.75 42.86968469420538 L171.75 42.86968469420538 L171.75 37.13031530579462 Z"></path><path d="M176.75 36.86845717259819 L176.75 36.86845717259819 L176.75 43.1315428274018 L176.75 43.1315428274018 L176.75 36.86845717259819 Z"></path><path d="M181.75 24.183783454941384 L181.75 24.183783454941384 L181.75 55.816216545058616 L181.75 55.816216545058616 L181.75 24.183783454941384 Z"></path><path d="M186.75 25.456063268692645 L186.75 25.456063268692645 L186.75 54.543936731307355 L186.75 54.543936731307355 L186.75 25.456063268692645 Z"></path><path d="M191.75 29.140360678712494 L191.75 29.140360678712494 L191.75 50.8596393212875 L191.75 50.8596393212875 L191.75 29.140360678712494 Z"></path><path d="M196.75 32.109875199429666 L196.75 32.109875199429666 L196.75 47.89012480057033 L196.75 47.89012480057033 L196.75 32.109875199429666 Z"></path><path d="M201.75 33.40334592864514 L201.75 33.40334592864514 L201.75 46.59665407135486 L201.75 46.59665407135486 L201.75 33.40334592864514 Z"></path><path d="M206.75 36.50969959446893 L206.75 36.50969959446893 L206.75 43.49030040553107 L206.75 43.49030040553107 L206.75 36.50969959446893 Z"></path><path d="M211.75 28.95558008934531 L211.75 28.95558008934531 L211.75 51.04441991065469 L211.75 51.04441991065469 L211.75 28.95558008934531 Z"></path><path d="M216.75 29.150057705302526 L216.75 29.150057705302526 L216.75 50.84994229469747 L216.75 50.84994229469747 L216.75 29.150057705302526 Z"></path><path d="M221.75 22.255834751312594 L221.75 22.255834751312594 L221.75 57.74416524868741 L221.75 57.74416524868741 L221.75 22.255834751312594 Z"></path><path d="M226.75 0 L226.75 0 L226.75 80 L226.75 80 L226.75 0 Z"></path><path d="M231.75 19.12465124389894 L231.75 19.12465124389894 L231.75 60.87534875610106 L231.75 60.87534875610106 L231.75 19.12465124389894 Z"></path><path d="M236.75 17.1412153105353 L236.75 17.1412153105353 L236.75 62.8587846894647 L236.75 62.8587846894647 L236.75 17.1412153105353 Z"></path><path d="M241.75 21.03247362909306 L241.75 21.03247362909306 L241.75 58.96752637090694 L241.75 58.96752637090694 L241.75 21.03247362909306 Z"></path><path d="M246.75 19.82778343702759 L246.75 19.82778343702759 L246.75 60.17221656297241 L246.75 60.17221656297241 L246.75 19.82778343702759 Z"></path><path d="M251.75 26.621303233252064 L251.75 26.621303233252064 L251.75 53.378696766747936 L251.75 53.378696766747936 L251.75 26.621303233252064 Z"></path><path d="M256.75 13.932798938984885 L256.75 13.932798938984885 L256.75 66.06720106101511 L256.75 66.06720106101511 L256.75 13.932798938984885 Z"></path><path d="M261.75 9.514641603019736 L261.75 9.514641603019736 L261.75 70.48535839698026 L261.75 70.48535839698026 L261.75 9.514641603019736 Z"></path><path d="M266.75 16.73741998543962 L266.75 16.73741998543962 L266.75 63.262580014560385 L266.75 63.262580014560385 L266.75 16.73741998543962 Z"></path><path d="M271.75 22.444193031522204 L271.75 22.444193031522204 L271.75 57.555806968477796 L271.75 57.555806968477796 L271.75 22.444193031522204 Z"></path><path d="M276.75 13.418152706752053 L276.75 13.418152706752053 L276.75 66.58184729324795 L276.75 66.58184729324795 L276.75 13.418152706752053 Z"></path><path d="M281.75 16.193388180082895 L281.75 16.193388180082895 L281.75 63.80661181991711 L281.75 63.80661181991711 L281.75 16.193388180082895 Z"></path><path d="M286.75 19.34041517196967 L286.75 19.34041517196967 L286.75 60.65958482803033 L286.75 60.65958482803033 L286.75 19.34041517196967 Z"></path><path d="M291.75 20.086228575956603 L291.75 20.086228575956603 L291.75 59.9137714240434 L291.75 59.9137714240434 L291.75 20.086228575956603 Z"></path><path d="M296.75 21.994472327258773 L296.75 21.994472327258773 L296.75 58.00552767274122 L296.75 58.00552767274122 L296.75 21.994472327258773 Z"></path><path d="M301.75 19.053323508477803 L301.75 19.053323508477803 L301.75 60.9466764915222 L301.75 60.9466764915222 L301.75 19.053323508477803 Z"></path><path d="M306.75 16.42628447463877 L306.75 16.42628447463877 L306.75 63.57371552536123 L306.75 63.57371552536123 L306.75 16.42628447463877 Z"></path><path d="M311.75 19.301117080064923 L311.75 19.301117080064923 L311.75 60.69888291993507 L311.75 60.69888291993507 L311.75 19.301117080064923 Z"></path><path d="M316.75 20.371882716677792 L316.75 20.371882716677792 L316.75 59.62811728332221 L316.75 59.62811728332221 L316.75 20.371882716677792 Z"></path><path d="M321.75 12.370499764604787 L321.75 12.370499764604787 L321.75 67.62950023539521 L321.75 67.62950023539521 L321.75 12.370499764604787 Z"></path><path d="M326.75 17.0776142712553 L326.75 17.0776142712553 L326.75 62.9223857287447 L326.75 62.9223857287447 L326.75 17.0776142712553 Z"></path><path d="M331.75 22.333829760527674 L331.75 22.333829760527674 L331.75 57.66617023947232 L331.75 57.66617023947232 L331.75 22.333829760527674 Z"></path><path d="M336.75 24.08438112344988 L336.75 24.08438112344988 L336.75 55.91561887655013 L336.75 55.91561887655013 L336.75 24.08438112344988 Z"></path><path d="M341.75 36.69505212226601 L341.75 36.69505212226601 L341.75 43.30494787773399 L341.75 43.30494787773399 L341.75 36.69505212226601 Z"></path><path d="M346.75 38.072153417177724 L346.75 38.072153417177724 L346.75 41.92784658282228 L346.75 41.92784658282228 L346.75 38.072153417177724 Z"></path><path d="M351.75 38.84562160006294 L351.75 38.84562160006294 L351.75 41.15437839993706 L351.75 41.15437839993706 L351.75 38.84562160006294 Z"></path><path d="M356.75 39.18637720829177 L356.75 39.18637720829177 L356.75 40.81362279170823 L356.75 40.81362279170823 L356.75 39.18637720829177 Z"></path><path d="M361.75 39.44189911328958 L361.75 39.44189911328958 L361.75 40.55810088671042 L361.75 40.55810088671042 L361.75 39.44189911328958 Z"></path><path d="M366.75 21.172659916685742 L366.75 21.172659916685742 L366.75 58.827340083314255 L366.75 58.827340083314255 L366.75 21.172659916685742 Z"></path><path d="M371.75 22.364780911953005 L371.75 22.364780911953005 L371.75 57.635219088046995 L371.75 57.635219088046995 L371.75 22.364780911953005 Z"></path><path d="M376.75 26.521331673074528 L376.75 26.521331673074528 L376.75 53.47866832692547 L376.75 53.47866832692547 L376.75 26.521331673074528 Z"></path><path d="M381.75 31.757822842016765 L381.75 31.757822842016765 L381.75 48.242177157983235 L381.75 48.242177157983235 L381.75 31.757822842016765 Z"></path><path d="M386.75 35.199357331612944 L386.75 35.199357331612944 L386.75 44.80064266838706 L386.75 44.80064266838706 L386.75 35.199357331612944 Z"></path><path d="M391.75 39.42689765840435 L391.75 39.42689765840435 L391.75 40.57310234159565 L391.75 40.57310234159565 L391.75 39.42689765840435 Z"></path><path d="M396.75 36.11713620770426 L396.75 36.11713620770426 L396.75 43.88286379229574 L396.75 43.88286379229574 L396.75 36.11713620770426 Z"></path><path d="M401.75 32.71491194187519 L401.75 32.71491194187519 L401.75 47.28508805812482 L401.75 47.28508805812482 L401.75 32.71491194187519 Z"></path><path d="M406.75 35.03514707224278 L406.75 35.03514707224278 L406.75 44.96485292775723 L406.75 44.96485292775723 L406.75 35.03514707224278 Z"></path><path d="M411.75 36.02446437943136 L411.75 36.02446437943136 L411.75 43.97553562056864 L411.75 43.97553562056864 L411.75 36.02446437943136 Z"></path><path d="M416.75 39.33261378281454 L416.75 39.33261378281454 L416.75 40.66738621718546 L416.75 40.66738621718546 L416.75 39.33261378281454 Z"></path><path d="M421.75 39.360909509025845 L421.75 39.360909509025845 L421.75 40.639090490974155 L421.75 40.639090490974155 L421.75 39.360909509025845 Z"></path><path d="M426.75 37.04701311661647 L426.75 37.04701311661647 L426.75 42.952986883383524 L426.75 42.952986883383524 L426.75 37.04701311661647 Z"></path><path d="M431.75 26.517666395716283 L431.75 26.517666395716283 L431.75 53.48233360428372 L431.75 53.48233360428372 L431.75 26.517666395716283 Z"></path><path d="M436.75 28.01830276938361 L436.75 28.01830276938361 L436.75 51.98169723061639 L436.75 51.98169723061639 L436.75 28.01830276938361 Z"></path><path d="M441.75 29.766166528222055 L441.75 29.766166528222055 L441.75 50.23383347177794 L441.75 50.23383347177794 L441.75 29.766166528222055 Z"></path><path d="M446.75 32.74010846040878 L446.75 32.74010846040878 L446.75 47.25989153959122 L446.75 47.25989153959122 L446.75 32.74010846040878 Z"></path><path d="M451.75 35.32863973150204 L451.75 35.32863973150204 L451.75 44.67136026849796 L451.75 44.67136026849796 L451.75 35.32863973150204 Z"></path><path d="M456.75 38.87334425412334 L456.75 38.87334425412334 L456.75 41.12665574587666 L456.75 41.12665574587666 L456.75 38.87334425412334 Z"></path><path d="M461.75 27.639387792761923 L461.75 27.639387792761923 L461.75 52.36061220723808 L461.75 52.36061220723808 L461.75 27.639387792761923 Z"></path><path d="M466.75 26.725030770963485 L466.75 26.725030770963485 L466.75 53.274969229036515 L466.75 53.274969229036515 L466.75 26.725030770963485 Z"></path><path d="M471.75 19.19263882376637 L471.75 19.19263882376637 L471.75 60.80736117623363 L471.75 60.80736117623363 L471.75 19.19263882376637 Z"></path><path d="M476.75 6.365844644532011 L476.75 6.365844644532011 L476.75 73.63415535546798 L476.75 73.63415535546798 L476.75 6.365844644532011 Z"></path><path d="M481.75 9.090958582446373 L481.75 9.090958582446373 L481.75 70.90904141755362 L481.75 70.90904141755362 L481.75 9.090958582446373 Z"></path><path d="M486.75 15.372375192898911 L486.75 15.372375192898911 L486.75 64.62762480710109 L486.75 64.62762480710109 L486.75 15.372375192898911 Z"></path><path d="M491.75 21.2908961799333 L491.75 21.2908961799333 L491.75 58.7091038200667 L491.75 58.7091038200667 L491.75 21.2908961799333 Z"></path><path d="M496.75 24.583073758111382 L496.75 24.583073758111382 L496.75 55.41692624188862 L496.75 55.41692624188862 L496.75 24.583073758111382 Z"></path></svg>