<?xml version="1.0" standalone="no"?><!DOCTYPE svg PUBLIC "-//W3C//DTD SVG 1.1//EN" "http://www.w3.org/Graphics/SVG/1.1/DTD/svg11.dtd"><svg id="6539dfeb-ca4b-c25c-daf0-451fcd086ee6" xmlns="http://www.w3.org/2000/svg" version="1.1" viewBox="0 0 500 80"><style type="text/css">path{stroke:white;stroke-width:3.5}</style><path d="M1.75 24.16472868278265 L1.75 24.16472868278265 L1.75 55.83527131721735 L1.75 55.83527131721735 L1.75 24.16472868278265 Z"></path><path d="M6.75 2.533789602168703 L6.75 2.533789602168703 L6.75 77.4662103978313 L6.75 77.4662103978313 L6.75 2.533789602168703 Z"></path><path d="M11.75 0 L11.75 0 L11.75 80 L11.75 80 L11.75 0 Z"></path><path d="M16.75 38.46512260596058 L16.75 38.46512260596058 L16.75 41.53487739403943 L16.75 41.53487739403943 L16.75 38.46512260596058 Z"></path><path d="M21.75 20.435887304508984 L21.75 20.435887304508984 L21.75 59.56411269549102 L21.75 59.56411269549102 L21.75 20.435887304508984 Z"></path><path d="M26.75 2.420100523635888 L26.75 2.420100523635888 L26.75 77.57989947636412 L26.75 77.57989947636412 L26.75 2.420100523635888 Z"></path><path d="M31.75 20.29526792293263 L31.75 20.29526792293263 L31.75 59.70473207706737 L31.75 59.70473207706737 L31.75 20.29526792293263 Z"></path><path d="M36.75 31.275152283970677 L36.75 31.275152283970677 L36.75 48.72484771602932 L36.75 48.72484771602932 L36.75 31.275152283970677 Z"></path><path d="M41.75 15.28286166514139 L41.75 15.28286166514139 L41.75 64.71713833485862 L41.75 64.71713833485862 L41.75 15.28286166514139 Z"></path><path d="M46.75 8.94282625417307 L46.75 8.94282625417307 L46.75 71.05717374582693 L46.75 71.05717374582693 L46.75 8.94282625417307 Z"></path><path d="M51.75 33.710678221977666 L51.75 33.710678221977666 L51.75 46.289321778022334 L51.75 46.289321778022334 L51.75 33.710678221977666 Z"></path><path d="M56.75 8.967312532231354 L56.75 8.967312532231354 L56.75 71.03268746776865 L56.75 71.03268746776865 L56.75 8.967312532231354 Z"></path><path d="M61.75 19.52112932364928 L61.75 19.52112932364928 L61.75 60.478870676350724 L61.75 60.478870676350724 L61.75 19.52112932364928 Z"></path><path d="M66.75 25.438553314676227 L66.75 25.438553314676227 L66.75 54.56144668532377 L66.75 54.56144668532377 L66.75 25.438553314676227 Z"></path><path d="M71.75 35.863246524240154 L71.75 35.863246524240154 L71.75 44.13675347575984 L71.75 44.13675347575984 L71.75 35.863246524240154 Z"></path><path d="M76.75 38.58405580462821 L76.75 38.58405580462821 L76.75 41.4159441953718 L76.75 41.4159441953718 L76.75 38.58405580462821 Z"></path><path d="M81.75 31.33749712433142 L81.75 31.33749712433142 L81.75 48.66250287566858 L81.75 48.66250287566858 L81.75 31.33749712433142 Z"></path><path d="M86.75 5.2211492733817835 L86.75 5.2211492733817835 L86.75 74.77885072661822 L86.75 74.77885072661822 L86.75 5.2211492733817835 Z"></path><path d="M91.75 11.601319584005566 L91.75 11.601319584005566 L91.75 68.39868041599443 L91.75 68.39868041599443 L91.75 11.601319584005566 Z"></path><path d="M96.75 10.929277051052214 L96.75 10.929277051052214 L96.75 69.07072294894779 L96.75 69.07072294894779 L96.75 10.929277051052214 Z"></path><path d="M101.75 14.104736744475133 L101.75 14.104736744475133 L101.75 65.89526325552487 L101.75 65.89526325552487 L101.75 14.104736744475133 Z"></path><path d="M106.75 16.532416524461077 L106.75 16.532416524461077 L106.75 63.46758347553892 L106.75 63.46758347553892 L106.75 16.532416524461077 Z"></path><path d="M111.75 23.02595680263535 L111.75 23.02595680263535 L111.75 56.97404319736465 L111.75 56.97404319736465 L111.75 23.02595680263535 Z"></path><path d="M116.75 25.211979668747258 L116.75 25.211979668747258 L116.75 54.78802033125274 L116.75 54.78802033125274 L116.75 25.211979668747258 Z"></path><path d="M121.75 39.29191196082998 L121.75 39.29191196082998 L121.75 40.70808803917002 L121.75 40.70808803917002 L121.75 39.29191196082998 Z"></path><path d="M126.75 27.932620672537006 L126.75 27.932620672537006 L126.75 52.067379327463 L126.75 52.067379327463 L126.75 27.932620672537006 Z"></path><path d="M131.75 17.777858800570066 L131.75 17.777858800570066 L131.75 62.222141199429934 L131.75 62.222141199429934 L131.75 17.777858800570066 Z"></path><path d="M136.75 22.17097087618729 L136.75 22.17097087618729 L136.75 57.82902912381271 L136.75 57.82902912381271 L136.75 22.17097087618729 Z"></path><path d="M141.75 25.95420404469059 L141.75 25.95420404469059 L141.75 54.0457959553094 L141.75 54.0457959553094 L141.75 25.95420404469059 Z"></path><path d="M146.75 24.185457578617225 L146.75 24.185457578617225 L146.75 55.81454242138277 L146.75 55.81454242138277 L146.75 24.185457578617225 Z"></path><path d="M151.75 27.790260665849004 L151.75 27.790260665849004 L151.75 52.209739334150996 L151.75 52.209739334150996 L151.75 27.790260665849004 Z"></path><path d="M156.75 37.50884028150591 L156.75 37.50884028150591 L156.75 42.49115971849409 L156.75 42.49115971849409 L156.75 37.50884028150591 Z"></path><path d="M161.75 30.763261527511716 L161.75 30.763261527511716 L161.75 49.236738472488284 L161.75 49.236738472488284 L161.75 30.763261527511716 Z"></path><path d="M166.75 31.652769594530632 L166.75 31.652769594530632 L166.75 48.34723040546937 L166.75 48.34723040546937 L166.75 31.652769594530632 Z"></path><path d="M171.75 35.51045954011041 L171.75 35.51045954011041 L171.75 44.48954045988959 L171.75 44.48954045988959 L171.75 35.51045954011041 Z"></path><path d="M176.75 27.523484431153218 L176.75 27.523484431153218 L176.75 52.47651556884678 L176.75 52.47651556884678 L176.75 27.523484431153218 Z"></path><path d="M181.75 32.51881693814265 L181.75 32.51881693814265 L181.75 47.481183061857344 L181.75 47.481183061857344 L181.75 32.51881693814265 Z"></path><path d="M186.75 33.44474081322719 L186.75 33.44474081322719 L186.75 46.55525918677281 L186.75 46.55525918677281 L186.75 33.44474081322719 Z"></path><path d="M191.75 38.11029968658317 L191.75 38.11029968658317 L191.75 41.889700313416824 L191.75 41.889700313416824 L191.75 38.11029968658317 Z"></path><path d="M196.75 36.424296239036316 L196.75 36.424296239036316 L196.75 43.57570376096369 L196.75 43.57570376096369 L196.75 36.424296239036316 Z"></path><path d="M201.75 39.35485629724273 L201.75 39.35485629724273 L201.75 40.64514370275727 L201.75 40.64514370275727 L201.75 39.35485629724273 Z"></path><path d="M206.75 39.68044438603163 L206.75 39.68044438603163 L206.75 40.31955561396836 L206.75 40.31955561396836 L206.75 39.68044438603163 Z"></path><path d="M211.75 39.67440904711146 L211.75 39.67440904711146 L211.75 40.32559095288854 L211.75 40.32559095288854 L211.75 39.67440904711146 Z"></path><path d="M216.75 39.14399678614908 L216.75 39.14399678614908 L216.75 40.85600321385092 L216.75 40.85600321385092 L216.75 39.14399678614908 Z"></path><path d="M221.75 38.8071695635527 L221.75 38.8071695635527 L221.75 41.1928304364473 L221.75 41.1928304364473 L221.75 38.8071695635527 Z"></path><path d="M226.75 38.57740810633573 L226.75 38.57740810633573 L226.75 41.422591893664276 L226.75 41.422591893664276 L226.75 38.57740810633573 Z"></path><path d="M231.75 38.58685075481244 L231.75 38.58685075481244 L231.75 41.41314924518757 L231.75 41.41314924518757 L231.75 38.58685075481244 Z"></path><path d="M236.75 39.1020342003471 L236.75 39.1020342003471 L236.75 40.8979657996529 L236.75 40.8979657996529 L236.75 39.1020342003471 Z"></path><path d="M241.75 39.24099043759971 L241.75 39.24099043759971 L241.75 40.75900956240029 L241.75 40.75900956240029 L241.75 39.24099043759971 Z"></path><path d="M246.75 39.71474772489582 L246.75 39.71474772489582 L246.75 40.28525227510417 L246.75 40.28525227510417 L246.75 39.71474772489582 Z"></path><path d="M251.75 29.931396244495033 L251.75 29.931396244495033 L251.75 50.06860375550497 L251.75 50.06860375550497 L251.75 29.931396244495033 Z"></path><path d="M256.75 12.659116050781417 L256.75 12.659116050781417 L256.75 67.34088394921858 L256.75 67.34088394921858 L256.75 12.659116050781417 Z"></path><path d="M261.75 18.8524969256998 L261.75 18.8524969256998 L261.75 61.147503074300204 L261.75 61.147503074300204 L261.75 18.8524969256998 Z"></path><path d="M266.75 26.64231974643767 L266.75 26.64231974643767 L266.75 53.357680253562336 L266.75 53.357680253562336 L266.75 26.64231974643767 Z"></path><path d="M271.75 26.91400972385329 L271.75 26.91400972385329 L271.75 53.08599027614671 L271.75 53.08599027614671 L271.75 26.91400972385329 Z"></path><path d="M276.75 23.474512185957106 L276.75 23.474512185957106 L276.75 56.52548781404289 L276.75 56.52548781404289 L276.75 23.474512185957106 Z"></path><path d="M281.75 27.14958868642087 L281.75 27.14958868642087 L281.75 52.85041131357913 L281.75 52.85041131357913 L281.75 27.14958868642087 Z"></path><path d="M286.75 32.40632351236921 L286.75 32.40632351236921 L286.75 47.59367648763079 L286.75 47.59367648763079 L286.75 32.40632351236921 Z"></path><path d="M291.75 18.085326084127075 L291.75 18.085326084127075 L291.75 61.914673915872925 L291.75 61.914673915872925 L291.75 18.085326084127075 Z"></path><path d="M296.75 33.697666955322724 L296.75 33.697666955322724 L296.75 46.302333044677276 L296.75 46.302333044677276 L296.75 33.697666955322724 Z"></path><path d="M301.75 37.31843680340486 L301.75 37.31843680340486 L301.75 42.681563196595135 L301.75 42.681563196595135 L301.75 37.31843680340486 Z"></path><path d="M306.75 18.9673064570324 L306.75 18.9673064570324 L306.75 61.0326935429676 L306.75 61.0326935429676 L306.75 18.9673064570324 Z"></path><path d="M311.75 18.18367795203516 L311.75 18.18367795203516 L311.75 61.81632204796484 L311.75 61.81632204796484 L311.75 18.18367795203516 Z"></path><path d="M316.75 36.55262152109515 L316.75 36.55262152109515 L316.75 43.44737847890485 L316.75 43.44737847890485 L316.75 36.55262152109515 Z"></path><path d="M321.75 39.60838087743514 L321.75 39.60838087743514 L321.75 40.39161912256486 L321.75 40.39161912256486 L321.75 39.60838087743514 Z"></path><path d="M326.75 39.71675073464433 L326.75 39.71675073464433 L326.75 40.28324926535567 L326.75 40.28324926535567 L326.75 39.71675073464433 Z"></path><path d="M331.75 36.88309059244614 L331.75 36.88309059244614 L331.75 43.116909407553855 L331.75 43.116909407553855 L331.75 36.88309059244614 Z"></path><path d="M336.75 23.039261572010943 L336.75 23.039261572010943 L336.75 56.96073842798906 L336.75 56.96073842798906 L336.75 23.039261572010943 Z"></path><path d="M341.75 24.917558116207907 L341.75 24.917558116207907 L341.75 55.0824418837921 L341.75 55.0824418837921 L341.75 24.917558116207907 Z"></path><path d="M346.75 24.66140056431187 L346.75 24.66140056431187 L346.75 55.33859943568813 L346.75 55.33859943568813 L346.75 24.66140056431187 Z"></path><path d="M351.75 34.529842531097586 L351.75 34.529842531097586 L351.75 45.470157468902414 L351.75 45.470157468902414 L351.75 34.529842531097586 Z"></path><path d="M356.75 35.78935133718177 L356.75 35.78935133718177 L356.75 44.21064866281823 L356.75 44.21064866281823 L356.75 35.78935133718177 Z"></path><path d="M361.75 33.45507807476445 L361.75 33.45507807476445 L361.75 46.544921925235556 L361.75 46.544921925235556 L361.75 33.45507807476445 Z"></path><path d="M366.75 27.31193097701346 L366.75 27.31193097701346 L366.75 52.68806902298654 L366.75 52.68806902298654 L366.75 27.31193097701346 Z"></path><path d="M371.75 32.104487613347835 L371.75 32.104487613347835 L371.75 47.895512386652165 L371.75 47.895512386652165 L371.75 32.104487613347835 Z"></path><path d="M376.75 39.52907718222708 L376.75 39.52907718222708 L376.75 40.470922817772916 L376.75 40.470922817772916 L376.75 39.52907718222708 Z"></path><path d="M381.75 16.06035419422732 L381.75 16.06035419422732 L381.75 63.939645805772685 L381.75 63.939645805772685 L381.75 16.06035419422732 Z"></path><path d="M386.75 23.72071635904266 L386.75 23.72071635904266 L386.75 56.27928364095734 L386.75 56.27928364095734 L386.75 23.72071635904266 Z"></path><path d="M391.75 24.267629964032285 L391.75 24.267629964032285 L391.75 55.73237003596772 L391.75 55.73237003596772 L391.75 24.267629964032285 Z"></path><path d="M396.75 20.864421672580892 L396.75 20.864421672580892 L396.75 59.13557832741911 L396.75 59.13557832741911 L396.75 20.864421672580892 Z"></path><path d="M401.75 37.125999663340984 L401.75 37.125999663340984 L401.75 42.874000336659016 L401.75 42.874000336659016 L401.75 37.125999663340984 Z"></path><path d="M406.75 39.72822151308782 L406.75 39.72822151308782 L406.75 40.27177848691219 L406.75 40.27177848691219 L406.75 39.72822151308782 Z"></path><path d="M411.75 14.747408717230456 L411.75 14.747408717230456 L411.75 65.25259128276954 L411.75 65.25259128276954 L411.75 14.747408717230456 Z"></path><path d="M416.75 25.007127305143516 L416.75 25.007127305143516 L416.75 54.99287269485649 L416.75 54.99287269485649 L416.75 25.007127305143516 Z"></path><path d="M421.75 26.579352032624094 L421.75 26.579352032624094 L421.75 53.4206479673759 L421.75 53.4206479673759 L421.75 26.579352032624094 Z"></path><path d="M426.75 32.620693368487515 L426.75 32.620693368487515 L426.75 47.37930663151248 L426.75 47.37930663151248 L426.75 32.620693368487515 Z"></path><path d="M431.75 34.64438843573848 L431.75 34.64438843573848 L431.75 45.355611564261515 L431.75 45.355611564261515 L431.75 34.64438843573848 Z"></path><path d="M436.75 36.660332807848064 L436.75 36.660332807848064 L436.75 43.33966719215194 L436.75 43.33966719215194 L436.75 36.660332807848064 Z"></path><path d="M441.75 37.108195599116655 L441.75 37.108195599116655 L441.75 42.891804400883345 L441.75 42.891804400883345 L441.75 37.108195599116655 Z"></path><path d="M446.75 37.94294777104235 L446.75 37.94294777104235 L446.75 42.057052228957645 L446.75 42.057052228957645 L446.75 37.94294777104235 Z"></path><path d="M451.75 38.25890205400121 L451.75 38.25890205400121 L451.75 41.74109794599879 L451.75 41.74109794599879 L451.75 38.25890205400121 Z"></path><path d="M456.75 39.4033179492144 L456.75 39.4033179492144 L456.75 40.59668205078561 L456.75 40.59668205078561 L456.75 39.4033179492144 Z"></path><path d="M461.75 38.95709317012161 L461.75 38.95709317012161 L461.75 41.04290682987839 L461.75 41.04290682987839 L461.75 38.95709317012161 Z"></path><path d="M466.75 39.382892605170106 L466.75 39.382892605170106 L466.75 40.6171073948299 L466.75 40.6171073948299 L466.75 39.382892605170106 Z"></path><path d="M471.75 39.49534967330406 L471.75 39.49534967330406 L471.75 40.50465032669594 L471.75 40.50465032669594 L471.75 39.49534967330406 Z"></path><path d="M476.75 39.06400245728758 L476.75 39.06400245728758 L476.75 40.93599754271242 L476.75 40.93599754271242 L476.75 39.06400245728758 Z"></path><path d="M481.75 38.97504255089654 L481.75 38.97504255089654 L481.75 41.02495744910346 L481.75 41.02495744910346 L481.75 38.97504255089654 Z"></path><path d="M486.75 39.38702223629791 L486.75 39.38702223629791 L486.75 40.61297776370209 L486.75 40.61297776370209 L486.75 39.38702223629791 Z"></path><path d="M491.75 39.62498340483663 L491.75 39.62498340483663 L491.75 40.375016595163366 L491.75 40.375016595163366 L491.75 39.62498340483663 Z"></path><path d="M496.75 39.71379354629642 L496.75 39.71379354629642 L496.75 40.28620645370358 L496.75 40.28620645370358 L496.75 39.71379354629642 Z"></path></svg>