<?xml version="1.0" standalone="no"?><!DOCTYPE svg PUBLIC "-//W3C//DTD SVG 1.1//EN" "http://www.w3.org/Graphics/SVG/1.1/DTD/svg11.dtd"><svg id="bdc8b264-808c-85fa-741c-48c03f17f97d" xmlns="http://www.w3.org/2000/svg" version="1.1" viewBox="0 0 500 80"><style type="text/css">path{stroke:white;stroke-width:3.5}</style><path d="M1.75 0.09088239399329723 L1.75 0.09088239399329723 L1.75 79.9091176060067 L1.75 79.9091176060067 L1.75 0.09088239399329723 Z"></path><path d="M6.75 40 L6.75 40 L6.75 40 L6.75 40 L6.75 40 Z"></path><path d="M11.75 40 L11.75 40 L11.75 40 L11.75 40 L11.75 40 Z"></path><path d="M16.75 40 L16.75 40 L16.75 40 L16.75 40 L16.75 40 Z"></path><path d="M21.75 40 L21.75 40 L21.75 40 L21.75 40 L21.75 40 Z"></path><path d="M26.75 40 L26.75 40 L26.75 40 L26.75 40 L26.75 40 Z"></path><path d="M31.75 39.99658406905138 L31.75 39.99658406905138 L31.75 40.00341593094861 L31.75 40.00341593094861 L31.75 39.99658406905138 Z"></path><path d="M36.75 40 L36.75 40 L36.75 40 L36.75 40 L36.75 40 Z"></path><path d="M41.75 40 L41.75 40 L41.75 40 L41.75 40 L41.75 40 Z"></path><path d="M46.75 40 L46.75 40 L46.75 40 L46.75 40 L46.75 40 Z"></path><path d="M51.75 40 L51.75 40 L51.75 40 L51.75 40 L51.75 40 Z"></path><path d="M56.75 40 L56.75 40 L56.75 40 L56.75 40 L56.75 40 Z"></path><path d="M61.75 40 L61.75 40 L61.75 40 L61.75 40 L61.75 40 Z"></path><path d="M66.75 39.999786504315715 L66.75 39.999786504315715 L66.75 40.00021349568429 L66.75 40.00021349568429 L66.75 39.999786504315715 Z"></path><path d="M71.75 40 L71.75 40 L71.75 40 L71.75 40 L71.75 40 Z"></path><path d="M76.75 40 L76.75 40 L76.75 40 L76.75 40 L76.75 40 Z"></path><path d="M81.75 40 L81.75 40 L81.75 40 L81.75 40 L81.75 40 Z"></path><path d="M86.75 40 L86.75 40 L86.75 40 L86.75 40 L86.75 40 Z"></path><path d="M91.75 40 L91.75 40 L91.75 40 L91.75 40 L91.75 40 Z"></path><path d="M96.75 39.75693185835545 L96.75 39.75693185835545 L96.75 40.24306814164455 L96.75 40.24306814164455 L96.75 39.75693185835545 Z"></path><path d="M101.75 40 L101.75 40 L101.75 40 L101.75 40 L101.75 40 Z"></path><path d="M106.75 40 L106.75 40 L106.75 40 L106.75 40 L106.75 40 Z"></path><path d="M111.75 40 L111.75 40 L111.75 40 L111.75 40 L111.75 40 Z"></path><path d="M116.75 40 L116.75 40 L116.75 40 L116.75 40 L116.75 40 Z"></path><path d="M121.75 40 L121.75 40 L121.75 40 L121.75 40 L121.75 40 Z"></path><path d="M126.75 0 L126.75 0 L126.75 80 L126.75 80 L126.75 0 Z"></path><path d="M131.75 40 L131.75 40 L131.75 40 L131.75 40 L131.75 40 Z"></path><path d="M136.75 40 L136.75 40 L136.75 40 L136.75 40 L136.75 40 Z"></path><path d="M141.75 40 L141.75 40 L141.75 40 L141.75 40 L141.75 40 Z"></path><path d="M146.75 40 L146.75 40 L146.75 40 L146.75 40 L146.75 40 Z"></path><path d="M151.75 40 L151.75 40 L151.75 40 L151.75 40 L151.75 40 Z"></path><path d="M156.75 39.99775068339261 L156.75 39.99775068339261 L156.75 40.0022493166074 L156.75 40.0022493166074 L156.75 39.99775068339261 Z"></path><path d="M161.75 40 L161.75 40 L161.75 40 L161.75 40 L161.75 40 Z"></path><path d="M166.75 40 L166.75 40 L166.75 40 L166.75 40 L166.75 40 Z"></path><path d="M171.75 40 L171.75 40 L171.75 40 L171.75 40 L171.75 40 Z"></path><path d="M176.75 40 L176.75 40 L176.75 40 L176.75 40 L176.75 40 Z"></path><path d="M181.75 40 L181.75 40 L181.75 40 L181.75 40 L181.75 40 Z"></path><path d="M186.75 40 L186.75 40 L186.75 40 L186.75 40 L186.75 40 Z"></path><path d="M191.75 39.99957300863142 L191.75 39.99957300863142 L191.75 40.00042699136858 L191.75 40.00042699136858 L191.75 39.99957300863142 Z"></path><path d="M196.75 40 L196.75 40 L196.75 40 L196.75 40 L196.75 40 Z"></path><path d="M201.75 40 L201.75 40 L201.75 40 L201.75 40 L201.75 40 Z"></path><path d="M206.75 40 L206.75 40 L206.75 40 L206.75 40 L206.75 40 Z"></path><path d="M211.75 40 L211.75 40 L211.75 40 L211.75 40 L211.75 40 Z"></path><path d="M216.75 40 L216.75 40 L216.75 40 L216.75 40 L216.75 40 Z"></path><path d="M221.75 39.758011329697624 L221.75 39.758011329697624 L221.75 40.241988670302376 L221.75 40.241988670302376 L221.75 39.758011329697624 Z"></path><path d="M226.75 40 L226.75 40 L226.75 40 L226.75 40 L226.75 40 Z"></path><path d="M231.75 40 L231.75 40 L231.75 40 L231.75 40 L231.75 40 Z"></path><path d="M236.75 40 L236.75 40 L236.75 40 L236.75 40 L236.75 40 Z"></path><path d="M241.75 40 L241.75 40 L241.75 40 L241.75 40 L241.75 40 Z"></path><path d="M246.75 40 L246.75 40 L246.75 40 L246.75 40 L246.75 40 Z"></path><path d="M251.75 0.03695536002226163 L251.75 0.03695536002226163 L251.75 79.96304463997774 L251.75 79.96304463997774 L251.75 0.03695536002226163 Z"></path><path d="M256.75 40 L256.75 40 L256.75 40 L256.75 40 L256.75 40 Z"></path><path d="M261.75 40 L261.75 40 L261.75 40 L261.75 40 L261.75 40 Z"></path><path d="M266.75 40 L266.75 40 L266.75 40 L266.75 40 L266.75 40 Z"></path><path d="M271.75 40 L271.75 40 L271.75 40 L271.75 40 L271.75 40 Z"></path><path d="M276.75 40 L276.75 40 L276.75 40 L276.75 40 L276.75 40 Z"></path><path d="M281.75 39.99921556676681 L281.75 39.99921556676681 L281.75 40.000784433233186 L281.75 40.000784433233186 L281.75 39.99921556676681 Z"></path><path d="M286.75 40 L286.75 40 L286.75 40 L286.75 40 L286.75 40 Z"></path><path d="M291.75 40 L291.75 40 L291.75 40 L291.75 40 L291.75 40 Z"></path><path d="M296.75 40 L296.75 40 L296.75 40 L296.75 40 L296.75 40 Z"></path><path d="M301.75 40 L301.75 40 L301.75 40 L301.75 40 L301.75 40 Z"></path><path d="M306.75 40 L306.75 40 L306.75 40 L306.75 40 L306.75 40 Z"></path><path d="M311.75 40 L311.75 40 L311.75 40 L311.75 40 L311.75 40 Z"></path><path d="M316.75 39.99949930823888 L316.75 39.99949930823888 L316.75 40.000500691761125 L316.75 40.000500691761125 L316.75 39.99949930823888 Z"></path><path d="M321.75 40 L321.75 40 L321.75 40 L321.75 40 L321.75 40 Z"></path><path d="M326.75 40 L326.75 40 L326.75 40 L326.75 40 L326.75 40 Z"></path><path d="M331.75 40 L331.75 40 L331.75 40 L331.75 40 L331.75 40 Z"></path><path d="M336.75 40 L336.75 40 L336.75 40 L336.75 40 L336.75 40 Z"></path><path d="M341.75 40 L341.75 40 L341.75 40 L341.75 40 L341.75 40 Z"></path><path d="M346.75 39.54410444813073 L346.75 39.54410444813073 L346.75 40.455895551869276 L346.75 40.455895551869276 L346.75 39.54410444813073 Z"></path><path d="M351.75 40 L351.75 40 L351.75 40 L351.75 40 L351.75 40 Z"></path><path d="M356.75 40 L356.75 40 L356.75 40 L356.75 40 L356.75 40 Z"></path><path d="M361.75 40 L361.75 40 L361.75 40 L361.75 40 L361.75 40 Z"></path><path d="M366.75 40 L366.75 40 L366.75 40 L366.75 40 L366.75 40 Z"></path><path d="M371.75 40 L371.75 40 L371.75 40 L371.75 40 L371.75 40 Z"></path><path d="M376.75 0.5585974063118684 L376.75 0.5585974063118684 L376.75 79.44140259368814 L376.75 79.44140259368814 L376.75 0.5585974063118684 Z"></path><path d="M381.75 40 L381.75 40 L381.75 40 L381.75 40 L381.75 40 Z"></path><path d="M386.75 40 L386.75 40 L386.75 40 L386.75 40 L386.75 40 Z"></path><path d="M391.75 40 L391.75 40 L391.75 40 L391.75 40 L391.75 40 Z"></path><path d="M396.75 40 L396.75 40 L396.75 40 L396.75 40 L396.75 40 Z"></path><path d="M401.75 40 L401.75 40 L401.75 40 L401.75 40 L401.75 40 Z"></path><path d="M406.75 39.99935951294714 L406.75 39.99935951294714 L406.75 40.00064048705287 L406.75 40.00064048705287 L406.75 39.99935951294714 Z"></path><path d="M411.75 40 L411.75 40 L411.75 40 L411.75 40 L411.75 40 Z"></path><path d="M416.75 40 L416.75 40 L416.75 40 L416.75 40 L416.75 40 Z"></path><path d="M421.75 40 L421.75 40 L421.75 40 L421.75 40 L421.75 40 Z"></path><path d="M426.75 40 L426.75 40 L426.75 40 L426.75 40 L426.75 40 Z"></path><path d="M431.75 40 L431.75 40 L431.75 40 L431.75 40 L431.75 40 Z"></path><path d="M436.75 40 L436.75 40 L436.75 40 L436.75 40 L436.75 40 Z"></path><path d="M441.75 39.99845307680265 L441.75 39.99845307680265 L441.75 40.00154692319736 L441.75 40.00154692319736 L441.75 39.99845307680265 Z"></path><path d="M446.75 40 L446.75 40 L446.75 40 L446.75 40 L446.75 40 Z"></path><path d="M451.75 40 L451.75 40 L451.75 40 L451.75 40 L451.75 40 Z"></path><path d="M456.75 40 L456.75 40 L456.75 40 L456.75 40 L456.75 40 Z"></path><path d="M461.75 40 L461.75 40 L461.75 40 L461.75 40 L461.75 40 Z"></path><path d="M466.75 40 L466.75 40 L466.75 40 L466.75 40 L466.75 40 Z"></path><path d="M471.75 39.19147935642488 L471.75 39.19147935642488 L471.75 40.80852064357512 L471.75 40.80852064357512 L471.75 39.19147935642488 Z"></path><path d="M476.75 40 L476.75 40 L476.75 40 L476.75 40 L476.75 40 Z"></path><path d="M481.75 40 L481.75 40 L481.75 40 L481.75 40 L481.75 40 Z"></path><path d="M486.75 40 L486.75 40 L486.75 40 L486.75 40 L486.75 40 Z"></path><path d="M491.75 40 L491.75 40 L491.75 40 L491.75 40 L491.75 40 Z"></path><path d="M496.75 40 L496.75 40 L496.75 40 L496.75 40 L496.75 40 Z"></path></svg>