<?xml version="1.0" standalone="no"?><!DOCTYPE svg PUBLIC "-//W3C//DTD SVG 1.1//EN" "http://www.w3.org/Graphics/SVG/1.1/DTD/svg11.dtd"><svg id="73bb6bbd-c82f-aa3a-c3bb-b520807f905e" xmlns="http://www.w3.org/2000/svg" version="1.1" viewBox="0 0 500 80"><style type="text/css">path{stroke:white;stroke-width:3.5}</style><path d="M1.75 36.17637571168663 L1.75 36.17637571168663 L1.75 43.82362428831337 L1.75 43.82362428831337 L1.75 36.17637571168663 Z"></path><path d="M6.75 6.864418650600619 L6.75 6.864418650600619 L6.75 73.13558134939939 L6.75 73.13558134939939 L6.75 6.864418650600619 Z"></path><path d="M11.75 16.330818264583346 L11.75 16.330818264583346 L11.75 63.66918173541666 L11.75 63.66918173541666 L11.75 16.330818264583346 Z"></path><path d="M16.75 39.088173949071155 L16.75 39.088173949071155 L16.75 40.911826050928845 L16.75 40.911826050928845 L16.75 39.088173949071155 Z"></path><path d="M21.75 18.558077942700127 L21.75 18.558077942700127 L21.75 61.44192205729988 L21.75 61.44192205729988 L21.75 18.558077942700127 Z"></path><path d="M26.75 26.68473580901766 L26.75 26.68473580901766 L26.75 53.31526419098233 L26.75 53.31526419098233 L26.75 26.68473580901766 Z"></path><path d="M31.75 39.406557155129946 L31.75 39.406557155129946 L31.75 40.593442844870054 L31.75 40.593442844870054 L31.75 39.406557155129946 Z"></path><path d="M36.75 15.616400169170717 L36.75 15.616400169170717 L36.75 64.38359983082928 L36.75 64.38359983082928 L36.75 15.616400169170717 Z"></path><path d="M41.75 14.399222334995056 L41.75 14.399222334995056 L41.75 65.60077766500494 L41.75 65.60077766500494 L41.75 14.399222334995056 Z"></path><path d="M46.75 39.210025188796564 L46.75 39.210025188796564 L46.75 40.789974811203436 L46.75 40.789974811203436 L46.75 39.210025188796564 Z"></path><path d="M51.75 38.701716260641 L51.75 38.701716260641 L51.75 41.298283739359 L51.75 41.298283739359 L51.75 38.701716260641 Z"></path><path d="M56.75 38.596507252868676 L56.75 38.596507252868676 L56.75 41.40349274713133 L56.75 41.40349274713133 L56.75 38.596507252868676 Z"></path><path d="M61.75 39.183004583445964 L61.75 39.183004583445964 L61.75 40.81699541655403 L61.75 40.81699541655403 L61.75 39.183004583445964 Z"></path><path d="M66.75 38.303859722606795 L66.75 38.303859722606795 L66.75 41.69614027739321 L66.75 41.69614027739321 L66.75 38.303859722606795 Z"></path><path d="M71.75 38.863656880106326 L71.75 38.863656880106326 L71.75 41.13634311989368 L71.75 41.13634311989368 L71.75 38.863656880106326 Z"></path><path d="M76.75 38.726944989262 L76.75 38.726944989262 L76.75 41.273055010738 L76.75 41.273055010738 L76.75 38.726944989262 Z"></path><path d="M81.75 39.55410352221002 L81.75 39.55410352221002 L81.75 40.44589647778999 L81.75 40.44589647778999 L81.75 39.55410352221002 Z"></path><path d="M86.75 39.637929796385556 L86.75 39.637929796385556 L86.75 40.362070203614444 L86.75 40.362070203614444 L86.75 39.637929796385556 Z"></path><path d="M91.75 39.64750813776204 L91.75 39.64750813776204 L91.75 40.35249186223797 L91.75 40.35249186223797 L91.75 39.64750813776204 Z"></path><path d="M96.75 0 L96.75 0 L96.75 80 L96.75 80 L96.75 0 Z"></path><path d="M101.75 13.46680703227224 L101.75 13.46680703227224 L101.75 66.53319296772776 L101.75 66.53319296772776 L101.75 13.46680703227224 Z"></path><path d="M106.75 17.912197296086756 L106.75 17.912197296086756 L106.75 62.08780270391324 L106.75 62.08780270391324 L106.75 17.912197296086756 Z"></path><path d="M111.75 19.02759203547871 L111.75 19.02759203547871 L111.75 60.972407964521295 L111.75 60.972407964521295 L111.75 19.02759203547871 Z"></path><path d="M116.75 22.380818006587273 L116.75 22.380818006587273 L116.75 57.619181993412724 L116.75 57.619181993412724 L116.75 22.380818006587273 Z"></path><path d="M121.75 39.148864086282856 L121.75 39.148864086282856 L121.75 40.85113591371715 L121.75 40.85113591371715 L121.75 39.148864086282856 Z"></path><path d="M126.75 23.88648464740643 L126.75 23.88648464740643 L126.75 56.113515352593566 L126.75 56.113515352593566 L126.75 23.88648464740643 Z"></path><path d="M131.75 21.930887590435557 L131.75 21.930887590435557 L131.75 58.06911240956444 L131.75 58.06911240956444 L131.75 21.930887590435557 Z"></path><path d="M136.75 37.33391041953224 L136.75 37.33391041953224 L136.75 42.66608958046777 L136.75 42.66608958046777 L136.75 37.33391041953224 Z"></path><path d="M141.75 35.63718133837729 L141.75 35.63718133837729 L141.75 44.36281866162271 L141.75 44.36281866162271 L141.75 35.63718133837729 Z"></path><path d="M146.75 24.119817239905686 L146.75 24.119817239905686 L146.75 55.880182760094314 L146.75 55.880182760094314 L146.75 24.119817239905686 Z"></path><path d="M151.75 38.40002380365965 L151.75 38.40002380365965 L151.75 41.59997619634034 L151.75 41.59997619634034 L151.75 38.40002380365965 Z"></path><path d="M156.75 35.03017057485977 L156.75 35.03017057485977 L156.75 44.96982942514023 L156.75 44.96982942514023 L156.75 35.03017057485977 Z"></path><path d="M161.75 27.202910475742122 L161.75 27.202910475742122 L161.75 52.79708952425787 L161.75 52.79708952425787 L161.75 27.202910475742122 Z"></path><path d="M166.75 37.90998144144305 L166.75 37.90998144144305 L166.75 42.09001855855695 L166.75 42.09001855855695 L166.75 37.90998144144305 Z"></path><path d="M171.75 39.53278343891328 L171.75 39.53278343891328 L171.75 40.46721656108672 L171.75 40.46721656108672 L171.75 39.53278343891328 Z"></path><path d="M176.75 39.13123646974334 L176.75 39.13123646974334 L176.75 40.86876353025666 L176.75 40.86876353025666 L176.75 39.13123646974334 Z"></path><path d="M181.75 39.19336123178514 L181.75 39.19336123178514 L181.75 40.80663876821486 L181.75 40.80663876821486 L181.75 39.19336123178514 Z"></path><path d="M186.75 39.46838660760903 L186.75 39.46838660760903 L186.75 40.531613392390966 L186.75 40.531613392390966 L186.75 39.46838660760903 Z"></path><path d="M191.75 39.400352030661274 L191.75 39.400352030661274 L191.75 40.599647969338726 L191.75 40.599647969338726 L191.75 39.400352030661274 Z"></path><path d="M196.75 39.491270008382074 L196.75 39.491270008382074 L196.75 40.50872999161792 L196.75 40.50872999161792 L196.75 39.491270008382074 Z"></path><path d="M201.75 39.583496792900846 L201.75 39.583496792900846 L201.75 40.41650320709915 L201.75 40.41650320709915 L201.75 39.583496792900846 Z"></path><path d="M206.75 39.66453779635051 L206.75 39.66453779635051 L206.75 40.33546220364949 L206.75 40.33546220364949 L206.75 39.66453779635051 Z"></path><path d="M211.75 39.67040855742651 L211.75 39.67040855742651 L211.75 40.32959144257349 L211.75 40.32959144257349 L211.75 39.67040855742651 Z"></path><path d="M216.75 39.66786445929072 L216.75 39.66786445929072 L216.75 40.33213554070928 L216.75 40.33213554070928 L216.75 39.66786445929072 Z"></path><path d="M221.75 39.35178218210297 L221.75 39.35178218210297 L221.75 40.64821781789702 L221.75 40.64821781789702 L221.75 39.35178218210297 Z"></path><path d="M226.75 39.69954491331766 L226.75 39.69954491331766 L226.75 40.30045508668234 L226.75 40.30045508668234 L226.75 39.69954491331766 Z"></path><path d="M231.75 39.66187455772661 L231.75 39.66187455772661 L231.75 40.33812544227339 L231.75 40.33812544227339 L231.75 39.66187455772661 Z"></path><path d="M236.75 39.737612589256905 L236.75 39.737612589256905 L236.75 40.262387410743095 L236.75 40.262387410743095 L236.75 39.737612589256905 Z"></path><path d="M241.75 39.787147034739675 L241.75 39.787147034739675 L241.75 40.21285296526032 L241.75 40.21285296526032 L241.75 39.787147034739675 Z"></path><path d="M246.75 39.23089963089929 L246.75 39.23089963089929 L246.75 40.76910036910072 L246.75 40.76910036910072 L246.75 39.23089963089929 Z"></path><path d="M251.75 37.71111755977369 L251.75 37.71111755977369 L251.75 42.28888244022632 L251.75 42.28888244022632 L251.75 37.71111755977369 Z"></path><path d="M256.75 29.245744930517215 L256.75 29.245744930517215 L256.75 50.75425506948278 L256.75 50.75425506948278 L256.75 29.245744930517215 Z"></path><path d="M261.75 36.56918848226992 L261.75 36.56918848226992 L261.75 43.430811517730085 L261.75 43.430811517730085 L261.75 36.56918848226992 Z"></path><path d="M266.75 39.23417988883829 L266.75 39.23417988883829 L266.75 40.7658201111617 L266.75 40.7658201111617 L266.75 39.23417988883829 Z"></path><path d="M271.75 29.64548337378416 L271.75 29.64548337378416 L271.75 50.35451662621584 L271.75 50.35451662621584 L271.75 29.64548337378416 Z"></path><path d="M276.75 31.823972856619516 L276.75 31.823972856619516 L276.75 48.17602714338048 L276.75 48.17602714338048 L276.75 31.823972856619516 Z"></path><path d="M281.75 38.44914802026817 L281.75 38.44914802026817 L281.75 41.55085197973183 L281.75 41.55085197973183 L281.75 38.44914802026817 Z"></path><path d="M286.75 30.641331094483494 L286.75 30.641331094483494 L286.75 49.35866890551651 L286.75 49.35866890551651 L286.75 30.641331094483494 Z"></path><path d="M291.75 31.33295755536346 L291.75 31.33295755536346 L291.75 48.667042444636536 L291.75 48.667042444636536 L291.75 31.33295755536346 Z"></path><path d="M296.75 38.877987003085224 L296.75 38.877987003085224 L296.75 41.122012996914776 L296.75 41.122012996914776 L296.75 38.877987003085224 Z"></path><path d="M301.75 22.666976144814168 L301.75 22.666976144814168 L301.75 57.33302385518583 L301.75 57.33302385518583 L301.75 22.666976144814168 Z"></path><path d="M306.75 24.62551667101454 L306.75 24.62551667101454 L306.75 55.37448332898546 L306.75 55.37448332898546 L306.75 24.62551667101454 Z"></path><path d="M311.75 38.69227977290675 L311.75 38.69227977290675 L311.75 41.30772022709324 L311.75 41.30772022709324 L311.75 38.69227977290675 Z"></path><path d="M316.75 38.36181208187696 L316.75 38.36181208187696 L316.75 41.63818791812304 L316.75 41.63818791812304 L316.75 38.36181208187696 Z"></path><path d="M321.75 37.15376752520986 L321.75 37.15376752520986 L321.75 42.84623247479014 L321.75 42.84623247479014 L321.75 37.15376752520986 Z"></path><path d="M326.75 39.052099629993236 L326.75 39.052099629993236 L326.75 40.947900370006764 L326.75 40.947900370006764 L326.75 39.052099629993236 Z"></path><path d="M331.75 32.960025107261195 L331.75 32.960025107261195 L331.75 47.039974892738805 L331.75 47.039974892738805 L331.75 32.960025107261195 Z"></path><path d="M336.75 34.425728752450844 L336.75 34.425728752450844 L336.75 45.57427124754916 L336.75 45.57427124754916 L336.75 34.425728752450844 Z"></path><path d="M341.75 38.74703244404969 L341.75 38.74703244404969 L341.75 41.25296755595032 L341.75 41.25296755595032 L341.75 38.74703244404969 Z"></path><path d="M346.75 31.996037433636253 L346.75 31.996037433636253 L346.75 48.00396256636374 L346.75 48.00396256636374 L346.75 31.996037433636253 Z"></path><path d="M351.75 31.93709413665198 L351.75 31.93709413665198 L351.75 48.06290586334802 L351.75 48.06290586334802 L351.75 31.93709413665198 Z"></path><path d="M356.75 37.825774289401124 L356.75 37.825774289401124 L356.75 42.174225710598876 L356.75 42.174225710598876 L356.75 37.825774289401124 Z"></path><path d="M361.75 33.98975725257848 L361.75 33.98975725257848 L361.75 46.010242747421515 L361.75 46.010242747421515 L361.75 33.98975725257848 Z"></path><path d="M366.75 35.01844279242893 L366.75 35.01844279242893 L366.75 44.98155720757107 L366.75 44.98155720757107 L366.75 35.01844279242893 Z"></path><path d="M371.75 38.88761299805963 L371.75 38.88761299805963 L371.75 41.11238700194037 L371.75 41.11238700194037 L371.75 38.88761299805963 Z"></path><path d="M376.75 33.636756582577675 L376.75 33.636756582577675 L376.75 46.363243417422325 L376.75 46.363243417422325 L376.75 33.636756582577675 Z"></path><path d="M381.75 15.279450604730762 L381.75 15.279450604730762 L381.75 64.72054939526924 L381.75 64.72054939526924 L381.75 15.279450604730762 Z"></path><path d="M386.75 35.94909317638706 L386.75 35.94909317638706 L386.75 44.05090682361294 L386.75 44.05090682361294 L386.75 35.94909317638706 Z"></path><path d="M391.75 33.893495791422275 L391.75 33.893495791422275 L391.75 46.10650420857773 L391.75 46.10650420857773 L391.75 33.893495791422275 Z"></path><path d="M396.75 24.14377455300605 L396.75 24.14377455300605 L396.75 55.856225446993946 L396.75 55.856225446993946 L396.75 24.14377455300605 Z"></path><path d="M401.75 38.43164976911693 L401.75 38.43164976911693 L401.75 41.56835023088307 L401.75 41.56835023088307 L401.75 38.43164976911693 Z"></path><path d="M406.75 39.63468706968023 L406.75 39.63468706968023 L406.75 40.365312930319774 L406.75 40.365312930319774 L406.75 39.63468706968023 Z"></path><path d="M411.75 14.831475341389236 L411.75 14.831475341389236 L411.75 65.16852465861076 L411.75 65.16852465861076 L411.75 14.831475341389236 Z"></path><path d="M416.75 20.497379824118948 L416.75 20.497379824118948 L416.75 59.50262017588105 L416.75 59.50262017588105 L416.75 20.497379824118948 Z"></path><path d="M421.75 39.09715080624732 L421.75 39.09715080624732 L421.75 40.90284919375269 L421.75 40.90284919375269 L421.75 39.09715080624732 Z"></path><path d="M426.75 39.74879453591968 L426.75 39.74879453591968 L426.75 40.25120546408032 L426.75 40.25120546408032 L426.75 39.74879453591968 Z"></path><path d="M431.75 39.61724472149883 L431.75 39.61724472149883 L431.75 40.382755278501165 L431.75 40.382755278501165 L431.75 39.61724472149883 Z"></path><path d="M436.75 39.63939391562345 L436.75 39.63939391562345 L436.75 40.360606084376556 L436.75 40.360606084376556 L436.75 39.63939391562345 Z"></path><path d="M441.75 39.54395262336839 L441.75 39.54395262336839 L441.75 40.4560473766316 L441.75 40.4560473766316 L441.75 39.54395262336839 Z"></path><path d="M446.75 39.698933431089756 L446.75 39.698933431089756 L446.75 40.30106656891024 L446.75 40.30106656891024 L446.75 39.698933431089756 Z"></path><path d="M451.75 39.7517598574205 L451.75 39.7517598574205 L451.75 40.2482401425795 L451.75 40.2482401425795 L451.75 39.7517598574205 Z"></path><path d="M456.75 39.74114318696237 L456.75 39.74114318696237 L456.75 40.25885681303764 L456.75 40.25885681303764 L456.75 39.74114318696237 Z"></path><path d="M461.75 39.778663370906315 L461.75 39.778663370906315 L461.75 40.22133662909369 L461.75 40.22133662909369 L461.75 39.778663370906315 Z"></path><path d="M466.75 39.771808198036 L466.75 39.771808198036 L466.75 40.228191801964 L466.75 40.228191801964 L466.75 39.771808198036 Z"></path><path d="M471.75 39.151048228483795 L471.75 39.151048228483795 L471.75 40.84895177151621 L471.75 40.84895177151621 L471.75 39.151048228483795 Z"></path><path d="M476.75 39.44750621971994 L476.75 39.44750621971994 L476.75 40.55249378028005 L476.75 40.55249378028005 L476.75 39.44750621971994 Z"></path><path d="M481.75 39.243561890095414 L481.75 39.243561890095414 L481.75 40.756438109904586 L481.75 40.756438109904586 L481.75 39.243561890095414 Z"></path><path d="M486.75 39.65004681829729 L486.75 39.65004681829729 L486.75 40.34995318170271 L486.75 40.34995318170271 L486.75 39.65004681829729 Z"></path><path d="M491.75 39.762417842639756 L491.75 39.762417842639756 L491.75 40.237582157360244 L491.75 40.237582157360244 L491.75 39.762417842639756 Z"></path><path d="M496.75 39.73875558754671 L496.75 39.73875558754671 L496.75 40.26124441245328 L496.75 40.26124441245328 L496.75 39.73875558754671 Z"></path></svg>