<?xml version="1.0" standalone="no"?><!DOCTYPE svg PUBLIC "-//W3C//DTD SVG 1.1//EN" "http://www.w3.org/Graphics/SVG/1.1/DTD/svg11.dtd"><svg id="0da1b4f1-0807-792d-8148-72ade52976fa" xmlns="http://www.w3.org/2000/svg" version="1.1" viewBox="0 0 500 80"><style type="text/css">path{stroke:white;stroke-width:3.5}</style><path d="M1.75 39.87103993471013 L1.75 39.87103993471013 L1.75 40.12896006528986 L1.75 40.12896006528986 L1.75 39.87103993471013 Z"></path><path d="M6.75 39.576077141459415 L6.75 39.576077141459415 L6.75 40.423922858540585 L6.75 40.423922858540585 L6.75 39.576077141459415 Z"></path><path d="M11.75 17.348797275466204 L11.75 17.348797275466204 L11.75 62.651202724533796 L11.75 62.651202724533796 L11.75 17.348797275466204 Z"></path><path d="M16.75 17.47485070396629 L16.75 17.47485070396629 L16.75 62.52514929603371 L16.75 62.52514929603371 L16.75 17.47485070396629 Z"></path><path d="M21.75 22.472904477567507 L21.75 22.472904477567507 L21.75 57.52709552243249 L21.75 57.52709552243249 L21.75 22.472904477567507 Z"></path><path d="M26.75 26.534967402629636 L26.75 26.534967402629636 L26.75 53.46503259737037 L26.75 53.46503259737037 L26.75 26.534967402629636 Z"></path><path d="M31.75 23.662400492097504 L31.75 23.662400492097504 L31.75 56.337599507902496 L31.75 56.337599507902496 L31.75 23.662400492097504 Z"></path><path d="M36.75 22.54507947834281 L36.75 22.54507947834281 L36.75 57.454920521657186 L36.75 57.454920521657186 L36.75 22.54507947834281 Z"></path><path d="M41.75 25.341225421942813 L41.75 25.341225421942813 L41.75 54.65877457805719 L41.75 54.65877457805719 L41.75 25.341225421942813 Z"></path><path d="M46.75 18.948375303826367 L46.75 18.948375303826367 L46.75 61.05162469617363 L46.75 61.05162469617363 L46.75 18.948375303826367 Z"></path><path d="M51.75 33.10264729361836 L51.75 33.10264729361836 L51.75 46.89735270638164 L51.75 46.89735270638164 L51.75 33.10264729361836 Z"></path><path d="M56.75 35.706641462527976 L56.75 35.706641462527976 L56.75 44.293358537472024 L56.75 44.293358537472024 L56.75 35.706641462527976 Z"></path><path d="M61.75 10.774158764188563 L61.75 10.774158764188563 L61.75 69.22584123581143 L61.75 69.22584123581143 L61.75 10.774158764188563 Z"></path><path d="M66.75 6.0357027620974435 L66.75 6.0357027620974435 L66.75 73.96429723790256 L66.75 73.96429723790256 L66.75 6.0357027620974435 Z"></path><path d="M71.75 0 L71.75 0 L71.75 80 L71.75 80 L71.75 0 Z"></path><path d="M76.75 6.276384604221704 L76.75 6.276384604221704 L76.75 73.7236153957783 L76.75 73.7236153957783 L76.75 6.276384604221704 Z"></path><path d="M81.75 25.663937170211334 L81.75 25.663937170211334 L81.75 54.33606282978867 L81.75 54.33606282978867 L81.75 25.663937170211334 Z"></path><path d="M86.75 37.598682100489 L86.75 37.598682100489 L86.75 42.40131789951099 L86.75 42.40131789951099 L86.75 37.598682100489 Z"></path><path d="M91.75 30.561681371008678 L91.75 30.561681371008678 L91.75 49.438318628991325 L91.75 49.438318628991325 L91.75 30.561681371008678 Z"></path><path d="M96.75 35.49596708744745 L96.75 35.49596708744745 L96.75 44.50403291255255 L96.75 44.50403291255255 L96.75 35.49596708744745 Z"></path><path d="M101.75 39.692345714862604 L101.75 39.692345714862604 L101.75 40.307654285137396 L101.75 40.307654285137396 L101.75 39.692345714862604 Z"></path><path d="M106.75 22.929632479161437 L106.75 22.929632479161437 L106.75 57.07036752083856 L106.75 57.07036752083856 L106.75 22.929632479161437 Z"></path><path d="M111.75 26.213827684386956 L111.75 26.213827684386956 L111.75 53.786172315613044 L111.75 53.786172315613044 L111.75 26.213827684386956 Z"></path><path d="M116.75 27.202197155175625 L116.75 27.202197155175625 L116.75 52.797802844824375 L116.75 52.797802844824375 L116.75 27.202197155175625 Z"></path><path d="M121.75 29.548375443673145 L121.75 29.548375443673145 L121.75 50.45162455632685 L121.75 50.45162455632685 L121.75 29.548375443673145 Z"></path><path d="M126.75 31.216816824391227 L126.75 31.216816824391227 L126.75 48.78318317560877 L126.75 48.78318317560877 L126.75 31.216816824391227 Z"></path><path d="M131.75 37.152436892784884 L131.75 37.152436892784884 L131.75 42.847563107215116 L131.75 42.847563107215116 L131.75 37.152436892784884 Z"></path><path d="M136.75 38.03784492736436 L136.75 38.03784492736436 L136.75 41.96215507263564 L136.75 41.96215507263564 L136.75 38.03784492736436 Z"></path><path d="M141.75 24.683092553397856 L141.75 24.683092553397856 L141.75 55.316907446602144 L141.75 55.316907446602144 L141.75 24.683092553397856 Z"></path><path d="M146.75 23.176951228430696 L146.75 23.176951228430696 L146.75 56.823048771569304 L146.75 56.823048771569304 L146.75 23.176951228430696 Z"></path><path d="M151.75 23.268110771062283 L151.75 23.268110771062283 L151.75 56.73188922893772 L151.75 56.73188922893772 L151.75 23.268110771062283 Z"></path><path d="M156.75 22.43284356029965 L156.75 22.43284356029965 L156.75 57.567156439700355 L156.75 57.567156439700355 L156.75 22.43284356029965 Z"></path><path d="M161.75 23.956301495773275 L161.75 23.956301495773275 L161.75 56.043698504226725 L161.75 56.043698504226725 L161.75 23.956301495773275 Z"></path><path d="M166.75 27.185122599486853 L166.75 27.185122599486853 L166.75 52.81487740051315 L166.75 52.81487740051315 L166.75 27.185122599486853 Z"></path><path d="M171.75 29.30294818467113 L171.75 29.30294818467113 L171.75 50.69705181532887 L171.75 50.69705181532887 L171.75 29.30294818467113 Z"></path><path d="M176.75 34.975265090036764 L176.75 34.975265090036764 L176.75 45.024734909963236 L176.75 45.024734909963236 L176.75 34.975265090036764 Z"></path><path d="M181.75 35.37255403381741 L181.75 35.37255403381741 L181.75 44.6274459661826 L181.75 44.6274459661826 L181.75 35.37255403381741 Z"></path><path d="M186.75 14.000603744593516 L186.75 14.000603744593516 L186.75 65.99939625540648 L186.75 65.99939625540648 L186.75 14.000603744593516 Z"></path><path d="M191.75 13.430334781211723 L191.75 13.430334781211723 L191.75 66.56966521878827 L191.75 66.56966521878827 L191.75 13.430334781211723 Z"></path><path d="M196.75 9.228237303841482 L196.75 9.228237303841482 L196.75 70.77176269615852 L196.75 70.77176269615852 L196.75 9.228237303841482 Z"></path><path d="M201.75 10.60884337420407 L201.75 10.60884337420407 L201.75 69.39115662579593 L201.75 69.39115662579593 L201.75 10.60884337420407 Z"></path><path d="M206.75 30.348870618103668 L206.75 30.348870618103668 L206.75 49.65112938189633 L206.75 49.65112938189633 L206.75 30.348870618103668 Z"></path><path d="M211.75 38.47884426343804 L211.75 38.47884426343804 L211.75 41.521155736561965 L211.75 41.521155736561965 L211.75 38.47884426343804 Z"></path><path d="M216.75 29.724578546620396 L216.75 29.724578546620396 L216.75 50.27542145337961 L216.75 50.27542145337961 L216.75 29.724578546620396 Z"></path><path d="M221.75 29.74284000006181 L221.75 29.74284000006181 L221.75 50.25715999993818 L221.75 50.25715999993818 L221.75 29.74284000006181 Z"></path><path d="M226.75 36.96817072244431 L226.75 36.96817072244431 L226.75 43.03182927755569 L226.75 43.03182927755569 L226.75 36.96817072244431 Z"></path><path d="M231.75 31.184831554412536 L231.75 31.184831554412536 L231.75 48.81516844558746 L231.75 48.81516844558746 L231.75 31.184831554412536 Z"></path><path d="M236.75 28.370485062448438 L236.75 28.370485062448438 L236.75 51.62951493755156 L236.75 51.62951493755156 L236.75 28.370485062448438 Z"></path><path d="M241.75 31.213073592108582 L241.75 31.213073592108582 L241.75 48.786926407891414 L241.75 48.786926407891414 L241.75 31.213073592108582 Z"></path><path d="M246.75 32.404612169147306 L246.75 32.404612169147306 L246.75 47.5953878308527 L246.75 47.5953878308527 L246.75 32.404612169147306 Z"></path><path d="M251.75 31.3982103875376 L251.75 31.3982103875376 L251.75 48.6017896124624 L251.75 48.6017896124624 L251.75 31.3982103875376 Z"></path><path d="M256.75 29.92625847994554 L256.75 29.92625847994554 L256.75 50.073741520054455 L256.75 50.073741520054455 L256.75 29.92625847994554 Z"></path><path d="M261.75 32.45876314300109 L261.75 32.45876314300109 L261.75 47.541236856998914 L261.75 47.541236856998914 L261.75 32.45876314300109 Z"></path><path d="M266.75 31.908108983392253 L266.75 31.908108983392253 L266.75 48.09189101660775 L266.75 48.09189101660775 L266.75 31.908108983392253 Z"></path><path d="M271.75 33.31920664380137 L271.75 33.31920664380137 L271.75 46.68079335619863 L271.75 46.68079335619863 L271.75 33.31920664380137 Z"></path><path d="M276.75 31.931047667234644 L276.75 31.931047667234644 L276.75 48.068952332765356 L276.75 48.068952332765356 L276.75 31.931047667234644 Z"></path><path d="M281.75 21.00914904086169 L281.75 21.00914904086169 L281.75 58.990850959138314 L281.75 58.990850959138314 L281.75 21.00914904086169 Z"></path><path d="M286.75 22.482280424951266 L286.75 22.482280424951266 L286.75 57.51771957504873 L286.75 57.51771957504873 L286.75 22.482280424951266 Z"></path><path d="M291.75 21.75520906314641 L291.75 21.75520906314641 L291.75 58.24479093685359 L291.75 58.24479093685359 L291.75 21.75520906314641 Z"></path><path d="M296.75 30.741479285008797 L296.75 30.741479285008797 L296.75 49.25852071499121 L296.75 49.25852071499121 L296.75 30.741479285008797 Z"></path><path d="M301.75 31.558374183689278 L301.75 31.558374183689278 L301.75 48.44162581631072 L301.75 48.44162581631072 L301.75 31.558374183689278 Z"></path><path d="M306.75 32.948806110452196 L306.75 32.948806110452196 L306.75 47.0511938895478 L306.75 47.0511938895478 L306.75 32.948806110452196 Z"></path><path d="M311.75 27.52605377776424 L311.75 27.52605377776424 L311.75 52.47394622223575 L311.75 52.47394622223575 L311.75 27.52605377776424 Z"></path><path d="M316.75 28.712310249630654 L316.75 28.712310249630654 L316.75 51.28768975036935 L316.75 51.28768975036935 L316.75 28.712310249630654 Z"></path><path d="M321.75 25.745393758646927 L321.75 25.745393758646927 L321.75 54.25460624135307 L321.75 54.25460624135307 L321.75 25.745393758646927 Z"></path><path d="M326.75 19.559344201373996 L326.75 19.559344201373996 L326.75 60.440655798626004 L326.75 60.440655798626004 L326.75 19.559344201373996 Z"></path><path d="M331.75 16.85049080282536 L331.75 16.85049080282536 L331.75 63.14950919717464 L331.75 63.14950919717464 L331.75 16.85049080282536 Z"></path><path d="M336.75 18.532873021232287 L336.75 18.532873021232287 L336.75 61.46712697876771 L336.75 61.46712697876771 L336.75 18.532873021232287 Z"></path><path d="M341.75 24.292546976214112 L341.75 24.292546976214112 L341.75 55.70745302378589 L341.75 55.70745302378589 L341.75 24.292546976214112 Z"></path><path d="M346.75 25.742759254643424 L346.75 25.742759254643424 L346.75 54.25724074535658 L346.75 54.25724074535658 L346.75 25.742759254643424 Z"></path><path d="M351.75 33.192327078716126 L351.75 33.192327078716126 L351.75 46.80767292128388 L351.75 46.80767292128388 L351.75 33.192327078716126 Z"></path><path d="M356.75 35.46417360011845 L356.75 35.46417360011845 L356.75 44.53582639988155 L356.75 44.53582639988155 L356.75 35.46417360011845 Z"></path><path d="M361.75 30.96987942415696 L361.75 30.96987942415696 L361.75 49.03012057584304 L361.75 49.03012057584304 L361.75 30.96987942415696 Z"></path><path d="M366.75 31.609070053876522 L366.75 31.609070053876522 L366.75 48.39092994612348 L366.75 48.39092994612348 L366.75 31.609070053876522 Z"></path><path d="M371.75 36.53107827084218 L371.75 36.53107827084218 L371.75 43.46892172915782 L371.75 43.46892172915782 L371.75 36.53107827084218 Z"></path><path d="M376.75 27.047490342146826 L376.75 27.047490342146826 L376.75 52.95250965785317 L376.75 52.95250965785317 L376.75 27.047490342146826 Z"></path><path d="M381.75 29.91890812336071 L381.75 29.91890812336071 L381.75 50.08109187663929 L381.75 50.08109187663929 L381.75 29.91890812336071 Z"></path><path d="M386.75 31.084006804237653 L386.75 31.084006804237653 L386.75 48.91599319576234 L386.75 48.91599319576234 L386.75 31.084006804237653 Z"></path><path d="M391.75 32.20711356885779 L391.75 32.20711356885779 L391.75 47.79288643114221 L391.75 47.79288643114221 L391.75 32.20711356885779 Z"></path><path d="M396.75 33.24093906624285 L396.75 33.24093906624285 L396.75 46.75906093375715 L396.75 46.75906093375715 L396.75 33.24093906624285 Z"></path><path d="M401.75 33.2934186186799 L401.75 33.2934186186799 L401.75 46.70658138132009 L401.75 46.70658138132009 L401.75 33.2934186186799 Z"></path><path d="M406.75 33.40676522475213 L406.75 33.40676522475213 L406.75 46.59323477524787 L406.75 46.59323477524787 L406.75 33.40676522475213 Z"></path><path d="M411.75 34.351447560302866 L411.75 34.351447560302866 L411.75 45.648552439697134 L411.75 45.648552439697134 L411.75 34.351447560302866 Z"></path><path d="M416.75 34.16766374166246 L416.75 34.16766374166246 L416.75 45.832336258337534 L416.75 45.832336258337534 L416.75 34.16766374166246 Z"></path><path d="M421.75 35.2488195237645 L421.75 35.2488195237645 L421.75 44.751180476235504 L421.75 44.751180476235504 L421.75 35.2488195237645 Z"></path><path d="M426.75 35.59368657786948 L426.75 35.59368657786948 L426.75 44.40631342213053 L426.75 44.40631342213053 L426.75 35.59368657786948 Z"></path><path d="M431.75 36.016392548876084 L431.75 36.016392548876084 L431.75 43.983607451123916 L431.75 43.983607451123916 L431.75 36.016392548876084 Z"></path><path d="M436.75 37.083275816495636 L436.75 37.083275816495636 L436.75 42.916724183504364 L436.75 42.916724183504364 L436.75 37.083275816495636 Z"></path><path d="M441.75 37.346811664762626 L441.75 37.346811664762626 L441.75 42.653188335237374 L441.75 42.653188335237374 L441.75 37.346811664762626 Z"></path><path d="M446.75 38.051638848606544 L446.75 38.051638848606544 L446.75 41.948361151393456 L446.75 41.948361151393456 L446.75 38.051638848606544 Z"></path><path d="M451.75 38.20040773523544 L451.75 38.20040773523544 L451.75 41.79959226476456 L451.75 41.79959226476456 L451.75 38.20040773523544 Z"></path><path d="M456.75 38.7910558621636 L456.75 38.7910558621636 L456.75 41.20894413783639 L456.75 41.20894413783639 L456.75 38.7910558621636 Z"></path><path d="M461.75 38.99272563809991 L461.75 38.99272563809991 L461.75 41.00727436190009 L461.75 41.00727436190009 L461.75 38.99272563809991 Z"></path><path d="M466.75 38.34962387957038 L466.75 38.34962387957038 L466.75 41.65037612042962 L466.75 41.65037612042962 L466.75 38.34962387957038 Z"></path><path d="M471.75 38.65338349393324 L471.75 38.65338349393324 L471.75 41.34661650606676 L471.75 41.34661650606676 L471.75 38.65338349393324 Z"></path><path d="M476.75 39.8127308540545 L476.75 39.8127308540545 L476.75 40.1872691459455 L476.75 40.1872691459455 L476.75 39.8127308540545 Z"></path><path d="M481.75 39.87753892719041 L481.75 39.87753892719041 L481.75 40.1224610728096 L481.75 40.1224610728096 L481.75 39.87753892719041 Z"></path><path d="M486.75 39.73659576317261 L486.75 39.73659576317261 L486.75 40.26340423682739 L486.75 40.26340423682739 L486.75 39.73659576317261 Z"></path><path d="M491.75 39.613885407756165 L491.75 39.613885407756165 L491.75 40.38611459224384 L491.75 40.38611459224384 L491.75 39.613885407756165 Z"></path><path d="M496.75 39.68555084468013 L496.75 39.68555084468013 L496.75 40.31444915531987 L496.75 40.31444915531987 L496.75 39.68555084468013 Z"></path></svg>